<?xml version="1.0" encoding="UTF-8" standalone="no"?>
<svg width="34px" height="34px" viewBox="0 0 34 34" version="1.1" xmlns="http://www.w3.org/2000/svg" xmlns:xlink="http://www.w3.org/1999/xlink">
    <!-- Generator: Sketch 3.6.1 (26313) - http://www.bohemiancoding.com/sketch -->
    <title>ArrowRight</title>
    <desc>Created with Sketch.</desc>
    <defs></defs>
    <g id="Page-1" stroke="none" stroke-width="1" fill="none" fill-rule="evenodd">
        <g id="ArrowRight" fill="#979FF7">
            <path d="M19.3178772,13.2386759 L3.00881632,13.2386759 C1.8993777,13.2386759 1,14.1253822 1,15.2367772 L1,19.2405745 C1,20.3440954 1.89900352,21.2386759 3.00881632,21.2386759 L19.1908843,21.2386759 L12.9964715,27.9444246 C12.2472574,28.7554847 12.2911255,30.0145468 13.1133637,30.7740866 L15.3083425,32.8016909 C16.1221144,33.5534099 17.3875335,33.5070705 18.1337184,32.6992895 L31.1269933,18.633447 C31.8736334,17.8251733 31.8731782,16.5142098 31.1269933,15.7064288 L18.1337184,1.64058636 C17.3870783,0.832312598 16.1305807,0.778645209 15.3083425,1.53818496 L13.1133637,3.56578931 C12.2995918,4.31750834 12.2463402,5.58339824 12.9964715,6.39545129 L19.3178772,13.2386759 Z" id="Combined-Shape"></path>
        </g>
    </g>
</svg>