<?xml version="1.0" encoding="UTF-8" standalone="no"?>
<svg width="34px" height="34px" viewBox="0 0 34 34" version="1.1" xmlns="http://www.w3.org/2000/svg" xmlns:xlink="http://www.w3.org/1999/xlink">
    <!-- Generator: Sketch 3.6.1 (26313) - http://www.bohemiancoding.com/sketch -->
    <title>ArrowLeft</title>
    <desc>Created with Sketch.</desc>
    <defs></defs>
    <g id="Page-1" stroke="none" stroke-width="1" fill="none" fill-rule="evenodd">
        <g id="ArrowLeft" fill="#979FF7">
            <path d="M13.3689255,13.2386759 L29.6779864,13.2386759 C30.787425,13.2386759 31.6868027,14.1253822 31.6868027,15.2367772 L31.6868027,19.2405745 C31.6868027,20.3440954 30.7877992,21.2386759 29.6779864,21.2386759 L13.4959184,21.2386759 L19.6903312,27.9444246 C20.4395453,28.7554847 20.3956772,30.0145468 19.573439,30.7740866 L17.3784602,32.8016909 C16.5646883,33.5534099 15.2992692,33.5070705 14.5530843,32.6992895 L1.55980945,18.633447 C0.813169272,17.8251733 0.813624465,16.5142098 1.55980945,15.7064288 L14.5530843,1.64058636 C15.2997244,0.832312598 16.556222,0.778645209 17.3784602,1.53818496 L19.573439,3.56578931 C20.3872109,4.31750834 20.4404625,5.58339824 19.6903312,6.39545129 L13.3689255,13.2386759 L13.3689255,13.2386759 Z" id="Combined-Shape"></path>
        </g>
    </g>
</svg>