<?xml version="1.0" encoding="UTF-8" standalone="no"?>
<svg width="317px" height="147px" viewBox="0 0 317 147" version="1.1" xmlns="http://www.w3.org/2000/svg" xmlns:xlink="http://www.w3.org/1999/xlink">
    <!-- Generator: Sketch 3.6.1 (26313) - http://www.bohemiancoding.com/sketch -->
    <title>AwwAppsGradient</title>
    <desc>Created with Sketch.</desc>
    <defs>
        <linearGradient x1="100%" y1="50%" x2="0%" y2="50%" id="linearGradient-1">
            <stop stop-color="#F3C3FD" offset="0%"></stop>
            <stop stop-color="#6BC1FF" offset="100%"></stop>
        </linearGradient>
    </defs>
    <g id="Page-1" stroke="none" stroke-width="1" fill="none" fill-rule="evenodd">
        <g id="AwwAppsGradient" fill="url(#linearGradient-1)">
            <path d="M278.818702,66.3857043 L267.285002,87.6977261 L255.752793,66.3857043 C255.214504,65.3916145 254.573328,64.4892637 253.863562,63.6696284 C252.751197,62.3010631 251.382363,61.1174796 249.761531,60.2241523 C247.581535,59.0240258 245.213659,58.4720879 242.869642,58.4991584 C240.524133,58.4720879 238.156258,59.0240258 235.977752,60.2241523 C234.35543,61.1174796 232.988086,62.3010631 231.87423,63.6696284 C231.165955,64.4892637 230.52478,65.3916145 229.986491,66.3857043 L218.496033,87.6180185 L207.007065,66.3857043 C206.467285,65.3916145 205.827601,64.4892637 205.117835,63.6696284 C204.003979,62.3010631 202.636635,61.1174796 201.015804,60.2241523 C198.835808,59.0240258 196.467932,58.4720879 194.123914,58.4991584 C191.778406,58.4720879 189.41053,59.0240258 187.232025,60.2241523 C185.611194,61.1159757 184.24385,62.2995592 183.131485,63.6666206 C182.420228,64.4877598 181.779053,65.3901106 181.240764,66.3857043 L169.829334,87.4706345 L158.419395,66.3857043 C157.881106,65.3916145 157.239931,64.4907677 156.531656,63.6711324 C155.4178,62.3010631 154.050456,61.1174796 152.428134,60.2241523 C150.249629,59.0240258 147.881753,58.4720879 145.536244,58.4991584 C143.190735,58.4720879 140.82286,59.0240258 138.644355,60.2241523 C137.022032,61.1174796 135.653198,62.3010631 134.539342,63.6711324 C133.831067,64.4907677 133.191382,65.3916145 132.653093,66.3857043 L121.356479,87.2615899 L87.0535985,23.8759585 C84.302509,18.7912118 79.0806579,15.926248 73.7991625,16.0014439 C68.5191582,15.926248 63.297307,18.7912118 60.5462175,23.8759585 L13.8477779,110.166261 C9.93809947,117.391083 12.4386833,126.438654 19.4051278,130.273644 C26.3715723,134.108635 35.2704895,131.336914 39.1801679,124.112092 L73.7991625,60.1414368 L108.418157,124.112092 C109.455966,126.029588 110.851641,127.622237 112.462035,128.871993 C113.100228,129.389341 113.778681,129.866083 114.518269,130.273644 C116.611781,131.427149 118.881244,131.971568 121.135795,131.989615 C123.831714,131.971568 126.099685,131.427149 128.193197,130.273644 C128.934277,129.866083 129.611238,129.389341 130.249431,128.871993 C131.859825,127.622237 133.2555,126.029588 134.293309,124.112092 L145.536244,103.336969 L156.779179,124.112092 C159.018819,128.250875 162.895694,130.918825 167.108066,131.730941 C167.829761,131.846743 168.135438,131.894868 168.444097,131.924946 C169.340251,131.977583 169.584793,131.992623 169.829334,131.992623 C170.780659,131.953521 170.99836,131.947505 171.214571,131.924946 C171.52323,131.894868 171.828906,131.846743 172.134583,131.797113 C176.764465,130.918825 180.641339,128.249371 182.88098,124.112092 L194.123914,103.336969 L205.366849,124.112092 C207.8898,128.774238 212.491351,131.568518 217.310604,131.942993 C217.768373,131.974576 218.132203,131.992623 218.496033,131.989615 C218.861353,131.992623 219.225183,131.974576 219.589013,131.947505 C224.500714,131.568518 229.103756,128.774238 231.626707,124.112092 L242.869642,103.336969 L254.112577,124.112092 C256.848755,129.169769 262.031838,132.034732 267.285002,131.988111 C272.538166,132.034732 277.72274,129.169769 280.458918,124.112092 L304.152583,80.3315358 C308.062262,73.1082177 305.560187,64.0591432 298.593742,60.2241523 C291.627298,56.3891615 282.728381,59.1623862 278.818702,66.3857043 Z" id="Imported-Layers"></path>
        </g>
    </g>
</svg>