<?xml version="1.0" encoding="UTF-8" standalone="no"?>
<svg width="192px" height="84px" viewBox="0 0 192 84" version="1.1" xmlns="http://www.w3.org/2000/svg" xmlns:xlink="http://www.w3.org/1999/xlink" xmlns:sketch="http://www.bohemiancoding.com/sketch/ns">
    <title>Slice 1</title>
    <description>Created with Sketch (http://www.bohemiancoding.com/sketch)</description>
    <defs></defs>
    <g id="Page 1" stroke="none" stroke-width="1" fill="none" fill-rule="evenodd">
        <path d="M-40,-38 L-40,128 L230,128 L230,-38 L-40,-38 Z M-40,-38" id="Rectangle 10" stroke="#979797" fill="#6874F4"></path>
        <path d="M7.87569344,81.8265044 C1.86789315,79.0250211 -0.728398604,71.8836203 2.07376373,65.8743638 L28.6847831,8.80684859 C29.7395278,5.93624488 31.8848794,3.46605861 34.8756934,2.07141914 C36.526351,1.3017049 38.2625884,0.939756695 39.970889,0.944356583 C41.6791848,0.939752359 43.4154331,1.30170029 45.0661005,2.07141914 C48.0569145,3.46605861 50.2022661,5.93624488 51.2570108,8.80684859 L67.2687429,43.1441189 L72.1240075,32.7319704 C73.1599811,29.8012352 75.3279473,27.2718273 78.3697308,25.8534204 C80.0224809,25.0827304 81.7608467,24.7204523 83.4709006,24.7252566 C85.180951,24.7204531 86.9193148,25.0827312 88.5720631,25.8534204 C91.6138466,27.2718273 93.7818129,29.8012352 94.8177864,32.7319704 L99.470897,42.7105981 L104.124008,32.7319704 C105.159981,29.8012352 107.327947,27.2718273 110.369731,25.8534204 C112.022479,25.0827312 113.760843,24.7204531 115.470895,24.7252566 C117.180947,24.7204523 118.919313,25.0827304 120.572063,25.8534204 C123.613847,27.2718273 125.781813,29.8012352 126.817786,32.7319704 L131.470897,42.7105981 L136.124008,32.7319704 C137.159981,29.8012352 139.327947,27.2718273 142.369731,25.8534204 C144.022479,25.0827312 145.760843,24.7204531 147.470895,24.7252566 C149.180947,24.7204523 150.919313,25.0827304 152.572063,25.8534204 C155.613847,27.2718273 157.781813,29.8012352 158.817786,32.7319704 L163.470897,42.7105981 L168.62877,31.6495029 C171.42832,25.6458487 178.565583,23.0525529 184.572063,25.8534204 C190.579863,28.6549037 193.178915,35.7903857 190.380157,41.7923412 L174.817786,75.1659532 C173.781813,78.0966884 171.613847,80.6260962 168.572063,82.0445032 C166.919315,82.8151923 165.180951,83.1774705 163.470901,83.1726669 C161.760847,83.1774713 160.022481,82.8151932 158.369731,82.0445032 C155.327947,80.6260962 153.159981,78.0966884 152.124008,75.1659532 L147.470897,65.1873254 L142.817786,75.1659532 C141.781813,78.0966884 139.613847,80.6260962 136.572063,82.0445032 C134.919313,82.8151932 133.180947,83.1774713 131.470895,83.1726669 C129.760843,83.1774705 128.022479,82.8151923 126.369731,82.0445032 C123.327947,80.6260962 121.159981,78.0966884 120.124008,75.1659532 L115.470897,65.1873254 L110.817786,75.1659532 C109.781813,78.0966884 107.613847,80.6260962 104.572063,82.0445032 C102.919315,82.8151923 101.180951,83.1774705 99.4709006,83.1726669 C97.7608467,83.1774713 96.0224809,82.8151932 94.3697308,82.0445032 C91.3279473,80.6260962 89.1599811,78.0966884 88.1240075,75.1659532 L83.470897,65.1873254 L78.3130235,76.2484206 C75.5134736,82.2520749 68.3762105,84.8453706 62.3697308,82.0445032 C62.225795,81.9773848 62.0838158,81.9077787 61.9438218,81.8357608 C59.4649954,80.6866911 57.3625493,78.6890561 56.1166433,76.0172021 L39.970897,41.3925373 L23.8251506,76.0172021 C21.0218296,82.0289435 13.8821731,84.6273719 7.87569344,81.8265044 Z M7.87569344,81.8265044" id="AwwApps Logo" stroke="#FFFFFF" fill="#FFFFFF"></path>
    </g>
</svg>