<?xml version="1.0" encoding="UTF-8" standalone="no"?>
<svg width="2720px" height="1360px" viewBox="0 0 2720 1360" version="1.1" xmlns="http://www.w3.org/2000/svg" xmlns:xlink="http://www.w3.org/1999/xlink" xmlns:sketch="http://www.bohemiancoding.com/sketch/ns">
    <title>AppIcon_TravelRadar copy 2 1 3</title>
    <description>Created with Sketch (http://www.bohemiancoding.com/sketch)</description>
    <defs>
        <rect id="path-1" x="854" y="214" width="1024" height="1024" rx="300"></rect>
    </defs>
    <g id="Page-1" stroke="none" stroke-width="1" fill="none" fill-rule="evenodd" sketch:type="MSPage">
        <g id="AppIcon_TravelRadar-copy-2-1-3" sketch:type="MSArtboardGroup">
            <mask id="mask-2" sketch:name="rect4108" fill="white">
                <use xlink:href="#path-1"></use>
            </mask>
            <use id="rect4108" stroke="#46DFBD" stroke-width="2" sketch:type="MSShapeGroup" xlink:href="#path-1"></use>
            <path d="M1368.81238,1043.27839 C1545.03283,1043.27839 1687.88772,900.432226 1687.88772,724.22253 C1687.88772,548.012834 1545.03283,405.166667 1368.81238,405.166667 C1192.59193,405.166667 1049.73704,548.012834 1049.73704,724.22253 C1049.73704,900.432226 1192.59193,1043.27839 1368.81238,1043.27839 Z" id="Oval" stroke="#48E0BE" stroke-width="2" sketch:type="MSShapeGroup" mask="url(#mask-2)"></path>
            <path d="M1368.79623,974.885929 C1507.24888,974.885929 1619.48691,862.654749 1619.48691,724.210557 C1619.48691,585.766365 1507.24888,473.535185 1368.79623,473.535185 C1230.34359,473.535185 1118.10556,585.766365 1118.10556,724.210557 C1118.10556,862.654749 1230.34359,974.885929 1368.79623,974.885929 Z" id="Oval" stroke="#48E0BE" stroke-width="2" sketch:type="MSShapeGroup" mask="url(#mask-2)"></path>
            <path d="M1368.82989,1117.4547 C1586.01212,1117.4547 1762.07309,941.404487 1762.07309,724.235515 C1762.07309,507.066544 1586.01212,331.016327 1368.82989,331.016327 C1151.64766,331.016327 975.586698,507.066544 975.586698,724.235515 C975.586698,941.404487 1151.64766,1117.4547 1368.82989,1117.4547 Z" id="Oval" stroke="#48E0BE" stroke-width="2" sketch:type="MSShapeGroup" mask="url(#mask-2)"></path>
            <path d="M1254.71107,810.285251 C1302.82504,873.985633 1369,929 1369,929 C1369,929 1443.4745,867.62012 1492.46805,799.457727 C1519.7476,761.50499 1535,721.449507 1535,688.715952 C1535,597.193554 1460.67927,523 1369,523 C1277.32073,523 1203,597.193554 1203,688.715952 C1203,724.58133 1223.70643,769.23673 1254.71107,810.285251 Z" id="Oval-13" stroke="#48E0BE" stroke-width="2" sketch:type="MSShapeGroup" mask="url(#mask-2)"></path>
            <path d="M1368.74788,720.081816 C1394.10322,720.081816 1414.65779,699.528504 1414.65779,674.174705 C1414.65779,648.820905 1394.10322,628.267593 1368.74788,628.267593 C1343.39253,628.267593 1322.83796,648.820905 1322.83796,674.174705 C1322.83796,699.528504 1343.39253,720.081816 1368.74788,720.081816 Z" id="Oval" stroke="#48E0BE" stroke-width="2" sketch:type="MSShapeGroup" mask="url(#mask-2)"></path>
            <path d="M1776.5,405 C1863.48485,405 1934,334.484852 1934,247.5 C1934,160.515148 1863.48485,90 1776.5,90 C1689.51515,90 1619,160.515148 1619,247.5 C1619,334.484852 1689.51515,405 1776.5,405 Z" id="Oval-7" fill="#6FD8EB" sketch:type="MSShapeGroup"></path>
            <path d="M1732.52344,203.956757 L1713.75,203.956757 L1722.75,188.628632 L1748.90625,188.628632 L1748.90625,297.191132 L1732.52344,297.191132 L1732.52344,203.956757 Z M1773.9375,289.316132 C1773.9375,286.691119 1774.89843,284.417704 1776.82031,282.49582 C1778.7422,280.573935 1781.03905,279.613007 1783.71094,279.613007 C1786.38283,279.613007 1788.67968,280.573935 1790.60156,282.49582 C1792.52345,284.417704 1793.48438,286.714556 1793.48438,289.386445 C1793.48438,292.105208 1792.52345,294.425497 1790.60156,296.347382 C1788.72655,298.222391 1786.4297,299.159882 1783.71094,299.159882 C1780.9453,299.159882 1778.62501,298.222391 1776.75,296.347382 C1774.87499,294.472373 1773.9375,292.128646 1773.9375,289.316132 Z M1821.04688,203.956757 L1802.27344,203.956757 L1811.27344,188.628632 L1837.42969,188.628632 L1837.42969,297.191132 L1821.04688,297.191132 L1821.04688,203.956757 Z" id="1.1" fill="#FFFFFF" sketch:type="MSShapeGroup"></path>
        </g>
    </g>
</svg>