<?xml version="1.0" encoding="UTF-8" standalone="no"?>
<svg width="2720px" height="1360px" viewBox="0 0 2720 1360" version="1.1" xmlns="http://www.w3.org/2000/svg" xmlns:xlink="http://www.w3.org/1999/xlink">
    <!-- Generator: Sketch 3.6.1 (26313) - http://www.bohemiancoding.com/sketch -->
    <title>post_pausing_launch-here_travel_radar</title>
    <desc>Created with Sketch.</desc>
    <defs>
        <rect id="path-1" x="0" y="0" width="1024" height="1024" rx="300"></rect>
        <rect id="path-3" x="0" y="0" width="1024" height="1024" rx="300"></rect>
        <rect id="path-5" x="0" y="0" width="1024" height="1024" rx="300"></rect>
        <rect id="path-7" x="0" y="0" width="1024" height="1024" rx="300"></rect>
        <rect id="path-9" x="0" y="0" width="1024" height="1024" rx="300"></rect>
        <rect id="path-11" x="0" y="0" width="1024" height="1024" rx="300"></rect>
        <rect id="path-13" x="0" y="0" width="1024" height="1024" rx="300"></rect>
    </defs>
    <g id="Page-1" stroke="none" stroke-width="1" fill="none" fill-rule="evenodd">
        <g id="post_pausing_launch-here_travel_radar">
            <g transform="translate(250.000000, 106.000000)" id="Page-1">
                <g>
                    <g id="post_pausing_launch-here_travel_radar">
                        <g id="rect4108" transform="translate(0.000000, 124.000000)" stroke="#46DFBD" stroke-width="2">
                            <rect id="path-1" x="0" y="0" width="1024" height="1024" rx="300"></rect>
                        </g>
                        <g id="Oval-Clipped" transform="translate(0.000000, 124.000000)">
                            <mask id="mask-2" fill="white">
                                <use xlink:href="#path-1"></use>
                            </mask>
                            <g id="path-1"></g>
                            <path d="M514.81238,829.27839 C691.03283,829.27839 833.88772,686.432226 833.88772,510.22253 C833.88772,334.012834 691.03283,191.166667 514.81238,191.166667 C338.591925,191.166667 195.737037,334.012834 195.737037,510.22253 C195.737037,686.432226 338.591925,829.27839 514.81238,829.27839 L514.81238,829.27839 Z" id="Oval" stroke="#48E0BE" stroke-width="2" mask="url(#mask-2)"></path>
                        </g>
                        <g id="Oval-Clipped" transform="translate(0.000000, 124.000000)">
                            <mask id="mask-4" fill="white">
                                <use xlink:href="#path-3"></use>
                            </mask>
                            <g id="path-1"></g>
                            <path d="M514.796232,760.885929 C653.248876,760.885929 765.48691,648.654749 765.48691,510.210557 C765.48691,371.766365 653.248876,259.535185 514.796232,259.535185 C376.343588,259.535185 264.105556,371.766365 264.105556,510.210557 C264.105556,648.654749 376.343588,760.885929 514.796232,760.885929 L514.796232,760.885929 Z" id="Oval" stroke="#48E0BE" stroke-width="2" mask="url(#mask-4)"></path>
                        </g>
                        <g id="Oval-Clipped" transform="translate(0.000000, 124.000000)">
                            <mask id="mask-6" fill="white">
                                <use xlink:href="#path-5"></use>
                            </mask>
                            <g id="path-1"></g>
                            <path d="M514.829893,903.4547 C732.01212,903.4547 908.07309,727.404487 908.07309,510.235515 C908.07309,293.066544 732.01212,117.016327 514.829893,117.016327 C297.647662,117.016327 121.586698,293.066544 121.586698,510.235515 C121.586698,727.404487 297.647662,903.4547 514.829893,903.4547 L514.829893,903.4547 Z" id="Oval" stroke="#48E0BE" stroke-width="2" mask="url(#mask-6)"></path>
                        </g>
                        <g id="Oval-13-Clipped" transform="translate(0.000000, 124.000000)">
                            <mask id="mask-8" fill="white">
                                <use xlink:href="#path-7"></use>
                            </mask>
                            <g id="path-1"></g>
                            <path d="M400.711067,596.285251 C448.825041,659.985633 515,715 515,715 C515,715 589.4745,653.62012 638.468051,585.457727 C665.747599,547.50499 681,507.449507 681,474.715952 C681,383.193554 606.679273,309 515,309 C423.320727,309 349,383.193554 349,474.715952 C349,510.58133 369.706427,555.23673 400.711067,596.285251 L400.711067,596.285251 Z" id="Oval-13" stroke="#48E0BE" stroke-width="2" mask="url(#mask-8)"></path>
                        </g>
                        <g id="Oval-Clipped" transform="translate(0.000000, 124.000000)">
                            <mask id="mask-10" fill="white">
                                <use xlink:href="#path-9"></use>
                            </mask>
                            <g id="path-1"></g>
                            <path d="M514.747878,506.081816 C540.103225,506.081816 560.657792,485.528504 560.657792,460.174705 C560.657792,434.820905 540.103225,414.267593 514.747878,414.267593 C489.392531,414.267593 468.837963,434.820905 468.837963,460.174705 C468.837963,485.528504 489.392531,506.081816 514.747878,506.081816 L514.747878,506.081816 Z" id="Oval" stroke="#48E0BE" stroke-width="2" mask="url(#mask-10)"></path>
                        </g>
                        <path d="M1080,157.5 C1080,70.515148 1009.48485,0 922.5,0 C835.51515,0 765,70.515148 765,157.5 C765,244.484852 835.51515,315 922.5,315 C1009.48485,315 1080,244.484852 1080,157.5 Z" id="Oval-7" fill="#6FD8EB"></path>
                        <path d="M871,79.234974 L904,79.234974 L904,236.016327 L871,236.016327 L871,79.234974 L871,79.234974 Z" id="Oval-7-path" fill="#FDFDFD"></path>
                        <g id="rect4108-2" transform="translate(1140.000000, 124.000000)" stroke="#46DFBD" stroke-width="2">
                            <rect id="path-3" x="0" y="0" width="1024" height="1024" rx="300"></rect>
                        </g>
                        <g id="Oval-5-Clipped" transform="translate(1140.000000, 124.000000)">
                            <mask id="mask-12" fill="white">
                                <use xlink:href="#path-11"></use>
                            </mask>
                            <g id="path-3"></g>
                            <path d="M514.81238,829.27839 C691.03283,829.27839 833.88772,686.432226 833.88772,510.22253 C833.88772,334.012834 691.03283,191.166667 514.81238,191.166667 C338.59193,191.166667 195.73704,334.012834 195.73704,510.22253 C195.73704,686.432226 338.59193,829.27839 514.81238,829.27839 L514.81238,829.27839 Z" id="Oval-5" stroke="#48E0BE" stroke-width="2" mask="url(#mask-12)"></path>
                        </g>
                        <g id="Oval-4-Clipped" transform="translate(1140.000000, 124.000000)">
                            <mask id="mask-14" fill="white">
                                <use xlink:href="#path-13"></use>
                            </mask>
                            <g id="path-3"></g>
                            <path d="M514.79623,760.885929 C653.24888,760.885929 765.48691,648.654749 765.48691,510.210557 C765.48691,371.766365 653.24888,259.535185 514.79623,259.535185 C376.34359,259.535185 264.10556,371.766365 264.10556,510.210557 C264.10556,648.654749 376.34359,760.885929 514.79623,760.885929 L514.79623,760.885929 Z" id="Oval-4" stroke="#48E0BE" stroke-width="2" mask="url(#mask-14)"></path>
                        </g>
                        <g id="Oval-3-Clipped" transform="translate(1140.000000, 124.000000)" stroke="#48E0BE" stroke-width="2">
                            <path d="M514.82989,903.4547 C732.01212,903.4547 908.07309,727.404487 908.07309,510.235515 C908.07309,293.066544 732.01212,117.016327 514.82989,117.016327 C297.64766,117.016327 121.5867,293.066544 121.5867,510.235515 C121.5867,727.404487 297.64766,903.4547 514.82989,903.4547 L514.82989,903.4547 Z" id="Oval-3"></path>
                        </g>
                        <g id="Imported-Layers-Clipped" transform="translate(1140.000000, 124.000000)" stroke="#48E0BE" stroke-width="2">
                            <path d="M520.38642,557.267593 C502.43782,557.267593 487.88738,542.717152 487.88738,524.767593 C487.88738,506.818034 502.43782,492.267593 520.38642,492.267593 C538.33598,492.267593 552.88738,506.818034 552.88738,524.767593 C552.88738,542.717152 538.33598,557.267593 520.38642,557.267593 L520.38642,557.267593 Z M477.88738,393.267593 L477.88738,376.480575 C477.88738,364.764734 487.35566,355.267593 499.03474,355.267593 L539.74096,355.267593 C551.42004,355.267593 560.88738,364.764734 560.88738,376.480575 L560.88738,393.267593 L477.88738,393.267593 L477.88738,393.267593 Z M482.64141,325.267593 C461.5574,325.267593 444.46477,342.357896 444.46477,363.439022 L444.46477,392.067593 C444.46477,392.387279 414.10193,393.021879 414.10193,393.021879 C379.74201,393.021879 351.88738,421.197164 351.88738,455.95225 L351.88738,596.337222 C351.88738,631.092307 379.74201,659.267593 414.10193,659.267593 L624.67282,659.267593 C659.03275,659.267593 686.88738,631.092307 686.88738,596.337222 L686.88738,455.95225 C686.88738,421.197164 659.03275,393.021879 624.67282,393.021879 L594.28421,393.021879 C594.29185,392.704102 594.30807,363.439022 594.30807,363.439022 C594.30807,342.357896 577.21639,325.267593 556.13144,325.267593 L482.64141,325.267593 L482.64141,325.267593 Z" id="Imported-Layers"></path>
                        </g>
                        <path d="M2062.5,315 C2149.48485,315 2220,244.484852 2220,157.5 C2220,70.515148 2149.48485,0 2062.5,0 C1975.51515,0 1905,70.515148 1905,157.5 C1905,244.484852 1975.51515,315 2062.5,315 L2062.5,315 Z" id="Oval-9" fill="#6FD8EB"></path>
                        <path d="M2011,79.234974 L2044,79.234974 L2044,236.016327 L2011,236.016327 L2011,79.234974 L2011,79.234974 Z" id="Oval-9-path" fill="#FDFDFD"></path>
                        <path d="M2081,79.234974 L2114,79.234974 L2114,236.016327 L2081,236.016327 L2081,79.234974 L2081,79.234974 Z" id="Oval-9-path" fill="#FDFDFD"></path>
                        <path d="M941,79.234974 L974,79.234974 L974,236.016327 L941,236.016327 L941,79.234974 L941,79.234974 Z" id="Oval-7-path" fill="#FDFDFD"></path>
                    </g>
                </g>
            </g>
        </g>
    </g>
</svg>