<?xml version="1.0" encoding="UTF-8" standalone="no"?>
<svg width="680px" height="340px" viewBox="0 0 680 340" version="1.1" xmlns="http://www.w3.org/2000/svg" xmlns:xlink="http://www.w3.org/1999/xlink" xmlns:sketch="http://www.bohemiancoding.com/sketch/ns">
    <title>post_ibeacons_at_home</title>
    <description>Created with Sketch (http://www.bohemiancoding.com/sketch)</description>
    <defs></defs>
    <g id="Page-1" stroke="none" stroke-width="1" fill="none" fill-rule="evenodd" sketch:type="MSPage">
        <g id="post_ibeacons_at_home" sketch:type="MSArtboardGroup">
            <g id="iPhone" sketch:type="MSLayerGroup" transform="translate(437.500000, 60.000000)">
                <g id="Group-+-8m-+-Group" transform="translate(-0.265476, 0.413158)">
                    <g id="Group" sketch:type="MSShapeGroup">
                        <rect id="Rectangle-9" stroke="#D4D4D4" fill="#FFFFFF" x="0" y="1.42108547e-14" width="106.190476" height="223" rx="15"></rect>
                        <path d="M23.0207154,31.8571429 L4.55102041,31.8571429 L4.55102041,192.659864 L101.639456,192.659864 L101.639456,31.8571429 L23.0207154,31.8571429 Z" id="Rectangle-10" stroke="#E1E1E6"></path>
                    </g>
                    <text id="8m" opacity="0.4" sketch:type="MSTextLayer" font-family="Helvetica Neue" font-size="18.1880342" font-weight="bold" sketch:alignment="middle" letter-spacing="1.03999996" fill="#FFFFFF">
                        <tspan x="41.7937987" y="178.802721">8m</tspan>
                    </text>
                    <g id="Group" transform="translate(12.136054, 69.782313)" stroke="#FFFFFF" stroke-width="3" sketch:type="MSShapeGroup">
                        <ellipse id="Oval" opacity="0.6" cx="43.2346939" cy="40.9591837" rx="28.0646259" ry="27.3061224"></ellipse>
                        <path d="M42.4761905,77.3673469 C61.746045,77.3673469 77.3673469,61.746045 77.3673469,42.4761905 C77.3673469,23.2063359 61.746045,7.58503401 42.4761905,7.58503401 C23.2063359,7.58503401 7.58503401,23.2063359 7.58503401,42.4761905 C7.58503401,61.746045 23.2063359,77.3673469 42.4761905,77.3673469 Z" id="Oval" opacity="0.3"></path>
                        <ellipse id="Oval" opacity="0.0973011364" cx="42.4761905" cy="41.7176871" rx="42.4761905" ry="41.7176871"></ellipse>
                    </g>
                </g>
                <rect id="Rectangle-2" fill="#EFEFEF" sketch:type="MSShapeGroup" x="8.21578947" y="45.8157895" width="21.1263158" height="21.1263158" rx="5"></rect>
                <rect id="Rectangle-2" fill="#29A1F6" sketch:type="MSShapeGroup" x="30.5157895" y="45.8157895" width="21.1263158" height="21.1263158" rx="5"></rect>
                <rect id="Rectangle-2" fill="#81F86E" sketch:type="MSShapeGroup" x="53.9894737" y="45.8157895" width="21.1263158" height="21.1263158" rx="5"></rect>
                <rect id="Rectangle-2" fill="#EFEFEF" sketch:type="MSShapeGroup" x="76.2894737" y="45.8157895" width="21.1263158" height="21.1263158" rx="5"></rect>
                <rect id="Rectangle-2" fill="#FA5CC4" sketch:type="MSShapeGroup" x="8.21578947" y="69.2894737" width="21.1263158" height="21.1263158" rx="5"></rect>
                <rect id="Rectangle-2" fill="#EFEFEF" sketch:type="MSShapeGroup" x="30.5157895" y="69.2894737" width="21.1263158" height="21.1263158" rx="5"></rect>
                <rect id="Rectangle-2" fill="#6CC6D7" sketch:type="MSShapeGroup" x="53.9894737" y="69.2894737" width="21.1263158" height="21.1263158" rx="5"></rect>
                <rect id="Rectangle-2" fill="#EFEFEF" sketch:type="MSShapeGroup" x="76.2894737" y="69.2894737" width="21.1263158" height="21.1263158" rx="5"></rect>
                <rect id="Rectangle-2" fill="#2D7FEE" sketch:type="MSShapeGroup" x="8.21578947" y="92.7631579" width="21.1263158" height="21.1263158" rx="5"></rect>
                <rect id="Rectangle-2" fill="#F8E23D" sketch:type="MSShapeGroup" x="30.5157895" y="92.7631579" width="21.1263158" height="21.1263158" rx="5"></rect>
                <rect id="Rectangle-2" fill="#FD9026" sketch:type="MSShapeGroup" x="53.9894737" y="92.7631579" width="21.1263158" height="21.1263158" rx="5"></rect>
                <rect id="Rectangle-2" fill="#6A7BED" sketch:type="MSShapeGroup" x="76.2894737" y="92.7631579" width="21.1263158" height="21.1263158" rx="5"></rect>
                <rect id="Rectangle-2" fill="#75CCF9" sketch:type="MSShapeGroup" x="8.21578947" y="116.236842" width="21.1263158" height="21.1263158" rx="5"></rect>
                <rect id="Rectangle-2" fill="#68DA44" sketch:type="MSShapeGroup" x="30.5157895" y="116.236842" width="21.1263158" height="21.1263158" rx="5"></rect>
                <rect id="Rectangle-2" fill="#CB77DF" sketch:type="MSShapeGroup" x="53.9894737" y="116.236842" width="21.1263158" height="21.1263158" rx="5"></rect>
                <rect id="Rectangle-2" fill="#EFEFEF" sketch:type="MSShapeGroup" x="76.2894737" y="116.236842" width="21.1263158" height="21.1263158" rx="5"></rect>
                <rect id="Rectangle-2" fill="#EFEFEF" sketch:type="MSShapeGroup" x="8.21578947" y="139.710526" width="21.1263158" height="21.1263158" rx="5"></rect>
                <rect id="Rectangle-2" fill="#08B1C0" sketch:type="MSShapeGroup" x="30.5157895" y="139.710526" width="21.1263158" height="21.1263158" rx="5"></rect>
                <rect id="Rectangle-2" fill="#FB3066" sketch:type="MSShapeGroup" x="53.9894737" y="139.710526" width="21.1263158" height="21.1263158" rx="5"></rect>
                <rect id="Rectangle-2" fill="#82F971" sketch:type="MSShapeGroup" x="76.2894737" y="139.710526" width="21.1263158" height="21.1263158" rx="5"></rect>
                <circle id="Oval-11" stroke="#D4D4D4" sketch:type="MSShapeGroup" cx="53.5" cy="12" r="2"></circle>
                <path d="M54,216 C58.6944206,216 62.5,212.194421 62.5,207.5 C62.5,202.805579 58.6944206,199 54,199 C49.3055794,199 45.5,202.805579 45.5,207.5 C45.5,212.194421 49.3055794,216 54,216 Z" id="Oval-11" stroke="#D4D4D4" sketch:type="MSShapeGroup"></path>
                <rect id="Rectangle-107" stroke="#D4D4D4" sketch:type="MSShapeGroup" x="45.5" y="19" width="17" height="3" rx="2"></rect>
            </g>
            <g id="Furtniture" sketch:type="MSLayerGroup" transform="translate(152.000000, -20.000000)">
                <g id="Rectangle-2-+-Path-8" transform="translate(418.909091, 0.000000)"></g>
                <g id="Rectangle-2-+-Path-8" transform="translate(442.181818, 0.000000)"></g>
                <g id="Rectangle-2-+-Path-8" transform="translate(466.679426, 0.000000)"></g>
                <g id="Rectangle-2-+-Path-8" transform="translate(489.952153, 0.000000)"></g>
                <g id="Rectangle-2-+-Path-8" transform="translate(418.909091, 24.444444)"></g>
                <g id="Rectangle-2-+-Path-8" transform="translate(442.181818, 24.444444)"></g>
                <g id="Rectangle-2-+-Path-8" transform="translate(466.679426, 24.444444)"></g>
                <g id="Rectangle-2-+-Path-8" transform="translate(489.952153, 24.444444)"></g>
                <g id="Rectangle-2-+-Path-8" transform="translate(418.909091, 48.888889)"></g>
                <g id="Rectangle-2-+-Path-8" transform="translate(442.181818, 48.888889)"></g>
                <g id="Rectangle-2-+-Path-8" transform="translate(466.679426, 48.888889)"></g>
                <g id="Rectangle-2-+-Path-8" transform="translate(489.952153, 48.888889)"></g>
                <g id="Rectangle-2-+-Path-8" transform="translate(418.909091, 73.333333)"></g>
                <g id="Rectangle-2-+-Path-8" transform="translate(442.181818, 75.333333)"></g>
                <g id="Rectangle-2-+-Path-8" transform="translate(466.679426, 73.333333)"></g>
                <g id="Rectangle-2-+-Path-8" transform="translate(489.952153, 73.333333)"></g>
                <g id="Rectangle-2-+-Path-8" transform="translate(418.909091, 97.777778)"></g>
                <g id="Rectangle-2-+-Path-8" transform="translate(442.181818, 97.777778)"></g>
                <g id="Rectangle-2-+-Path-8" transform="translate(466.679426, 97.777778)"></g>
                <g id="Rectangle-2-+-Path-8" transform="translate(489.952153, 97.777778)"></g>
                <g id="Rectangle-34-+-Rectangle-34" transform="translate(143.311005, 264.611111) rotate(-30.000000) translate(-143.311005, -264.611111) translate(138.411483, 260.333333)" stroke="#D4D4D4" sketch:type="MSShapeGroup">
                    <rect id="Rectangle-34" x="0" y="0" width="9.79904306" height="8.55555556"></rect>
                    <rect id="Rectangle-34" x="0" y="0" width="9.79904306" height="2.44444444"></rect>
                </g>
                <g id="Rectangle-34-+-Rectangle-34" transform="translate(162.488449, 289.778145) rotate(-225.000000) translate(-162.488449, -289.778145) translate(157.588927, 284.889256)" stroke="#D4D4D4" sketch:type="MSShapeGroup">
                    <rect id="Rectangle-34" x="3.48131943e-14" y="2.77901159e-13" width="10.3393372" height="9.36951418"></rect>
                    <rect id="Rectangle-34" x="3.48131943e-14" y="2.77901159e-13" width="10.3393372" height="2.67700405"></rect>
                </g>
                <rect id="Rectangle-34" stroke="#D4D4D4" sketch:type="MSShapeGroup" x="191.30622" y="227.333333" width="19.5980861" height="42.7777778"></rect>
                <rect id="Rectangle-34" stroke="#D4D4D4" sketch:type="MSShapeGroup" x="191.30622" y="271.333333" width="19.5980861" height="13.4444444"></rect>
                <rect id="Rectangle-57" stroke="#D4D4D4" sketch:type="MSShapeGroup" x="11.0239234" y="111.222222" width="26.9473684" height="18.3333333"></rect>
                <rect id="Rectangle-57-copy" stroke="#D4D4D4" sketch:type="MSShapeGroup" x="119.038278" y="175.777778" width="35.5215311" height="12.8713309"></rect>
                <rect id="Rectangle-57" stroke="#D4D4D4" sketch:type="MSShapeGroup" x="53.8947368" y="84.3333333" width="29.3971292" height="19.5555556"></rect>
                <rect id="Rectangle-57-copy" stroke="#D4D4D4" sketch:type="MSShapeGroup" x="0" y="174.777778" width="51.4449761" height="13.4444444"></rect>
                <rect id="Rectangle-65" stroke="#D4D4D4" sketch:type="MSShapeGroup" x="137.186603" y="107.555556" width="42.8708134" height="19.5555556"></rect>
                <g id="Sink" transform="translate(132.000000, 227.000000)" stroke="#D4D4D4" sketch:type="MSShapeGroup">
                    <rect id="Rectangle-34" x="8.86124402" y="13.5555556" width="8.57416268" height="13.4444444" rx="5"></rect>
                    <rect id="Rectangle-34" x="0.28708134" y="0.111111111" width="19.5980861" height="29.3333333"></rect>
                </g>
            </g>
            <g id="Apartment" sketch:type="MSLayerGroup" transform="translate(119.000000, 62.000000)">
                <g id="Walls" stroke="#D4D4D4" sketch:type="MSShapeGroup">
                    <rect id="Rectangle-3" x="0" y="0" width="244.554455" height="222"></rect>
                    <rect id="Rectangle-3" x="0" y="0" width="150.40099" height="107.933702"></rect>
                    <rect id="Rectangle-3" x="0" y="107.933702" width="100.267327" height="114.066298"></rect>
                    <rect id="Rectangle-3" x="165.074257" y="144.729282" width="79.480198" height="77.2707182"></rect>
                    <rect id="Rectangle-3" x="100.267327" y="144.729282" width="64.8069307" height="77.2707182"></rect>
                    <rect id="Rectangle-3" x="150.40099" y="0" width="94.1534653" height="107.933702"></rect>
                </g>
                <g id="Doors" transform="translate(97.821782, 36.795580)" sketch:type="MSShapeGroup">
                    <rect id="Rectangle-9" fill="#FFFFFF" x="0" y="78.4972376" width="4.89108911" height="22.0773481"></rect>
                    <rect id="Rectangle-9" fill="#FFFFFF" transform="translate(32.889247, 108.000625) rotate(-270.000000) translate(-32.889247, -108.000625) " x="30.4437026" y="96.9619509" width="4.89108911" height="22.0773481"></rect>
                    <rect id="Rectangle-9" fill="#FFFFFF" transform="translate(105.824460, 108.415357) rotate(-270.000000) translate(-105.824460, -108.415357) " x="103.378915" y="97.3766833" width="4.89108911" height="22.0773481"></rect>
                    <rect id="Rectangle-9" fill="#FFFFFF" transform="translate(104.688820, 71.623449) rotate(-270.000000) translate(-104.688820, -71.623449) " x="102.243276" y="60.5847749" width="4.89108911" height="22.0773481"></rect>
                    <rect id="Rectangle-9" fill="#D4D4D4" transform="translate(146.732673, 88.309392) rotate(-180.000000) translate(-146.732673, -88.309392) " x="144.287129" y="77.2707182" width="4.89108911" height="22.0773481"></rect>
                    <rect id="Rectangle-9" fill="#FFFFFF" transform="translate(32.249128, 71.150489) rotate(-270.000000) translate(-32.249128, -71.150489) " x="29.8035837" y="60.1118148" width="4.89108911" height="22.0773481"></rect>
                    <rect id="Rectangle-9" fill="#FFFFFF" transform="translate(52.404474, 18.423798) rotate(-180.000000) translate(-52.404474, -18.423798) " x="49.9589295" y="0.0390117857" width="4.89108911" height="36.7695723"></rect>
                </g>
            </g>
            <g id="Places" sketch:type="MSLayerGroup" transform="translate(119.000000, 64.000000)">
                <g id="Clothes" transform="translate(0.000000, 106.441341)" stroke="#D4D4D4" fill="#FD9026" sketch:type="MSShapeGroup">
                    <rect id="Rectangle-76" x="0" y="0" width="15.9396985" height="28.1396648"></rect>
                </g>
                <g id="Fridge" transform="translate(224.381910, 201.871508)" stroke="#D4D4D4" fill="#FA5CC4" sketch:type="MSShapeGroup">
                    <rect id="Rectangle-34" x="0" y="0" width="19.6180905" height="15.9050279"></rect>
                </g>
                <g id="Clothes" transform="translate(227.381910, 88.418994)" stroke="#D4D4D4" fill="#6CC6D7" sketch:type="MSShapeGroup">
                    <rect id="Rectangle-76" x="0" y="0" width="15.9396985" height="15.9050279"></rect>
                </g>
                <g id="Washing" transform="translate(148.135678, 160.273743)" stroke="#D4D4D4" sketch:type="MSShapeGroup">
                    <path d="M0,0 L0,20.7988827 L17.1658291,20.7988827 L17.1658291,0 L0,0 Z M6.74371859,6.11731844 C5.05078544,6.11731844 3.67839196,7.49889897 3.67839196,9.1873563 L3.67839196,12.8349901 C3.67839196,14.5305252 5.05423022,15.9050279 6.74371859,15.9050279 C8.43665175,15.9050279 9.80904523,14.5234474 9.80904523,12.8349901 L9.80904523,9.1873563 C9.80904523,7.4918212 8.43320697,6.11731844 6.74371859,6.11731844 Z" id="Rectangle-34" fill="#81F86E"></path>
                    <g id="Rectangle-34" transform="translate(12.261307, 0.000000)">
                        <rect x="0" y="0" width="4.90452261" height="20.7988827"></rect>
                    </g>
                </g>
                <g id="Bathtub" transform="translate(102.542714, 199.424581)" stroke="#D4D4D4" fill="#FF2A1A" sketch:type="MSShapeGroup">
                    <path d="M0,2.84217094e-14 L0,19.575419 L39.2361809,19.575419 L39.2361809,2.84217094e-14 L0,2.84217094e-14 Z M9.91785244,3.89385475 C6.87569976,3.89385475 4.40954774,6.36497694 4.40954774,9.39944134 C4.40954774,12.4400929 6.87294034,14.9050279 9.91785244,14.9050279 L29.3183285,14.9050279 C32.3604811,14.9050279 34.8266332,12.4339057 34.8266332,9.39944134 C34.8266332,6.35878983 32.3632406,3.89385475 29.3183285,3.89385475 L9.91785244,3.89385475 Z" id="Rectangle-34"></path>
                </g>
                <g id="EatingTable" transform="translate(165.301508, 188.189944)" stroke="#D4D4D4" fill="#29A1F6" sketch:type="MSShapeGroup">
                    <rect id="Rectangle-34" x="0" y="0" width="19.6180905" height="19.575419"></rect>
                </g>
                <g id="Bed" transform="translate(3.226131, 154.156425)" stroke="#D4D4D4" fill="#FB3066" sketch:type="MSShapeGroup">
                    <rect id="Rectangle-48" x="-7.10542736e-15" y="0" width="49.0452261" height="34.2569832"></rect>
                    <rect id="Rectangle-48" x="11.0351759" y="1.22346369" width="38.0100503" height="30.5865922"></rect>
                    <rect id="Rectangle-48" x="3.67839196" y="3.67039106" width="9.80904523" height="12.2346369"></rect>
                    <rect id="Rectangle-48" x="3.67839196" y="17.1284916" width="9.80904523" height="12.2346369"></rect>
                </g>
                <g id="Turntable" transform="translate(91.507538, 2.446927)" stroke="#D4D4D4" sketch:type="MSShapeGroup">
                    <rect id="Rectangle-57" fill="#81F86E" x="0" y="0" width="20.8442211" height="13.4581006"></rect>
                    <path d="M6.63225217,11.5355148 C9.24860354,11.5355148 11.3695751,9.38358745 11.3695751,6.72905028 C11.3695751,4.07451311 9.24860354,1.92258579 6.63225217,1.92258579 C4.0159008,1.92258579 1.89492919,4.07451311 1.89492919,6.72905028 C1.89492919,9.38358745 4.0159008,11.5355148 6.63225217,11.5355148 Z" id="Oval-11" fill="#D4D4D4"></path>
                    <rect id="Rectangle-75" fill="#81F86E" x="13.2645043" y="1.92258579" width="1.89492919" height="7.69034318"></rect>
                </g>
                <g id="Television" transform="translate(46.140704, 97.877095)" stroke="#D4D4D4" fill="#FD9026" sketch:type="MSShapeGroup">
                    <rect id="Rectangle-57-copy" x="7.10542736e-15" y="0" width="28.201005" height="3.67039106"></rect>
                </g>
                <g id="Sofa" transform="translate(32.653266, 0.000000)" stroke="#D4D4D4" fill="#75CCF9" sketch:type="MSShapeGroup">
                    <rect id="Rectangle-57" x="-1.42108547e-14" y="0" width="51.4974874" height="19.575419"></rect>
                    <rect id="Rectangle-57" x="3.67839196" y="0" width="22.0703518" height="8.56424581"></rect>
                    <rect id="Rectangle-57-copy" x="25.7487437" y="0" width="22.0703518" height="8.56424581"></rect>
                    <rect id="Rectangle-57-copy" x="46.5929648" y="0" width="4.90452261" height="15.9050279"></rect>
                    <rect id="Rectangle-57-copy-2" x="-1.42108547e-14" y="0" width="4.90452261" height="15.9050279"></rect>
                </g>
                <g id="Computer" transform="translate(181.241206, 25.692737)" stroke="#D4D4D4" fill="#FA5CC4" sketch:type="MSShapeGroup">
                    <rect id="Rectangle-65" x="2.22613065" y="9.7877095" width="19.6180905" height="3.67039106"></rect>
                    <rect id="Rectangle-65" x="7.13065327" y="1.22346369" width="9.80904523" height="6.11731844"></rect>
                    <rect id="Rectangle-65" transform="translate(2.839196, 2.446927) rotate(-16.000000) translate(-2.839196, -2.446927) " x="1" y="0" width="3.67839196" height="4.89385475"></rect>
                </g>
                <g id="Wardrobe" transform="translate(174.884422, 107.664804)" stroke="#D4D4D4" fill="#81F86E" sketch:type="MSShapeGroup">
                    <ellipse id="Oval-10" cx="3.06532663" cy="3.05865922" rx="3.06532663" ry="3.05865922"></ellipse>
                </g>
                <g id="Piano" transform="translate(79.472362, 162.720670)" sketch:type="MSShapeGroup">
                    <rect id="Rectangle-77" stroke="#D4D4D4" fill="#29A1F6" x="5.90452261" y="0" width="13.4874372" height="35.4804469"></rect>
                    <rect id="Rectangle-77" stroke="#D4D4D4" x="0" y="0" width="6.12591368" height="35.4804469"></rect>
                    <rect id="Rectangle-77-copy-2" fill="#D4D4D4" x="2.45226131" y="3.11731844" width="3.67839196" height="2.44692737"></rect>
                    <rect id="Rectangle-77-copy-3" stroke="#D4D4D4" fill="#D4D4D4" x="2.45226131" y="8" width="3.67839196" height="4.90502793"></rect>
                    <rect id="Rectangle-77-copy-2" fill="#D4D4D4" x="2.45226131" y="15.1173184" width="3.67839196" height="2.44692737"></rect>
                    <rect id="Rectangle-77-copy-3" stroke="#D4D4D4" fill="#D4D4D4" x="2.45226131" y="20" width="3.67839196" height="4.90502793"></rect>
                    <rect id="Rectangle-77-copy-2" fill="#D4D4D4" x="2.45226131" y="27.1173184" width="3.67839196" height="2.44692737"></rect>
                    <rect id="Rectangle-77-copy-2" fill="#D4D4D4" x="2.45226131" y="31.1173184" width="3.67839196" height="2.44692737"></rect>
                </g>
                <g id="Stove" transform="translate(226.060302, 168.837989)" stroke="#D4D4D4" fill="#FD9026" sketch:type="MSShapeGroup">
                    <ellipse id="Oval-6" cx="3.48392942" cy="3.48070171" rx="3.0978159" ry="3.09107781"></ellipse>
                    <ellipse id="Oval-6" cx="11.7773771" cy="3.48070171" rx="3.0978159" ry="3.09107781"></ellipse>
                    <ellipse id="Oval-6" cx="3.48392942" cy="11.7539352" rx="3.0978159" ry="3.09107781"></ellipse>
                    <ellipse id="Oval-6" cx="11.7773771" cy="11.7539352" rx="3.0978159" ry="3.09107781"></ellipse>
                </g>
                <g id="WaschingMachine" transform="translate(144.231156, 197.201117)" stroke="#D4D4D4" fill="#F8E23D" sketch:type="MSShapeGroup">
                    <rect id="Rectangle-34" x="0.0978519097" y="2.22346369" width="19.6180905" height="19.575419"></rect>
                    <rect id="Rectangle-34" x="2.90772214" y="0.191575979" width="14.3295807" height="2.44692737"></rect>
                </g>
                <g id="Chair" transform="translate(191.423408, 10.735450) rotate(-8.000000) translate(-191.423408, -10.735450) translate(182.423408, 2.235450)" stroke="#D4D4D4" fill="#F8E23D" sketch:type="MSShapeGroup">
                    <g transform="translate(-0.000000, -0.000000)" id="Rectangle-69">
                        <path d="M2.20948799,2.85661251 L2.20948799,17.5381768 L16.9230558,17.5381768 L16.9230558,11.615502 L16.9230558,2.85661251 L2.20948799,2.85661251 Z"></path>
                        <rect x="2.20948799" y="0.409685133" width="14.7135678" height="6.11731844"></rect>
                        <rect x="0.370292006" y="7.75046726" width="3.67839196" height="7.34078212"></rect>
                        <rect x="15.0838598" y="7.75046726" width="3.67839196" height="7.34078212"></rect>
                    </g>
                </g>
                <g id="Drawer" transform="translate(3.226131, 190.860335)" stroke="#D4D4D4" fill="#6A7BED" sketch:type="MSShapeGroup">
                    <rect id="Rectangle-34" x="0" y="0" width="9.80904523" height="9.7877095"></rect>
                </g>
            </g>
        </g>
    </g>
</svg>