<?xml version="1.0" encoding="utf-8"?>
<!-- Generator: Adobe Illustrator 17.0.0, SVG Export Plug-In . SVG Version: 6.00 Build 0)  -->
<!DOCTYPE svg PUBLIC "-//W3C//DTD SVG 1.1//EN" "http://www.w3.org/Graphics/SVG/1.1/DTD/svg11.dtd">
<svg version="1.1" id="Layer_1" xmlns:sketch="http://www.bohemiancoding.com/sketch/ns"
	 xmlns="http://www.w3.org/2000/svg" xmlns:xlink="http://www.w3.org/1999/xlink" x="0px" y="0px" width="680px" height="340px"
	 viewBox="0 0 680 340" enable-background="new 0 0 680 340" xml:space="preserve">
<title>post_placed_teaser</title>
<description>Created with Sketch (http://www.bohemiancoding.com/sketch)</description>
<g id="Page-1" sketch:type="MSPage">
	<g id="post_placed_teaser" sketch:type="MSArtboardGroup">
		
			<path id="Line" sketch:type="MSShapeGroup" fill="none" stroke="#50E3C2" stroke-width="0.5" stroke-linecap="round" stroke-linejoin="round" stroke-dasharray="1" d="
			M178.487,170.125h159.049"/>
		<path id="Oval-6" sketch:type="MSShapeGroup" opacity="0.1" fill="#50E3C2" enable-background="new    " d="M339.5,183
			c5.799,0,10.5-4.701,10.5-10.5s-4.701-10.5-10.5-10.5s-10.5,4.701-10.5,10.5S333.701,183,339.5,183z"/>
		<path id="Oval-6_1_" sketch:type="MSShapeGroup" opacity="0.2" fill="#50E3C2" enable-background="new    " d="M339.5,180
			c4.142,0,7.5-3.358,7.5-7.5s-3.358-7.5-7.5-7.5s-7.5,3.358-7.5,7.5S335.358,180,339.5,180z"/>
		<path id="Oval-6_2_" sketch:type="MSShapeGroup" fill="#50E3C2" d="M339.5,177c2.485,0,4.5-2.015,4.5-4.5s-2.015-4.5-4.5-4.5
			s-4.5,2.015-4.5,4.5S337.015,177,339.5,177z"/>
		<g id="Group" transform="translate(293.000000, 173.000000)" sketch:type="MSLayerGroup">
			
				<rect id="Rectangle-22" x="10" y="5" sketch:type="MSShapeGroup" fill="#FFFFFF" stroke="#4A4A4A" stroke-width="0.5" width="80" height="12">
			</rect>
			
				<rect id="Rectangle-10" x="89" y="3" sketch:type="MSShapeGroup" fill="#FFFFFF" stroke="#4A4A4A" stroke-width="0.5" width="6" height="35">
			</rect>
			
				<rect id="Rectangle-10_1_" x="5" y="3" sketch:type="MSShapeGroup" fill="#FFFFFF" stroke="#4A4A4A" stroke-width="0.5" width="6" height="35">
			</rect>
			<path id="Rectangle-10_2_" sketch:type="MSShapeGroup" fill="#FFFFFF" stroke="#4A4A4A" stroke-width="0.5" d="M75.031,0H0v6h100
				V0H75.031z"/>
		</g>
		<path id="Path" sketch:type="MSShapeGroup" fill="none" stroke="#50E3C2" stroke-width="0.5" d="M340.5,332
			c90.299,0,163.5-73.201,163.5-163.5S430.799,5,340.5,5S177,78.201,177,168.5S250.201,332,340.5,332z"/>
		<rect id="Rectangle-4" x="397" y="97" sketch:type="MSShapeGroup" fill="#EDFCF8" width="211" height="248">
		</rect>
		<path id="Oval-8" sketch:type="MSShapeGroup" fill="#FFFFFF" d="M255.5,183c6.351,0,11.5-5.149,11.5-11.5s-5.149-11.5-11.5-11.5
			c-6.351,0-11.5,5.149-11.5,11.5S249.149,183,255.5,183z"/>
		<path id="Rectangle-3" sketch:type="MSShapeGroup" fill="#FCFCBD" d="M531.879,235L530,250h29.121L561,235H531.879z"/>
		<path id="Line_1_" sketch:type="MSShapeGroup" fill="none" stroke="#5D534C" stroke-linecap="square" d="M319.5,152.5v17"/>
		<g id="Phone" transform="translate(376.000000, 12.000000)" sketch:type="MSLayerGroup">
			<path id="Fill-4" sketch:type="MSShapeGroup" fill="#FFFFFF" stroke="#4A4A4A" stroke-width="0.5" d="M33.116-0.222
				c-18.095,0-32.76,14.667-32.76,32.76v299.241h248.982V32.538c0-18.093-14.665-32.76-32.76-32.76H33.116L33.116-0.222z
				 M145.596,51.773c0,1.809-1.466,3.274-3.274,3.274h-36.834c-1.809,0-3.274-1.466-3.274-3.274v-0.996
				c0-1.809,1.466-3.274,3.274-3.274h36.834c1.809,0,3.274,1.466,3.274,3.274V51.773L145.596,51.773z M128.076,26.718
				c1.626,1.626,1.626,4.263,0,5.887c-1.624,1.626-4.259,1.626-5.887,0c-1.624-1.624-1.624-4.261,0-5.887
				C123.817,25.094,126.452,25.094,128.076,26.718L128.076,26.718L128.076,26.718z M230.476,331.778H21.105V86.544h209.371V331.778
				L230.476,331.778z"/>
			<g id="Group_1_" transform="translate(65.000000, 122.000000)" sketch:type="MSShapeGroup">
				<path id="Shape" fill="#FFFFFF" d="M-0.012,38.699c0.035-1.906,0.365-3.593,0.989-5.06c0.623-1.467,1.448-2.786,2.476-3.96
					c1.025-1.174,2.181-2.246,3.465-3.218c1.283-0.972,2.603-1.906,3.96-2.806c1.356-0.897,2.703-1.814,4.042-2.75
					c1.339-0.935,2.539-1.934,3.603-2.997c1.064-1.063,1.861-2.153,2.393-3.272c0.531-1.118,0.798-2.447,0.798-3.987
					c0-1.246-0.229-2.355-0.688-3.328c-0.459-0.971-1.082-1.796-1.87-2.475c-0.789-0.678-1.705-1.191-2.75-1.54
					c-1.045-0.348-2.154-0.522-3.327-0.522c-1.577,0-2.925,0.294-4.043,0.88C7.917,4.251,7.01,5.039,6.313,6.029
					s-1.201,2.127-1.512,3.41c-0.312,1.283-0.45,2.64-0.413,4.069H0.923c-0.037-1.979,0.192-3.803,0.688-5.472
					c0.495-1.668,1.256-3.107,2.282-4.318c1.026-1.21,2.318-2.153,3.878-2.832c1.558-0.678,3.382-1.018,5.473-1.018
					c1.686,0,3.253,0.229,4.702,0.688c1.448,0.459,2.713,1.137,3.795,2.035c1.081,0.898,1.925,2.026,2.53,3.383
					c0.604,1.356,0.907,2.934,0.907,4.729c0,1.614-0.267,3.08-0.798,4.4c-0.531,1.319-1.246,2.529-2.145,3.63
					c-0.899,1.1-1.925,2.117-3.08,3.053c-1.155,0.935-2.374,1.806-3.657,2.612c-0.917,0.624-1.999,1.312-3.245,2.062
					c-1.247,0.752-2.447,1.586-3.603,2.502c-1.155,0.917-2.173,1.917-3.053,2.998c-0.88,1.082-1.43,2.265-1.649,3.547h21.395v3.19
					H-0.012V38.699L-0.012,38.699z"/>
				<path id="Shape_1_" fill="#FFFFFF" d="M50.726,1.712c1.741,1.229,3.098,2.796,4.069,4.702c0.972,1.907,1.632,4.034,1.98,6.38
					c0.348,2.348,0.522,4.64,0.522,6.875c0,2.274-0.175,4.584-0.522,6.931c-0.349,2.347-1.009,4.474-1.98,6.38
					c-0.971,1.906-2.328,3.465-4.069,4.675c-1.742,1.21-4.024,1.814-6.848,1.814c-2.787,0-5.06-0.604-6.82-1.814
					c-1.76-1.21-3.126-2.769-4.098-4.675c-0.972-1.906-1.632-4.033-1.979-6.38c-0.349-2.347-0.522-4.639-0.522-6.875
					c0-2.273,0.174-4.583,0.522-6.931c0.348-2.346,1.008-4.473,1.979-6.38c0.972-1.906,2.338-3.474,4.098-4.702
					c1.761-1.229,4.033-1.843,6.82-1.843C46.701-0.131,48.983,0.483,50.726,1.712L50.726,1.712z M38.598,4.489
					c-1.319,1.137-2.319,2.549-2.997,4.235c-0.679,1.687-1.128,3.52-1.348,5.5c-0.22,1.979-0.33,3.795-0.33,5.444
					c0,1.688,0.11,3.512,0.33,5.473c0.22,1.962,0.669,3.795,1.348,5.5c0.678,1.705,1.678,3.127,2.997,4.263
					c1.32,1.137,3.08,1.705,5.28,1.705c2.2,0,3.96-0.568,5.28-1.705c1.319-1.136,2.318-2.558,2.997-4.263
					c0.678-1.705,1.128-3.538,1.348-5.5c0.22-1.961,0.33-3.785,0.33-5.473c0-1.649-0.11-3.465-0.33-5.444
					c-0.22-1.98-0.67-3.813-1.348-5.5c-0.679-1.687-1.678-3.099-2.997-4.235c-1.32-1.136-3.08-1.705-5.28-1.705
					C41.678,2.784,39.918,3.353,38.598,4.489L38.598,4.489z"/>
				<path id="Shape_2_" fill="#FFFFFF" d="M96.596,1.712c1.741,1.229,3.098,2.796,4.069,4.702c0.972,1.907,1.632,4.034,1.98,6.38
					c0.348,2.348,0.522,4.64,0.522,6.875c0,2.274-0.175,4.584-0.522,6.931c-0.349,2.347-1.009,4.474-1.98,6.38
					c-0.971,1.906-2.328,3.465-4.069,4.675c-1.742,1.21-4.024,1.814-6.848,1.814c-2.787,0-5.06-0.604-6.82-1.814
					c-1.76-1.21-3.126-2.769-4.098-4.675c-0.972-1.906-1.632-4.033-1.979-6.38c-0.349-2.347-0.522-4.639-0.522-6.875
					c0-2.273,0.174-4.583,0.522-6.931c0.348-2.346,1.008-4.473,1.979-6.38c0.972-1.906,2.338-3.474,4.098-4.702
					c1.761-1.229,4.033-1.843,6.82-1.843C92.571-0.131,94.854,0.483,96.596,1.712L96.596,1.712z M84.468,4.489
					c-1.319,1.137-2.319,2.549-2.997,4.235c-0.679,1.687-1.128,3.52-1.348,5.5c-0.22,1.979-0.33,3.795-0.33,5.444
					c0,1.688,0.11,3.512,0.33,5.473c0.22,1.962,0.669,3.795,1.348,5.5c0.678,1.705,1.678,3.127,2.997,4.263
					c1.32,1.137,3.08,1.705,5.28,1.705c2.2,0,3.96-0.568,5.28-1.705c1.319-1.136,2.318-2.558,2.997-4.263
					c0.678-1.705,1.128-3.538,1.348-5.5c0.22-1.961,0.33-3.785,0.33-5.473c0-1.649-0.11-3.465-0.33-5.444
					c-0.22-1.98-0.67-3.813-1.348-5.5c-0.679-1.687-1.678-3.099-2.997-4.235c-1.32-1.136-3.08-1.705-5.28-1.705
					C87.548,2.784,85.788,3.353,84.468,4.489L84.468,4.489z"/>
				<path id="Shape_3_" fill="#FFFFFF" d="M127.176,1.712c1.741,1.229,3.098,2.796,4.069,4.702c0.972,1.907,1.632,4.034,1.98,6.38
					c0.348,2.348,0.522,4.64,0.522,6.875c0,2.274-0.175,4.584-0.522,6.931c-0.349,2.347-1.009,4.474-1.98,6.38
					c-0.971,1.906-2.328,3.465-4.069,4.675c-1.742,1.21-4.024,1.814-6.848,1.814c-2.787,0-5.06-0.604-6.82-1.814
					c-1.76-1.21-3.126-2.769-4.098-4.675c-0.972-1.906-1.632-4.033-1.979-6.38c-0.349-2.347-0.522-4.639-0.522-6.875
					c0-2.273,0.174-4.583,0.522-6.931c0.348-2.346,1.008-4.473,1.979-6.38c0.972-1.906,2.338-3.474,4.098-4.702
					c1.761-1.229,4.033-1.843,6.82-1.843C123.151-0.131,125.434,0.483,127.176,1.712L127.176,1.712z M115.048,4.489
					c-1.319,1.137-2.319,2.549-2.997,4.235c-0.679,1.687-1.128,3.52-1.348,5.5c-0.22,1.979-0.33,3.795-0.33,5.444
					c0,1.688,0.11,3.512,0.33,5.473c0.22,1.962,0.669,3.795,1.348,5.5c0.678,1.705,1.678,3.127,2.997,4.263
					c1.32,1.137,3.08,1.705,5.28,1.705c2.2,0,3.96-0.568,5.28-1.705c1.319-1.136,2.318-2.558,2.997-4.263
					c0.678-1.705,1.128-3.538,1.348-5.5c0.22-1.961,0.33-3.785,0.33-5.473c0-1.649-0.11-3.465-0.33-5.444
					c-0.22-1.98-0.67-3.813-1.348-5.5c-0.679-1.687-1.678-3.099-2.997-4.235c-1.32-1.136-3.08-1.705-5.28-1.705
					C118.128,2.784,116.368,3.353,115.048,4.489L115.048,4.489z"/>
			</g>
			<path id="Rectangle-2" sketch:type="MSShapeGroup" fill="#50E3C2" d="M43.356,208.778h6c1.657,0,3,1.343,3,3v6
				c0,1.657-1.343,3-3,3h-6c-1.657,0-3-1.343-3-3v-6C40.356,210.121,41.699,208.778,43.356,208.778L43.356,208.778z"/>
			<path id="Oval-1" sketch:type="MSShapeGroup" fill="#FFFFFF" d="M132.356,132.778c1.105,0,2-0.895,2-2s-0.895-2-2-2s-2,0.895-2,2
				S131.252,132.778,132.356,132.778L132.356,132.778z M132.356,155.778c1.105,0,2-0.895,2-2s-0.895-2-2-2s-2,0.895-2,2
				S131.252,155.778,132.356,155.778L132.356,155.778z"/>
		</g>
		<path id="Path-126" sketch:type="MSShapeGroup" fill="#5D534C" d="M313.047,114.146c0,0-0.448,3.374,0.682,5.868
			c1.131,2.494,2.701,4.119,2.701,6.459c0,2.34-2.023,6.355-2.023,6.355s1.449-3.363,0-5.916c-1.449-2.552-3.379-3.773-3.379-6.462
			C311.028,117.763,313.047,114.146,313.047,114.146z"/>
		<path id="Rectangle-8" sketch:type="MSShapeGroup" fill="#FFFFFF" stroke="#4F4C4D" stroke-width="0.5" d="M357,161h9
			c0.552,0,1,0.448,1,1v12c0,0.552-0.448,1-1,1h-9c-0.552,0-1-0.448-1-1v-12C356,161.448,356.448,161,357,161z"/>
		<path id="Rectangle-2_1_" sketch:type="MSShapeGroup" fill="#50E3C2" d="M314,191c0,4.971,4.023,9,9,9H356c4.971,0,9-4.028,9-9
			c0-4.971-4.023-9-9-9H323C318.03,182,314,186.028,314,191z"/>
		<path id="_x31_m" sketch:type="MSShapeGroup" fill="#50E3C2" d="M250.84,176v-10.635h-0.975c-0.07,0.4-0.2,0.73-0.39,0.99
			c-0.19,0.26-0.423,0.465-0.698,0.615c-0.275,0.15-0.582,0.253-0.923,0.307c-0.34,0.055-0.69,0.083-1.05,0.083v1.02h2.76V176
			H250.84z M253.653,168.245V176h1.275v-4.83c0-0.15,0.038-0.337,0.113-0.562s0.195-0.442,0.36-0.652
			c0.165-0.21,0.38-0.39,0.645-0.54c0.265-0.15,0.582-0.225,0.952-0.225c0.29,0,0.527,0.042,0.713,0.128
			c0.185,0.085,0.332,0.205,0.442,0.36c0.11,0.155,0.188,0.337,0.233,0.548c0.045,0.21,0.068,0.44,0.068,0.69V176h1.275v-4.83
			c0-0.6,0.18-1.08,0.54-1.44c0.36-0.36,0.855-0.54,1.485-0.54c0.31,0,0.562,0.045,0.758,0.135s0.348,0.213,0.457,0.368
			c0.11,0.155,0.185,0.337,0.225,0.548c0.04,0.21,0.06,0.435,0.06,0.675V176h1.275v-5.685c0-0.4-0.062-0.743-0.188-1.027
			c-0.125-0.285-0.3-0.518-0.525-0.698c-0.225-0.18-0.495-0.312-0.81-0.397c-0.315-0.085-0.667-0.128-1.057-0.128
			c-0.51,0-0.978,0.115-1.402,0.345c-0.425,0.23-0.768,0.555-1.027,0.975c-0.16-0.48-0.435-0.82-0.825-1.02
			c-0.39-0.2-0.825-0.3-1.305-0.3c-1.09,0-1.925,0.44-2.505,1.32h-0.03v-1.14H253.653z"/>
		<g id="can" transform="translate(303.000000, 136.000000)" sketch:type="MSLayerGroup">
			<g id="Rectangle-27-_x2B_-Path-9-_x2B_-Rectangle-27" transform="translate(1.000000, 0.000000)" sketch:type="MSShapeGroup">
				<path id="Rectangle-27" fill="#FFFFFF" stroke="#231F20" stroke-width="0.5" d="M14.752,13.036H6.843c-2.396,0-7.187,1-7.187,1
					v2h22v-2C21.657,14.036,17.053,13.036,14.752,13.036L14.752,13.036z"/>
				<path id="Path-9" fill="#FFFFFF" stroke="#231F20" stroke-width="0.5" d="M17.843,1.604c0,0,5.681-2.045,6.264,3.292
					c0.583,5.336-9.614,5.899-9.614,5.899l-0.573-1.41c0,0,9.334-0.966,8.834-4.489s-4.911-1.75-4.911-1.75V1.604L17.843,1.604z"/>
				<path id="Rectangle-27_1_" fill="#FFFFFF" stroke="#231F20" stroke-width="0.5" d="M0.657,0.036l6,14h8l6-14H0.657L0.657,0.036z
					"/>
			</g>
			<g id="Rectangle-29-_x2B_-Rectangle-29" transform="translate(0.000000, 16.000000)" sketch:type="MSShapeGroup">
				<path id="Shape_4_" fill="#FFFFFF" stroke="#4A4A4A" stroke-width="0.5" d="M27.758,4.35C25.93-1.127,20.935,0.572,19.882,1
					c-0.142-0.606-0.225-0.957-0.225-0.957h-15c0,0-3.631-0.295-3.25,0.718S3.018,2.725,3.657,3.3
					c0.405,0.365-3.366,9.059-3.772,15.32c-0.134,2.059,0.772,3.422,0.772,3.422h22c0,0,1-2.402,1-3.603
					c0-0.409-0.31-2.017-0.758-4.124C24.856,12.96,29.379,9.206,27.758,4.35L27.758,4.35z M22.26,11.38
					c-0.608-2.744-1.299-5.747-1.816-7.972c1.321-0.669,3.984-1.541,4.825,1.724C26.017,8.035,23.561,10.375,22.26,11.38
					L22.26,11.38z"/>
				<path id="Rectangle-29_1_" fill="#5D534C" d="M1.418,15.042c0,0-0.601,2.723-0.601,4.042c0,0.681,0.411,1.958,0.411,1.958
					h20.785c0,0,0.643-1.68,0.643-2.644c0-1.036-0.643-3.356-0.643-3.356H1.418L1.418,15.042z"/>
			</g>
		</g>
		<g id="Group_2_" transform="translate(321.000000, 187.000000)" sketch:type="MSLayerGroup">
			<path id="Slide-to-start-0:30s" sketch:type="MSShapeGroup" fill="#50E3C2" d="M120.401,54.445h0.99
				c-0.015-0.433-0.097-0.805-0.247-1.117c-0.15-0.312-0.356-0.57-0.616-0.775c-0.26-0.205-0.563-0.356-0.907-0.451
				c-0.345-0.095-0.719-0.143-1.122-0.143c-0.359,0-0.709,0.046-1.05,0.138s-0.645,0.231-0.913,0.418s-0.482,0.425-0.644,0.715
				c-0.161,0.29-0.242,0.632-0.242,1.028c0,0.359,0.071,0.658,0.215,0.896c0.143,0.238,0.334,0.433,0.572,0.583
				s0.508,0.271,0.809,0.363c0.301,0.092,0.607,0.172,0.918,0.242c0.312,0.07,0.618,0.138,0.919,0.204
				c0.301,0.066,0.57,0.152,0.809,0.258c0.238,0.106,0.429,0.244,0.572,0.412c0.143,0.169,0.215,0.389,0.215,0.66
				c0,0.286-0.059,0.521-0.176,0.704s-0.271,0.328-0.462,0.434c-0.191,0.106-0.405,0.181-0.644,0.226
				c-0.238,0.044-0.475,0.066-0.71,0.066c-0.293,0-0.579-0.037-0.858-0.11c-0.279-0.073-0.522-0.187-0.732-0.341
				c-0.209-0.154-0.378-0.35-0.506-0.588c-0.128-0.238-0.192-0.522-0.192-0.853h-0.99c0,0.477,0.086,0.889,0.258,1.237
				c0.172,0.348,0.407,0.634,0.704,0.858c0.297,0.224,0.642,0.39,1.034,0.5c0.392,0.11,0.808,0.165,1.248,0.165
				c0.359,0,0.72-0.042,1.083-0.126c0.363-0.084,0.691-0.22,0.985-0.407c0.293-0.187,0.534-0.429,0.72-0.726
				c0.187-0.297,0.281-0.654,0.281-1.072c0-0.389-0.072-0.711-0.215-0.968s-0.334-0.469-0.572-0.638s-0.508-0.302-0.809-0.402
				c-0.301-0.099-0.607-0.185-0.919-0.258s-0.618-0.141-0.918-0.203s-0.57-0.141-0.809-0.236s-0.429-0.218-0.572-0.368
				c-0.143-0.15-0.215-0.347-0.215-0.589c0-0.257,0.049-0.471,0.148-0.644c0.099-0.172,0.231-0.31,0.396-0.412
				s0.354-0.176,0.566-0.22c0.213-0.044,0.429-0.066,0.649-0.066c0.543,0,0.988,0.126,1.336,0.379
				C120.139,53.472,120.342,53.88,120.401,54.445z M122.887,52.146V60h0.935v-7.854H122.887z M126.264,53.29v-1.144h-0.935v1.144
				H126.264z M125.329,54.313V60h0.935v-5.687H125.329z M132.798,60v-7.854h-0.935v2.926h-0.022c-0.103-0.169-0.229-0.31-0.38-0.424
				c-0.15-0.114-0.31-0.205-0.479-0.275s-0.337-0.119-0.506-0.149c-0.169-0.029-0.326-0.044-0.473-0.044
				c-0.433,0-0.812,0.079-1.139,0.236c-0.326,0.158-0.598,0.37-0.814,0.638c-0.216,0.268-0.378,0.581-0.484,0.94
				c-0.106,0.359-0.16,0.741-0.16,1.144s0.055,0.785,0.165,1.144c0.11,0.359,0.273,0.675,0.49,0.946
				c0.216,0.271,0.488,0.488,0.814,0.649c0.326,0.161,0.71,0.242,1.15,0.242c0.396,0,0.759-0.07,1.089-0.209
				c0.33-0.139,0.572-0.367,0.726-0.682h0.022V60H132.798z M128.398,57.206c0-0.279,0.029-0.55,0.088-0.814
				c0.059-0.264,0.154-0.499,0.286-0.704s0.308-0.37,0.528-0.495s0.488-0.187,0.803-0.187c0.323,0,0.598,0.06,0.825,0.181
				c0.227,0.121,0.413,0.28,0.556,0.479c0.143,0.198,0.247,0.427,0.313,0.688c0.066,0.26,0.099,0.53,0.099,0.808
				c0,0.264-0.031,0.524-0.093,0.781s-0.163,0.486-0.303,0.688s-0.319,0.365-0.539,0.489s-0.488,0.187-0.803,0.187
				c-0.301,0-0.563-0.059-0.786-0.176c-0.224-0.117-0.407-0.275-0.55-0.473s-0.249-0.424-0.319-0.677
				C128.433,57.729,128.398,57.47,128.398,57.206z M139.09,58.196h-0.924c-0.081,0.374-0.247,0.653-0.501,0.836
				c-0.253,0.183-0.577,0.275-0.973,0.275c-0.308,0-0.576-0.051-0.803-0.154c-0.227-0.103-0.414-0.24-0.561-0.412
				c-0.147-0.172-0.253-0.37-0.319-0.594c-0.066-0.224-0.095-0.46-0.088-0.709h4.257c0.015-0.345-0.016-0.708-0.093-1.089
				s-0.216-0.733-0.418-1.056c-0.202-0.323-0.469-0.588-0.803-0.798c-0.334-0.209-0.753-0.313-1.259-0.313
				c-0.389,0-0.746,0.073-1.073,0.22c-0.326,0.147-0.609,0.352-0.847,0.616c-0.238,0.264-0.423,0.576-0.555,0.935
				c-0.132,0.359-0.198,0.755-0.198,1.188c0.015,0.433,0.079,0.832,0.193,1.199c0.114,0.367,0.284,0.682,0.511,0.946
				c0.227,0.264,0.508,0.469,0.842,0.616s0.728,0.22,1.182,0.22c0.645,0,1.181-0.161,1.606-0.484
				C138.69,59.314,138.965,58.834,139.09,58.196z M138.188,56.612h-3.267c0.015-0.22,0.062-0.427,0.143-0.621
				c0.081-0.194,0.191-0.365,0.33-0.512c0.139-0.147,0.306-0.262,0.501-0.347s0.412-0.126,0.654-0.126
				c0.235,0,0.449,0.042,0.644,0.126s0.363,0.198,0.506,0.341s0.257,0.313,0.341,0.512S138.173,56.392,138.188,56.612z
				 M144.502,54.313v-1.705h-0.935v1.705h-0.968v0.825h0.968v3.619c0,0.264,0.026,0.477,0.077,0.638s0.13,0.286,0.236,0.374
				c0.106,0.088,0.246,0.148,0.418,0.181c0.172,0.033,0.38,0.049,0.622,0.049h0.715v-0.825h-0.429c-0.147,0-0.266-0.006-0.357-0.016
				c-0.092-0.011-0.163-0.035-0.214-0.071s-0.086-0.088-0.105-0.154c-0.018-0.066-0.027-0.154-0.027-0.264v-3.531h1.133v-0.825
				H144.502z M146.361,57.162c0,0.418,0.059,0.807,0.176,1.166c0.117,0.359,0.293,0.673,0.528,0.941
				c0.235,0.268,0.524,0.477,0.869,0.627c0.345,0.15,0.741,0.225,1.188,0.225c0.455,0,0.853-0.075,1.194-0.225
				s0.629-0.359,0.863-0.627c0.235-0.268,0.411-0.581,0.528-0.941c0.117-0.359,0.176-0.748,0.176-1.166
				c0-0.418-0.059-0.808-0.176-1.171c-0.117-0.363-0.293-0.678-0.528-0.946c-0.235-0.268-0.522-0.478-0.863-0.632
				c-0.341-0.154-0.739-0.231-1.194-0.231c-0.447,0-0.843,0.077-1.188,0.231c-0.345,0.154-0.634,0.365-0.869,0.632
				c-0.235,0.268-0.411,0.583-0.528,0.946C146.42,56.354,146.361,56.744,146.361,57.162z M147.351,57.162
				c0-0.345,0.046-0.651,0.137-0.918c0.092-0.268,0.218-0.493,0.38-0.676s0.35-0.323,0.566-0.418
				c0.216-0.095,0.446-0.143,0.688-0.143c0.242,0,0.471,0.048,0.688,0.143c0.216,0.095,0.405,0.235,0.567,0.418
				c0.161,0.183,0.288,0.409,0.379,0.676c0.092,0.268,0.138,0.574,0.138,0.918c0,0.345-0.046,0.651-0.138,0.919
				c-0.092,0.268-0.218,0.491-0.379,0.671c-0.161,0.18-0.35,0.317-0.567,0.413c-0.216,0.095-0.445,0.143-0.688,0.143
				c-0.242,0-0.471-0.048-0.688-0.143c-0.216-0.095-0.405-0.233-0.566-0.413s-0.288-0.403-0.38-0.671
				C147.397,57.813,147.351,57.507,147.351,57.162z M156.613,58.207h-0.935c0.015,0.352,0.088,0.651,0.22,0.896
				c0.132,0.246,0.308,0.444,0.528,0.594c0.22,0.15,0.473,0.259,0.759,0.325c0.286,0.066,0.587,0.099,0.902,0.099
				c0.286,0,0.574-0.027,0.863-0.082s0.55-0.152,0.781-0.292c0.231-0.139,0.418-0.323,0.561-0.55
				c0.143-0.227,0.215-0.513,0.215-0.858c0-0.271-0.053-0.499-0.16-0.682c-0.106-0.183-0.246-0.336-0.418-0.457
				c-0.172-0.121-0.37-0.218-0.594-0.292c-0.224-0.073-0.453-0.136-0.688-0.187c-0.22-0.051-0.44-0.101-0.66-0.148
				c-0.22-0.048-0.418-0.106-0.594-0.176c-0.176-0.07-0.321-0.158-0.434-0.264s-0.171-0.24-0.171-0.402
				c0-0.147,0.037-0.266,0.11-0.357s0.169-0.165,0.286-0.22c0.117-0.055,0.247-0.093,0.391-0.115
				c0.143-0.022,0.284-0.033,0.423-0.033c0.154,0,0.306,0.016,0.457,0.049c0.15,0.033,0.288,0.086,0.412,0.16
				s0.227,0.17,0.308,0.292c0.081,0.121,0.128,0.273,0.143,0.457h0.935c-0.022-0.345-0.095-0.632-0.22-0.864
				c-0.125-0.231-0.291-0.414-0.501-0.55c-0.209-0.136-0.449-0.231-0.72-0.286s-0.568-0.083-0.891-0.083
				c-0.249,0-0.501,0.031-0.753,0.094c-0.253,0.062-0.48,0.158-0.682,0.286c-0.202,0.128-0.367,0.295-0.495,0.5
				c-0.128,0.205-0.193,0.451-0.193,0.737c0,0.367,0.092,0.653,0.275,0.858c0.183,0.205,0.412,0.365,0.688,0.479
				c0.275,0.114,0.574,0.202,0.896,0.264c0.323,0.062,0.621,0.132,0.896,0.209c0.275,0.077,0.504,0.178,0.688,0.303
				s0.275,0.308,0.275,0.55c0,0.176-0.044,0.321-0.132,0.435c-0.088,0.114-0.2,0.2-0.335,0.258s-0.284,0.099-0.445,0.121
				c-0.161,0.022-0.315,0.033-0.462,0.033c-0.191,0-0.376-0.018-0.555-0.055s-0.341-0.097-0.484-0.181
				c-0.143-0.084-0.258-0.198-0.346-0.341S156.62,58.412,156.613,58.207z M162.839,54.313v-1.705h-0.935v1.705h-0.968v0.825h0.968
				v3.619c0,0.264,0.026,0.477,0.077,0.638s0.13,0.286,0.236,0.374s0.246,0.148,0.418,0.181S163.015,60,163.257,60h0.715v-0.825
				h-0.429c-0.147,0-0.266-0.006-0.357-0.016c-0.092-0.011-0.163-0.035-0.215-0.071c-0.051-0.037-0.086-0.088-0.104-0.154
				c-0.018-0.066-0.027-0.154-0.027-0.264v-3.531h1.133v-0.825H162.839z M170.044,59.978v-0.726
				c-0.11,0.037-0.205,0.055-0.286,0.055c-0.147,0-0.233-0.051-0.258-0.154s-0.038-0.264-0.038-0.484v-2.926
				c0-0.33-0.062-0.598-0.187-0.803c-0.125-0.205-0.29-0.365-0.495-0.479c-0.205-0.114-0.435-0.189-0.688-0.225
				c-0.253-0.037-0.508-0.055-0.765-0.055c-0.315,0-0.616,0.033-0.902,0.099c-0.286,0.066-0.539,0.174-0.759,0.325
				s-0.396,0.347-0.528,0.589s-0.205,0.539-0.22,0.891h0.935c0.022-0.418,0.165-0.702,0.429-0.853
				c0.264-0.15,0.594-0.225,0.99-0.225c0.147,0,0.295,0.011,0.445,0.033c0.15,0.022,0.286,0.066,0.407,0.132
				c0.121,0.066,0.22,0.161,0.297,0.286c0.077,0.125,0.116,0.29,0.116,0.495c0,0.176-0.051,0.31-0.154,0.402
				c-0.103,0.092-0.242,0.161-0.418,0.209c-0.176,0.048-0.38,0.084-0.61,0.11c-0.231,0.026-0.475,0.064-0.732,0.115
				c-0.242,0.044-0.479,0.099-0.71,0.165c-0.231,0.066-0.436,0.163-0.616,0.292s-0.324,0.295-0.434,0.5s-0.165,0.469-0.165,0.792
				c0,0.286,0.049,0.53,0.148,0.732s0.235,0.367,0.407,0.495s0.372,0.22,0.6,0.275c0.227,0.055,0.469,0.082,0.726,0.082
				c0.396,0,0.764-0.068,1.105-0.203s0.64-0.357,0.896-0.666c0,0.308,0.072,0.53,0.215,0.666s0.335,0.203,0.577,0.203
				C169.659,60.121,169.883,60.073,170.044,59.978z M168.526,57.063v0.957c0,0.132-0.033,0.273-0.099,0.424
				c-0.066,0.15-0.169,0.29-0.308,0.418c-0.139,0.128-0.319,0.235-0.539,0.319s-0.484,0.126-0.792,0.126
				c-0.139,0-0.277-0.015-0.412-0.044c-0.136-0.029-0.253-0.077-0.352-0.143c-0.099-0.066-0.18-0.152-0.242-0.258
				c-0.062-0.106-0.093-0.236-0.093-0.39c0-0.235,0.053-0.42,0.16-0.556c0.106-0.136,0.244-0.24,0.412-0.313
				c0.169-0.073,0.359-0.126,0.572-0.16s0.423-0.062,0.632-0.088c0.209-0.026,0.409-0.059,0.6-0.099
				C168.255,57.215,168.409,57.151,168.526,57.063z M170.88,54.313V60h0.935v-2.53c0-0.367,0.037-0.691,0.11-0.974
				c0.073-0.282,0.191-0.522,0.352-0.72c0.161-0.198,0.374-0.348,0.638-0.451c0.264-0.103,0.583-0.154,0.957-0.154v-0.99
				c-0.506-0.015-0.924,0.088-1.254,0.308s-0.609,0.561-0.836,1.023h-0.022v-1.199H170.88z M175.874,54.313v-1.705h-0.935v1.705
				h-0.968v0.825h0.968v3.619c0,0.264,0.026,0.477,0.077,0.638c0.051,0.161,0.13,0.286,0.236,0.374s0.246,0.148,0.418,0.181
				S176.05,60,176.292,60h0.715v-0.825h-0.429c-0.147,0-0.266-0.006-0.357-0.016c-0.092-0.011-0.163-0.035-0.215-0.071
				s-0.086-0.088-0.104-0.154c-0.018-0.066-0.028-0.154-0.028-0.264v-3.531h1.133v-0.825H175.874z M180.857,56.172
				c0,0.286,0.007,0.583,0.022,0.891s0.051,0.609,0.11,0.902s0.143,0.57,0.253,0.831c0.11,0.26,0.26,0.489,0.451,0.688
				c0.191,0.198,0.431,0.354,0.721,0.467s0.636,0.17,1.04,0.17c0.411,0,0.759-0.057,1.045-0.17s0.524-0.27,0.715-0.467
				c0.191-0.198,0.341-0.427,0.451-0.688c0.11-0.26,0.194-0.537,0.253-0.831c0.059-0.293,0.095-0.594,0.11-0.902
				c0.015-0.308,0.022-0.605,0.022-0.891c0-0.286-0.007-0.583-0.022-0.891c-0.015-0.308-0.051-0.609-0.11-0.902
				c-0.059-0.293-0.143-0.572-0.253-0.836c-0.11-0.264-0.26-0.495-0.451-0.693c-0.191-0.198-0.431-0.356-0.721-0.473
				c-0.29-0.117-0.636-0.176-1.039-0.176s-0.75,0.059-1.04,0.176c-0.29,0.117-0.53,0.275-0.721,0.473
				c-0.191,0.198-0.341,0.429-0.451,0.693c-0.11,0.264-0.194,0.543-0.253,0.836s-0.095,0.594-0.11,0.902
				C180.864,55.589,180.857,55.886,180.857,56.172z M181.847,56.161c0-0.191,0.002-0.401,0.005-0.632
				c0.004-0.231,0.022-0.462,0.055-0.693c0.033-0.231,0.081-0.456,0.143-0.676c0.062-0.22,0.154-0.412,0.275-0.577
				s0.273-0.299,0.456-0.402s0.407-0.154,0.671-0.154c0.264,0,0.488,0.051,0.671,0.154s0.336,0.236,0.457,0.402
				s0.213,0.357,0.275,0.577s0.11,0.445,0.143,0.676c0.033,0.231,0.051,0.462,0.055,0.693c0.004,0.231,0.006,0.442,0.006,0.632
				c0,0.293-0.009,0.621-0.028,0.985c-0.018,0.363-0.077,0.704-0.176,1.023c-0.099,0.319-0.258,0.589-0.479,0.809
				s-0.528,0.33-0.924,0.33c-0.396,0-0.704-0.11-0.924-0.33s-0.38-0.489-0.479-0.809c-0.099-0.319-0.158-0.66-0.176-1.023
				C181.856,56.782,181.847,56.454,181.847,56.161z M188.645,55.534v-1.221h-1.221v1.221H188.645z M187.424,58.779V60h1.221v-1.221
				H187.424z M191.967,55.545v0.792c0.176-0.022,0.363-0.033,0.561-0.033c0.235,0,0.453,0.031,0.654,0.093
				c0.202,0.062,0.376,0.158,0.523,0.286s0.264,0.286,0.352,0.473c0.088,0.187,0.132,0.401,0.132,0.643
				c0,0.235-0.046,0.445-0.137,0.632c-0.092,0.187-0.214,0.345-0.368,0.473s-0.334,0.227-0.539,0.297s-0.422,0.104-0.649,0.104
				c-0.535,0-0.942-0.159-1.221-0.479c-0.279-0.319-0.425-0.731-0.44-1.237h-0.935c-0.007,0.403,0.049,0.763,0.171,1.078
				s0.295,0.581,0.522,0.798c0.227,0.216,0.502,0.38,0.825,0.49c0.323,0.11,0.682,0.165,1.078,0.165c0.367,0,0.713-0.049,1.04-0.148
				s0.611-0.247,0.852-0.445c0.242-0.198,0.435-0.445,0.577-0.743c0.143-0.297,0.215-0.64,0.215-1.028
				c0-0.469-0.115-0.876-0.346-1.221s-0.585-0.568-1.062-0.671v-0.022c0.308-0.139,0.565-0.345,0.77-0.616
				c0.205-0.271,0.308-0.583,0.308-0.935c0-0.359-0.061-0.671-0.182-0.935c-0.121-0.264-0.288-0.48-0.5-0.649
				c-0.213-0.169-0.464-0.295-0.754-0.38c-0.29-0.084-0.603-0.126-0.94-0.126c-0.389,0-0.732,0.062-1.029,0.187
				c-0.297,0.125-0.545,0.297-0.743,0.517s-0.35,0.484-0.456,0.792c-0.106,0.308-0.167,0.649-0.182,1.023h0.935
				c0-0.227,0.029-0.444,0.088-0.649c0.059-0.205,0.148-0.385,0.27-0.539c0.121-0.154,0.275-0.277,0.462-0.368
				c0.187-0.092,0.405-0.138,0.655-0.138c0.396,0,0.726,0.104,0.99,0.313c0.264,0.209,0.396,0.522,0.396,0.94
				c0,0.205-0.04,0.389-0.121,0.55c-0.081,0.161-0.189,0.295-0.325,0.401c-0.136,0.106-0.293,0.187-0.473,0.242
				c-0.18,0.055-0.368,0.083-0.567,0.083h-0.198h-0.11C192.037,55.556,192.004,55.552,191.967,55.545z M196.147,56.172
				c0,0.286,0.007,0.583,0.022,0.891c0.015,0.308,0.051,0.609,0.11,0.902c0.059,0.293,0.143,0.57,0.253,0.831
				c0.11,0.26,0.26,0.489,0.451,0.688c0.191,0.198,0.431,0.354,0.721,0.467c0.29,0.114,0.636,0.17,1.039,0.17
				c0.411,0,0.759-0.057,1.045-0.17c0.286-0.114,0.524-0.27,0.715-0.467c0.191-0.198,0.341-0.427,0.451-0.688
				c0.11-0.26,0.194-0.537,0.253-0.831s0.095-0.594,0.11-0.902s0.022-0.605,0.022-0.891c0-0.286-0.007-0.583-0.022-0.891
				c-0.015-0.308-0.051-0.609-0.11-0.902s-0.143-0.572-0.253-0.836c-0.11-0.264-0.26-0.495-0.451-0.693
				c-0.191-0.198-0.431-0.356-0.721-0.473c-0.29-0.117-0.636-0.176-1.04-0.176s-0.75,0.059-1.039,0.176
				c-0.29,0.117-0.53,0.275-0.721,0.473c-0.191,0.198-0.341,0.429-0.451,0.693c-0.11,0.264-0.194,0.543-0.253,0.836
				c-0.059,0.293-0.095,0.594-0.11,0.902C196.154,55.589,196.147,55.886,196.147,56.172z M197.137,56.161
				c0-0.191,0.002-0.401,0.006-0.632c0.004-0.231,0.022-0.462,0.055-0.693c0.033-0.231,0.081-0.456,0.143-0.676
				s0.154-0.412,0.275-0.577s0.273-0.299,0.457-0.402s0.407-0.154,0.671-0.154c0.264,0,0.488,0.051,0.671,0.154
				s0.335,0.236,0.456,0.402s0.213,0.357,0.275,0.577c0.062,0.22,0.11,0.445,0.143,0.676c0.033,0.231,0.051,0.462,0.055,0.693
				c0.004,0.231,0.005,0.442,0.005,0.632c0,0.293-0.009,0.621-0.027,0.985c-0.018,0.363-0.077,0.704-0.176,1.023
				c-0.099,0.319-0.258,0.589-0.478,0.809c-0.22,0.22-0.528,0.33-0.924,0.33c-0.396,0-0.704-0.11-0.924-0.33
				s-0.38-0.489-0.479-0.809c-0.099-0.319-0.158-0.66-0.176-1.023C197.146,56.782,197.137,56.454,197.137,56.161z M203.077,58.207
				h-0.935c0.015,0.352,0.088,0.651,0.22,0.896s0.308,0.444,0.528,0.594c0.22,0.15,0.473,0.259,0.759,0.325
				c0.286,0.066,0.587,0.099,0.902,0.099c0.286,0,0.574-0.027,0.864-0.082c0.29-0.055,0.55-0.152,0.781-0.292
				c0.231-0.139,0.418-0.323,0.561-0.55c0.143-0.227,0.214-0.513,0.214-0.858c0-0.271-0.053-0.499-0.16-0.682
				c-0.106-0.183-0.246-0.336-0.418-0.457c-0.172-0.121-0.37-0.218-0.594-0.292s-0.453-0.136-0.688-0.187
				c-0.22-0.051-0.44-0.101-0.66-0.148c-0.22-0.048-0.418-0.106-0.594-0.176c-0.176-0.07-0.321-0.158-0.435-0.264
				c-0.114-0.106-0.17-0.24-0.17-0.402c0-0.147,0.037-0.266,0.11-0.357s0.169-0.165,0.286-0.22c0.117-0.055,0.247-0.093,0.391-0.115
				c0.143-0.022,0.284-0.033,0.423-0.033c0.154,0,0.306,0.016,0.456,0.049c0.15,0.033,0.288,0.086,0.413,0.16
				s0.227,0.17,0.308,0.292s0.128,0.273,0.143,0.457h0.935c-0.022-0.345-0.095-0.632-0.22-0.864
				c-0.125-0.231-0.292-0.414-0.501-0.55s-0.449-0.231-0.721-0.286c-0.271-0.055-0.568-0.083-0.891-0.083
				c-0.249,0-0.501,0.031-0.753,0.094c-0.253,0.062-0.48,0.158-0.682,0.286c-0.202,0.128-0.367,0.295-0.495,0.5
				c-0.128,0.205-0.193,0.451-0.193,0.737c0,0.367,0.092,0.653,0.275,0.858c0.183,0.205,0.413,0.365,0.688,0.479
				c0.275,0.114,0.574,0.202,0.896,0.264c0.323,0.062,0.622,0.132,0.896,0.209c0.275,0.077,0.504,0.178,0.688,0.303
				s0.275,0.308,0.275,0.55c0,0.176-0.044,0.321-0.132,0.435s-0.2,0.2-0.335,0.258s-0.284,0.099-0.446,0.121
				c-0.161,0.022-0.315,0.033-0.462,0.033c-0.191,0-0.376-0.018-0.555-0.055c-0.18-0.037-0.341-0.097-0.484-0.181
				c-0.143-0.084-0.258-0.198-0.346-0.341S203.084,58.412,203.077,58.207z M212.999,53.026V60h1.045v-6.974h2.618v-0.88h-6.281v0.88
				H212.999z M218.367,53.29v-1.144h-0.935v1.144H218.367z M217.432,54.313V60h0.935v-5.687H217.432z M219.819,54.313V60h0.935
				v-3.542c0-0.11,0.027-0.247,0.083-0.412c0.055-0.165,0.143-0.325,0.264-0.479c0.121-0.154,0.279-0.286,0.473-0.396
				s0.427-0.165,0.699-0.165c0.213,0,0.387,0.031,0.522,0.093c0.136,0.062,0.244,0.15,0.325,0.264
				c0.081,0.114,0.137,0.248,0.171,0.402c0.033,0.154,0.049,0.323,0.049,0.506V60h0.935v-3.542c0-0.44,0.132-0.792,0.396-1.056
				c0.264-0.264,0.627-0.396,1.089-0.396c0.227,0,0.412,0.033,0.555,0.099c0.143,0.066,0.255,0.156,0.335,0.27
				c0.081,0.114,0.136,0.247,0.165,0.402c0.029,0.154,0.044,0.319,0.044,0.495V60h0.935v-4.169c0-0.293-0.046-0.544-0.138-0.754
				c-0.092-0.209-0.22-0.379-0.385-0.511c-0.165-0.132-0.363-0.229-0.594-0.292c-0.231-0.062-0.49-0.094-0.776-0.094
				c-0.374,0-0.717,0.084-1.028,0.253c-0.312,0.169-0.563,0.407-0.754,0.715c-0.117-0.352-0.319-0.601-0.605-0.748
				s-0.605-0.22-0.957-0.22c-0.799,0-1.412,0.323-1.837,0.968h-0.022v-0.836H219.819z M234.053,58.196h-0.924
				c-0.081,0.374-0.247,0.653-0.501,0.836c-0.253,0.183-0.577,0.275-0.973,0.275c-0.308,0-0.576-0.051-0.803-0.154
				c-0.227-0.103-0.414-0.24-0.561-0.412c-0.147-0.172-0.253-0.37-0.319-0.594s-0.095-0.46-0.088-0.709h4.257
				c0.015-0.345-0.017-0.708-0.094-1.089s-0.216-0.733-0.418-1.056c-0.202-0.323-0.469-0.588-0.803-0.798
				c-0.334-0.209-0.754-0.313-1.26-0.313c-0.389,0-0.746,0.073-1.072,0.22c-0.326,0.147-0.609,0.352-0.847,0.616
				c-0.238,0.264-0.424,0.576-0.556,0.935c-0.132,0.359-0.198,0.755-0.198,1.188c0.015,0.433,0.079,0.832,0.193,1.199
				s0.284,0.682,0.512,0.946c0.227,0.264,0.508,0.469,0.841,0.616s0.728,0.22,1.182,0.22c0.645,0,1.181-0.161,1.606-0.484
				C233.653,59.314,233.928,58.834,234.053,58.196z M233.151,56.612h-3.267c0.015-0.22,0.062-0.427,0.143-0.621
				c0.081-0.194,0.191-0.365,0.33-0.512c0.139-0.147,0.306-0.262,0.501-0.347s0.413-0.126,0.654-0.126
				c0.235,0,0.449,0.042,0.644,0.126s0.363,0.198,0.506,0.341s0.257,0.313,0.341,0.512S233.136,56.392,233.151,56.612z
				 M235.076,54.313V60h0.935v-2.53c0-0.367,0.037-0.691,0.11-0.974c0.073-0.282,0.191-0.522,0.352-0.72
				c0.161-0.198,0.374-0.348,0.638-0.451c0.264-0.103,0.583-0.154,0.957-0.154v-0.99c-0.506-0.015-0.924,0.088-1.254,0.308
				s-0.609,0.561-0.836,1.023h-0.022v-1.199H235.076z"/>
			<path id="iBeacon" sketch:type="MSShapeGroup" fill="#FFFFFF" d="M1.194,1.29V0.146H0.259V1.29H1.194z M0.259,2.313V8h0.935
				V2.313H0.259z M2.8,0.146V8h3.795c0.389,0,0.731-0.064,1.029-0.193C7.921,7.679,8.17,7.511,8.372,7.301s0.354-0.449,0.457-0.72
				s0.154-0.55,0.154-0.836c0-0.484-0.128-0.895-0.385-1.232S7.97,3.956,7.486,3.853V3.831C7.86,3.684,8.148,3.459,8.349,3.155
				s0.303-0.665,0.303-1.083c0-0.396-0.09-0.73-0.27-1.001S7.985,0.586,7.728,0.432C7.611,0.359,7.47,0.304,7.305,0.267
				S6.962,0.203,6.771,0.184S6.388,0.155,6.194,0.152C5.999,0.148,5.818,0.146,5.649,0.146H2.8z M3.845,3.523V1.026h2.09
				c0.227,0,0.442,0.013,0.643,0.038C6.78,1.09,6.958,1.147,7.112,1.235s0.275,0.213,0.363,0.374s0.132,0.381,0.132,0.66
				c0,0.418-0.13,0.731-0.391,0.941c-0.26,0.209-0.687,0.313-1.281,0.313H3.845z M3.845,7.12V4.403h2.387
				c0.22,0,0.433,0.02,0.638,0.061c0.205,0.04,0.387,0.11,0.545,0.209c0.158,0.099,0.284,0.233,0.379,0.401
				c0.095,0.169,0.143,0.381,0.143,0.638c0,0.44-0.13,0.785-0.39,1.034C7.286,6.995,6.925,7.12,6.463,7.12H3.845z M15.032,6.196
				h-0.924c-0.081,0.374-0.247,0.653-0.5,0.836s-0.577,0.275-0.974,0.275c-0.308,0-0.576-0.051-0.803-0.154
				c-0.227-0.103-0.414-0.24-0.561-0.412c-0.147-0.172-0.253-0.37-0.319-0.594c-0.066-0.224-0.095-0.46-0.088-0.71h4.257
				c0.015-0.345-0.016-0.708-0.094-1.089s-0.216-0.733-0.418-1.056c-0.202-0.323-0.469-0.588-0.803-0.798s-0.753-0.313-1.26-0.313
				c-0.389,0-0.746,0.073-1.072,0.22s-0.609,0.352-0.847,0.616s-0.423,0.576-0.556,0.935S9.873,4.707,9.873,5.14
				c0.015,0.433,0.079,0.832,0.193,1.199c0.114,0.367,0.284,0.682,0.511,0.946c0.227,0.264,0.508,0.469,0.842,0.616
				s0.728,0.22,1.182,0.22c0.645,0,1.181-0.161,1.606-0.484C14.632,7.314,14.907,6.834,15.032,6.196z M14.13,4.612h-3.267
				c0.015-0.22,0.062-0.427,0.143-0.622c0.081-0.194,0.191-0.365,0.33-0.511c0.139-0.147,0.306-0.262,0.5-0.347
				c0.194-0.084,0.412-0.126,0.655-0.126c0.235,0,0.449,0.042,0.643,0.126c0.194,0.084,0.363,0.198,0.506,0.341
				c0.143,0.143,0.257,0.313,0.341,0.511C14.066,4.183,14.115,4.392,14.13,4.612z M21.126,7.978V7.252
				c-0.11,0.037-0.205,0.055-0.286,0.055c-0.147,0-0.233-0.051-0.259-0.154c-0.026-0.103-0.038-0.264-0.038-0.484V3.743
				c0-0.33-0.062-0.598-0.187-0.803c-0.125-0.205-0.29-0.365-0.495-0.479s-0.434-0.189-0.688-0.225s-0.508-0.055-0.764-0.055
				c-0.315,0-0.616,0.033-0.902,0.099c-0.286,0.066-0.539,0.174-0.759,0.325s-0.396,0.346-0.528,0.589
				C16.088,3.435,16.015,3.732,16,4.084h0.935c0.022-0.418,0.165-0.702,0.429-0.853c0.264-0.15,0.594-0.225,0.99-0.225
				c0.147,0,0.295,0.011,0.445,0.033c0.15,0.022,0.286,0.066,0.407,0.132c0.121,0.066,0.22,0.161,0.297,0.286
				c0.077,0.125,0.115,0.29,0.115,0.495c0,0.176-0.051,0.31-0.154,0.401s-0.242,0.161-0.418,0.209
				c-0.176,0.048-0.379,0.084-0.611,0.11s-0.475,0.064-0.732,0.115c-0.242,0.044-0.478,0.099-0.709,0.165s-0.436,0.163-0.616,0.292
				c-0.18,0.128-0.324,0.295-0.434,0.5c-0.11,0.205-0.165,0.469-0.165,0.792c0,0.286,0.049,0.53,0.149,0.731
				c0.099,0.202,0.235,0.367,0.407,0.495c0.172,0.128,0.372,0.22,0.599,0.275c0.227,0.055,0.469,0.083,0.726,0.083
				c0.396,0,0.764-0.068,1.106-0.204s0.64-0.357,0.896-0.666c0,0.308,0.071,0.53,0.215,0.666c0.143,0.136,0.335,0.204,0.577,0.204
				C20.741,8.121,20.965,8.073,21.126,7.978z M19.608,5.063V6.02c0,0.132-0.033,0.273-0.099,0.424
				c-0.066,0.15-0.169,0.29-0.308,0.418c-0.139,0.128-0.319,0.235-0.539,0.319s-0.484,0.127-0.792,0.127
				c-0.139,0-0.277-0.015-0.413-0.044c-0.136-0.029-0.253-0.077-0.352-0.143c-0.099-0.066-0.18-0.152-0.242-0.259
				c-0.062-0.106-0.094-0.236-0.094-0.39c0-0.235,0.053-0.42,0.16-0.556c0.106-0.136,0.244-0.24,0.412-0.313
				c0.169-0.073,0.359-0.127,0.572-0.16c0.213-0.033,0.424-0.062,0.632-0.088c0.209-0.026,0.409-0.059,0.6-0.099
				C19.337,5.215,19.491,5.151,19.608,5.063z M25.856,4.139h0.968c-0.037-0.337-0.125-0.629-0.264-0.875s-0.317-0.449-0.533-0.61
				c-0.216-0.161-0.466-0.28-0.748-0.358c-0.282-0.077-0.585-0.115-0.907-0.115c-0.447,0-0.84,0.079-1.177,0.237
				s-0.618,0.374-0.841,0.649c-0.224,0.275-0.391,0.598-0.501,0.968s-0.165,0.768-0.165,1.194s0.057,0.816,0.17,1.171
				s0.282,0.662,0.506,0.918c0.224,0.257,0.502,0.455,0.836,0.594c0.334,0.139,0.717,0.209,1.15,0.209
				c0.726,0,1.3-0.191,1.721-0.572s0.684-0.924,0.787-1.628H25.9c-0.059,0.44-0.218,0.781-0.479,1.023
				c-0.26,0.242-0.621,0.363-1.083,0.363c-0.293,0-0.546-0.059-0.759-0.176s-0.385-0.273-0.517-0.468
				c-0.132-0.194-0.229-0.416-0.292-0.665c-0.062-0.249-0.094-0.506-0.094-0.77c0-0.286,0.029-0.563,0.088-0.831
				c0.059-0.268,0.156-0.504,0.292-0.71c0.136-0.205,0.317-0.37,0.545-0.495c0.227-0.125,0.51-0.187,0.847-0.187
				c0.396,0,0.711,0.099,0.946,0.297C25.629,3.501,25.783,3.78,25.856,4.139z M27.594,5.162c0,0.418,0.059,0.807,0.176,1.166
				c0.117,0.359,0.293,0.673,0.528,0.94c0.235,0.268,0.524,0.477,0.869,0.627c0.345,0.15,0.741,0.226,1.188,0.226
				c0.455,0,0.852-0.075,1.194-0.226s0.629-0.359,0.863-0.627c0.235-0.268,0.411-0.581,0.528-0.94
				c0.117-0.359,0.176-0.748,0.176-1.166S33.057,4.354,32.94,3.99c-0.117-0.363-0.293-0.678-0.528-0.946
				c-0.235-0.268-0.522-0.478-0.863-0.633s-0.739-0.231-1.194-0.231c-0.447,0-0.843,0.077-1.188,0.231
				c-0.345,0.154-0.634,0.365-0.869,0.633c-0.235,0.268-0.411,0.583-0.528,0.946S27.594,4.744,27.594,5.162z M28.584,5.162
				c0-0.345,0.046-0.651,0.138-0.918c0.092-0.268,0.218-0.493,0.379-0.677c0.161-0.183,0.35-0.323,0.566-0.418
				c0.216-0.095,0.445-0.143,0.688-0.143c0.242,0,0.471,0.048,0.688,0.143c0.216,0.095,0.405,0.235,0.566,0.418
				c0.161,0.183,0.288,0.409,0.38,0.677c0.092,0.268,0.137,0.574,0.137,0.918s-0.046,0.651-0.137,0.918
				c-0.092,0.268-0.218,0.491-0.38,0.671c-0.161,0.18-0.35,0.317-0.566,0.412c-0.216,0.095-0.445,0.143-0.688,0.143
				c-0.242,0-0.471-0.048-0.688-0.143c-0.216-0.095-0.405-0.233-0.566-0.412c-0.161-0.18-0.288-0.403-0.379-0.671
				C28.63,5.813,28.584,5.507,28.584,5.162z M34.216,2.313V8h0.935V4.788c0-0.257,0.035-0.493,0.104-0.71
				c0.07-0.216,0.174-0.405,0.313-0.566c0.139-0.161,0.313-0.286,0.522-0.374c0.209-0.088,0.457-0.132,0.743-0.132
				c0.359,0,0.642,0.103,0.847,0.308c0.205,0.205,0.308,0.484,0.308,0.836V8h0.935V4.26c0-0.308-0.031-0.588-0.093-0.842
				c-0.062-0.253-0.171-0.471-0.325-0.655c-0.154-0.183-0.356-0.326-0.605-0.429c-0.249-0.103-0.561-0.154-0.935-0.154
				c-0.843,0-1.459,0.345-1.848,1.034h-0.022V2.313H34.216z"/>
		</g>
	</g>
</g>
<path id="now" sketch:type="MSShapeGroup" fill="#50E3C2" d="M521.639,226.346h0.418v1.21h0.022
	c0.073-0.213,0.178-0.402,0.314-0.566c0.136-0.165,0.293-0.306,0.473-0.423c0.18-0.117,0.376-0.205,0.589-0.264
	c0.213-0.059,0.429-0.088,0.649-0.088c0.33,0,0.61,0.04,0.841,0.121c0.231,0.081,0.42,0.187,0.566,0.319
	c0.147,0.132,0.262,0.281,0.346,0.446c0.084,0.165,0.145,0.332,0.182,0.501s0.059,0.332,0.066,0.49
	c0.007,0.158,0.011,0.295,0.011,0.412V232h-0.418v-3.575c0-0.139-0.011-0.315-0.033-0.528c-0.022-0.213-0.086-0.416-0.193-0.611
	c-0.106-0.194-0.268-0.361-0.484-0.501c-0.216-0.139-0.515-0.209-0.897-0.209c-0.323,0-0.609,0.059-0.858,0.176
	c-0.249,0.117-0.462,0.281-0.638,0.49c-0.176,0.209-0.31,0.458-0.401,0.748c-0.092,0.29-0.138,0.607-0.138,0.951V232h-0.418V226.346
	z M527.084,229.173c0-0.403,0.057-0.783,0.171-1.139c0.114-0.356,0.28-0.669,0.5-0.941c0.22-0.271,0.491-0.486,0.814-0.643
	c0.323-0.158,0.693-0.236,1.111-0.236c0.418,0,0.788,0.079,1.111,0.236c0.323,0.158,0.594,0.372,0.814,0.643
	c0.22,0.271,0.387,0.585,0.501,0.941c0.114,0.356,0.17,0.735,0.17,1.139s-0.057,0.785-0.17,1.144
	c-0.114,0.359-0.281,0.673-0.501,0.941c-0.22,0.268-0.491,0.48-0.814,0.638c-0.323,0.158-0.693,0.236-1.111,0.236
	c-0.418,0-0.788-0.079-1.111-0.236c-0.323-0.158-0.594-0.37-0.814-0.638c-0.22-0.268-0.387-0.581-0.5-0.941
	C527.141,229.958,527.084,229.576,527.084,229.173z M527.502,229.173c0,0.337,0.048,0.662,0.143,0.973s0.235,0.589,0.418,0.831
	c0.183,0.242,0.411,0.434,0.682,0.577c0.271,0.143,0.583,0.214,0.935,0.214s0.664-0.071,0.935-0.214
	c0.271-0.143,0.499-0.336,0.682-0.577c0.183-0.242,0.323-0.519,0.418-0.831s0.143-0.636,0.143-0.973
	c0-0.337-0.048-0.662-0.143-0.974c-0.095-0.312-0.235-0.589-0.418-0.83c-0.183-0.242-0.411-0.434-0.682-0.577
	c-0.271-0.143-0.583-0.215-0.935-0.215s-0.664,0.072-0.935,0.215c-0.271,0.143-0.499,0.335-0.682,0.577
	c-0.183,0.242-0.323,0.519-0.418,0.83C527.55,228.511,527.502,228.836,527.502,229.173z M534.663,231.516h0.022l1.54-5.17h0.561
	l1.551,5.17h0.022l1.584-5.17h0.462L538.59,232h-0.517l-1.551-5.126H536.5L534.938,232h-0.528l-1.793-5.654h0.451L534.663,231.516z"
	/>
<g>
	<path fill="#50E3C2" d="M436.372,221.652h0.66v10.14h6.074v0.57h-6.734V221.652z"/>
	<path fill="#50E3C2" d="M448.882,230.832h-0.03c-0.09,0.23-0.22,0.448-0.39,0.652c-0.17,0.205-0.378,0.388-0.623,0.548
		s-0.522,0.285-0.832,0.375c-0.311,0.09-0.65,0.135-1.021,0.135c-0.819,0-1.454-0.178-1.904-0.532s-0.675-0.902-0.675-1.643
		c0-0.45,0.09-0.817,0.27-1.103s0.407-0.51,0.683-0.675c0.274-0.165,0.58-0.282,0.915-0.353s0.657-0.12,0.968-0.15l0.885-0.074
		c0.41-0.03,0.732-0.078,0.968-0.143c0.234-0.065,0.412-0.155,0.532-0.271c0.12-0.114,0.194-0.263,0.225-0.442
		s0.045-0.405,0.045-0.675c0-0.21-0.04-0.405-0.12-0.585s-0.205-0.34-0.375-0.48c-0.17-0.14-0.39-0.25-0.659-0.33
		c-0.271-0.079-0.601-0.119-0.99-0.119c-0.69,0-1.248,0.17-1.673,0.51s-0.657,0.854-0.697,1.545h-0.57
		c0.04-0.85,0.312-1.487,0.817-1.913c0.505-0.425,1.223-0.637,2.153-0.637c0.93,0,1.606,0.183,2.032,0.547
		c0.425,0.365,0.638,0.843,0.638,1.433v4.485c0,0.11,0.002,0.22,0.007,0.33s0.022,0.21,0.053,0.3s0.08,0.162,0.15,0.218
		c0.069,0.055,0.17,0.082,0.3,0.082c0.1,0,0.24-0.015,0.42-0.045v0.48c-0.15,0.04-0.306,0.06-0.465,0.06
		c-0.23,0-0.413-0.03-0.548-0.09c-0.135-0.061-0.237-0.14-0.308-0.24c-0.07-0.1-0.117-0.218-0.143-0.353
		c-0.024-0.135-0.037-0.282-0.037-0.442V230.832z M448.882,227.982c-0.141,0.17-0.353,0.285-0.638,0.345
		c-0.285,0.061-0.603,0.105-0.952,0.135l-0.96,0.091c-0.28,0.029-0.561,0.072-0.84,0.127c-0.28,0.056-0.533,0.147-0.758,0.277
		c-0.226,0.13-0.407,0.308-0.548,0.533c-0.14,0.225-0.21,0.517-0.21,0.877c0,0.57,0.181,0.993,0.54,1.268
		c0.36,0.275,0.855,0.412,1.485,0.412c0.649,0,1.165-0.117,1.545-0.353c0.38-0.234,0.67-0.504,0.87-0.81
		c0.199-0.305,0.327-0.6,0.382-0.885c0.056-0.285,0.083-0.478,0.083-0.578V227.982z"/>
	<path fill="#50E3C2" d="M457.372,232.362h-0.57v-1.65h-0.03c-0.1,0.291-0.242,0.548-0.427,0.772
		c-0.186,0.226-0.4,0.418-0.646,0.578s-0.513,0.28-0.803,0.359c-0.29,0.08-0.585,0.12-0.885,0.12c-0.45,0-0.832-0.055-1.147-0.165
		c-0.315-0.109-0.572-0.255-0.772-0.435s-0.357-0.383-0.473-0.607c-0.115-0.226-0.197-0.452-0.247-0.683
		c-0.051-0.229-0.08-0.452-0.09-0.668c-0.011-0.215-0.016-0.402-0.016-0.562v-4.77h0.57v4.875c0,0.2,0.015,0.442,0.045,0.728
		s0.117,0.561,0.263,0.825c0.145,0.265,0.362,0.492,0.652,0.683c0.29,0.189,0.7,0.284,1.229,0.284c0.431,0,0.818-0.079,1.163-0.239
		s0.638-0.383,0.877-0.668c0.24-0.285,0.423-0.625,0.548-1.02c0.125-0.396,0.188-0.828,0.188-1.298v-4.17h0.57V232.362z"/>
	<path fill="#50E3C2" d="M459.052,224.652h0.57v1.65h0.03c0.1-0.29,0.242-0.548,0.427-0.772c0.186-0.226,0.4-0.418,0.646-0.578
		s0.512-0.279,0.803-0.359c0.289-0.08,0.585-0.12,0.885-0.12c0.45,0,0.832,0.055,1.147,0.165c0.314,0.109,0.572,0.255,0.772,0.435
		s0.357,0.383,0.473,0.607c0.114,0.226,0.197,0.453,0.247,0.683c0.05,0.23,0.08,0.452,0.09,0.668
		c0.01,0.215,0.016,0.402,0.016,0.562v4.77h-0.57v-4.875c0-0.189-0.015-0.43-0.045-0.72s-0.118-0.567-0.263-0.833
		c-0.145-0.265-0.365-0.492-0.66-0.683c-0.295-0.189-0.702-0.284-1.223-0.284c-0.439,0-0.83,0.08-1.17,0.239
		c-0.34,0.16-0.63,0.383-0.87,0.668c-0.239,0.285-0.422,0.625-0.547,1.02c-0.125,0.396-0.188,0.828-0.188,1.298v4.17h-0.57V224.652z
		"/>
	<path fill="#50E3C2" d="M472.641,227.037c-0.029-0.34-0.117-0.64-0.262-0.899c-0.146-0.261-0.333-0.476-0.562-0.646
		c-0.23-0.17-0.498-0.3-0.803-0.39c-0.306-0.09-0.633-0.135-0.982-0.135c-0.48,0-0.905,0.097-1.275,0.292s-0.68,0.455-0.93,0.78
		s-0.44,0.695-0.57,1.109c-0.13,0.415-0.194,0.843-0.194,1.283c0,0.52,0.06,1,0.18,1.439c0.12,0.44,0.305,0.823,0.555,1.147
		c0.25,0.325,0.561,0.578,0.931,0.758c0.369,0.18,0.805,0.27,1.305,0.27c0.359,0,0.692-0.06,0.997-0.18
		c0.306-0.12,0.575-0.285,0.811-0.495c0.234-0.21,0.427-0.462,0.577-0.757s0.25-0.618,0.3-0.968h0.57
		c-0.06,0.46-0.186,0.87-0.375,1.229c-0.19,0.36-0.43,0.663-0.72,0.908s-0.62,0.433-0.99,0.562s-0.76,0.194-1.17,0.194
		c-0.63,0-1.168-0.112-1.612-0.337c-0.445-0.226-0.811-0.527-1.096-0.908c-0.284-0.38-0.495-0.817-0.63-1.312
		c-0.135-0.494-0.202-1.012-0.202-1.552s0.077-1.051,0.232-1.53c0.155-0.48,0.383-0.9,0.683-1.26c0.3-0.36,0.67-0.646,1.109-0.855
		c0.44-0.21,0.945-0.314,1.516-0.314c0.42,0,0.812,0.052,1.178,0.157c0.364,0.104,0.689,0.263,0.975,0.473s0.518,0.478,0.697,0.803
		c0.181,0.324,0.29,0.702,0.33,1.132H472.641z"/>
	<path fill="#50E3C2" d="M475.191,221.652v4.65h0.03c0.1-0.29,0.242-0.548,0.427-0.772c0.186-0.226,0.4-0.418,0.646-0.578
		s0.512-0.279,0.803-0.359c0.289-0.08,0.585-0.12,0.885-0.12c0.45,0,0.832,0.055,1.147,0.165c0.314,0.109,0.572,0.255,0.772,0.435
		s0.357,0.383,0.473,0.607c0.114,0.226,0.197,0.453,0.247,0.683c0.05,0.23,0.08,0.452,0.09,0.668
		c0.01,0.215,0.016,0.402,0.016,0.562v4.77h-0.57v-4.875c0-0.189-0.015-0.43-0.045-0.72s-0.118-0.567-0.263-0.833
		c-0.145-0.265-0.365-0.492-0.66-0.683c-0.295-0.189-0.702-0.284-1.223-0.284c-0.439,0-0.83,0.08-1.17,0.239
		c-0.34,0.16-0.63,0.383-0.87,0.668c-0.239,0.285-0.422,0.625-0.547,1.02c-0.125,0.396-0.188,0.828-0.188,1.298v4.17h-0.57v-10.71
		H475.191z"/>
	<path fill="#50E3C2" d="M486.682,221.652h0.66v4.86h6.84v-4.86h0.66v10.71h-0.66v-5.28h-6.84v5.28h-0.66V221.652z"/>
	<path fill="#50E3C2" d="M496.836,228.582v0.09c0,0.45,0.061,0.881,0.181,1.29c0.12,0.41,0.298,0.771,0.534,1.08
		c0.235,0.311,0.531,0.556,0.887,0.735c0.356,0.18,0.77,0.27,1.241,0.27c0.771,0,1.384-0.202,1.835-0.607
		c0.451-0.404,0.762-0.967,0.933-1.688h0.57c-0.171,0.9-0.538,1.591-1.103,2.07c-0.565,0.48-1.312,0.72-2.243,0.72
		c-0.569,0-1.067-0.103-1.492-0.308c-0.425-0.204-0.78-0.484-1.065-0.84c-0.284-0.354-0.497-0.774-0.637-1.26
		c-0.141-0.485-0.21-1.007-0.21-1.567c0-0.54,0.072-1.058,0.217-1.553c0.146-0.495,0.362-0.93,0.652-1.305s0.653-0.675,1.088-0.9
		c0.435-0.225,0.947-0.337,1.537-0.337c0.54,0,1.018,0.1,1.433,0.3s0.763,0.473,1.043,0.817c0.279,0.345,0.492,0.745,0.638,1.2
		c0.145,0.455,0.217,0.942,0.217,1.462c0,0.051-0.002,0.108-0.007,0.173c-0.006,0.065-0.008,0.117-0.008,0.157H496.836z
		 M502.506,228.087c-0.02-0.42-0.09-0.817-0.21-1.192c-0.121-0.375-0.299-0.705-0.534-0.989c-0.235-0.285-0.521-0.513-0.857-0.683
		s-0.72-0.255-1.15-0.255c-0.461,0-0.867,0.087-1.219,0.262c-0.351,0.176-0.646,0.405-0.887,0.69
		c-0.241,0.285-0.427,0.617-0.557,0.997c-0.13,0.381-0.211,0.771-0.24,1.17H502.506z"/>
	<path fill="#50E3C2" d="M504.981,226.362h0.045c0.069-0.25,0.197-0.485,0.383-0.705c0.185-0.22,0.409-0.41,0.675-0.57
		c0.265-0.159,0.56-0.282,0.885-0.367s0.662-0.122,1.013-0.112v0.57c-0.3-0.04-0.643-0.011-1.027,0.09
		c-0.386,0.1-0.753,0.32-1.103,0.66c-0.141,0.149-0.263,0.295-0.368,0.435c-0.104,0.141-0.192,0.295-0.262,0.465
		c-0.07,0.17-0.126,0.36-0.165,0.57c-0.04,0.21-0.065,0.46-0.075,0.75v4.215h-0.57v-7.71h0.57V226.362z"/>
	<path fill="#50E3C2" d="M508.611,228.582v0.09c0,0.45,0.061,0.881,0.181,1.29c0.12,0.41,0.298,0.771,0.534,1.08
		c0.235,0.311,0.531,0.556,0.887,0.735c0.356,0.18,0.77,0.27,1.241,0.27c0.771,0,1.384-0.202,1.835-0.607
		c0.451-0.404,0.762-0.967,0.933-1.688h0.57c-0.171,0.9-0.538,1.591-1.103,2.07c-0.565,0.48-1.312,0.72-2.243,0.72
		c-0.569,0-1.067-0.103-1.492-0.308c-0.425-0.204-0.78-0.484-1.065-0.84c-0.284-0.354-0.497-0.774-0.637-1.26
		c-0.141-0.485-0.21-1.007-0.21-1.567c0-0.54,0.072-1.058,0.217-1.553c0.146-0.495,0.362-0.93,0.652-1.305s0.653-0.675,1.088-0.9
		c0.435-0.225,0.947-0.337,1.537-0.337c0.54,0,1.018,0.1,1.433,0.3s0.763,0.473,1.043,0.817c0.279,0.345,0.492,0.745,0.638,1.2
		c0.145,0.455,0.217,0.942,0.217,1.462c0,0.051-0.002,0.108-0.007,0.173c-0.006,0.065-0.008,0.117-0.008,0.157H508.611z
		 M514.281,228.087c-0.02-0.42-0.09-0.817-0.21-1.192c-0.121-0.375-0.299-0.705-0.534-0.989c-0.235-0.285-0.521-0.513-0.857-0.683
		s-0.72-0.255-1.15-0.255c-0.461,0-0.867,0.087-1.219,0.262c-0.351,0.176-0.646,0.405-0.887,0.69
		c-0.241,0.285-0.427,0.617-0.557,0.997c-0.13,0.381-0.211,0.771-0.24,1.17H514.281z"/>
</g>
</svg>
