<?xml version="1.0" encoding="UTF-8" standalone="no"?>
<svg width="1894px" height="1207px" viewBox="0 0 1894 1207" version="1.1" xmlns="http://www.w3.org/2000/svg" xmlns:xlink="http://www.w3.org/1999/xlink" xmlns:sketch="http://www.bohemiancoding.com/sketch/ns">
    <!-- Generator: Sketch 3.1.1 (8761) - http://www.bohemiancoding.com/sketch -->
    <title>post_nexts_openbeaconcredentials 2</title>
    <desc>Created with Sketch.</desc>
    <defs>
        <filter x="-50%" y="-50%" width="200%" height="200%" filterUnits="objectBoundingBox" id="filter-1">
            <feOffset dx="0" dy="1" in="SourceAlpha" result="shadowOffsetInner1"></feOffset>
            <feGaussianBlur stdDeviation="1.5" in="shadowOffsetInner1" result="shadowBlurInner1"></feGaussianBlur>
            <feComposite in="shadowBlurInner1" in2="SourceAlpha" operator="arithmetic" k2="-1" k3="1" result="shadowInnerInner1"></feComposite>
            <feColorMatrix values="0 0 0 0 0   0 0 0 0 0   0 0 0 0 0  0 0 0 0.35 0" in="shadowInnerInner1" type="matrix" result="shadowMatrixInner1"></feColorMatrix>
            <feMerge>
                <feMergeNode in="SourceGraphic"></feMergeNode>
                <feMergeNode in="shadowMatrixInner1"></feMergeNode>
            </feMerge>
        </filter>
        <path id="path-2" d="M156.540108,0 L292.459892,0 C337.53575,0 360.068067,0 384.332775,7.67041667 C410.823775,17.3126917 431.687308,38.176225 441.329583,64.667225 C449,88.9281917 449,111.467992 449,156.540108 L449,292.459892 C449,337.53575 449,360.068067 441.329583,384.332775 C431.687308,410.823775 410.823775,431.687308 384.332775,441.325842 C360.068067,449 337.53575,449 292.459892,449 L156.540108,449 C111.46425,449 88.9281917,449 64.667225,441.325842 C38.176225,431.687308 17.3126917,410.823775 7.67041667,384.332775 C0,360.068067 0,337.53575 0,292.459892 L0,156.540108 C0,111.467992 0,88.9281917 7.67041667,64.667225 C17.3126917,38.176225 38.176225,17.3126917 64.667225,7.67041667 C88.9281917,0 111.46425,0 156.540108,0 L156.540108,0"></path>
        <linearGradient x1="50%" y1="100%" x2="50%" y2="3.71181361%" id="linearGradient-4">
            <stop stop-color="#0D0D0D" offset="0%"></stop>
            <stop stop-color="#262626" offset="100%"></stop>
        </linearGradient>
    </defs>
    <g id="Page-1" stroke="none" stroke-width="1" fill="none" fill-rule="evenodd" sketch:type="MSPage">
        <g id="post_nexts_openbeaconcredentials-2" sketch:type="MSArtboardGroup">
            <g id="Group" sketch:type="MSLayerGroup" transform="translate(575.000000, 64.000000)">
                <path d="M729.495238,0 L0,0 L0,1055 L745,1055 L745,15.4219558 C745,10.2813038 738.548889,7.54965115 738.548889,7.54965115 C738.548889,7.54965115 734.663492,0 729.495238,0 Z" id="Rectangle-2" opacity="0.429395989" fill="#E8E4C4" sketch:type="MSShapeGroup"></path>
                <path d="M525.18973,886 L46,886 L46,482 L710,482 L710,800.190195 C690.355109,781.483257 663.768584,770 634.5,770 C574.02482,770 525,819.02482 525,879.5 C525,881.682164 525.063832,883.849419 525.18973,886 Z" id="Rectangle-5" opacity="0.153451493" fill="#50E3C2" sketch:type="MSShapeGroup"></path>
                <path d="M46,48 L46,454.415941 C46,463.610627 72.8815955,482 86.3223932,482 C286.252533,482 486.182672,482 686.112811,482 C694.075207,482 710,462.081434 710,452.122151 L710,48 L46,48 Z" id="Rectangle-6" opacity="0.60389459" fill="#5FB7AF" sketch:type="MSShapeGroup" transform="translate(378.000000, 265.000000) scale(1, -1) translate(-378.000000, -265.000000) "></path>
                <path d="M525.25282,887 L86.0086835,887 C61.7015408,887 42,867.302797 42,843.005066 L42,89.9949339 C42,65.7033833 61.69532,46 85.9907284,46 L666.009272,46 C690.302206,46 710,65.7002808 710,90.0018088 L710,800.190195 C690.355109,781.483257 663.768584,770 634.5,770 C574.02482,770 525,819.02482 525,879.5 C525,882.020802 525.08518,884.521709 525.25282,887 Z" id="Rectangle-3" stroke="#5FB7AF" stroke-width="16" filter="url(#filter-1)" sketch:type="MSShapeGroup"></path>
                <circle id="Oval-1" fill="#5FB7AF" sketch:type="MSShapeGroup" cx="635" cy="880" r="90"></circle>
                <g id="Logo" transform="translate(575.000000, 848.000000)" fill="#FFFFFF" sketch:type="MSShapeGroup">
                    <path d="M1.49877049,31.3699582 L2.80204918,31.3699582 C2.80291803,23.4883682 5.95728689,16.3655021 11.0635328,11.1994142 C16.1719508,6.03552301 23.2153033,2.84554393 31.0089098,2.8451046 C38.8025164,2.84554393 45.8458689,6.03552301 50.9547213,11.1994142 C56.0614016,16.3655021 59.2157705,23.4883682 59.2166393,31.3699582 C59.2157705,39.2519874 56.0614016,46.3748536 50.9547213,51.5413808 C45.8458689,56.705272 38.8025164,59.895251 31.0089098,59.8961297 C23.2153033,59.895251 16.1719508,56.705272 11.0635328,51.5413808 C5.95728689,46.3748536 2.80291803,39.2519874 2.80204918,31.3699582 L0.195491803,31.3699582 C0.195057377,39.9711715 3.64613934,47.7701674 9.2202623,53.4050209 C14.7922131,59.0420711 22.5037131,62.5325523 31.0089098,62.532113 C39.5136721,62.5325523 47.2256066,59.0425105 52.7979918,53.4050209 C58.3721148,47.7701674 61.8236311,39.9711715 61.8227623,31.3699582 C61.8236311,22.7691841 58.3721148,14.9701883 52.7979918,9.33577406 C47.2256066,3.69872385 39.5136721,0.208242678 31.0089098,0.209121339 C22.5037131,0.208242678 14.7922131,3.69872385 9.2202623,9.33577406 C3.64613934,14.9701883 0.195057377,22.7687448 0.195491803,31.3699582 L1.49877049,31.3699582" id="Fill-15"></path>
                    <path d="M6.92866393,31.3699582 L8.23194262,31.3699582 C8.23281148,25.0053766 10.779418,19.2554184 14.9029918,15.0830962 C19.0291721,10.9125314 24.7149426,8.33717573 31.0089098,8.3367364 C37.302877,8.33717573 42.9886475,10.9125314 47.1143934,15.0830962 C51.2384016,19.2554184 53.7850082,25.0053766 53.785877,31.3699582 C53.7850082,37.7349791 51.2384016,43.4849372 47.1143934,47.6572594 C42.9886475,51.8278243 37.302877,54.4027406 31.0089098,54.4036192 C24.7149426,54.4027406 19.0287377,51.8278243 14.9029918,47.6572594 C10.779418,43.4849372 8.23281148,37.7349791 8.23194262,31.3699582 L5.62538525,31.3699582 C5.62495082,38.4546025 8.46870492,44.880251 13.0601557,49.5213389 C17.6494344,54.1646234 24.0033525,57.0400418 31.0089098,57.0396025 C38.0140328,57.0400418 44.3683852,54.1646234 48.9576639,49.5213389 C53.5491148,44.880251 56.3928689,38.4546025 56.392,31.3699582 C56.3928689,24.2857531 53.5491148,17.8601046 48.9576639,13.2190167 C44.3683852,8.57573222 38.0144672,5.69987448 31.0089098,5.70075314 C24.0033525,5.69987448 17.6494344,8.57573222 13.0601557,13.2190167 C8.46870492,17.8601046 5.62495082,24.2857531 5.62538525,31.3699582 L6.92866393,31.3699582" id="Fill-16"></path>
                    <path d="M19.8858607,31.3699582 C19.8858607,25.1578243 24.8652541,20.1217782 31.0089098,20.1217782 C37.1521311,20.1217782 42.1323934,25.1578243 42.1323934,31.3699582 C42.1323934,37.5829707 37.1521311,42.6190167 31.0089098,42.6190167 C24.8652541,42.6190167 19.8858607,37.5829707 19.8858607,31.3699582" id="Fill-17"></path>
                    <path d="M12.955459,31.3699582 L14.2587377,31.3699582 C14.2596066,26.6884519 16.1315492,22.4616527 19.1647131,19.3924895 C22.2000492,16.3250837 26.3792295,14.431569 31.0089098,14.4311297 C35.6381557,14.431569 39.8177705,16.3250837 42.8526721,19.3924895 C45.8862705,22.4616527 47.7582131,26.6884519 47.759082,31.3699582 C47.7582131,36.0519038 45.8862705,40.2782636 42.8531066,43.3474268 C39.8177705,46.4148326 35.6385902,48.3079079 31.0089098,48.3087866 C26.3792295,48.3079079 22.2000492,46.4148326 19.1647131,43.3474268 C16.1315492,40.2782636 14.2596066,36.0519038 14.2587377,31.3699582 L11.6521803,31.3699582 C11.6517459,36.7715272 13.8208361,41.6735774 17.321877,45.2115063 C20.8203115,48.7516318 25.6676393,50.9452092 31.0089098,50.9447699 C36.3497459,50.9452092 41.1975082,48.7516318 44.6959426,45.2115063 C48.1969836,41.6735774 50.3660738,36.7715272 50.3652049,31.3699582 C50.3660738,25.9688285 48.1969836,21.0667782 44.6959426,17.52841 C41.1975082,13.9882845 36.3497459,11.7942678 31.0089098,11.7951464 C25.6676393,11.7942678 20.8203115,13.9882845 17.3214426,17.52841 C13.8208361,21.0667782 11.6517459,25.9688285 11.6521803,31.3699582 L12.955459,31.3699582" id="Fill-18"></path>
                    <path d="M106,5.27196653 C106,2.84598326 104.055074,0.878661088 101.655738,0.878661088 L77.7622951,0.878661088 C75.362959,0.878661088 73.4180328,2.84598326 73.4180328,5.27196653 L73.4180328,57.9916318 C73.4180328,60.4180544 75.362959,62.3849372 77.7622951,62.3849372 L101.655738,62.3849372 C104.055074,62.3849372 106,60.4180544 106,57.9916318 L106,5.27196653 L106,5.27196653 Z M89.563918,59.0170293 C88.1259672,59.0170293 86.9573607,57.8352301 86.9573607,56.381046 C86.9573607,54.9273013 88.1259672,53.7450628 89.563918,53.7450628 C91.0023033,53.7450628 92.1704754,54.9273013 92.1704754,56.381046 C92.1704754,57.8352301 91.0023033,59.0170293 89.563918,59.0170293 L89.563918,59.0170293 Z M76.4590164,9.22594142 L102.959016,9.22594142 L102.959016,50.5230126 L76.4590164,50.5230126 L76.4590164,9.22594142 Z" id="Fill-39"></path>
                    <path d="M99.2377213,21.9098536 C98.297623,21.0707322 96.8622787,21.1616736 96.0325246,22.1123849 L87.8796475,31.4560669 L84.6079836,26.3079916 C83.9294098,25.2408577 82.5249098,24.9320084 81.470123,25.6182427 C80.4149016,26.3040377 80.1095,27.7243933 80.7880738,28.7910879 L85.6462623,36.4345607 C86.0798197,37.116841 86.8113934,37.4893933 87.5586066,37.4893933 C87.9791311,37.4893933 88.4044344,37.3712134 88.784123,37.1243096 C88.8866475,37.0575314 88.9804836,36.9819665 89.0691066,36.9020084 C89.2385328,36.7904184 89.3975328,36.6573013 89.537418,36.4965063 L99.4379918,25.150795 C100.267746,24.2000837 100.17782,22.7489749 99.2377213,21.9098536" id="Fill-40"></path>
                </g>
                <g transform="translate(305.000000, 931.000000)">
                    <circle id="Oval-24" opacity="0.6" fill="#5FB7AF" sketch:type="MSShapeGroup" cx="27.5" cy="27.5" r="27.5"></circle>
                    <text id="100" sketch:type="MSTextLayer" font-family="Menlo" font-size="23" font-weight="normal" fill="#FFFFFF">
                        <tspan x="6" y="36">100</tspan>
                    </text>
                    <circle id="Oval-25" opacity="0.35" fill="#5FB7AF" sketch:type="MSShapeGroup" cx="97.5" cy="27.5" r="27.5"></circle>
                    <text id="701" sketch:type="MSTextLayer" font-family="Menlo" font-size="23" font-weight="normal" fill="#FFFFFF">
                        <tspan x="76" y="36">701</tspan>
                    </text>
                </g>
                <g id="Icon-Shape-+-Group" transform="translate(152.000000, 244.000000)">
                    <mask id="mask-3" sketch:name="Icon Shape" fill="white">
                        <use xlink:href="#path-2"></use>
                    </mask>
                    <use id="Icon-Shape" fill="#D7D7D7" sketch:type="MSShapeGroup" xlink:href="#path-2"></use>
                    <g id="Group" mask="url(#mask-3)" sketch:type="MSShapeGroup">
                        <rect id="Rectangle-2" fill="url(#linearGradient-4)" x="0" y="0" width="449" height="449"></rect>
                        <path d="M377.966797,223.842285 C377.966797,139.930266 309.844092,71.9101562 225.81543,71.9101562 C141.786767,71.9101562 73.6640625,139.930266 73.6640625,223.842285 C73.6640625,307.754304 141.786767,375.774414 225.81543,375.774414 C309.844092,375.774414 377.966797,307.754304 377.966797,223.842285 Z M86.8183594,223.842285 C86.8183594,147.199626 149.04725,85.0644531 225.81543,85.0644531 C302.583609,85.0644531 364.8125,147.199626 364.8125,223.842285 C364.8125,300.484944 302.583609,362.620117 225.81543,362.620117 C149.04725,362.620117 86.8183594,300.484944 86.8183594,223.842285 Z" id="Oval-4" fill="#242424"></path>
                        <g id="Rectangle-10-+-Oval-4" transform="translate(78.925781, 58.755859)" fill="#323232">
                            <path d="M299.041016,165.086426 C299.041016,81.1744071 230.918311,13.1542969 146.889648,13.1542969 C62.8609859,13.1542969 -5.26171875,81.1744071 -5.26171875,165.086426 C-5.26171875,248.998444 62.8609859,317.018555 146.889648,317.018555 C230.918311,317.018555 299.041016,248.998444 299.041016,165.086426 Z M7.89257812,165.086426 C7.89257812,88.4437664 70.121469,26.3085938 146.889648,26.3085938 C223.657828,26.3085938 285.886719,88.4437664 285.886719,165.086426 C285.886719,241.729085 223.657828,303.864258 146.889648,303.864258 C70.121469,303.864258 7.89257812,241.729085 7.89257812,165.086426 Z" id="Oval-3"></path>
                        </g>
                        <path d="M122.773438,307.591309 C122.773438,298.752326 115.608026,291.586914 106.769043,291.586914 C97.9300599,291.586914 90.7646484,298.752326 90.7646484,307.591309 C90.7646484,316.430292 97.9300599,323.595703 106.769043,323.595703 C115.608026,323.595703 122.773438,316.430292 122.773438,307.591309 Z" id="Oval-8" fill="#F17075"></path>
                        <path d="M185.445461,170.886748 C182.958038,168.239582 178.795632,168.110085 176.148466,170.597508 C173.501301,173.084931 173.371804,177.247337 175.859227,179.894502 L223.653172,230.757784 C226.140595,233.404949 230.303001,233.534446 232.950166,231.047023 C235.597332,228.559601 235.726829,224.397194 233.239406,221.750029 L185.445461,170.886748 Z" id="Line-2" fill="#F17075"></path>
                        <path d="M270.54782,128.916704 C271.81708,125.513216 270.086947,121.725204 266.683458,120.455944 C263.279969,119.186683 259.491958,120.916817 258.222697,124.320305 L221.382415,223.106544 C220.113154,226.510033 221.843288,230.298044 225.246777,231.567305 C228.650265,232.836566 232.438277,231.106432 233.707537,227.702943 L270.54782,128.916704 Z" id="Line" fill="#383838"></path>
                        <path d="M238.969727,224.719238 C238.969727,218.301894 233.767441,213.099609 227.350098,213.099609 C220.932754,213.099609 215.730469,218.301894 215.730469,224.719238 C215.730469,231.136582 220.932754,236.338867 227.350098,236.338867 C233.767441,236.338867 238.969727,231.136582 238.969727,224.719238 Z" id="Oval-5" fill="#F17075"></path>
                        <path d="M322.280273,102.384277 C322.280273,93.5452943 315.114862,86.3798828 306.275879,86.3798828 C297.436896,86.3798828 290.271484,93.5452943 290.271484,102.384277 C290.271484,111.22326 297.436896,118.388672 306.275879,118.388672 C315.114862,118.388672 322.280273,111.22326 322.280273,102.384277 Z" id="Oval-6" fill="#F17075"></path>
                        <path d="M378.84375,174.73291 C378.84375,165.893927 371.678338,158.728516 362.839355,158.728516 C354.000372,158.728516 346.834961,165.893927 346.834961,174.73291 C346.834961,183.571893 354.000372,190.737305 362.839355,190.737305 C371.678338,190.737305 378.84375,183.571893 378.84375,174.73291 Z" id="Oval-7" fill="#F17075"></path>
                    </g>
                </g>
                <path d="M108.426,980 L90.756,951.294 L90.57,951.294 L90.818,980 L80.526,980 L80.526,936.104 L92.616,936.104 L110.224,964.748 L110.41,964.748 L110.162,936.104 L120.454,936.104 L120.454,980 L108.426,980 Z M129.506,980 L129.506,936.104 L159.018,936.104 L159.018,945.094 L139.736,945.094 L139.736,953.34 L157.964,953.34 L157.964,961.834 L139.736,961.834 L139.736,970.948 L160.134,970.948 L160.134,980 L129.506,980 Z M193.614,980 L184.004,964.5 L174.766,980 L162.118,980 L177.494,956.812 L163.358,936.104 L176.13,936.104 L184.314,949.744 L192.374,936.104 L204.712,936.104 L190.824,956.812 L206.696,980 L193.614,980 Z M229.512,945.156 L229.512,980 L218.91,980 L218.91,945.156 L206.51,945.156 L206.51,936.104 L241.912,936.104 L241.912,945.156 L229.512,945.156 Z M269.936,947.512 C269.026662,946.354661 267.838341,945.435003 266.371,944.753 C264.903659,944.070997 263.488007,943.73 262.124,943.73 C261.42133,943.73 260.708337,943.791999 259.985,943.916 C259.261663,944.040001 258.61067,944.277665 258.032,944.629 C257.45333,944.980335 256.967669,945.434997 256.575,945.993 C256.182331,946.551003 255.986,947.263996 255.986,948.132 C255.986,948.876004 256.140998,949.495998 256.451,949.992 C256.761002,950.488002 257.215664,950.921998 257.815,951.294 C258.414336,951.666002 259.127329,952.006998 259.954,952.317 C260.780671,952.627002 261.710661,952.947332 262.744,953.278 C264.232007,953.774002 265.781992,954.321664 267.394,954.921 C269.006008,955.520336 270.473327,956.315995 271.796,957.308 C273.118673,958.300005 274.213996,959.529659 275.082,960.997 C275.950004,962.464341 276.384,964.293322 276.384,966.484 C276.384,969.005346 275.919005,971.185657 274.989,973.025 C274.058995,974.864343 272.808675,976.383327 271.238,977.582 C269.667325,978.780673 267.869343,979.66933 265.844,980.248 C263.818657,980.82667 261.731344,981.116 259.582,981.116 C256.440651,981.116 253.402681,980.568339 250.468,979.473 C247.533319,978.377661 245.094676,976.817343 243.152,974.792 L250.096,967.724 C251.170672,969.046673 252.586325,970.152329 254.343,971.041 C256.099675,971.929671 257.845991,972.374 259.582,972.374 C260.367337,972.374 261.131996,972.291334 261.876,972.126 C262.620004,971.960666 263.270997,971.692002 263.829,971.32 C264.387003,970.947998 264.831332,970.452003 265.162,969.832 C265.492668,969.211997 265.658,968.468004 265.658,967.6 C265.658,966.773329 265.451335,966.07067 265.038,965.492 C264.624665,964.91333 264.03567,964.386336 263.271,963.911 C262.50633,963.435664 261.555672,963.001669 260.419,962.609 C259.282328,962.216331 257.990674,961.792669 256.544,961.338 C255.13866,960.883331 253.76434,960.346003 252.421,959.726 C251.07766,959.105997 249.879005,958.310338 248.825,957.339 C247.770995,956.367662 246.92367,955.189674 246.283,953.805 C245.64233,952.420326 245.322,950.73601 245.322,948.752 C245.322,946.313321 245.817995,944.226009 246.81,942.49 C247.802005,940.753991 249.103992,939.328006 250.716,938.212 C252.328008,937.095994 254.146657,936.279669 256.172,935.763 C258.197343,935.246331 260.243323,934.988 262.31,934.988 C264.790012,934.988 267.321654,935.442662 269.905,936.352 C272.488346,937.261338 274.751324,938.604658 276.694,940.382 L269.936,947.512 Z" id="NEXTS" fill="#5FB7AF" sketch:type="MSShapeGroup"></path>
                <path d="M99.112,1014.64 C99.112,1016.17601 98.8480026,1017.56199 98.32,1018.798 C97.7919974,1020.03401 97.0720046,1021.084 96.16,1021.948 C95.2479954,1022.812 94.1680062,1023.478 92.92,1023.946 C91.6719938,1024.414 90.3160073,1024.648 88.852,1024.648 C87.3879927,1024.648 86.0320062,1024.414 84.784,1023.946 C83.5359938,1023.478 82.4500046,1022.812 81.526,1021.948 C80.6019954,1021.084 79.8820026,1020.03401 79.366,1018.798 C78.8499974,1017.56199 78.592,1016.17601 78.592,1014.64 L78.592,998.512 L83.128,998.512 L83.128,1014.46 C83.128,1015.204 83.223999,1015.942 83.416,1016.674 C83.608001,1017.406 83.9259978,1018.06 84.37,1018.636 C84.8140022,1019.212 85.4019963,1019.68 86.134,1020.04 C86.8660037,1020.4 87.7719946,1020.58 88.852,1020.58 C89.9320054,1020.58 90.8379963,1020.4 91.57,1020.04 C92.3020037,1019.68 92.8899978,1019.212 93.334,1018.636 C93.7780022,1018.06 94.095999,1017.406 94.288,1016.674 C94.480001,1015.942 94.576,1015.204 94.576,1014.46 L94.576,998.512 L99.112,998.512 L99.112,1014.64 Z M124.816,1014.64 C124.816,1016.17601 124.552003,1017.56199 124.024,1018.798 C123.495997,1020.03401 122.776005,1021.084 121.864,1021.948 C120.951995,1022.812 119.872006,1023.478 118.624,1023.946 C117.375994,1024.414 116.020007,1024.648 114.556,1024.648 C113.091993,1024.648 111.736006,1024.414 110.488,1023.946 C109.239994,1023.478 108.154005,1022.812 107.23,1021.948 C106.305995,1021.084 105.586003,1020.03401 105.07,1018.798 C104.553997,1017.56199 104.296,1016.17601 104.296,1014.64 L104.296,998.512 L108.832,998.512 L108.832,1014.46 C108.832,1015.204 108.927999,1015.942 109.12,1016.674 C109.312001,1017.406 109.629998,1018.06 110.074,1018.636 C110.518002,1019.212 111.105996,1019.68 111.838,1020.04 C112.570004,1020.4 113.475995,1020.58 114.556,1020.58 C115.636005,1020.58 116.541996,1020.4 117.274,1020.04 C118.006004,1019.68 118.593998,1019.212 119.038,1018.636 C119.482002,1018.06 119.799999,1017.406 119.992,1016.674 C120.184001,1015.942 120.28,1015.204 120.28,1014.46 L120.28,998.512 L124.816,998.512 L124.816,1014.64 Z M130.216,998.512 L134.752,998.512 L134.752,1024 L130.216,1024 L130.216,998.512 Z M140.368,998.512 L149.404,998.512 C151.060008,998.512 152.727992,998.727998 154.408,999.16 C156.088008,999.592002 157.599993,1000.306 158.944,1001.302 C160.288007,1002.298 161.379996,1003.60599 162.22,1005.226 C163.060004,1006.84601 163.48,1008.85599 163.48,1011.256 C163.48,1013.48801 163.060004,1015.40799 162.22,1017.016 C161.379996,1018.62401 160.288007,1019.94399 158.944,1020.976 C157.599993,1022.00801 156.088008,1022.77 154.408,1023.262 C152.727992,1023.754 151.060008,1024 149.404,1024 L140.368,1024 L140.368,998.512 Z M148.684,1020.04 C149.860006,1020.04 151.035994,1019.902 152.212,1019.626 C153.388006,1019.35 154.449995,1018.882 155.398,1018.222 C156.346005,1017.562 157.119997,1016.66801 157.72,1015.54 C158.320003,1014.41199 158.62,1012.98401 158.62,1011.256 C158.62,1009.43199 158.320003,1007.94401 157.72,1006.792 C157.119997,1005.63999 156.346005,1004.74 155.398,1004.092 C154.449995,1003.444 153.388006,1003 152.212,1002.76 C151.035994,1002.52 149.860006,1002.4 148.684,1002.4 L144.904,1002.4 L144.904,1020.04 L148.684,1020.04 Z M180.380406,1010.51611 L178.196324,1018.3501 L182.564488,1018.3501 L180.380406,1010.51611 Z M179.12943,1008.69092 L181.641637,1008.69092 L186.327672,1024 L184.184605,1024 L183.056676,1020.01123 L177.693883,1020.01123 L176.586461,1024 L174.443395,1024 L179.12943,1008.69092 Z M193.023473,1010.51611 L190.839391,1018.3501 L195.207555,1018.3501 L193.023473,1010.51611 Z M191.772496,1008.69092 L194.284703,1008.69092 L198.970738,1024 L196.827672,1024 L195.699742,1020.01123 L190.336949,1020.01123 L189.229527,1024 L187.086461,1024 L191.772496,1008.69092 Z M209.511754,1009.0293 L209.511754,1010.93652 C209.081088,1010.68359 208.623084,1010.49048 208.13773,1010.35718 C207.652376,1010.22388 207.146522,1010.15723 206.620152,1010.15723 C205.307646,1010.15723 204.313027,1010.65112 203.636266,1011.63892 C202.959504,1012.62671 202.621129,1014.08105 202.621129,1016.00195 C202.949256,1015.31836 203.403841,1014.7937 203.984898,1014.42798 C204.565956,1014.06225 205.232453,1013.87939 205.98441,1013.87939 C207.46098,1013.87939 208.604279,1014.33227 209.414342,1015.23804 C210.224404,1016.1438 210.62943,1017.42724 210.62943,1019.08838 C210.62943,1020.74268 210.212442,1022.02441 209.378453,1022.93359 C208.544465,1023.84278 207.372113,1024.29736 205.861363,1024.29736 C204.084011,1024.29736 202.781778,1023.65992 201.954625,1022.38501 C201.127472,1021.1101 200.713902,1019.10206 200.713902,1016.36084 C200.713902,1013.77684 201.211212,1011.8064 202.205846,1010.44946 C203.20048,1009.09252 204.641139,1008.41406 206.527867,1008.41406 C207.033729,1008.41406 207.539583,1008.46704 208.045445,1008.573 C208.551307,1008.67896 209.040072,1008.83105 209.511754,1009.0293 L209.511754,1009.0293 Z M205.820348,1015.49951 C204.938507,1015.49951 204.244667,1015.81738 203.738805,1016.45312 C203.232943,1017.08887 202.980016,1017.96728 202.980016,1019.08838 C202.980016,1020.20948 203.232943,1021.08789 203.738805,1021.72363 C204.244667,1022.35938 204.938507,1022.67725 205.820348,1022.67725 C206.736368,1022.67725 207.426791,1022.37476 207.891637,1021.76978 C208.356483,1021.16479 208.588902,1020.271 208.588902,1019.08838 C208.588902,1017.89892 208.356483,1017.00342 207.891637,1016.40186 C207.426791,1015.80029 206.736368,1015.49951 205.820348,1015.49951 L205.820348,1015.49951 Z M218.309605,1008.46533 C219.943403,1008.46533 221.178986,1009.13183 222.016393,1010.46484 C222.853799,1011.79786 223.272496,1013.77001 223.272496,1016.38135 C223.272496,1018.99269 222.853799,1020.96484 222.016393,1022.29785 C221.178986,1023.63087 219.943403,1024.29736 218.309605,1024.29736 C216.675808,1024.29736 215.441934,1023.63087 214.607945,1022.29785 C213.773957,1020.96484 213.356969,1018.99269 213.356969,1016.38135 C213.356969,1013.77001 213.773957,1011.79786 214.607945,1010.46484 C215.441934,1009.13183 216.675808,1008.46533 218.309605,1008.46533 L218.309605,1008.46533 Z M218.309605,1022.65674 C219.280313,1022.65674 220.003207,1022.14063 220.478307,1021.1084 C220.953407,1020.07617 221.190953,1018.5005 221.190953,1016.38135 C221.190953,1015.25341 221.122594,1014.23487 220.985875,1013.32568 L216.105016,1020.96484 C216.617714,1022.09278 217.352569,1022.65674 218.309605,1022.65674 L218.309605,1022.65674 Z M218.309605,1010.10596 C217.345733,1010.10596 216.626258,1010.62207 216.151158,1011.6543 C215.676058,1012.68653 215.438512,1014.2622 215.438512,1016.38135 C215.438512,1017.34522 215.503452,1018.24755 215.633336,1019.08838 L220.411656,1011.46973 C219.892122,1010.56054 219.191446,1010.10596 218.309605,1010.10596 L218.309605,1010.10596 Z M234.797887,1009.0293 L234.797887,1010.93652 C234.367221,1010.68359 233.909217,1010.49048 233.423863,1010.35718 C232.938509,1010.22388 232.432655,1010.15723 231.906285,1010.15723 C230.593779,1010.15723 229.59916,1010.65112 228.922398,1011.63892 C228.245637,1012.62671 227.907262,1014.08105 227.907262,1016.00195 C228.235388,1015.31836 228.689974,1014.7937 229.271031,1014.42798 C229.852089,1014.06225 230.518586,1013.87939 231.270543,1013.87939 C232.747113,1013.87939 233.890412,1014.33227 234.700475,1015.23804 C235.510537,1016.1438 235.915562,1017.42724 235.915562,1019.08838 C235.915562,1020.74268 235.498574,1022.02441 234.664586,1022.93359 C233.830597,1023.84278 232.658246,1024.29736 231.147496,1024.29736 C229.370143,1024.29736 228.06791,1023.65992 227.240758,1022.38501 C226.413605,1021.1101 226.000035,1019.10206 226.000035,1016.36084 C226.000035,1013.77684 226.497345,1011.8064 227.491979,1010.44946 C228.486612,1009.09252 229.927272,1008.41406 231.814,1008.41406 C232.319862,1008.41406 232.825716,1008.46704 233.331578,1008.573 C233.83744,1008.67896 234.326205,1008.83105 234.797887,1009.0293 L234.797887,1009.0293 Z M231.10648,1015.49951 C230.22464,1015.49951 229.530799,1015.81738 229.024937,1016.45312 C228.519076,1017.08887 228.266148,1017.96728 228.266148,1019.08838 C228.266148,1020.20948 228.519076,1021.08789 229.024937,1021.72363 C229.530799,1022.35938 230.22464,1022.67725 231.10648,1022.67725 C232.022501,1022.67725 232.712923,1022.37476 233.17777,1021.76978 C233.642616,1021.16479 233.875035,1020.271 233.875035,1019.08838 C233.875035,1017.89892 233.642616,1017.00342 233.17777,1016.40186 C232.712923,1015.80029 232.022501,1015.49951 231.10648,1015.49951 L231.10648,1015.49951 Z M241.104039,1022.25684 L248.138219,1022.25684 L248.138219,1024 L238.837926,1024 L238.837926,1022.25684 C240.116252,1020.91015 241.233917,1019.72071 242.190953,1018.68848 C243.147989,1017.65624 243.807651,1016.92822 244.169957,1016.50439 C244.853554,1015.67041 245.314975,1014.99536 245.554234,1014.47925 C245.793493,1013.96313 245.913121,1013.43506 245.913121,1012.89502 C245.913121,1012.04052 245.661903,1011.37061 245.159459,1010.88525 C244.657015,1010.3999 243.968301,1010.15723 243.093297,1010.15723 C242.471223,1010.15723 241.818398,1010.27002 241.134801,1010.49561 C240.451204,1010.72119 239.726601,1011.06299 238.960973,1011.521 L238.960973,1009.4292 C239.665078,1009.09424 240.357209,1008.84131 241.037389,1008.67041 C241.717568,1008.49951 242.389192,1008.41406 243.052281,1008.41406 C244.549359,1008.41406 245.754181,1008.81225 246.666783,1009.60864 C247.579385,1010.40503 248.03568,1011.44921 248.03568,1012.74121 C248.03568,1013.39746 247.883582,1014.05371 247.579381,1014.70996 C247.27518,1015.36621 246.781289,1016.09082 246.097691,1016.88379 C245.714877,1017.32813 245.159463,1017.94336 244.431432,1018.72949 C243.703401,1019.51563 242.594281,1020.6914 241.104039,1022.25684 L241.104039,1022.25684 Z M252.311559,1008.69092 L261.324742,1008.69092 L261.324742,1010.43408 L254.393102,1010.43408 L254.393102,1014.53564 L260.678746,1014.53564 L260.678746,1016.27881 L254.393102,1016.27881 L254.393102,1024 L252.311559,1024 L252.311559,1008.69092 Z M268.881871,1008.46533 C270.515668,1008.46533 271.751252,1009.13183 272.588658,1010.46484 C273.426065,1011.79786 273.844762,1013.77001 273.844762,1016.38135 C273.844762,1018.99269 273.426065,1020.96484 272.588658,1022.29785 C271.751252,1023.63087 270.515668,1024.29736 268.881871,1024.29736 C267.248074,1024.29736 266.014199,1023.63087 265.180211,1022.29785 C264.346222,1020.96484 263.929234,1018.99269 263.929234,1016.38135 C263.929234,1013.77001 264.346222,1011.79786 265.180211,1010.46484 C266.014199,1009.13183 267.248074,1008.46533 268.881871,1008.46533 L268.881871,1008.46533 Z M268.881871,1022.65674 C269.852579,1022.65674 270.575472,1022.14063 271.050572,1021.1084 C271.525672,1020.07617 271.763219,1018.5005 271.763219,1016.38135 C271.763219,1015.25341 271.69486,1014.23487 271.558141,1013.32568 L266.677281,1020.96484 C267.189979,1022.09278 267.924835,1022.65674 268.881871,1022.65674 L268.881871,1022.65674 Z M268.881871,1010.10596 C267.917999,1010.10596 267.198524,1010.62207 266.723424,1011.6543 C266.248324,1012.68653 266.010777,1014.2622 266.010777,1016.38135 C266.010777,1017.34522 266.075718,1018.24755 266.205602,1019.08838 L270.983922,1011.46973 C270.464388,1010.56054 269.763711,1010.10596 268.881871,1010.10596 L268.881871,1010.10596 Z M276.25443,1016.57617 L287.12357,1016.57617 L287.12357,1018.30908 L276.25443,1018.30908 L276.25443,1016.57617 Z M293.962926,1017.21191 C294.844766,1017.21191 295.536898,1016.89405 296.039342,1016.2583 C296.541786,1015.62256 296.793004,1014.74415 296.793004,1013.62305 C296.793004,1012.50195 296.541786,1011.62354 296.039342,1010.98779 C295.536898,1010.35205 294.844766,1010.03418 293.962926,1010.03418 C293.046906,1010.03418 292.356483,1010.33667 291.891637,1010.94165 C291.426791,1011.54663 291.194371,1012.44042 291.194371,1013.62305 C291.194371,1014.81251 291.425082,1015.708 291.88651,1016.30957 C292.347938,1016.91114 293.04007,1017.21191 293.962926,1017.21191 L293.962926,1017.21191 Z M290.27152,1023.68213 L290.27152,1021.7749 C290.702186,1022.02783 291.160189,1022.22095 291.645543,1022.35425 C292.130897,1022.48755 292.636751,1022.5542 293.163121,1022.5542 C294.475628,1022.5542 295.468538,1022.06031 296.141881,1021.07251 C296.815224,1020.08471 297.151891,1018.63038 297.151891,1016.70947 C296.8306,1017.39307 296.379433,1017.91772 295.798375,1018.28345 C295.217317,1018.64917 294.55082,1018.83203 293.798863,1018.83203 C292.322293,1018.83203 291.178994,1018.37745 290.368932,1017.46826 C289.558869,1016.55908 289.153844,1015.27052 289.153844,1013.60254 C289.153844,1011.95507 289.569123,1010.67847 290.399693,1009.77271 C291.230264,1008.86694 292.404324,1008.41406 293.92191,1008.41406 C295.699263,1008.41406 297.001496,1009.05322 297.828648,1010.33154 C298.655801,1011.60987 299.069371,1013.61962 299.069371,1016.36084 C299.069371,1018.938 298.572062,1020.90502 297.577428,1022.26196 C296.582794,1023.6189 295.138716,1024.29736 293.245152,1024.29736 C292.746126,1024.29736 292.24369,1024.24439 291.737828,1024.13843 C291.231966,1024.03247 290.743202,1023.88037 290.27152,1023.68213 L290.27152,1023.68213 Z M306.81107,1016.72998 C305.888214,1016.72998 305.175575,1016.98803 304.673131,1017.50415 C304.170687,1018.02027 303.919469,1018.75 303.919469,1019.69336 C303.919469,1020.63672 304.174105,1021.36987 304.683385,1021.89282 C305.192665,1022.41577 305.901886,1022.67725 306.81107,1022.67725 C307.740762,1022.67725 308.45682,1022.41919 308.959264,1021.90308 C309.461708,1021.38696 309.712926,1020.6504 309.712926,1019.69336 C309.712926,1018.75683 309.45829,1018.02881 308.94901,1017.50928 C308.43973,1016.98974 307.727091,1016.72998 306.81107,1016.72998 L306.81107,1016.72998 Z M305.006383,1015.86865 C304.124542,1015.64307 303.435829,1015.22266 302.940221,1014.60742 C302.444613,1013.99218 302.196812,1013.25049 302.196812,1012.38232 C302.196812,1011.16552 302.610383,1010.19995 303.437535,1009.4856 C304.264688,1008.77124 305.389188,1008.41406 306.81107,1008.41406 C308.239788,1008.41406 309.367707,1008.77124 310.194859,1009.4856 C311.022012,1010.19995 311.435582,1011.16552 311.435582,1012.38232 C311.435582,1013.25049 311.187782,1013.99218 310.692174,1014.60742 C310.196566,1015.22266 309.507852,1015.64307 308.626012,1015.86865 C309.651407,1016.09424 310.435823,1016.54882 310.979283,1017.23242 C311.522743,1017.91602 311.794469,1018.80126 311.794469,1019.88818 C311.794469,1021.26905 311.353555,1022.34912 310.471715,1023.12842 C309.589874,1023.90772 308.369672,1024.29736 306.81107,1024.29736 C305.252469,1024.29736 304.033975,1023.90943 303.155553,1023.13354 C302.27713,1022.35766 301.837926,1021.28272 301.837926,1019.90869 C301.837926,1018.81494 302.109652,1017.92456 302.653111,1017.23755 C303.196571,1016.55053 303.980987,1016.09424 305.006383,1015.86865 L305.006383,1015.86865 Z M304.257848,1012.57715 C304.257848,1013.39747 304.476595,1014.02295 304.914098,1014.45361 C305.3516,1014.88428 305.983918,1015.09961 306.81107,1015.09961 C307.645059,1015.09961 308.280795,1014.88428 308.718297,1014.45361 C309.155799,1014.02295 309.374547,1013.39747 309.374547,1012.57715 C309.374547,1011.74316 309.157508,1011.10742 308.723424,1010.66992 C308.28934,1010.23242 307.651895,1010.01367 306.81107,1010.01367 C305.983918,1010.01367 305.3516,1010.23413 304.914098,1010.67505 C304.476595,1011.11597 304.257848,1011.75 304.257848,1012.57715 L304.257848,1012.57715 Z M324.140172,1023.45654 C323.613802,1023.73682 323.073768,1023.94702 322.520055,1024.08716 C321.966341,1024.2273 321.378456,1024.29736 320.756383,1024.29736 C318.794459,1024.29736 317.271769,1023.60352 316.188268,1022.21582 C315.104766,1020.82812 314.563023,1018.87648 314.563023,1016.36084 C314.563023,1013.85887 315.108184,1011.90894 316.198521,1010.51099 C317.288859,1009.11303 318.808131,1008.41406 320.756383,1008.41406 C321.378456,1008.41406 321.966341,1008.48413 322.520055,1008.62427 C323.073768,1008.7644 323.613802,1008.97461 324.140172,1009.25488 L324.140172,1011.37744 C323.63431,1010.96045 323.090858,1010.64258 322.509801,1010.42383 C321.928743,1010.20508 321.344276,1010.0957 320.756383,1010.0957 C319.409696,1010.0957 318.401406,1010.61523 317.73148,1011.6543 C317.061555,1012.69336 316.726598,1014.2622 316.726598,1016.36084 C316.726598,1018.45265 317.061555,1020.01806 317.73148,1021.05713 C318.401406,1022.0962 319.409696,1022.61572 320.756383,1022.61572 C321.357948,1022.61572 321.947542,1022.50635 322.525182,1022.2876 C323.102821,1022.06885 323.641146,1021.75098 324.140172,1021.33398 L324.140172,1023.45654 Z M332.097203,1010.51611 L329.913121,1018.3501 L334.281285,1018.3501 L332.097203,1010.51611 Z M330.846227,1008.69092 L333.358434,1008.69092 L338.044469,1024 L335.901402,1024 L334.773473,1020.01123 L329.41068,1020.01123 L328.303258,1024 L326.160191,1024 L330.846227,1008.69092 Z M339.469762,1016.57617 L350.338902,1016.57617 L350.338902,1018.30908 L339.469762,1018.30908 L339.469762,1016.57617 Z M358.603551,1010.57764 L353.773961,1018.66797 L358.603551,1018.66797 L358.603551,1010.57764 Z M358.265172,1008.69092 L360.664586,1008.69092 L360.664586,1018.66797 L362.705113,1018.66797 L362.705113,1020.34961 L360.664586,1020.34961 L360.664586,1024 L358.603551,1024 L358.603551,1020.34961 L352.112828,1020.34961 L352.112828,1018.39111 L358.265172,1008.69092 Z M367.534703,1022.25684 L374.568883,1022.25684 L374.568883,1024 L365.26859,1024 L365.26859,1022.25684 C366.546917,1020.91015 367.664581,1019.72071 368.621617,1018.68848 C369.578653,1017.65624 370.238315,1016.92822 370.600621,1016.50439 C371.284218,1015.67041 371.745639,1014.99536 371.984898,1014.47925 C372.224157,1013.96313 372.343785,1013.43506 372.343785,1012.89502 C372.343785,1012.04052 372.092567,1011.37061 371.590123,1010.88525 C371.087679,1010.3999 370.398965,1010.15723 369.523961,1010.15723 C368.901888,1010.15723 368.249062,1010.27002 367.565465,1010.49561 C366.881868,1010.72119 366.157266,1011.06299 365.391637,1011.521 L365.391637,1009.4292 C366.095742,1009.09424 366.787874,1008.84131 367.468053,1008.67041 C368.148232,1008.49951 368.819856,1008.41406 369.482945,1008.41406 C370.980023,1008.41406 372.184845,1008.81225 373.097447,1009.60864 C374.010049,1010.40503 374.466344,1011.44921 374.466344,1012.74121 C374.466344,1013.39746 374.314246,1014.05371 374.010045,1014.70996 C373.705844,1015.36621 373.211953,1016.09082 372.528355,1016.88379 C372.145541,1017.32813 371.590127,1017.94336 370.862096,1018.72949 C370.134065,1019.51563 369.024945,1020.6914 367.534703,1022.25684 L367.534703,1022.25684 Z M379.121617,1022.26709 L382.341344,1022.26709 L382.341344,1010.70068 L378.485875,1012.55664 L378.485875,1010.56738 L382.320836,1008.74219 L384.392125,1008.74219 L384.392125,1022.26709 L387.570836,1022.26709 L387.570836,1024 L379.121617,1024 L379.121617,1022.26709 Z M391.764684,1022.26709 L394.98441,1022.26709 L394.98441,1010.70068 L391.128941,1012.55664 L391.128941,1010.56738 L394.963902,1008.74219 L397.035191,1008.74219 L397.035191,1022.26709 L400.213902,1022.26709 L400.213902,1024 L391.764684,1024 L391.764684,1022.26709 Z M402.685094,1016.57617 L413.554234,1016.57617 L413.554234,1018.30908 L402.685094,1018.30908 L402.685094,1016.57617 Z M420.598668,1016.72998 C419.675812,1016.72998 418.963172,1016.98803 418.460729,1017.50415 C417.958285,1018.02027 417.707066,1018.75 417.707066,1019.69336 C417.707066,1020.63672 417.961703,1021.36987 418.470982,1021.89282 C418.980262,1022.41577 419.689484,1022.67725 420.598668,1022.67725 C421.52836,1022.67725 422.244417,1022.41919 422.746861,1021.90308 C423.249305,1021.38696 423.500523,1020.6504 423.500523,1019.69336 C423.500523,1018.75683 423.245887,1018.02881 422.736607,1017.50928 C422.227328,1016.98974 421.514688,1016.72998 420.598668,1016.72998 L420.598668,1016.72998 Z M418.79398,1015.86865 C417.91214,1015.64307 417.223426,1015.22266 416.727818,1014.60742 C416.23221,1013.99218 415.98441,1013.25049 415.98441,1012.38232 C415.98441,1011.16552 416.39798,1010.19995 417.225133,1009.4856 C418.052285,1008.77124 419.176786,1008.41406 420.598668,1008.41406 C422.027386,1008.41406 423.155304,1008.77124 423.982457,1009.4856 C424.80961,1010.19995 425.22318,1011.16552 425.22318,1012.38232 C425.22318,1013.25049 424.975379,1013.99218 424.479771,1014.60742 C423.984164,1015.22266 423.29545,1015.64307 422.413609,1015.86865 C423.439005,1016.09424 424.223421,1016.54882 424.766881,1017.23242 C425.310341,1017.91602 425.582066,1018.80126 425.582066,1019.88818 C425.582066,1021.26905 425.141153,1022.34912 424.259312,1023.12842 C423.377472,1023.90772 422.15727,1024.29736 420.598668,1024.29736 C419.040066,1024.29736 417.821573,1023.90943 416.94315,1023.13354 C416.064728,1022.35766 415.625523,1021.28272 415.625523,1019.90869 C415.625523,1018.81494 415.897249,1017.92456 416.440709,1017.23755 C416.984169,1016.55053 417.768585,1016.09424 418.79398,1015.86865 L418.79398,1015.86865 Z M418.045445,1012.57715 C418.045445,1013.39747 418.264193,1014.02295 418.701695,1014.45361 C419.139197,1014.88428 419.771515,1015.09961 420.598668,1015.09961 C421.432657,1015.09961 422.068392,1014.88428 422.505895,1014.45361 C422.943397,1014.02295 423.162145,1013.39747 423.162145,1012.57715 C423.162145,1011.74316 422.945106,1011.10742 422.511021,1010.66992 C422.076937,1010.23242 421.439492,1010.01367 420.598668,1010.01367 C419.771515,1010.01367 419.139197,1010.23413 418.701695,1010.67505 C418.264193,1011.11597 418.045445,1011.75 418.045445,1012.57715 L418.045445,1012.57715 Z M428.945348,1008.69092 L438.030309,1008.69092 L438.030309,1010.43408 L431.016637,1010.43408 L431.016637,1014.55615 L437.722691,1014.55615 L437.722691,1016.29932 L431.016637,1016.29932 L431.016637,1022.25684 L438.225133,1022.25684 L438.225133,1024 L428.945348,1024 L428.945348,1008.69092 Z M450.570836,1023.45654 C450.044466,1023.73682 449.504432,1023.94702 448.950719,1024.08716 C448.397005,1024.2273 447.80912,1024.29736 447.187047,1024.29736 C445.225123,1024.29736 443.702433,1023.60352 442.618932,1022.21582 C441.53543,1020.82812 440.993687,1018.87648 440.993687,1016.36084 C440.993687,1013.85887 441.538848,1011.90894 442.629186,1010.51099 C443.719523,1009.11303 445.238795,1008.41406 447.187047,1008.41406 C447.80912,1008.41406 448.397005,1008.48413 448.950719,1008.62427 C449.504432,1008.7644 450.044466,1008.97461 450.570836,1009.25488 L450.570836,1011.37744 C450.064974,1010.96045 449.521522,1010.64258 448.940465,1010.42383 C448.359407,1010.20508 447.77494,1010.0957 447.187047,1010.0957 C445.84036,1010.0957 444.83207,1010.61523 444.162145,1011.6543 C443.492219,1012.69336 443.157262,1014.2622 443.157262,1016.36084 C443.157262,1018.45265 443.492219,1020.01806 444.162145,1021.05713 C444.83207,1022.0962 445.84036,1022.61572 447.187047,1022.61572 C447.788612,1022.61572 448.378206,1022.50635 448.955846,1022.2876 C449.533485,1022.06885 450.07181,1021.75098 450.570836,1021.33398 L450.570836,1023.45654 Z M459.748082,1010.57764 L454.918492,1018.66797 L459.748082,1018.66797 L459.748082,1010.57764 Z M459.409703,1008.69092 L461.809117,1008.69092 L461.809117,1018.66797 L463.849645,1018.66797 L463.849645,1020.34961 L461.809117,1020.34961 L461.809117,1024 L459.748082,1024 L459.748082,1020.34961 L453.257359,1020.34961 L453.257359,1018.39111 L459.409703,1008.69092 Z M465.900426,1016.57617 L476.769566,1016.57617 L476.769566,1018.30908 L465.900426,1018.30908 L465.900426,1016.57617 Z M480.266148,1022.26709 L483.485875,1022.26709 L483.485875,1010.70068 L479.630406,1012.55664 L479.630406,1010.56738 L483.465367,1008.74219 L485.536656,1008.74219 L485.536656,1022.26709 L488.715367,1022.26709 L488.715367,1024 L480.266148,1024 L480.266148,1022.26709 Z M496.251988,1017.21191 C497.133829,1017.21191 497.82596,1016.89405 498.328404,1016.2583 C498.830848,1015.62256 499.082066,1014.74415 499.082066,1013.62305 C499.082066,1012.50195 498.830848,1011.62354 498.328404,1010.98779 C497.82596,1010.35205 497.133829,1010.03418 496.251988,1010.03418 C495.335968,1010.03418 494.645545,1010.33667 494.180699,1010.94165 C493.715853,1011.54663 493.483434,1012.44042 493.483434,1013.62305 C493.483434,1014.81251 493.714144,1015.708 494.175572,1016.30957 C494.637,1016.91114 495.329132,1017.21191 496.251988,1017.21191 L496.251988,1017.21191 Z M492.560582,1023.68213 L492.560582,1021.7749 C492.991248,1022.02783 493.449251,1022.22095 493.934605,1022.35425 C494.419959,1022.48755 494.925814,1022.5542 495.452184,1022.5542 C496.76469,1022.5542 497.7576,1022.06031 498.430943,1021.07251 C499.104287,1020.08471 499.440953,1018.63038 499.440953,1016.70947 C499.119662,1017.39307 498.668495,1017.91772 498.087437,1018.28345 C497.50638,1018.64917 496.839883,1018.83203 496.087926,1018.83203 C494.611356,1018.83203 493.468057,1018.37745 492.657994,1017.46826 C491.847931,1016.55908 491.442906,1015.27052 491.442906,1013.60254 C491.442906,1011.95507 491.858185,1010.67847 492.688756,1009.77271 C493.519326,1008.86694 494.693387,1008.41406 496.210973,1008.41406 C497.988325,1008.41406 499.290558,1009.05322 500.117711,1010.33154 C500.944864,1011.60987 501.358434,1013.61962 501.358434,1016.36084 C501.358434,1018.938 500.861124,1020.90502 499.86649,1022.26196 C498.871856,1023.6189 497.427779,1024.29736 495.534215,1024.29736 C495.035189,1024.29736 494.532753,1024.24439 494.026891,1024.13843 C493.521029,1024.03247 493.032264,1023.88037 492.560582,1023.68213 L492.560582,1023.68213 Z M510.740758,1015.80713 C511.745646,1016.07373 512.514681,1016.54712 513.047887,1017.22729 C513.581093,1017.90747 513.847691,1018.75683 513.847691,1019.77539 C513.847691,1021.1836 513.374307,1022.2893 512.427525,1023.09253 C511.480743,1023.89576 510.169965,1024.29736 508.495152,1024.29736 C507.791047,1024.29736 507.073281,1024.23242 506.341832,1024.10254 C505.610383,1023.97266 504.892617,1023.78467 504.188512,1023.53857 L504.188512,1021.47754 C504.885781,1021.83985 505.572786,1022.10986 506.249547,1022.2876 C506.926308,1022.46533 507.599641,1022.5542 508.269566,1022.5542 C509.404338,1022.5542 510.275911,1022.29785 510.884312,1021.78516 C511.492714,1021.27246 511.79691,1020.53418 511.79691,1019.57031 C511.79691,1018.68164 511.492714,1017.97583 510.884312,1017.45288 C510.275911,1016.92993 509.452189,1016.66846 508.413121,1016.66846 L506.83402,1016.66846 L506.83402,1014.96631 L508.413121,1014.96631 C509.363321,1014.96631 510.105013,1014.75781 510.638219,1014.34082 C511.171425,1013.92383 511.438023,1013.34278 511.438023,1012.59766 C511.438023,1011.81152 511.190223,1011.20825 510.694615,1010.78784 C510.199007,1010.36743 509.493204,1010.15723 508.577184,1010.15723 C507.968782,1010.15723 507.339882,1010.22559 506.690465,1010.3623 C506.041048,1010.49902 505.360879,1010.7041 504.649937,1010.97754 L504.649937,1009.07031 C505.47709,1008.85156 506.213655,1008.6875 506.859654,1008.57812 C507.505654,1008.46875 508.078158,1008.41406 508.577184,1008.41406 C510.067425,1008.41406 511.258576,1008.78833 512.15067,1009.53687 C513.042764,1010.2854 513.488805,1011.27831 513.488805,1012.51562 C513.488805,1013.35645 513.254676,1014.05713 512.786412,1014.61768 C512.318148,1015.17823 511.63627,1015.57471 510.740758,1015.80713 L510.740758,1015.80713 Z M517.446812,1008.69092 L526.531773,1008.69092 L526.531773,1010.43408 L519.518102,1010.43408 L519.518102,1014.55615 L526.224156,1014.55615 L526.224156,1016.29932 L519.518102,1016.29932 L519.518102,1022.25684 L526.726598,1022.25684 L526.726598,1024 L517.446812,1024 L517.446812,1008.69092 Z M531.853551,1016.27881 L531.853551,1022.29785 L534.304234,1022.29785 C535.507365,1022.29785 536.365267,1022.08765 536.877965,1021.66724 C537.390663,1021.24682 537.647008,1020.55469 537.647008,1019.59082 C537.647008,1018.31933 537.376991,1017.44947 536.836949,1016.9812 C536.296907,1016.51294 535.452678,1016.27881 534.304234,1016.27881 L531.853551,1016.27881 Z M531.853551,1010.39307 L531.853551,1014.59717 L534.263219,1014.59717 C535.261271,1014.59717 535.984164,1014.40576 536.43192,1014.02295 C536.879676,1013.64013 537.103551,1013.15821 537.103551,1012.57715 C537.103551,1011.80468 536.883094,1011.24756 536.442174,1010.90576 C536.001254,1010.56396 535.274943,1010.39307 534.263219,1010.39307 L531.853551,1010.39307 Z M529.772008,1008.69092 L534.304234,1008.69092 C535.869672,1008.69092 537.076203,1009.02929 537.923863,1009.70605 C538.771524,1010.38282 539.195348,1011.33984 539.195348,1012.57715 C539.195348,1013.24024 538.971473,1013.84179 538.523717,1014.38184 C538.075961,1014.92188 537.404337,1015.26025 536.508824,1015.39697 C537.513712,1015.54736 538.301546,1015.97631 538.87235,1016.68384 C539.443153,1017.39136 539.728551,1018.4287 539.728551,1019.7959 C539.728551,1021.1836 539.273965,1022.2312 538.364781,1022.93872 C537.455597,1023.64624 536.102095,1024 534.304234,1024 L529.772008,1024 L529.772008,1008.69092 Z M542.138219,1008.69092 L551.776891,1008.69092 L551.776891,1009.57275 L546.301305,1024 L544.13773,1024 L549.469762,1010.43408 L542.138219,1010.43408 L542.138219,1008.69092 Z M561.313023,1015.80713 C562.317911,1016.07373 563.086947,1016.54712 563.620152,1017.22729 C564.153358,1017.90747 564.419957,1018.75683 564.419957,1019.77539 C564.419957,1021.1836 563.946573,1022.2893 562.999791,1023.09253 C562.053009,1023.89576 560.742231,1024.29736 559.067418,1024.29736 C558.363313,1024.29736 557.645547,1024.23242 556.914098,1024.10254 C556.182649,1023.97266 555.464882,1023.78467 554.760777,1023.53857 L554.760777,1021.47754 C555.458046,1021.83985 556.145051,1022.10986 556.821812,1022.2876 C557.498574,1022.46533 558.171907,1022.5542 558.841832,1022.5542 C559.976603,1022.5542 560.848177,1022.29785 561.456578,1021.78516 C562.06498,1021.27246 562.369176,1020.53418 562.369176,1019.57031 C562.369176,1018.68164 562.06498,1017.97583 561.456578,1017.45288 C560.848177,1016.92993 560.024454,1016.66846 558.985387,1016.66846 L557.406285,1016.66846 L557.406285,1014.96631 L558.985387,1014.96631 C559.935587,1014.96631 560.677279,1014.75781 561.210484,1014.34082 C561.74369,1013.92383 562.010289,1013.34278 562.010289,1012.59766 C562.010289,1011.81152 561.762489,1011.20825 561.266881,1010.78784 C560.771273,1010.36743 560.065469,1010.15723 559.149449,1010.15723 C558.541048,1010.15723 557.912148,1010.22559 557.26273,1010.3623 C556.613313,1010.49902 555.933144,1010.7041 555.222203,1010.97754 L555.222203,1009.07031 C556.049356,1008.85156 556.785921,1008.6875 557.43192,1008.57812 C558.077919,1008.46875 558.650423,1008.41406 559.149449,1008.41406 C560.639691,1008.41406 561.830841,1008.78833 562.722936,1009.53687 C563.61503,1010.2854 564.06107,1011.27831 564.06107,1012.51562 C564.06107,1013.35645 563.826942,1014.05713 563.358678,1014.61768 C562.890414,1015.17823 562.208536,1015.57471 561.313023,1015.80713 L561.313023,1015.80713 Z M577.0015,1023.45654 C576.47513,1023.73682 575.935097,1023.94702 575.381383,1024.08716 C574.827669,1024.2273 574.239784,1024.29736 573.617711,1024.29736 C571.655787,1024.29736 570.133097,1023.60352 569.049596,1022.21582 C567.966094,1020.82812 567.424352,1018.87648 567.424352,1016.36084 C567.424352,1013.85887 567.969512,1011.90894 569.05985,1010.51099 C570.150187,1009.11303 571.669459,1008.41406 573.617711,1008.41406 C574.239784,1008.41406 574.827669,1008.48413 575.381383,1008.62427 C575.935097,1008.7644 576.47513,1008.97461 577.0015,1009.25488 L577.0015,1011.37744 C576.495638,1010.96045 575.952186,1010.64258 575.371129,1010.42383 C574.790071,1010.20508 574.205605,1010.0957 573.617711,1010.0957 C572.271025,1010.0957 571.262734,1010.61523 570.592809,1011.6543 C569.922883,1012.69336 569.587926,1014.2622 569.587926,1016.36084 C569.587926,1018.45265 569.922883,1020.01806 570.592809,1021.05713 C571.262734,1022.0962 572.271025,1022.61572 573.617711,1022.61572 C574.219276,1022.61572 574.80887,1022.50635 575.38651,1022.2876 C575.964149,1022.06885 576.502474,1021.75098 577.0015,1021.33398 L577.0015,1023.45654 Z M580.662145,1008.69092 L589.747105,1008.69092 L589.747105,1010.43408 L582.733434,1010.43408 L582.733434,1014.55615 L589.439488,1014.55615 L589.439488,1016.29932 L582.733434,1016.29932 L582.733434,1022.25684 L589.94193,1022.25684 L589.94193,1024 L580.662145,1024 L580.662145,1008.69092 Z M595.068883,1016.27881 L595.068883,1022.29785 L597.519566,1022.29785 C598.722697,1022.29785 599.580599,1022.08765 600.093297,1021.66724 C600.605995,1021.24682 600.86234,1020.55469 600.86234,1019.59082 C600.86234,1018.31933 600.592323,1017.44947 600.052281,1016.9812 C599.512239,1016.51294 598.66801,1016.27881 597.519566,1016.27881 L595.068883,1016.27881 Z M595.068883,1010.39307 L595.068883,1014.59717 L597.478551,1014.59717 C598.476603,1014.59717 599.199496,1014.40576 599.647252,1014.02295 C600.095008,1013.64013 600.318883,1013.15821 600.318883,1012.57715 C600.318883,1011.80468 600.098426,1011.24756 599.657506,1010.90576 C599.216586,1010.56396 598.490275,1010.39307 597.478551,1010.39307 L595.068883,1010.39307 Z M592.98734,1008.69092 L597.519566,1008.69092 C599.085004,1008.69092 600.291535,1009.02929 601.139195,1009.70605 C601.986856,1010.38282 602.41068,1011.33984 602.41068,1012.57715 C602.41068,1013.24024 602.186805,1013.84179 601.739049,1014.38184 C601.291293,1014.92188 600.619669,1015.26025 599.724156,1015.39697 C600.729044,1015.54736 601.516878,1015.97631 602.087682,1016.68384 C602.658485,1017.39136 602.943883,1018.4287 602.943883,1019.7959 C602.943883,1021.1836 602.489298,1022.2312 601.580113,1022.93872 C600.670929,1023.64624 599.317427,1024 597.519566,1024 L592.98734,1024 L592.98734,1008.69092 Z M605.948277,1008.69092 L615.033238,1008.69092 L615.033238,1010.43408 L608.019566,1010.43408 L608.019566,1014.55615 L614.725621,1014.55615 L614.725621,1016.29932 L608.019566,1016.29932 L608.019566,1022.25684 L615.228062,1022.25684 L615.228062,1024 L605.948277,1024 L605.948277,1008.69092 Z M626.732945,1009.0293 L626.732945,1010.93652 C626.302279,1010.68359 625.844276,1010.49048 625.358922,1010.35718 C624.873568,1010.22388 624.367714,1010.15723 623.841344,1010.15723 C622.528837,1010.15723 621.534218,1010.65112 620.857457,1011.63892 C620.180696,1012.62671 619.84232,1014.08105 619.84232,1016.00195 C620.170447,1015.31836 620.625032,1014.7937 621.20609,1014.42798 C621.787147,1014.06225 622.453645,1013.87939 623.205602,1013.87939 C624.682171,1013.87939 625.825471,1014.33227 626.635533,1015.23804 C627.445596,1016.1438 627.850621,1017.42724 627.850621,1019.08838 C627.850621,1020.74268 627.433633,1022.02441 626.599645,1022.93359 C625.765656,1023.84278 624.593304,1024.29736 623.082555,1024.29736 C621.305202,1024.29736 620.002969,1023.65992 619.175816,1022.38501 C618.348664,1021.1101 617.935094,1019.10206 617.935094,1016.36084 C617.935094,1013.77684 618.432403,1011.8064 619.427037,1010.44946 C620.421671,1009.09252 621.86233,1008.41406 623.749059,1008.41406 C624.25492,1008.41406 624.760775,1008.46704 625.266637,1008.573 C625.772499,1008.67896 626.261263,1008.83105 626.732945,1009.0293 L626.732945,1009.0293 Z M623.041539,1015.49951 C622.159699,1015.49951 621.465858,1015.81738 620.959996,1016.45312 C620.454134,1017.08887 620.201207,1017.96728 620.201207,1019.08838 C620.201207,1020.20948 620.454134,1021.08789 620.959996,1021.72363 C621.465858,1022.35938 622.159699,1022.67725 623.041539,1022.67725 C623.957559,1022.67725 624.647982,1022.37476 625.112828,1021.76978 C625.577674,1021.16479 625.810094,1020.271 625.810094,1019.08838 C625.810094,1017.89892 625.577674,1017.00342 625.112828,1016.40186 C624.647982,1015.80029 623.957559,1015.49951 623.041539,1015.49951 L623.041539,1015.49951 Z" id="UUID-AA6062F0-98CA-4" opacity="0.785039646" fill="#3C594B" sketch:type="MSShapeGroup"></path>
            </g>
            <g id="Oval-36-+-Path-171" sketch:type="MSLayerGroup" transform="translate(1570.000000, 537.000000)" fill="#D8D8D8">
                <path d="M13,109 C20.1797017,109 26,103.179702 26,96 C26,88.8202983 20.1797017,83 13,83 C5.82029825,83 0,88.8202983 0,96 C0,103.179702 5.82029825,109 13,109 Z M13.5,104 C17.6421356,104 21,100.642136 21,96.5 C21,92.3578644 17.6421356,89 13.5,89 C9.35786438,89 6,92.3578644 6,96.5 C6,100.642136 9.35786438,104 13.5,104 Z" id="Oval-36" sketch:type="MSShapeGroup"></path>
                <path d="M21.3634213,88.2098811 C24.1259838,76.5666273 29.6511088,53.2801195 29.6511088,53.2801195 L51.3048109,0.338718923 C51.3048109,0.338718923 57.2501842,8.58086639 54.277498,20.3048597 C51.3048118,32.028853 39.4563071,61.2732461 39.4563071,61.2732461 C39.4563071,61.2732461 33.1474578,68.7455653 30.4704829,75.1333973 C27.7935079,81.5212293 25.3710619,95.2156853 25.3710619,95.2156853 C25.3710619,95.2156853 20.9909884,89.7795581 21.3634213,88.2098811 Z" id="Path-171" sketch:type="MSShapeGroup"></path>
            </g>
            <g id="Oval-36-+-Path-172" sketch:type="MSLayerGroup" transform="translate(1610.500000, 591.500000) scale(-1, 1) translate(-1610.500000, -591.500000) translate(1583.000000, 537.000000)" fill="#D8D8D8">
                <path d="M13,109 C20.1797017,109 26,103.179702 26,96 C26,88.8202983 20.1797017,83 13,83 C5.82029825,83 0,88.8202983 0,96 C0,103.179702 5.82029825,109 13,109 Z M13,105 C17.418278,105 21,101.418278 21,97 C21,92.581722 17.418278,89 13,89 C8.581722,89 5,92.581722 5,97 C5,101.418278 8.581722,105 13,105 Z" id="Oval-36" sketch:type="MSShapeGroup"></path>
                <path d="M21.3634213,88.2098811 C24.1259838,76.5666273 29.6511088,53.2801195 29.6511088,53.2801195 L51.3048109,0.338718923 C51.3048109,0.338718923 57.2501842,8.58086639 54.277498,20.3048597 C51.3048118,32.028853 39.4563071,61.2732461 39.4563071,61.2732461 C39.4563071,61.2732461 33.1474578,69.7455653 30.4704829,76.1333973 C27.7935079,82.5212293 25.3710619,95.2156853 25.3710619,95.2156853 C25.3710619,95.2156853 20.9909884,89.7795581 21.3634213,88.2098811 Z" id="Path-171" sketch:type="MSShapeGroup"></path>
            </g>
        </g>
    </g>
</svg>