<?xml version="1.0" encoding="UTF-8" standalone="no"?>
<svg width="1600px" height="600px" viewBox="0 0 1600 600" version="1.1" xmlns="http://www.w3.org/2000/svg" xmlns:xlink="http://www.w3.org/1999/xlink" xmlns:sketch="http://www.bohemiancoding.com/sketch/ns">
    <title>post_darkside</title>
    <description>Created with Sketch (http://www.bohemiancoding.com/sketch)</description>
    <defs x2="0%" id="linearGradient-1" x1="100%" y2="50%" y1="50%">
        <linearGradient>
            <stop stop-color="#FFFFFF" stop-opacity="0" offset="0%"></stop>
            <stop stop-color="#CFE4F3" offset="100%"></stop>
        </linearGradient>
    </defs>
    <g id="Page 1" stroke="none" stroke-width="1" fill="none" fill-rule="evenodd">
        <g id="post_darkside">
            <path d="M408,16 L408,594 L1191,594 L1191,16 L408,16 Z M408,16" id="Rectangle 12" fill="#000000"></path>
            <path d="M737.798555,277.941385 L728.591165,295.760139 L788.951813,304.384843 L792.02996,269.460685 L737.798555,277.941385 Z M737.798555,277.941385" id="Rectangle 9" fill="url(#linearGradient-1)"></path>
            <path d="M847.328781,253.233211 L885.147233,322.892702 L1240.63943,417.313978 L1403.28125,253.233211 L847.328781,253.233211 Z M847.328781,253.233211" id="Rectangle 9" fill="#4FFFCA"></path>
            <path d="M847.328781,253.233211 L870.219309,295.396294 L1314.17421,343.128611 L1403.28125,253.233211 L847.328781,253.233211 Z M847.328781,253.233211" id="Rectangle 9" fill="#8F4BFF"></path>
            <path d="M798.539313,166.15896 L959.123842,440.479955 L637.954785,440.479955 L798.539313,166.15896 Z M798.539313,166.15896" id="Triangle 1" stroke="#F2F2F9" stroke-width="6"></path>
            <path d="M648.21044,309.718187 C700.761643,295.353759 729.7267,287.813385 729.7267,287.813385" id="Line" stroke="#F6F6F6" stroke-width="6" stroke-linecap="square"></path>
            <path d="M290.238315,403.763981 L510.944115,343.435915" id="Line" stroke="#F6F6F6" stroke-width="6" stroke-linecap="square"></path>
            <path d="M287.238315,405.763981 L405.690593,373.386051" id="Line" stroke="#D9D9E0" stroke-width="6" stroke-linecap="square"></path>
            <path d="M508.096189,327.330495 L518.72727,345.029143 L539.825577,289.761529 L560.523537,344.685292 L577.179027,306.270268 L589.738091,342.7904 L602.481329,308.179644 L614.151899,342.379726 L627.749099,308.286147 L639.22974,343.956815 L647.993595,322.688764" id="Path 2" stroke="#FFFFFF" stroke-width="6" transform="translate(578.044892, 317.395336) rotate(-12.000000) translate(-578.044892, -317.395336) "></path>
            <path d="M873.000244,274.82224" id="Path 4" stroke="#979797" stroke-width="6"></path>
        </g>
    </g>
</svg>