<?xml version="1.0" encoding="UTF-8" standalone="no"?>
<svg width="680px" height="340px" viewBox="0 0 680 340" version="1.1" xmlns="http://www.w3.org/2000/svg" xmlns:xlink="http://www.w3.org/1999/xlink">
    <!-- Generator: Sketch 3.6.1 (26313) - http://www.bohemiancoding.com/sketch -->
    <title>post_nexts</title>
    <desc>Created with Sketch.</desc>
    <defs></defs>
    <g id="Page-1" stroke="none" stroke-width="1" fill="none" fill-rule="evenodd">
        <g id="post_nexts">
            <g transform="translate(196.000000, 25.000000)" id="Page-1">
                <g>
                    <g id="post_nexts-2">
                        <g id="Group-2" transform="translate(0.375224, 0.964406)">
                            <path d="M143.78346,288.053237 C105.377696,288.053237 69.2702413,273.073935 42.1129734,245.875073 C14.9561507,218.676212 0,182.512418 0,144.047202 C0,105.581987 14.9561507,69.4186386 42.1129734,42.2197774 C69.2702413,15.0204704 105.377696,0.0411677539 143.78346,0.0411677539 C182.189224,0.0411677539 218.296678,15.0204704 245.453946,42.2197774 C272.610769,69.4186386 287.566919,105.581987 287.566919,144.047202 C287.566919,182.512418 272.610769,218.676212 245.453946,245.875073 C218.296678,273.073935 182.189224,288.053237 143.78346,288.053237 L143.78346,288.053237 L143.78346,288.053237 L143.78346,288.053237 Z M47.464122,47.5787636 C21.736676,73.3464812 7.56755051,107.606542 7.56755051,144.047202 C7.56755051,180.487863 21.736676,214.747924 47.464122,240.515641 C73.1920131,266.283359 107.398677,280.473972 143.78346,280.473972 C180.167797,280.473972 214.374906,266.283359 240.102797,240.515641 C265.830243,214.747924 279.999369,180.487863 279.999369,144.047202 C279.999369,107.606542 265.830243,73.3464812 240.102797,47.5787636 C214.374906,21.8114918 180.167797,7.62043274 143.78346,7.62043274 C107.399122,7.62043274 73.1920131,21.8114918 47.464122,47.5787636 L47.464122,47.5787636 L47.464122,47.5787636 Z" id="Imported-Layers-3"></path>
                            <path d="M74.3778928,18.0356803 C72.835378,19.0921996 71.8435887,21.731288 72.8391306,23.3767411 C73.8346726,25.0221938 76.6213234,25.4170998 78.3045612,24.5257604 C98.2192381,13.4930256 120.702876,7.62043274 144.090613,7.62043274 C180.474951,7.62043274 214.68206,21.8114918 240.409951,47.5787636 C266.137397,73.3464812 280.306522,107.606096 280.306522,144.047202 C280.306522,180.487863 266.137397,214.747924 240.409951,240.515641 C214.68206,266.283359 180.474951,280.473972 144.090613,280.473972 C107.70583,280.473972 73.4991666,266.283359 47.7717206,240.515641 C39.4291639,232.16017 32.3103246,222.907225 26.4877622,212.981509 C24.4218209,214.449657 22.2214444,215.698899 20.0317514,216.944127 C26.163693,227.371413 33.6515617,237.092489 42.4205721,245.874628 C69.5773949,273.073935 105.684849,288.053237 144.090613,288.053237 C182.496377,288.053237 218.603832,273.073935 245.7611,245.874628 C272.917922,218.675766 287.874073,182.512418 287.874073,144.047202 C287.874073,105.581541 272.917922,69.4186386 245.7611,42.2197774 C218.603832,15.0204704 182.496377,0.0411677539 144.090613,0.0411677539 C119.297092,0.0411677539 95.4659851,6.29272385 74.3778928,18.0356803 L74.3778928,18.0356803 Z" id="Imported-Layers-2" fill="#F1F2F4" opacity="0.506704757"></path>
                            <ellipse id="Oval-10" fill="#F17075" cx="265.531993" cy="214.266863" rx="10.0158757" ry="10.0313801"></ellipse>
                            <ellipse id="Oval-11" fill="#23CDD1" cx="217.01064" cy="263.309166" rx="10.0158757" ry="10.0313801"></ellipse>
                            <ellipse id="Oval-12" fill="#F17075" cx="22.4800765" cy="213.821024" rx="10.0158757" ry="10.0313801"></ellipse>
                            <path d="M170.749991,111.410942 L163.407698,99.2843188 C159.402812,92.6697972 141.625965,63.3494238 138.28856,57.8373225 C136.870162,55.4946794 136.870162,55.4946794 135.868941,53.841049 C135.118024,52.6008262 135.118024,52.6008262 134.951154,52.3252211 C133.995074,50.7461468 131.941904,50.2423102 130.36527,51.1998705 C128.788636,52.1574307 128.285578,54.2137793 129.241659,55.7928536 C129.408529,56.0684587 129.408529,56.0684587 130.159445,57.3086815 C131.160667,58.9623119 131.160667,58.9623119 132.579064,61.3049549 C135.91647,66.8170563 153.693316,96.1374297 157.698203,102.751952 C161.70309,109.366473 161.70309,109.366473 165.040495,114.878575 L180.627731,140.622651 C181.583812,142.201726 183.636982,142.705562 185.213616,141.748002 C186.790249,140.790442 187.293307,138.734093 186.337227,137.155019 L170.749991,111.410942 L170.749991,111.410942 Z" id="Line-3-2" fill="#F8F9FA" transform="translate(157.789442, 96.473936) rotate(48.000000) translate(-157.789442, -96.473936) "></path>
                            <path d="M217.346387,170.031142 C215.789304,167.459443 215.789304,167.459443 213.920804,164.373405 C212.052304,161.287367 175.343267,98.3151112 173.786183,95.743413 C173.124423,94.6504412 173.124423,94.6504412 172.657298,93.8789317 C172.306954,93.3002996 172.306954,93.3002996 172.2291,93.1717147 C171.783036,92.4349897 170.825119,92.1999222 170.089533,92.6466767 C169.353947,93.0934312 169.119243,94.0528309 169.565307,94.7895559 C169.643161,94.9181408 169.643161,94.9181408 169.993504,95.4967729 C170.460629,96.2682824 170.460629,96.2682824 171.12239,97.3612541 C172.679473,99.9329524 209.388511,162.905209 211.25701,165.991247 C213.12551,169.077285 213.12551,169.077285 214.682593,171.648983 L221.954896,183.66001 C222.40096,184.396735 223.358877,184.631802 224.094463,184.185048 C224.830049,183.738293 225.064754,182.778894 224.61869,182.042169 L217.346387,170.031142 L217.346387,170.031142 Z" id="Line-3-3" fill="#F8F9FA" transform="translate(197.091999, 138.415862) rotate(114.000000) translate(-197.091999, -138.415862) "></path>
                            <path d="M130.122464,115.634556 C126.785058,110.122454 126.785058,110.122454 122.780172,103.507933 C118.775285,96.8934111 118.775285,96.8934111 115.437879,91.3813098 C114.019482,89.0386667 114.019482,89.0386667 113.01826,87.3850363 C112.267344,86.1448135 112.267344,86.1448135 112.100474,85.8692084 C111.144393,84.2901341 109.091223,83.7862975 107.514589,84.7438578 C105.937956,85.701418 105.434898,87.7577666 106.390978,89.3368409 C106.557848,89.612446 106.557848,89.612446 107.308765,90.8526688 C108.309986,92.5062992 108.309986,92.5062992 109.728384,94.8489422 C113.065789,100.361044 113.065789,100.361044 117.070676,106.975565 C121.075563,113.590087 121.075563,113.590087 124.412968,119.102188 L140.000205,144.846265 C140.956285,146.425339 143.009455,146.929176 144.586089,145.971616 C146.162723,145.014055 146.66578,142.957707 145.7097,141.378632 L130.122464,115.634556 L130.122464,115.634556 Z" id="Line-3" fill="#F17075"></path>
                            <ellipse id="Oval-9" fill="#F17075" cx="143.33831" cy="144.047202" rx="6.67725045" ry="6.68758675"></ellipse>
                        </g>
                    </g>
                </g>
            </g>
        </g>
    </g>
</svg>