<?xml version="1.0" encoding="utf-8"?>
<!-- Generator: Adobe Illustrator 17.0.0, SVG Export Plug-In . SVG Version: 6.00 Build 0)  -->
<!DOCTYPE svg PUBLIC "-//W3C//DTD SVG 1.1//EN" "http://www.w3.org/Graphics/SVG/1.1/DTD/svg11.dtd">
<svg version="1.1" id="Layer_1" xmlns="http://www.w3.org/2000/svg" xmlns:xlink="http://www.w3.org/1999/xlink" x="0px" y="0px"
	 width="680px" height="293.507px" viewBox="0 0 680 293.507" enable-background="new 0 0 680 293.507" xml:space="preserve">
<g id="Layer_1_1_" xmlns:sketch="http://www.bohemiancoding.com/sketch/ns">
	<g id="AppIcon_1_" transform="translate(35.000000, 75.000000)" sketch:type="MSLayerGroup">
		<g id="Rectangle-29_2_" sketch:type="MSShapeGroup">
			<path id="path-1_2_" fill="#F860C3" d="M85.734,99.387h48.781c13.049,0,23.628,10.579,23.628,23.628v48.781
				c0,13.049-10.579,23.628-23.628,23.628H85.734c-13.049,0-23.628-10.579-23.628-23.628v-48.781
				C62.106,109.966,72.684,99.387,85.734,99.387z"/>
		</g>
	</g>
	<g opacity="0.2">
		<circle fill="none" stroke="#000000" stroke-width="9" cx="544.018" cy="84.705" r="41.785"/>
		
			<circle opacity="0.6" fill="none" stroke="#000000" stroke-width="9" enable-background="new    " cx="544.018" cy="84.705" r="49.378"/>
		
			<circle opacity="0.2" fill="none" stroke="#000000" stroke-width="9" enable-background="new    " cx="544.018" cy="84.705" r="57.604"/>
	</g>
	<g opacity="0.2">
		<circle fill="none" stroke="#000000" stroke-width="9" cx="144.711" cy="84.93" r="41.785"/>
		
			<circle opacity="0.6" fill="none" stroke="#000000" stroke-width="9" enable-background="new    " cx="144.711" cy="84.93" r="49.378"/>
		
			<circle opacity="0.2" fill="none" stroke="#000000" stroke-width="9" enable-background="new    " cx="144.711" cy="84.93" r="57.604"/>
	</g>
	<g id="Page-1" sketch:type="MSPage" opacity="0.8">
		<g id="Entrance" sketch:type="MSArtboardGroup">
			<g>
				<g id="Group" transform="translate(149.000000, 177.000000)" sketch:type="MSLayerGroup">
					
						<g id="Rectangle-9-_x2B_-Oval-3" transform="translate(8.500000, 20.000000) rotate(-225.000000) translate(-8.500000, -20.000000) translate(7.000000, 9.000000)" sketch:type="MSShapeGroup">
						<rect id="Rectangle-9" x="-367.141" y="-165.097" fill="#FFFFFF" stroke="#231F20" width="1" height="20"/>
						<circle id="Oval-3" fill="#FFFFFF" stroke="#231F20" cx="-366.641" cy="-144.597" r="1.5"/>
					</g>
					
						<g id="Rectangle-9-_x2B_-Oval-3_1_" transform="translate(25.500000, 11.000000) rotate(-135.000000) translate(-25.500000, -11.000000) translate(24.000000, 0.000000)" sketch:type="MSShapeGroup">
						<rect id="Rectangle-9_1_" x="-164.097" y="368.14" fill="#FFFFFF" stroke="#231F20" width="1" height="20"/>
						<circle id="Oval-3_1_" fill="#FFFFFF" stroke="#231F20" cx="-163.597" cy="388.64" r="1.5"/>
					</g>
					
						<g id="Rectangle-9-_x2B_-Oval-3_2_" transform="translate(24.500000, 41.000000) rotate(-135.000000) translate(-24.500000, -41.000000) translate(23.000000, 30.000000)" sketch:type="MSShapeGroup">
						<rect id="Rectangle-9_2_" x="-164.097" y="368.141" fill="#FFFFFF" stroke="#231F20" width="1" height="20"/>
						<circle id="Oval-3_2_" fill="#FFFFFF" stroke="#231F20" cx="-163.597" cy="388.64" r="1.5"/>
					</g>
					
						<rect id="Rectangle-6" x="392.056" y="-143.573" sketch:type="MSShapeGroup" fill="#FFFFFF" stroke="#231F20" width="3" height="108">
					</rect>
					
						<rect id="Rectangle-6_1_" x="384.556" y="-38.073" sketch:type="MSShapeGroup" fill="#FFFFFF" stroke="#231F20" width="18" height="3">
					</rect>
				</g>
				<g id="Group_1_" transform="translate(141.000000, 183.000000)" sketch:type="MSLayerGroup">
					<ellipse id="Oval-15" sketch:type="MSShapeGroup" fill="#FFFFFF" stroke="#231F20" cx="388.056" cy="-131.573" rx="7" ry="12">
					</ellipse>
					<path id="Oval-15_1_" sketch:type="MSShapeGroup" fill="#FFFFFF" stroke="#231F20" d="M381.091-123.721
						c0.81,0.812,3.461,1.147,4.465,1.147c3.038,0,5.5-4.253,5.5-9.5c0-5.247-2.462-9.5-5.5-9.5c-1.026,0-3.643,0.499-4.465,1.345
						c-1.611,1.657-1.035,4.681-1.035,8.155C380.056-128.561,379.451-125.365,381.091-123.721z"/>
					
						<ellipse id="Oval-15_2_" sketch:type="MSShapeGroup" fill="#FFFFFF" stroke="#231F20" cx="382.056" cy="-132.073" rx="5" ry="8.5">
					</ellipse>
					<path id="Rectangle-44" sketch:type="MSShapeGroup" fill="#FFFFFF" stroke="#231F20" d="M412.748-107.739
						c0,0,0.769-3.561-2.846-3.561c-3.615,0-2.846,5.229-2.846,6.676v48.05h1v-48.05c0-1.448-0.074-5.135,1.846-5.135
						s1.78,2.019,1.78,2.019L412.748-107.739L412.748-107.739z"/>
					
						<ellipse id="Oval-15_3_" sketch:type="MSShapeGroup" fill="#FFFFFF" stroke="#231F20" cx="381.056" cy="-132.073" rx="1" ry="6.5">
					</ellipse>
					<path id="Rectangle-43" sketch:type="MSShapeGroup" fill="#FFFFFF" stroke="#231F20" d="M409.699-98.573
						c-0.652,0-1.304-2-1.957-2c-0.605,0-1.209,2-1.814,2c-0.624,0-1.873-2-1.873-2l2.625,42h1.601l2.774-42
						C411.056-100.573,410.151-98.573,409.699-98.573z"/>
				</g>
			</g>
		</g>
	</g>
	<g>
		<g id="Group_2_" transform="translate(176.000000, 146.000000)" sketch:type="MSLayerGroup" opacity="0.8">
			
				<rect id="Rectangle-22" x="-70.023" y="-36.762" sketch:type="MSShapeGroup" fill="#FFFFFF" stroke="#231F20" width="75.979" height="10.131">
			</rect>
			
				<rect id="Rectangle-10" x="5.112" y="-38.45" sketch:type="MSShapeGroup" fill="#FFFFFF" stroke="#231F20" width="5.065" height="35.457">
			</rect>
			
				<rect id="Rectangle-10_1_" x="-74.244" y="-38.45" sketch:type="MSShapeGroup" fill="#FFFFFF" stroke="#231F20" width="5.065" height="35.457">
			</rect>
			
				<rect id="Rectangle-10_2_" x="-78.465" y="-40.983" sketch:type="MSShapeGroup" fill="#FFFFFF" stroke="#231F20" width="92.863" height="5.065">
			</rect>
		</g>
		<path id="Oval-75" sketch:type="MSShapeGroup" opacity="0.5" fill="#231F20" stroke="#FFFFFF" enable-background="new    " d="
			M122.682,66.656c0,0,7.243-14.359,2.212-20.355c-5.031-5.995,2.681-16.446,1.965-15.845s-9.361,11.835-4.33,17.83
			C127.559,54.281,122.682,66.656,122.682,66.656z"/>
		
			<g id="Rectangle-27-_x2B_-Path-9-_x2B_-Rectangle-27" transform="translate(197.000000, 109.000000)" sketch:type="MSLayerGroup" opacity="0.8">
			<path id="Rectangle-27" sketch:type="MSShapeGroup" fill="#FFFFFF" stroke="#231F20" d="M-70.374-27.983h-7.909
				c-2.396,0-7.187,1-7.187,1v2h22v-2C-63.469-26.983-68.073-27.983-70.374-27.983z"/>
			<path id="Path-9" sketch:type="MSShapeGroup" fill="#FFFFFF" stroke="#231F20" d="M-67.283-39.415c0,0,5.681-2.045,6.264,3.292
				c0.583,5.336-9.614,5.899-9.614,5.899l-0.573-1.41c0,0,9.334-0.966,8.834-4.489s-4.911-1.75-4.911-1.75L-67.283-39.415
				L-67.283-39.415z"/>
			<path id="Rectangle-27_1_" sketch:type="MSShapeGroup" fill="#FFFFFF" stroke="#231F20" d="M-84.469-40.983l6,14h8l6-14H-84.469z
				"/>
		</g>
		
			<g id="Rectangle-29-_x2B_-Rectangle-29" transform="translate(196.000000, 125.000000)" sketch:type="MSLayerGroup" opacity="0.8">
			<path fill="#FFFFFF" stroke="#231F20" d="M-57.368-36.675c-1.828-5.477-6.823-3.778-7.876-3.35
				c-0.142-0.606-0.225-0.957-0.225-0.957h-15c0,0-3.631-0.295-3.25,0.718c0.381,1.013,1.611,1.964,2.25,2.539
				c0.405,0.365-3.366,9.059-3.772,15.32c-0.134,2.059,0.772,3.422,0.772,3.422h22c0,0,1-2.402,1-3.603
				c0-0.409-0.31-2.017-0.758-4.124C-60.27-28.065-55.747-31.819-57.368-36.675z M-62.866-29.645
				c-0.608-2.744-1.299-5.747-1.816-7.972c1.321-0.669,3.984-1.541,4.825,1.724C-59.109-32.99-61.565-30.65-62.866-29.645z"/>
			<path id="Rectangle-29_1_" sketch:type="MSShapeGroup" fill="#231F20" stroke="#FFFFFF" d="M-83.708-25.983
				c0,0-0.601,2.723-0.601,4.042c0,0.681,0.411,1.958,0.411,1.958h20.785c0,0,0.643-1.68,0.643-2.644
				c0-1.036-0.643-3.356-0.643-3.356L-83.708-25.983z"/>
		</g>
		
			<path id="Rectangle-67" sketch:type="MSShapeGroup" opacity="0.8" fill="#FFFFFF" stroke="#231F20" enable-background="new    " d="
			M170.204,93.017c0.555,0,1.005,0.448,1.005,0.998v11.003c0,0.551-0.45,0.999-1.005,0.999h-8.469c-0.555,0-1.005-0.448-1.005-0.999
			V94.015c0-0.551,0.45-0.998,1.005-0.998H170.204L170.204,93.017z"/>
	</g>
	<g opacity="0.9">
		<path fill="#FFFFFF" d="M124.049,218.532h-3.78v-1.96h9.881v1.96h-3.78v11.12h-2.32v-11.12H124.049z"/>
		<path fill="#FFFFFF" d="M133.289,218.112c-0.413,0-0.754-0.12-1.021-0.36c-0.267-0.239-0.399-0.553-0.399-0.939
			s0.133-0.703,0.399-0.95c0.267-0.246,0.607-0.37,1.021-0.37s0.753,0.124,1.02,0.37c0.267,0.247,0.4,0.563,0.4,0.95
			s-0.134,0.7-0.4,0.939C134.042,217.992,133.702,218.112,133.289,218.112z M132.129,219.831h2.3v9.82h-2.3V219.831z"/>
		<path fill="#FFFFFF" d="M137.368,219.831h1.9l0.159,1.34h0.08c0.413-0.439,0.863-0.812,1.351-1.119
			c0.486-0.307,1.036-0.46,1.649-0.46c0.721,0,1.297,0.153,1.73,0.46s0.763,0.739,0.99,1.3c0.466-0.507,0.953-0.927,1.46-1.26
			c0.506-0.334,1.073-0.5,1.7-0.5c1.039,0,1.806,0.337,2.3,1.01c0.493,0.673,0.739,1.637,0.739,2.89v6.16h-2.319v-5.86
			c0-0.812-0.124-1.386-0.37-1.72c-0.247-0.333-0.623-0.5-1.13-0.5c-0.613,0-1.3,0.407-2.061,1.22v6.86h-2.3v-5.86
			c0-0.812-0.123-1.386-0.37-1.72c-0.247-0.333-0.63-0.5-1.149-0.5c-0.613,0-1.301,0.407-2.061,1.22v6.86h-2.3v-9.821H137.368z"/>
		<path fill="#FFFFFF" d="M153.589,224.751c0-0.8,0.126-1.52,0.38-2.159c0.253-0.641,0.59-1.181,1.01-1.62
			c0.42-0.44,0.903-0.78,1.45-1.021s1.106-0.359,1.68-0.359c0.667,0,1.253,0.113,1.76,0.34s0.931,0.547,1.271,0.96
			s0.597,0.906,0.77,1.479c0.174,0.573,0.261,1.2,0.261,1.88c0,0.454-0.034,0.813-0.101,1.08h-6.24
			c0.107,0.894,0.417,1.58,0.931,2.061c0.513,0.479,1.17,0.72,1.97,0.72c0.427,0,0.823-0.063,1.19-0.19
			c0.366-0.126,0.729-0.303,1.09-0.529l0.779,1.439c-0.467,0.308-0.986,0.561-1.56,0.761c-0.573,0.199-1.174,0.3-1.8,0.3
			c-0.68,0-1.313-0.117-1.9-0.351c-0.587-0.232-1.1-0.569-1.54-1.01c-0.439-0.439-0.783-0.977-1.029-1.61
			C153.712,226.288,153.589,225.565,153.589,224.751z M160.169,223.871c0-0.786-0.164-1.399-0.49-1.84
			c-0.327-0.439-0.83-0.66-1.51-0.66c-0.587,0-1.101,0.21-1.54,0.63c-0.44,0.42-0.714,1.044-0.82,1.87H160.169z"/>
		<path fill="#FFFFFF" d="M164.368,219.831h1.9l0.159,1.74h0.08c0.347-0.64,0.767-1.13,1.261-1.47c0.493-0.34,1-0.51,1.52-0.51
			c0.467,0,0.84,0.066,1.12,0.199l-0.4,2c-0.173-0.053-0.333-0.093-0.479-0.12c-0.147-0.026-0.327-0.039-0.54-0.039
			c-0.387,0-0.794,0.149-1.22,0.449c-0.427,0.301-0.794,0.824-1.101,1.57v6h-2.3L164.368,219.831L164.368,219.831z"/>
	</g>
	<g id="AppIcon_2_" transform="translate(35.000000, 75.000000)" sketch:type="MSLayerGroup">
		<g id="Rectangle-29_4_" sketch:type="MSShapeGroup">
			<path id="path-1_3_" fill="#F7E04E" d="M484.985,99.387h48.781c13.049,0,23.628,10.579,23.628,23.628v48.781
				c0,13.049-10.579,23.628-23.628,23.628h-48.781c-13.049,0-23.628-10.579-23.628-23.628v-48.781
				C461.357,109.966,471.935,99.387,484.985,99.387z"/>
		</g>
	</g>
	<g opacity="0.9">
		<path fill="#FFFFFF" d="M519.14,229.652l-2.819-5.12h-2v5.12h-2.32v-13.08h4.42c0.68,0,1.313,0.067,1.9,0.2
			c0.586,0.134,1.093,0.35,1.52,0.649c0.427,0.301,0.763,0.697,1.01,1.19s0.37,1.106,0.37,1.84c0,1-0.236,1.807-0.71,2.42
			s-1.104,1.054-1.89,1.32l3.12,5.46L519.14,229.652L519.14,229.652z M514.32,222.692h1.859c0.894,0,1.577-0.187,2.05-0.56
			c0.474-0.374,0.71-0.934,0.71-1.681c0-0.76-0.236-1.286-0.71-1.58c-0.473-0.293-1.156-0.439-2.05-0.439h-1.859V222.692z"/>
		<path fill="#FFFFFF" d="M522.941,224.751c0-0.812,0.126-1.54,0.38-2.18c0.253-0.64,0.597-1.18,1.03-1.62
			c0.433-0.439,0.93-0.776,1.489-1.01c0.561-0.233,1.146-0.35,1.761-0.35c0.612,0,1.203,0.116,1.77,0.35s1.063,0.57,1.49,1.01
			s0.77,0.98,1.029,1.62c0.261,0.64,0.391,1.367,0.391,2.18s-0.13,1.54-0.391,2.181c-0.26,0.64-0.603,1.18-1.029,1.62
			c-0.427,0.439-0.924,0.773-1.49,1s-1.157,0.34-1.77,0.34c-0.614,0-1.2-0.113-1.761-0.34c-0.56-0.227-1.057-0.561-1.489-1
			c-0.434-0.44-0.777-0.98-1.03-1.62C523.067,226.291,522.941,225.565,522.941,224.751z M525.3,224.751
			c0,0.987,0.203,1.777,0.61,2.37c0.406,0.594,0.97,0.891,1.69,0.891c0.72,0,1.286-0.297,1.699-0.891
			c0.413-0.593,0.62-1.383,0.62-2.37c0-1-0.207-1.796-0.62-2.39c-0.413-0.593-0.979-0.89-1.699-0.89c-0.721,0-1.284,0.297-1.69,0.89
			C525.503,222.955,525.3,223.751,525.3,224.751z"/>
		<path fill="#FFFFFF" d="M534.46,219.831h2.3v5.86c0,0.813,0.12,1.387,0.359,1.72c0.24,0.334,0.627,0.5,1.16,0.5
			c0.427,0,0.804-0.106,1.13-0.319c0.327-0.214,0.677-0.561,1.051-1.04v-6.721h2.3v9.82h-1.88l-0.181-1.44h-0.06
			c-0.427,0.507-0.89,0.914-1.39,1.221s-1.091,0.46-1.771,0.46c-1.054,0-1.82-0.337-2.3-1.01c-0.48-0.674-0.72-1.637-0.72-2.891
			v-6.16H534.46L534.46,219.831z"/>
		<path fill="#FFFFFF" d="M546.02,221.652h-1.399v-1.72l1.52-0.101l0.28-2.68h1.92v2.68h2.5v1.82h-2.5v4.68
			c0,1.147,0.46,1.721,1.38,1.721c0.173,0,0.35-0.021,0.53-0.061c0.18-0.04,0.343-0.093,0.489-0.16l0.4,1.7
			c-0.267,0.094-0.57,0.177-0.91,0.25s-0.703,0.11-1.09,0.11c-0.573,0-1.057-0.087-1.45-0.26c-0.394-0.174-0.713-0.417-0.96-0.73
			s-0.427-0.687-0.54-1.12s-0.17-0.916-0.17-1.45L546.02,221.652L546.02,221.652z"/>
		<path fill="#FFFFFF" d="M554.06,218.112c-0.413,0-0.754-0.12-1.021-0.36c-0.267-0.239-0.399-0.553-0.399-0.939
			s0.133-0.703,0.399-0.95c0.267-0.246,0.607-0.37,1.021-0.37s0.753,0.124,1.02,0.37c0.267,0.247,0.4,0.563,0.4,0.95
			s-0.134,0.7-0.4,0.939C554.813,217.992,554.473,218.112,554.06,218.112z M552.9,219.831h2.3v9.82h-2.3V219.831z"/>
		<path fill="#FFFFFF" d="M558.14,219.831h1.9l0.159,1.32h0.08c0.44-0.427,0.917-0.793,1.431-1.1c0.513-0.307,1.109-0.46,1.79-0.46
			c1.053,0,1.819,0.337,2.3,1.01c0.479,0.673,0.72,1.637,0.72,2.89v6.16h-2.3v-5.86c0-0.812-0.12-1.386-0.36-1.72
			c-0.239-0.333-0.633-0.5-1.18-0.5c-0.427,0-0.804,0.104-1.13,0.311c-0.327,0.206-0.697,0.51-1.11,0.909v6.86h-2.3L558.14,219.831
			L558.14,219.831z"/>
		<path fill="#FFFFFF" d="M568.68,231.432c0-0.414,0.12-0.797,0.36-1.15s0.586-0.67,1.04-0.95v-0.08
			c-0.254-0.159-0.464-0.373-0.63-0.64c-0.167-0.267-0.25-0.6-0.25-1c0-0.387,0.109-0.736,0.33-1.05
			c0.22-0.313,0.47-0.57,0.75-0.771v-0.08c-0.334-0.253-0.631-0.603-0.891-1.05c-0.26-0.446-0.39-0.963-0.39-1.55
			c0-0.56,0.106-1.06,0.32-1.5c0.213-0.44,0.496-0.81,0.85-1.11s0.763-0.526,1.229-0.68s0.961-0.229,1.48-0.229
			c0.267,0,0.523,0.023,0.77,0.069c0.247,0.047,0.471,0.104,0.671,0.17h3.52v1.7h-1.8c0.16,0.187,0.293,0.424,0.399,0.71
			c0.107,0.287,0.16,0.604,0.16,0.95c0,0.547-0.097,1.026-0.29,1.44c-0.193,0.413-0.457,0.76-0.79,1.039
			c-0.333,0.28-0.727,0.494-1.18,0.641s-0.94,0.22-1.46,0.22c-0.214,0-0.434-0.02-0.66-0.06s-0.453-0.106-0.68-0.2
			c-0.147,0.134-0.264,0.267-0.351,0.399c-0.087,0.134-0.13,0.313-0.13,0.54c0,0.28,0.117,0.5,0.351,0.66
			c0.232,0.16,0.649,0.24,1.25,0.24h1.739c1.188,0,2.084,0.19,2.69,0.57s0.91,0.996,0.91,1.85c0,0.48-0.124,0.934-0.37,1.36
			c-0.247,0.427-0.597,0.793-1.05,1.1c-0.454,0.307-1.004,0.55-1.65,0.73s-1.37,0.27-2.17,0.27c-0.587,0-1.13-0.054-1.63-0.16
			s-0.93-0.267-1.29-0.479c-0.36-0.214-0.644-0.48-0.85-0.8C568.783,232.232,568.68,231.859,568.68,231.432z M570.6,231.092
			c0,0.439,0.224,0.782,0.67,1.029c0.447,0.247,1.063,0.37,1.851,0.37c0.8,0,1.443-0.156,1.93-0.47s0.73-0.684,0.73-1.11
			c0-0.387-0.15-0.646-0.45-0.779c-0.3-0.134-0.73-0.2-1.29-0.2h-1.34c-0.534,0-0.98-0.047-1.34-0.141
			C570.853,230.178,570.6,230.612,570.6,231.092z M572.88,225.092c0.467,0,0.866-0.171,1.2-0.511c0.333-0.34,0.5-0.83,0.5-1.47
			c0-0.613-0.164-1.09-0.49-1.43c-0.327-0.34-0.729-0.511-1.21-0.511s-0.887,0.167-1.22,0.5c-0.334,0.334-0.5,0.813-0.5,1.44
			c0,0.64,0.166,1.13,0.5,1.47C571.993,224.921,572.4,225.092,572.88,225.092z"/>
	</g>
	<g>
		<g opacity="0.2">
			<circle fill="none" stroke="#000000" stroke-width="9" cx="350.653" cy="85.135" r="41.785"/>
			
				<circle opacity="0.6" fill="none" stroke="#000000" stroke-width="9" enable-background="new    " cx="350.653" cy="85.135" r="49.378"/>
			
				<circle opacity="0.2" fill="none" stroke="#000000" stroke-width="9" enable-background="new    " cx="350.653" cy="85.135" r="57.604"/>
		</g>
		<g id="AppIcon_3_" transform="translate(35.000000, 75.000000)" sketch:type="MSLayerGroup">
			<g id="Rectangle-29_5_" sketch:type="MSShapeGroup">
				<path id="path-1_4_" fill="#79CDF7" d="M295.866,99.387h48.781c13.049,0,23.628,10.579,23.628,23.628v48.781
					c0,13.049-10.579,23.628-23.628,23.628h-48.781c-13.049,0-23.628-10.579-23.628-23.628v-48.781
					C272.238,109.966,282.817,99.387,295.866,99.387z"/>
			</g>
		</g>
		<g opacity="0.9">
			<path fill="#FFFFFF" d="M330.531,229.652l-2.819-5.12h-2v5.12h-2.32v-13.08h4.42c0.68,0,1.313,0.067,1.9,0.2
				c0.586,0.134,1.093,0.35,1.52,0.649c0.427,0.301,0.763,0.697,1.01,1.19c0.247,0.493,0.37,1.106,0.37,1.84
				c0,1-0.236,1.807-0.71,2.42c-0.474,0.613-1.104,1.054-1.89,1.32l3.12,5.46L330.531,229.652L330.531,229.652z M325.711,222.692
				h1.859c0.894,0,1.577-0.187,2.05-0.56c0.474-0.374,0.71-0.934,0.71-1.681c0-0.76-0.236-1.286-0.71-1.58
				c-0.473-0.293-1.156-0.439-2.05-0.439h-1.859V222.692z"/>
			<path fill="#FFFFFF" d="M334.332,224.751c0-0.8,0.126-1.52,0.38-2.159c0.253-0.641,0.59-1.181,1.01-1.62
				c0.42-0.44,0.903-0.78,1.45-1.021s1.106-0.359,1.68-0.359c0.667,0,1.253,0.113,1.76,0.34s0.931,0.547,1.271,0.96
				s0.597,0.906,0.77,1.479c0.174,0.573,0.261,1.2,0.261,1.88c0,0.454-0.034,0.813-0.101,1.08h-6.24
				c0.107,0.894,0.417,1.58,0.931,2.061c0.513,0.479,1.17,0.72,1.97,0.72c0.427,0,0.823-0.063,1.19-0.19
				c0.366-0.126,0.729-0.303,1.09-0.529l0.779,1.439c-0.467,0.308-0.986,0.561-1.56,0.761c-0.573,0.199-1.174,0.3-1.8,0.3
				c-0.68,0-1.313-0.117-1.9-0.351c-0.587-0.232-1.1-0.569-1.54-1.01c-0.439-0.439-0.783-0.977-1.029-1.61
				C334.455,226.288,334.332,225.565,334.332,224.751z M340.912,223.871c0-0.786-0.164-1.399-0.49-1.84
				c-0.327-0.439-0.83-0.66-1.51-0.66c-0.587,0-1.101,0.21-1.54,0.63c-0.44,0.42-0.714,1.044-0.82,1.87H340.912z"/>
			<path fill="#FFFFFF" d="M345.111,219.831h1.9l0.159,1.34h0.08c0.413-0.439,0.863-0.812,1.351-1.119
				c0.486-0.307,1.036-0.46,1.649-0.46c0.721,0,1.297,0.153,1.73,0.46c0.433,0.307,0.763,0.739,0.99,1.3
				c0.466-0.507,0.953-0.927,1.46-1.26c0.506-0.334,1.073-0.5,1.7-0.5c1.039,0,1.806,0.337,2.3,1.01
				c0.493,0.673,0.739,1.637,0.739,2.89v6.16h-2.319v-5.86c0-0.812-0.124-1.386-0.37-1.72c-0.247-0.333-0.623-0.5-1.13-0.5
				c-0.613,0-1.3,0.407-2.061,1.22v6.86h-2.3v-5.86c0-0.812-0.123-1.386-0.37-1.72c-0.247-0.333-0.63-0.5-1.149-0.5
				c-0.613,0-1.301,0.407-2.061,1.22v6.86h-2.3v-9.821H345.111z"/>
			<path fill="#FFFFFF" d="M361.331,224.751c0-0.812,0.126-1.54,0.38-2.18c0.253-0.64,0.597-1.18,1.03-1.62
				c0.433-0.439,0.93-0.776,1.489-1.01c0.561-0.233,1.146-0.35,1.761-0.35c0.612,0,1.203,0.116,1.77,0.35
				c0.567,0.234,1.063,0.57,1.49,1.01s0.77,0.98,1.029,1.62c0.261,0.64,0.391,1.367,0.391,2.18s-0.13,1.54-0.391,2.181
				c-0.26,0.64-0.603,1.18-1.029,1.62c-0.427,0.439-0.924,0.773-1.49,1s-1.157,0.34-1.77,0.34c-0.614,0-1.2-0.113-1.761-0.34
				c-0.56-0.227-1.057-0.561-1.489-1c-0.434-0.44-0.777-0.98-1.03-1.62C361.457,226.291,361.331,225.565,361.331,224.751z
				 M363.69,224.751c0,0.987,0.203,1.777,0.61,2.37c0.406,0.594,0.97,0.891,1.69,0.891s1.286-0.297,1.699-0.891
				c0.413-0.593,0.62-1.383,0.62-2.37c0-1-0.207-1.796-0.62-2.39c-0.413-0.593-0.979-0.89-1.699-0.89
				c-0.721,0-1.284,0.297-1.69,0.89C363.893,222.955,363.69,223.751,363.69,224.751z"/>
			<path fill="#FFFFFF" d="M373.291,221.652h-1.399v-1.72l1.52-0.101l0.28-2.68h1.92v2.68h2.5v1.82h-2.5v4.68
				c0,1.147,0.46,1.721,1.38,1.721c0.173,0,0.35-0.021,0.53-0.061s0.343-0.093,0.489-0.16l0.4,1.7
				c-0.267,0.094-0.57,0.177-0.91,0.25s-0.703,0.11-1.09,0.11c-0.573,0-1.057-0.087-1.45-0.26c-0.394-0.174-0.713-0.417-0.96-0.73
				s-0.427-0.687-0.54-1.12c-0.113-0.433-0.17-0.916-0.17-1.45V221.652z"/>
			<path fill="#FFFFFF" d="M379.331,224.751c0-0.8,0.126-1.52,0.38-2.159c0.253-0.641,0.59-1.181,1.01-1.62
				c0.42-0.44,0.903-0.78,1.45-1.021s1.106-0.359,1.68-0.359c0.667,0,1.253,0.113,1.76,0.34s0.931,0.547,1.271,0.96
				s0.597,0.906,0.77,1.479c0.174,0.573,0.261,1.2,0.261,1.88c0,0.454-0.034,0.813-0.101,1.08h-6.24
				c0.107,0.894,0.417,1.58,0.931,2.061c0.513,0.479,1.17,0.72,1.97,0.72c0.427,0,0.823-0.063,1.19-0.19
				c0.366-0.126,0.729-0.303,1.09-0.529l0.779,1.439c-0.467,0.308-0.986,0.561-1.56,0.761c-0.573,0.199-1.174,0.3-1.8,0.3
				c-0.68,0-1.313-0.117-1.9-0.351c-0.587-0.232-1.1-0.569-1.54-1.01c-0.439-0.439-0.783-0.977-1.029-1.61
				C379.454,226.288,379.331,225.565,379.331,224.751z M385.911,223.871c0-0.786-0.164-1.399-0.49-1.84
				c-0.327-0.439-0.83-0.66-1.51-0.66c-0.587,0-1.101,0.21-1.54,0.63c-0.44,0.42-0.714,1.044-0.82,1.87H385.911z"/>
		</g>
		<g id="Group_11_" transform="translate(103.000000, 162.000000)" sketch:type="MSLayerGroup">
			<g opacity="0.8">
				<path fill="#FFFFFF" stroke="#231F20" d="M286.696-71.24c-0.188-1.844-2.291-3.406-3.437-3.406c-23.19,0-65.5-0.189-69.57,0
					c-4.07,0.189-3.839,3.406-3.839,3.406v26.814h35.681c0.807,0,3.145,1.422,3.145,1.422s1.51-1.422,2.627-1.422h35.393v3.454
					C286.696-40.972,286.884-69.395,286.696-71.24z"/>
				<path fill="#FFFFFF" stroke="#231F20" d="M251.303-44.425c-1.117,0-2.627,1.422-2.627,1.422s-2.338-1.422-3.145-1.422H209.85
					v24.189h76.846v-24.189H251.303z"/>
			</g>
			
				<path id="Rectangle-1_7_" sketch:type="MSShapeGroup" opacity="0.8" fill="#FFFFFF" stroke="#231F20" enable-background="new    " d="
				M201.846-53.06c-5.988,0-8.402,3.579-8.402,3.579v29.231h16.406v-29.231C209.85-49.48,207.834-53.06,201.846-53.06z"/>
			
				<path id="Rectangle-1_6_" sketch:type="MSShapeGroup" opacity="0.8" fill="#FFFFFF" stroke="#231F20" enable-background="new    " d="
				M295.098-53.06c-5.988,0-8.402,3.579-8.402,3.579v29.231h16.405v-29.231C303.101-49.48,301.086-53.06,295.098-53.06z"/>
		</g>
		<g id="Group_10_" transform="translate(231.000000, 126.000000)" sketch:type="MSLayerGroup" opacity="0.8">
			
				<rect id="Rectangle-6_7_" x="188.052" y="-62.822" sketch:type="MSShapeGroup" fill="#FFFFFF" stroke="#231F20" width="2.59" height="77.709">
			</rect>
			
				<rect id="Rectangle-6_4_" x="180.713" y="12.729" sketch:type="MSShapeGroup" fill="#FFFFFF" stroke="#231F20" width="17.269" height="2.59">
			</rect>
			
				<rect id="Rectangle-9_5_" x="182.872" y="-49.007" sketch:type="MSShapeGroup" fill="#FFFFFF" stroke="#231F20" width="0.863" height="14.678">
			</rect>
			<circle id="Oval-3_5_" sketch:type="MSShapeGroup" fill="#FFFFFF" stroke="#231F20" cx="183.304" cy="-33.897" r="1.295">
			</circle>
			<path id="Rectangle-8_2_" sketch:type="MSShapeGroup" fill="#FFFFFF" stroke="#231F20" d="M177.543-69.729l-0.715,25.04h25.04
				l-0.715-25.04H177.543z"/>
		</g>
		<g id="Group_8_" transform="translate(66.000000, 201.000000)" sketch:type="MSLayerGroup" opacity="0.8">
			
				<rect id="Rectangle-10_14_" x="199.361" y="-79.972" sketch:type="MSShapeGroup" fill="#FFFFFF" stroke="#231F20" width="29.357" height="4.317">
			</rect>
			
				<rect id="Rectangle-10_13_" x="199.361" y="-69.61" sketch:type="MSShapeGroup" fill="#FFFFFF" stroke="#231F20" width="29.357" height="4.317">
			</rect>
			
				<rect id="Rectangle-10_12_" x="224.401" y="-79.972" sketch:type="MSShapeGroup" fill="#FFFFFF" stroke="#231F20" width="4.317" height="19.859">
			</rect>
			
				<rect id="Rectangle-10_11_" x="199.361" y="-79.972" sketch:type="MSShapeGroup" fill="#FFFFFF" stroke="#231F20" width="4.317" height="19.859">
			</rect>
			
				<rect id="Rectangle-14_2_" x="211.449" y="-73.928" sketch:type="MSShapeGroup" fill="#FFFFFF" stroke="#231F20" width="7.771" height="4.317">
			</rect>
			<circle id="Oval-4_2_" sketch:type="MSShapeGroup" fill="#FFFFFF" stroke="#231F20" cx="213.608" cy="-71.769" r="0.432">
			</circle>
		</g>
	</g>
</g>
</svg>
