<?xml version="1.0" encoding="UTF-8" standalone="no"?>
<svg width="680px" height="340px" viewBox="0 0 680 340" version="1.1" xmlns="http://www.w3.org/2000/svg" xmlns:xlink="http://www.w3.org/1999/xlink" xmlns:sketch="http://www.bohemiancoding.com/sketch/ns">
    <title>post_casual_ibeacons copy</title>
    <description>Created with Sketch (http://www.bohemiancoding.com/sketch)</description>
    <defs></defs>
    <g id="Page-1" stroke="none" stroke-width="1" fill="none" fill-rule="evenodd" sketch:type="MSPage">
        <g id="post_casual_ibeacons-copy" sketch:type="MSArtboardGroup">
            <g id="Group-+-Group" sketch:type="MSLayerGroup" transform="translate(0.000000, 104.000000)">
                <g id="Group" sketch:type="MSShapeGroup">
                    <path d="M0,141.044601 L206.685375,145.79957 L215.692475,143.039823 C215.692475,143.039823 219.462973,135.778129 231.351708,129.997454 C243.240443,124.21678 261.669256,120.684473 261.669256,120.684473 L298.248392,109.573228 L324.236031,95.5985122 L335.242629,86 L339.634511,86.9451668 L342,91.8807786 L338.591498,108.751597 L330.715109,120.824325 L320.111918,127.948622 L301.254656,135.926016 L296.133133,138.375757 L294.065815,141.044601 L299.363902,147.120007 L316.366658,178.107724 L305.36006,219.966607 L291.882736,224.538604 L260.86361,227 L218.151508,224.409241 L184.806648,220.277778 L0,220.277771 L0,141.044601 Z" id="Path-1" fill="#FFE1C8"></path>
                    <path d="M0,141.044601 L206.685375,145.79957 L215.692475,143.039823 C215.692475,143.039823 219.462973,135.778129 231.351708,129.997454 C243.240443,124.21678 261.669256,120.684473 261.669256,120.684473 L298.248392,109.573228 L324.236031,95.5985122 L335.242629,86 L339.634511,86.9451668 L342,91.8807786 L338.591498,108.751597 L330.715109,120.824325 L320.111918,127.948622 L301.254656,135.926016 L296.133133,138.375757 L294.065815,141.044601 L299.363902,147.120007 L316.366658,178.107724 L305.36006,219.966607 L291.882736,224.538604 L260.86361,227 L218.151508,224.409241 L184.806648,220.277778 L0,220.277771 L0,141.044601 Z" id="Path-1" opacity="0.02" fill="#000000"></path>
                    <path d="M291,145.201682 L316.892261,136.707835 L325.507357,128.805877 L335.831144,112.14209 L340.490999,100.122538 L342.44983,91.3269203 C342.44983,91.3269203 348.339714,84.4200921 351.077843,82.7247151 C353.815973,81.0293382 355.36909,81.2773538 357.513329,82 C359.657567,82.7226462 361,86.0686578 361,86.0686578 L358.206201,99.3150985 L355.713037,114.595868 L349.903484,130.223848 L342.26663,145.002444 L330.389166,153.95186 L310.995806,164 L310.995804,153.95186 L291,145.201682 Z" id="Path-2" fill="#FFE1C8"></path>
                    <path d="M291,145.201682 L316.892261,136.707835 L325.507357,128.805877 L335.831144,112.14209 L340.490999,100.122538 L342.44983,91.3269203 C342.44983,91.3269203 348.339714,84.4200921 351.077843,82.7247151 C353.815973,81.0293382 355.36909,81.2773538 357.513329,82 C359.657567,82.7226462 361,86.0686578 361,86.0686578 L358.206201,99.3150985 L355.713037,114.595868 L349.903484,130.223848 L342.26663,145.002444 L330.389166,153.95186 L310.995806,164 L310.995804,153.95186 L291,145.201682 Z" id="Path-2" opacity="0.02" fill="#000000"></path>
                    <rect id="Rectangle-11" fill="#FCFCBD" x="337" y="0" width="6" height="150"></rect>
                    <path d="M305.998307,215.314589 L350.95569,179.502002 L368.066814,165.314092 L369,154.838142 C369,154.838142 365.275395,136.97857 363.839484,131.769795 C362.403573,126.56102 359.79529,121.448024 359.79529,121.448024 L354.738591,117.124023 L342.916296,111.413585 L328.966337,105 L323.860646,107.724985 L322.628841,116.617103 L325.209099,122.614873 L331.106832,127.599972 L340.519175,134.311401 L343.824985,146.789333 L343.696672,154.435176 L324.964138,170.738366 L287.514055,187.105504 L216.788213,173.957422 L174.514406,183.692849 L146,209.556246 L250.518207,220 L292.894048,212.548723 L305.998307,215.314589 Z" id="Path-5" fill="#FFE1C8"></path>
                    <path d="M295.080463,221.014224 L309.333578,214.898198 L328.118314,198.840118 L341.734261,188.44381 L350.768222,176.304248 L355,167.220358 L352.096436,156.665998 L334.782808,144.122526 L317.314572,135 L302.173639,137.980743 L283.688746,144.800393 L283.688746,150.487922 L288.87042,154.742447 L296.825646,156.486873 L308.98337,155.042161 L319.996767,158.255884 L326.218523,167.194601 L308.958773,177.357928 L275.696039,180.921707 L215.073743,177.35793 L162,185.074026 L215.073743,214.036522 L263.155313,222 L295.080463,221.014224 Z" id="Path-4" fill="#FFE1C8"></path>
                    <path d="M295.080463,221.014224 L309.333578,214.898198 L328.118314,198.840118 L341.734261,188.44381 L350.768222,176.304248 L355,167.220358 L352.096436,156.665998 L334.782808,144.122526 L317.314572,135 L302.173639,137.980743 L283.688746,144.800393 L283.688746,150.487922 L288.87042,154.742447 L296.825646,156.486873 L308.98337,155.042161 L319.996767,158.255884 L326.218523,167.194601 L308.958773,177.357928 L275.696039,180.921707 L215.073743,177.35793 L162,185.074026 L215.073743,214.036522 L263.155313,222 L295.080463,221.014224 Z" id="Path-4" opacity="0.02" fill="#000000"></path>
                    <path d="M305.794278,220.199226 C308.118314,216.269539 314.34918,201.245129 314.34918,201.245129 L324.894683,177.681238 L328,165.623148 L314.35733,154.383566 L298.843553,146.519594 L292.268478,146 L282.923418,152.710355 L268.638028,162.741443 L270.178461,170.360213 L277.685015,174.994527 L284.919111,175.293439 L292.979895,169.828943 L297.108674,173.553674 L282.50076,181.339415 L267.656482,177.224695 L248.750958,175.381011 C248.750958,175.381011 232.318196,172.156738 222.113372,172.011196 C211.908549,171.865655 198.64672,174.666423 198.64672,174.666423 C198.64672,174.666423 112.854902,177.33995 81.0957766,174.666424 C46.6393298,171.765832 0,157.944072 0,157.944072 L-0.465823174,224.248558 L184.181607,220.199226 C184.181607,220.199226 205.199589,224.210042 215.089536,225.316925 C228.010731,226.763066 252.615033,227.858299 252.615033,227.858299 L289.571622,226.972801 C289.571622,226.972801 303.470242,224.128914 305.794278,220.199226 Z" id="Path-3" fill="#FFE1C9"></path>
                </g>
                <g id="Group" transform="translate(269.000000, 86.000000)" fill="#FFFFFF" opacity="0.374005682" sketch:type="MSShapeGroup">
                    <path d="M57,8 L67,2.49108368 L66.7336658,0 L57,8 Z" id="Path-6"></path>
                    <path d="M87,4.83078702 L87,12.2892446 L88.8370679,15 L93,0 L87,4.83078702 Z" id="Path-7"></path>
                    <path d="M61,19 L61.4650054,27.1777761 C61.4650054,27.1777761 67.2000592,31.1020947 69.914117,32 C72.6281749,32.8979053 74.5433822,32.7524631 76.0409264,32 C77.5384706,31.2475369 77.7279092,30.5274109 77,28.4395946 C76.2720908,26.3517782 73.476131,24.64356 73.476131,24.64356 L61,19 Z" id="Path-8"></path>
                    <path d="M2.80980891,80 L0,78.3601912 L12,69 L9.92143033,74.2376121 L2.80980891,80 Z" id="Path-9"></path>
                    <path d="M16.1926428,62 C16.1926428,62 20.9123403,61.3642663 24.4888674,59.8445776 C28.0653944,58.3248887 29.0744595,57.205861 30.4714424,55.9328499 C31.8684251,54.6598388 32,53 32,53 L19.1316554,55.7645019 L16,59.0879571 L16.1926428,62 Z" id="Path-10"></path>
                </g>
            </g>
            <g id="Oval-6-+-Oval-6-+-Oval-6" sketch:type="MSLayerGroup" transform="translate(278.000000, 25.000000)" fill="#50E3C2">
                <path d="M62.5,125 C97.0177986,125 125,97.0177986 125,62.5 C125,27.9822014 97.0177986,0 62.5,0 C27.9822014,0 0,27.9822014 0,62.5 C0,97.0177986 27.9822014,125 62.5,125 Z" id="Oval-6" opacity="0.1" sketch:type="MSShapeGroup"></path>
                <path d="M61.5,106 C86.0766726,106 106,86.0766726 106,61.5 C106,36.9233274 86.0766726,17 61.5,17 C36.9233274,17 17,36.9233274 17,61.5 C17,86.0766726 36.9233274,106 61.5,106 Z" id="Oval-6" opacity="0.2" sketch:type="MSShapeGroup"></path>
                <path d="M61.5,88 C76.1355466,88 88,76.1355466 88,61.5 C88,46.8644534 76.1355466,35 61.5,35 C46.8644534,35 35,46.8644534 35,61.5 C35,76.1355466 46.8644534,88 61.5,88 Z" id="Oval-6" sketch:type="MSShapeGroup"></path>
            </g>
        </g>
    </g>
</svg>