<?xml version="1.0" encoding="UTF-8" standalone="no"?>
<svg width="680px" height="340px" viewBox="0 0 680 340" version="1.1" xmlns="http://www.w3.org/2000/svg" xmlns:xlink="http://www.w3.org/1999/xlink" xmlns:sketch="http://www.bohemiancoding.com/sketch/ns">
    <!-- Generator: Sketch 3.0.3 (7891) - http://www.bohemiancoding.com/sketch -->
    <title>post_supported_beacons</title>
    <desc>Created with Sketch.</desc>
    <defs>
        <path id="path-1" d="M17.5992172,9.28631435 L38.87483,-0.43392339 L63.6083426,8.25711271 L73.2105942,33.7475513 L71.8691833,68.9019573 L61.5009297,93.5265596 L41.5758037,102.547957 L8.04960552,86.7214856 L-0.416349447,50.9081727 L17.5992172,9.28631435 Z"></path>
    </defs>
    <g id="Page-1" stroke="none" stroke-width="1" fill="none" fill-rule="evenodd" sketch:type="MSPage">
        <g id="post_supported_beacons" sketch:type="MSArtboardGroup">
            <g id="Group_2_" sketch:type="MSLayerGroup" transform="translate(30.000000, 114.726198)">
                <mask id="mask-2" sketch:name="Rectangle-8" fill="white">
                    <use xlink:href="#path-1"></use>
                </mask>
                <use id="Rectangle-8" fill="#3C3A66" sketch:type="MSShapeGroup" xlink:href="#path-1"></use>
                <path d="M20.0095681,6.64175229 L19.0113903,12.8585781 L47.7941651,8.52323829 L51.6819093,2.57576201 L37.8440749,-1.82889574 L20.0095681,6.64175229 L20.0095681,6.64175229 Z" id="Path-33" fill="#554C8E" sketch:type="MSShapeGroup" mask="url(#mask-2)"></path>
                <path d="M47.1396927,9.35647663 L55.8167139,13.288145 L64.4321959,6.0310829 L51.7277788,1.45211375 L47.1396927,9.35647663 L47.1396927,9.35647663 Z" id="Path-34" fill="#4D4486" sketch:type="MSShapeGroup" mask="url(#mask-2)"></path>
                <path d="M63.1880852,5.70341708 L56.663924,11.8351916 L62.5380117,40.1495048 L72.1036581,68.1846574 L72.8689098,30.9235365 L63.1880852,5.70341708 L63.1880852,5.70341708 Z" id="Path-35" fill="#42416F" sketch:type="MSShapeGroup" mask="url(#mask-2)"></path>
                <path d="M21.5461931,3.62452155 L20.7839599,11.4649367 L-1.15565164,55.3547464 L-2.48744238,51.0375424 L18.3786908,6.48077865 L21.5461931,3.62452155 L21.5461931,3.62452155 Z" id="Path-36" fill="#594F91" sketch:type="MSShapeGroup" mask="url(#mask-2)"></path>
                <path d="M26.0461114,70.2770828 L36.5055943,74.4565493 L42.6015329,104.240931 L5.96217372,86.4368215 L4.32889356,83.9901462 L26.0461114,70.2770828 Z" id="Path-37" fill="#4B4281" sketch:type="MSShapeGroup" mask="url(#mask-2)"></path>
                <path d="M8.28706502,86.5308438 L42.5172304,98.3942663 L60.4631783,92.9612592 L71.2588743,69.2473675 L71.2588743,86.5326943 L41.8529084,103.818021 L9.39920305,91.5622969 L8.28706502,86.5308438 L8.28706502,86.5308438 Z" id="Path-38" sketch:type="MSShapeGroup" mask="url(#mask-2)"></path>
                <path d="M17.7591928,14.9838272 L26.3340301,74.2507108 L5.79598013,86.7588625 L-1.45361649,55.5870813 L17.7591928,14.9838272 L17.7591928,14.9838272 Z" id="Path-39" fill="#53498A" sketch:type="MSShapeGroup" mask="url(#mask-2)"></path>
                <path d="M35.3253265,75.5406822 L41.4775797,102.920303 L61.051313,93.1894085 L72.4725629,69.4492194 L63.4257205,42.5107694 L35.3253265,75.5406822 Z" id="Path-40" fill="#46407B" sketch:type="MSShapeGroup" mask="url(#mask-2)"></path>
                <path d="M25.9634669,74.4373041 L35.9123501,78.0964949 L64.1525312,42.43053 L57.4068354,12.3209514 L49.2232998,6.82070822 L19.3344599,11.4197702 L16.6349665,17.282511 L25.9634669,74.4373041 Z" id="Path-41" fill="#574E8C" sketch:type="MSShapeGroup" mask="url(#mask-2)"></path>
                <ellipse id="Oval-1" fill="#443E6D" sketch:type="MSShapeGroup" mask="url(#mask-2)" cx="38.97335" cy="16.1596817" rx="2.85170854" ry="2.85170854"></ellipse>
            </g>
            <g id="Group" sketch:type="MSLayerGroup" transform="translate(161.178593, 71.000000)">
                <path d="M52.4886138,0 C34.9924092,3.16603248e-15 28.7665816,6.42970879 24.3179686,14.7897724 C19.8693555,23.1498359 15.4347583,38.7888161 8.24760127,64.7601516 C4.32886969,78.9207847 0,93.5180403 0,105.476705 C6.24163682e-16,119.747418 15.4111361,146.387705 26.0502662,146.387705 L77.1700345,146.387705 C88.7338133,146.387705 104.562646,119.454988 104.562646,105.03806 C104.562646,92.0588441 99.0030154,75.8695864 94.5176363,60.6669089 C87.3412714,36.3434445 83.4412518,20.7114837 79.9274038,14.7897724 C76.4135557,8.86806106 69.8466247,0 52.4886138,0 Z" id="Rectangle-3" fill="#F5F5F5" sketch:type="MSShapeGroup"></path>
                <path d="M53.405263,15.2091122 C38.7720737,15.2091122 33.1943299,29.403049 33.1943299,29.403049 C33.1943299,29.403049 26.2170438,45.5480281 20.205967,67.1345927 C16.9284824,78.9044695 13.3079732,91.0372534 13.3079732,100.976923 C13.3079732,112.838295 24.296148,133.079732 33.1943295,133.079732 L72.1467668,133.079732 C81.8182908,133.079732 93.1558123,112.595236 93.1558123,100.612334 C93.1558123,89.824415 88.5059391,76.3684086 84.754531,63.7324169 C78.7524804,43.5155115 72.1467662,29.403049 72.1467662,29.403049 C72.1467662,29.403049 67.9228721,15.2091122 53.405263,15.2091122 Z" id="Rectangle-5" opacity="0.821653451" fill="#FFFFFF" sketch:type="MSShapeGroup"></path>
                <g transform="translate(20.912529, 62.737588)" stroke="#E4E3E1" sketch:type="MSShapeGroup">
                    <path d="M32.3193634,64.6387269 C50.168855,64.6387269 64.6387269,50.168855 64.6387269,32.3193634 C64.6387269,14.4698719 50.168855,0 32.3193634,0 C14.4698719,0 0,14.4698719 0,32.3193634 C0,50.168855 14.4698719,64.6387269 32.3193634,64.6387269 Z" id="Oval-6"></path>
                    <ellipse id="Oval-16" cx="32.3193634" cy="32.3193634" rx="26.6159464" ry="26.6159464"></ellipse>
                    <ellipse id="Oval-17" cx="32.3193634" cy="32.3193634" rx="20.9125293" ry="20.9125293"></ellipse>
                    <ellipse id="Oval-18" cx="32.3193634" cy="32.3193634" rx="15.2091122" ry="15.2091122"></ellipse>
                    <ellipse id="Oval-19" cx="32.3193634" cy="32.3193634" rx="9.50569513" ry="9.50569513"></ellipse>
                </g>
                <rect id="Rectangle-4" fill="#FBFBF9" sketch:type="MSShapeGroup" x="49.4296147" y="38.0227805" width="5.70341708" height="58.9353098"></rect>
                <ellipse id="Oval-4" opacity="0.0837220149" fill="#010000" sketch:type="MSShapeGroup" cx="52.2813232" cy="29.4676549" rx="6.65398659" ry="6.65398659"></ellipse>
                <ellipse id="Oval-15" opacity="0.108908582" fill="#010000" sketch:type="MSShapeGroup" cx="52.2813232" cy="29.4676549" rx="4.75284757" ry="4.75284757"></ellipse>
            </g>
            <g id="Group" sketch:type="MSLayerGroup" transform="translate(320.874271, 91.912529)">
                <path d="M35.4393575,3.80945275e-14 C2.43770999,1.3526885 0,32.3193634 0,32.3193634 L0,115.969481 C0,115.969481 1.97087606,127.376307 36.1107554,127.376315 C70.2506348,127.376323 68.4410049,115.969481 68.4410049,115.969481 L68.4410049,32.3193634 C68.4410049,32.3193634 68.4410049,-1.3526885 35.4393575,3.80945275e-14 Z" id="Rectangle-6" opacity="0.438782649" fill="#D8D8D8" sketch:type="MSShapeGroup"></path>
                <path d="M35.6268736,0 C6.87515052,-1.43380967e-09 5.70341708,34.3713865 5.70341708,34.3713865 L5.70341708,119.28893 C5.70341708,119.28893 11.4844693,128.014667 35.6268731,128.014682 C59.7692769,128.014698 62.7375879,119.28893 62.7375879,119.28893 L62.7375879,34.3713865 C62.7375879,34.3713865 64.3785967,1.43381397e-09 35.6268736,0 Z" id="Rectangle-7" opacity="0.667618937" fill="#FFFFFF" sketch:type="MSShapeGroup"></path>
                <ellipse id="Oval-31" opacity="0.337744869" fill="#010000" sketch:type="MSShapeGroup" cx="35.171072" cy="6.65398659" rx="4.75284757" ry="2.85170854"></ellipse>
                <path d="M35.171072,57.0341708 C45.1457879,57.0341708 53.2318927,48.9480659 53.2318927,38.97335 C53.2318927,28.9986342 45.1457879,20.9125293 35.171072,20.9125293 C25.1963561,20.9125293 17.1102512,28.9986342 17.1102512,38.97335 C17.1102512,48.9480659 25.1963561,57.0341708 35.171072,57.0341708 Z M35.171072,53.2318927 C43.0458477,53.2318927 49.4296147,46.8481257 49.4296147,38.97335 C49.4296147,31.0985744 43.0458477,24.7148073 35.171072,24.7148073 C27.2962963,24.7148073 20.9125293,31.0985744 20.9125293,38.97335 C20.9125293,46.8481257 27.2962963,53.2318927 35.171072,53.2318927 Z" id="Oval-32" opacity="0.1" fill="#010000" sketch:type="MSShapeGroup"></path>
                <path d="M36.9087985,28.154289 L30.727709,40.0493622 L33.6412732,40.0493622 L33.6412732,49.6489477 L40.1343218,37.5047162 L37.0085969,37.5047162 L36.9087985,28.154289 Z" id="Path-42" opacity="0.1" fill="#010000" sketch:type="MSShapeGroup"></path>
            </g>
            <ellipse id="Oval-34" stroke="#50E3C2" stroke-width="3" stroke-linejoin="round" stroke-dasharray="4" sketch:type="MSShapeGroup" cx="485.322797" cy="167.007521" rx="44.6767671" ry="44.6767671"></ellipse>
            <path d="M77.7320434,254.737072 L64.7139222,269.501655 L59.4898869,261.366834 C58.406373,259.680583 56.1637351,259.19255 54.4795022,260.276915 C52.7945757,261.360586 52.3069251,263.604986 53.390439,265.290542 L61.1477603,277.368509 C61.8400438,278.446626 63.0081856,279.035321 64.2012994,279.035321 C64.8727728,279.035321 65.5518766,278.848577 66.158145,278.458428 C66.3218513,278.352907 66.4716842,278.233502 66.6131931,278.107155 C66.8837247,277.930824 67.1376082,277.720476 67.3609702,277.466393 L83.1697293,259.538269 C84.4946407,258.035986 84.3510508,255.742991 82.849947,254.417039 C81.3488433,253.091087 79.0569547,253.234789 77.7320434,254.737072 Z" id="Fill-42" fill="#50E3C2" sketch:type="MSShapeGroup"></path>
            <path d="M224.119748,254.737072 L211.101627,269.501655 L205.877592,261.366834 C204.794078,259.680583 202.55144,259.19255 200.867207,260.276915 C199.182281,261.360586 198.69463,263.604986 199.778144,265.290542 L207.535465,277.368509 C208.227749,278.446626 209.395891,279.035321 210.589004,279.035321 C211.260478,279.035321 211.939582,278.848577 212.54585,278.458428 C212.709556,278.352907 212.859389,278.233502 213.000898,278.107155 C213.27143,277.930824 213.525313,277.720476 213.748675,277.466393 L229.557434,259.538269 C230.882346,258.035986 230.738756,255.742991 229.237652,254.417039 C227.736548,253.091087 225.44466,253.234789 224.119748,254.737072 Z" id="Fill-43" fill="#50E3C2" sketch:type="MSShapeGroup"></path>
            <path d="M366.705175,254.737072 L353.687054,269.501655 L348.463019,261.366834 C347.379505,259.680583 345.136867,259.19255 343.452634,260.276915 C341.767708,261.360586 341.280057,263.604986 342.363571,265.290542 L350.120892,277.368509 C350.813176,278.446626 351.981318,279.035321 353.174431,279.035321 C353.845905,279.035321 354.525009,278.848577 355.131277,278.458428 C355.294983,278.352907 355.444816,278.233502 355.586325,278.107155 C355.856857,277.930824 356.11074,277.720476 356.334102,277.466393 L372.142861,259.538269 C373.467773,258.035986 373.324183,255.742991 371.823079,254.417039 C370.321975,253.091087 368.030087,253.234789 366.705175,254.737072 Z" id="Fill-44" fill="#50E3C2" sketch:type="MSShapeGroup"></path>
            <path d="M495.982629,254.737072 L482.964508,269.501655 L477.740473,261.366834 C476.656959,259.680583 474.414321,259.19255 472.730088,260.276915 C471.045161,261.360586 470.557511,263.604986 471.641025,265.290542 L479.398346,277.368509 C480.09063,278.446626 481.258771,279.035321 482.451885,279.035321 C483.123359,279.035321 483.802462,278.848577 484.408731,278.458428 C484.572437,278.352907 484.72227,278.233502 484.863779,278.107155 C485.13431,277.930824 485.388194,277.720476 485.611556,277.466393 L501.420315,259.538269 C502.745226,258.035986 502.601637,255.742991 501.100533,254.417039 C499.599429,253.091087 497.307541,253.234789 495.982629,254.737072 Z" id="Fill-45" fill="#50E3C2" sketch:type="MSShapeGroup"></path>
            <g id="Group" sketch:type="MSLayerGroup" transform="translate(570.000000, 227.000000)" fill="#50E3C2">
                <g transform="translate(-0.076517, -0.106600)" sketch:type="MSShapeGroup">
                    <path d="M0.670584278,23.2877023 L1.64250165,23.2877023 C1.6431496,17.4628207 3.99551362,12.1986731 7.80348591,8.38068076 C11.6130781,4.56431181 16.8656435,2.20676077 22.6777094,2.20643608 C28.4897754,2.20676077 33.7423408,4.56431181 37.5522569,8.38068076 C41.3605532,12.1986731 43.7129172,17.4628207 43.7135652,23.2877023 C43.7129172,29.1129087 41.3605532,34.3770562 37.5522569,38.1953732 C33.7423408,42.0117422 28.4897754,44.3692932 22.6777094,44.3699426 C16.8656435,44.3692932 11.6130781,42.0117422 7.80348591,38.1953732 C3.99551362,34.3770562 1.6431496,29.1129087 1.64250165,23.2877023 L-0.301333099,23.2877023 C-0.301657071,29.644421 2.27198014,35.4082615 6.42887076,39.5726948 C10.5841415,43.7387514 16.3349766,46.3183883 22.6777094,46.3180636 C29.0201183,46.3183883 34.7712774,43.7390761 38.9268721,39.5726948 C43.0837627,35.4082615 45.6577239,29.644421 45.657076,23.2877023 C45.6577239,16.9313083 43.0837627,11.1674678 38.9268721,7.00335925 C34.7712774,2.83730258 29.0201183,0.257665751 22.6777094,0.258315124 C16.3349766,0.257665751 10.5841415,2.83730258 6.42887076,7.00335925 C2.27198014,11.1674678 -0.301657071,16.9309836 -0.301333099,23.2877023 L0.670584278,23.2877023" id="Fill-15"></path>
                    <path d="M4.71991604,23.2877023 L5.69183342,23.2877023 C5.69248136,18.5839643 7.59160792,14.3344631 10.6667545,11.2509123 C13.7438449,8.16866027 17.9839965,6.26534609 22.6777094,6.26502141 C27.3714224,6.26534609 31.611574,8.16866027 34.6883404,11.2509123 C37.763811,14.3344631 39.6629375,18.5839643 39.6635855,23.2877023 C39.6629375,27.9917651 37.763811,32.2412662 34.6883404,35.324817 C31.611574,38.4070691 27.3714224,40.3100585 22.6777094,40.3107079 C17.9839965,40.3100585 13.7435209,38.4070691 10.6667545,35.324817 C7.59160792,32.2412662 5.69248136,27.9917651 5.69183342,23.2877023 L3.74799867,23.2877023 C3.74767469,28.5236021 5.86839841,33.2724716 9.29246333,36.7024632 C12.7149084,40.1340783 17.4533296,42.2591536 22.6777094,42.2588289 C27.9017653,42.2591536 32.6405105,40.1340783 36.0629556,36.7024632 C39.4870205,33.2724716 41.6077442,28.5236021 41.6070962,23.2877023 C41.6077442,18.0521272 39.4870205,13.3032577 36.0629556,9.8732661 C32.6405105,6.44165104 27.9020893,4.31625108 22.6777094,4.31690045 C17.4533296,4.31625108 12.7149084,6.44165104 9.29246333,9.8732661 C5.86839841,13.3032577 3.74767469,18.0521272 3.74799867,23.2877023 L4.71991604,23.2877023" id="Fill-16"></path>
                    <path d="M14.3827186,23.2877023 C14.3827186,18.6966306 18.0960909,14.9747455 22.6777094,14.9747455 C27.259004,14.9747455 30.9730243,18.6966306 30.9730243,23.2877023 C30.9730243,27.8794234 27.259004,31.6013085 22.6777094,31.6013085 C18.0960909,31.6013085 14.3827186,27.8794234 14.3827186,23.2877023" id="Fill-17"></path>
                    <path d="M9.21438596,23.2877023 L10.1863033,23.2877023 C10.1869513,19.8278395 11.5829486,16.7040275 13.8449243,14.4357654 C16.1085199,12.168802 19.2251349,10.7694017 22.6777094,10.7690771 C26.12996,10.7694017 29.246899,12.168802 31.5101706,14.4357654 C33.7724703,16.7040275 35.1684676,19.8278395 35.1691155,23.2877023 C35.1684676,26.7478898 33.7724703,29.8713771 31.5104946,32.1396393 C29.246899,34.4066027 26.1302839,35.8056782 22.6777094,35.8063276 C19.2251349,35.8056782 16.1085199,34.4066027 13.8449243,32.1396393 C11.5829486,29.8713771 10.1869513,26.7478898 10.1863033,23.2877023 L8.24246859,23.2877023 C8.24214462,27.2797268 9.8597391,30.9025824 12.4706331,33.5172855 C15.0795834,36.1336119 18.6944681,37.7547732 22.6777094,37.7544485 C26.6606269,37.7547732 30.2758355,36.1336119 32.8847857,33.5172855 C35.4956798,30.9025824 37.1132743,27.2797268 37.1126263,23.2877023 C37.1132743,19.2960025 35.4956798,15.6731469 32.8847857,13.0581192 C30.2758355,10.4417927 26.6606269,8.82030673 22.6777094,8.8209561 C18.6944681,8.82030673 15.0795834,10.4417927 12.4703092,13.0581192 C9.8597391,15.6731469 8.24214462,19.2960025 8.24246859,23.2877023 L9.21438596,23.2877023" id="Fill-18"></path>
                    <path d="M78.6021593,4.00000611 C78.6021593,2.20708545 77.1517346,0.753137847 75.3624347,0.753137847 L57.5439494,0.753137847 C55.7546496,0.753137847 54.3042249,2.20708545 54.3042249,4.00000611 L54.3042249,42.9624252 C54.3042249,44.7556706 55.7546496,46.2092935 57.5439494,46.2092935 L75.3624347,46.2092935 C77.1517346,46.2092935 78.6021593,44.7556706 78.6021593,42.9624252 L78.6021593,4.00000611 L78.6021593,4.00000611 Z M66.3449853,43.7202443 C65.2726364,43.7202443 64.4011505,42.8468367 64.4011505,41.7721233 C64.4011505,40.6977346 65.2726364,39.8240024 66.3449853,39.8240024 C67.4176581,39.8240024 68.28882,40.6977346 68.28882,41.7721233 C68.28882,42.8468367 67.4176581,43.7202443 66.3449853,43.7202443 L66.3449853,43.7202443 Z M56.5720321,6.92218754 L76.3343521,6.92218754 L76.3343521,37.4427492 L56.5720321,37.4427492 L56.5720321,6.92218754 Z" id="Fill-39"></path>
                    <path d="M71.1689352,16.4459015 L65.088944,23.3513409 L62.6491075,19.5466607 C62.1430625,18.7579964 61.0956595,18.5297416 60.3090544,19.0369024 C59.5221253,19.5437385 59.2943726,20.593451 59.8004176,21.3817906 L63.4234016,27.030692 C63.7467261,27.5349307 64.2922958,27.8102651 64.8495284,27.8102651 C65.1631337,27.8102651 65.4803028,27.7229244 65.7634547,27.5404504 C65.8399122,27.491098 65.9098903,27.4352518 65.9759806,27.3761588 C66.1023299,27.2936884 66.2209038,27.1953083 66.3252229,27.0764729 L73.7085553,18.6914356 C74.3273427,17.9888133 74.2602804,16.9163727 73.559204,16.2962209 C72.8581276,15.6760691 71.7877226,15.7432792 71.1689352,16.4459015 Z" id="Fill-40"></path>
                    <path d="M8.70691369,61.7735833 C8.21842333,61.7735833 7.77130378,61.6788297 7.36554162,61.4893197 C6.95977947,61.2998097 6.6111444,61.0293672 6.31962595,60.6779841 C6.02810751,60.326601 5.8015932,59.9002099 5.64007623,59.398798 C5.47855925,58.8973862 5.39780198,58.3347868 5.39780198,57.710983 C5.39780198,57.0871793 5.47855925,56.528528 5.64007623,56.0350124 C5.8015932,55.5414968 6.02810751,55.1230018 6.31962595,54.7795149 C6.6111444,54.436028 6.95977947,54.1734817 7.36554162,53.9918679 C7.77130378,53.8102542 8.21842333,53.7194487 8.70691369,53.7194487 C9.19540405,53.7194487 9.64252361,53.8122282 10.0482858,53.9977901 C10.4540479,54.183352 10.8046527,54.4478724 11.1001106,54.7913592 C11.3955684,55.1348461 11.6240524,55.5533411 11.7855694,56.0468567 C11.9470864,56.5403723 12.0278437,57.0950756 12.0278437,57.710983 C12.0278437,58.3347868 11.9470864,58.8973862 11.7855694,59.398798 C11.6240524,59.9002099 11.3955684,60.326601 11.1001106,60.6779841 C10.8046527,61.0293672 10.4540479,61.2998097 10.0482858,61.4893197 C9.64252361,61.6788297 9.19540405,61.7735833 8.70691369,61.7735833 Z M8.70691369,60.9089483 C9.05358427,60.9089483 9.36676493,60.833935 9.64646505,60.6839063 C9.92616518,60.5338775 10.1664673,60.3187079 10.3673787,60.0383911 C10.56829,59.7580742 10.7238955,59.4224886 10.8341998,59.0316242 C10.9445041,58.6407599 10.9996554,58.2005505 10.9996554,57.710983 C10.9996554,57.2293118 10.9445041,56.7950246 10.8341998,56.4081083 C10.7238955,56.0211921 10.56829,55.6935026 10.3673787,55.4250301 C10.1664673,55.1565576 9.92616518,54.9492842 9.64646505,54.8032035 C9.36676493,54.6571229 9.05358427,54.5840837 8.70691369,54.5840837 C8.36024311,54.5840837 8.04706246,54.6571229 7.76736233,54.8032035 C7.4876622,54.9492842 7.24736006,55.1565576 7.04644871,55.4250301 C6.84553735,55.6935026 6.68993186,56.0211921 6.57962759,56.4081083 C6.46932331,56.7950246 6.414172,57.2293118 6.414172,57.710983 C6.414172,58.2005505 6.46932331,58.6407599 6.57962759,59.0316242 C6.68993186,59.4224886 6.84553735,59.7580742 7.04644871,60.0383911 C7.24736006,60.3187079 7.4876622,60.5338775 7.76736233,60.6839063 C8.04706246,60.833935 8.36024311,60.9089483 8.70691369,60.9089483 Z M13.6942178,53.8615805 L16.0696873,53.8615805 C16.4951466,53.8615805 16.8851452,53.9010611 17.2396946,53.9800236 C17.5942441,54.0589861 17.8956066,54.1872982 18.1437912,54.3649639 C18.3919758,54.5426295 18.5850054,54.7775394 18.7228858,55.0697007 C18.8607661,55.3618619 18.9297052,55.7211359 18.9297052,56.1475334 C18.9297052,56.5581384 18.8607661,56.9134643 18.7228858,57.2135218 C18.5850054,57.5135793 18.3900061,57.7623074 18.1378821,57.9597137 C17.885758,58.1571199 17.5843955,58.3051724 17.2337855,58.4038755 C16.8831755,58.5025786 16.4951466,58.5519295 16.0696873,58.5519295 L14.675133,58.5519295 L14.675133,61.6314515 L13.6942178,61.6314515 L13.6942178,53.8615805 Z M15.9515047,57.746516 C16.6290881,57.746516 17.131359,57.6182039 17.4583324,57.3615757 C17.7853057,57.1049476 17.94879,56.7002709 17.94879,56.1475334 C17.94879,55.5868996 17.783336,55.1980152 17.4524232,54.9808683 C17.1215104,54.7637214 16.6212092,54.6551496 15.9515047,54.6551496 L14.675133,54.6551496 L14.675133,57.746516 L15.9515047,57.746516 Z M20.5015333,53.8615805 L24.9688341,53.8615805 L24.9688341,54.6906826 L21.4824486,54.6906826 L21.4824486,57.1306116 L24.4251943,57.1306116 L24.4251943,57.971558 L21.4824486,57.971558 L21.4824486,60.7905051 L25.0870167,60.7905051 L25.0870167,61.6314515 L20.5015333,61.6314515 L20.5015333,53.8615805 Z M26.7297543,53.8615805 L27.7461243,53.8615805 L30.547051,58.7414385 L31.3861472,60.3522654 L31.4334202,60.3522654 C31.4097836,59.9574529 31.3841776,59.5488281 31.3566016,59.1263788 C31.3290255,58.7039294 31.3152377,58.2874085 31.3152377,57.8768035 L31.3152377,53.8615805 L32.2488799,53.8615805 L32.2488799,61.6314515 L31.2325099,61.6314515 L28.4197649,56.7397492 L27.5806687,55.1407665 L27.5333957,55.1407665 C27.5649112,55.535579 27.5944565,55.9363077 27.6220326,56.3429646 C27.6496087,56.7496215 27.6633965,57.1582463 27.6633965,57.5688513 L27.6633965,61.6314515 L26.7297543,61.6314515 L26.7297543,53.8615805 Z M36.7634537,53.8615805 L39.0680137,53.8615805 C39.4619575,53.8615805 39.8224107,53.897113 40.1493841,53.9681793 C40.4763575,54.0392455 40.7560534,54.1497914 40.9884803,54.2998201 C41.2209072,54.4498489 41.4021186,54.6452781 41.5321201,54.8861138 C41.6621215,55.1269494 41.7271213,55.4171322 41.7271213,55.756671 C41.7271213,56.1435872 41.6168187,56.492991 41.3962101,56.8048929 C41.1756016,57.1167948 40.836815,57.3319644 40.3798401,57.4504081 L40.3798401,57.4977854 C40.9471192,57.5846441 41.3883297,57.7820474 41.7034848,58.0900011 C42.0186399,58.3979549 42.176215,58.8203979 42.176215,59.3573429 C42.176215,59.7363629 42.1053062,60.0680004 41.9634864,60.3522654 C41.8216666,60.6365304 41.6207583,60.8734144 41.3607554,61.0629244 C41.1007524,61.2524344 40.7895415,61.3945647 40.4271131,61.4893197 C40.0646848,61.5840747 39.6668075,61.6314515 39.2334693,61.6314515 L36.7634537,61.6314515 L36.7634537,53.8615805 Z M38.8907398,57.1779888 C39.5604444,57.1779888 40.0390789,57.0634949 40.326658,56.8345037 C40.614237,56.6055124 40.7580243,56.2738749 40.7580243,55.8395812 C40.7580243,55.4131837 40.6063582,55.1072086 40.3030214,54.9216467 C39.9996847,54.7360848 39.5446864,54.6433053 38.9380129,54.6433053 L37.744369,54.6433053 L37.744369,57.1779888 L38.8907398,57.1779888 Z M39.0916502,60.8497267 C39.7613547,60.8497267 40.2813528,60.7253626 40.65166,60.4766308 C41.0219672,60.2278989 41.207118,59.8390144 41.207118,59.3099657 C41.207118,58.8282944 41.0259066,58.4749425 40.6634783,58.2498994 C40.3010499,58.0248563 39.7771125,57.9123364 39.0916502,57.9123364 L37.744369,57.9123364 L37.744369,60.8497267 L39.0916502,60.8497267 Z M43.7125883,53.8615805 L48.1798891,53.8615805 L48.1798891,54.6906826 L44.6935036,54.6906826 L44.6935036,57.1306116 L47.6362494,57.1306116 L47.6362494,57.971558 L44.6935036,57.971558 L44.6935036,60.7905051 L48.2980717,60.7905051 L48.2980717,61.6314515 L43.7125883,61.6314515 L43.7125883,53.8615805 Z M53.4862861,59.2625884 L50.6617229,59.2625884 L49.9171728,61.6314515 L48.912621,61.6314515 L51.5362739,53.8615805 L52.64719,53.8615805 L55.2708428,61.6314515 L54.219018,61.6314515 L53.4862861,59.2625884 Z M53.2381028,58.4690192 L52.8717368,57.2845877 C52.729917,56.8502939 52.5959781,56.4179807 52.4699161,55.9876351 C52.3438541,55.5572895 52.217794,55.1170802 52.0917319,54.6669939 L52.0444589,54.6669939 C51.9262757,55.1170802 51.804155,55.5572895 51.678093,55.9876351 C51.5520309,56.4179807 51.418092,56.8502939 51.2762722,57.2845877 L50.9099063,58.4690192 L53.2381028,58.4690192 Z M55.6844818,57.746516 C55.6844818,57.1227122 55.7711481,56.5620869 55.9444834,56.0646232 C56.1178187,55.5671594 56.3581208,55.1447164 56.665397,54.7972814 C56.9726732,54.4498464 57.3370658,54.183352 57.7585857,53.9977901 C58.1801056,53.8122282 58.6390433,53.7194487 59.1354126,53.7194487 C59.6081452,53.7194487 60.02178,53.8161763 60.3763295,54.0096344 C60.7308789,54.2030925 61.022393,54.4261582 61.2508804,54.6788382 L60.6954224,55.306587 C60.4905716,55.085492 60.2640573,54.909803 60.0158727,54.7795149 C59.767688,54.6492268 59.4781437,54.5840837 59.1472308,54.5840837 C58.7769236,54.5840837 58.4420764,54.6571229 58.1426791,54.8032035 C57.8432817,54.9492842 57.5872221,55.1585317 57.3744924,55.4309523 C57.1617627,55.7033729 56.9963088,56.0330364 56.8781257,56.4199526 C56.7599425,56.8068689 56.7008518,57.2411561 56.7008518,57.7228274 C56.7008518,58.2123949 56.7579728,58.6526042 56.8722165,59.0434686 C56.9864602,59.4343329 57.1460051,59.7679445 57.3508559,60.0443132 C57.5557067,60.320682 57.8058573,60.5338775 58.1013152,60.6839063 C58.396773,60.833935 58.7296506,60.9089483 59.0999578,60.9089483 C59.4781439,60.9089483 59.8070821,60.833935 60.0867822,60.6839063 C60.3664823,60.5338775 60.6323904,60.320682 60.8845145,60.0443132 L61.4399725,60.6483733 C61.1326963,61.0037046 60.7860309,61.2800692 60.399966,61.4774754 C60.013901,61.6748817 59.5726905,61.7735833 59.0763213,61.7735833 C58.5878309,61.7735833 58.136772,61.6827778 57.723131,61.5011641 C57.3094899,61.3195503 56.9510064,61.0570039 56.6476697,60.7135171 C56.3443329,60.3700302 56.1079701,59.9475872 55.9385743,59.4461753 C55.7691784,58.9447634 55.6844818,58.378216 55.6844818,57.746516 Z M65.0681771,61.7735833 C64.5796868,61.7735833 64.1325672,61.6788297 63.7268051,61.4893197 C63.3210429,61.2998097 62.9724079,61.0293672 62.6808894,60.6779841 C62.389371,60.326601 62.1628567,59.9002099 62.0013397,59.398798 C61.8398227,58.8973862 61.7590654,58.3347868 61.7590654,57.710983 C61.7590654,57.0871793 61.8398227,56.528528 62.0013397,56.0350124 C62.1628567,55.5414968 62.389371,55.1230018 62.6808894,54.7795149 C62.9724079,54.436028 63.3210429,54.1734817 63.7268051,53.9918679 C64.1325672,53.8102542 64.5796868,53.7194487 65.0681771,53.7194487 C65.5566675,53.7194487 66.0037871,53.8122282 66.4095492,53.9977901 C66.8153114,54.183352 67.1659161,54.4478724 67.461374,54.7913592 C67.7568319,55.1348461 67.9853159,55.5533411 68.1468329,56.0468567 C68.3083498,56.5403723 68.3891071,57.0950756 68.3891071,57.710983 C68.3891071,58.3347868 68.3083498,58.8973862 68.1468329,59.398798 C67.9853159,59.9002099 67.7568319,60.326601 67.461374,60.6779841 C67.1659161,61.0293672 66.8153114,61.2998097 66.4095492,61.4893197 C66.0037871,61.6788297 65.5566675,61.7735833 65.0681771,61.7735833 Z M65.0681771,60.9089483 C65.4148477,60.9089483 65.7280284,60.833935 66.0077285,60.6839063 C66.2874286,60.5338775 66.5277308,60.3187079 66.7286421,60.0383911 C66.9295535,59.7580742 67.085159,59.4224886 67.1954632,59.0316242 C67.3057675,58.6407599 67.3609188,58.2005505 67.3609188,57.710983 C67.3609188,57.2293118 67.3057675,56.7950246 67.1954632,56.4081083 C67.085159,56.0211921 66.9295535,55.6935026 66.7286421,55.4250301 C66.5277308,55.1565576 66.2874286,54.9492842 66.0077285,54.8032035 C65.7280284,54.6571229 65.4148477,54.5840837 65.0681771,54.5840837 C64.7215066,54.5840837 64.4083259,54.6571229 64.1286258,54.8032035 C63.8489257,54.9492842 63.6086235,55.1565576 63.4077122,55.4250301 C63.2068008,55.6935026 63.0511953,56.0211921 62.940891,56.4081083 C62.8305868,56.7950246 62.7754355,57.2293118 62.7754355,57.710983 C62.7754355,58.2005505 62.8305868,58.6407599 62.940891,59.0316242 C63.0511953,59.4224886 63.2068008,59.7580742 63.4077122,60.0383911 C63.6086235,60.3187079 63.8489257,60.5338775 64.1286258,60.6839063 C64.4083259,60.833935 64.7215066,60.9089483 65.0681771,60.9089483 Z M70.0554812,53.8615805 L71.0718513,53.8615805 L73.872778,58.7414385 L74.7118741,60.3522654 L74.7591472,60.3522654 C74.7355105,59.9574529 74.7099046,59.5488281 74.6823285,59.1263788 C74.6547524,58.7039294 74.6409646,58.2874085 74.6409646,57.8768035 L74.6409646,53.8615805 L75.5746068,53.8615805 L75.5746068,61.6314515 L74.5582368,61.6314515 L71.7454919,56.7397492 L70.9063957,55.1407665 L70.8591226,55.1407665 C70.8906382,55.535579 70.9201835,55.9363077 70.9477596,56.3429646 C70.9753356,56.7496215 70.9891235,57.1582463 70.9891235,57.5688513 L70.9891235,61.6314515 L70.0554812,61.6314515 L70.0554812,53.8615805 Z" id="OPEN-BEACON"></path>
                    <path d="M7.16344944,70.5668033 C7.16344944,69.9429995 7.25011579,69.3823742 7.42345108,68.8849104 C7.59678637,68.3874467 7.8370885,67.9650037 8.1443647,67.6175687 C8.4516409,67.2701337 8.81603348,67.0036392 9.23755339,66.8180774 C9.6590733,66.6325155 10.118011,66.5397359 10.6143802,66.5397359 C11.0871128,66.5397359 11.5007477,66.6364635 11.8552971,66.8299217 C12.2098466,67.0233798 12.5013606,67.2464455 12.7298481,67.4991255 L12.17439,68.1268742 C11.9695392,67.9057792 11.7430249,67.7300903 11.4948403,67.5998022 C11.2466557,67.4695141 10.9571113,67.404371 10.6261985,67.404371 C10.2558913,67.404371 9.92104403,67.4774102 9.62164672,67.6234908 C9.3222494,67.7695714 9.06618974,67.9788189 8.85346007,68.2512396 C8.64073039,68.5236602 8.47527646,68.8533237 8.35709331,69.2402399 C8.23891016,69.6271562 8.17981947,70.0614434 8.17981947,70.5431146 C8.17981947,71.0326821 8.23694047,71.4728915 8.35118418,71.8637558 C8.4654279,72.2546202 8.62497276,72.5882318 8.82982355,72.8646005 C9.03467435,73.1409692 9.28482494,73.3541648 9.58028282,73.5041935 C9.8757407,73.6542223 10.2086183,73.7292355 10.5789255,73.7292355 C10.9571115,73.7292355 11.2860497,73.6542223 11.5657498,73.5041935 C11.84545,73.3541648 12.1113581,73.1409692 12.3634821,72.8646005 L12.9189402,73.4686606 C12.611664,73.8239918 12.2649986,74.1003564 11.8789336,74.2977627 C11.4928687,74.4951689 11.0516582,74.5938706 10.5552889,74.5938706 C10.0667986,74.5938706 9.61573966,74.5030651 9.20209862,74.3214513 C8.78845759,74.1398376 8.42997407,73.8772912 8.12663732,73.5338043 C7.82330056,73.1903175 7.5869378,72.7678744 7.41754195,72.2664626 C7.2481461,71.7650507 7.16344944,71.1985033 7.16344944,70.5668033 Z M18.6153396,74.4517388 L16.7480552,71.1708634 L15.3416827,71.1708634 L15.3416827,74.4517388 L14.3607674,74.4517388 L14.3607674,66.6818677 L16.7835099,66.6818677 C17.1774538,66.6818677 17.5418464,66.7193744 17.8766986,66.7943887 C18.2115509,66.8694031 18.4991256,66.9937672 18.7394313,67.1674847 C18.9797371,67.3412022 19.1668576,67.5662419 19.3007985,67.8426107 C19.4347394,68.1189794 19.5017088,68.4585131 19.5017088,68.8612218 C19.5017088,69.4692331 19.3441337,69.9548451 19.0289786,70.3180726 C18.7138235,70.6813001 18.2923099,70.9300283 17.7644252,71.0642645 L19.7262557,74.4517388 L18.6153396,74.4517388 Z M15.3416827,70.3654499 L16.6416909,70.3654499 C17.2483644,70.3654499 17.7132111,70.2410858 18.0362451,69.992354 C18.359279,69.7436221 18.5207936,69.3665818 18.5207936,68.8612218 C18.5207936,68.3479656 18.359279,67.9886916 18.0362451,67.7833891 C17.7132111,67.5780866 17.2483644,67.4754369 16.6416909,67.4754369 L15.3416827,67.4754369 L15.3416827,70.3654499 Z M21.2271742,66.6818677 L25.694475,66.6818677 L25.694475,67.5109698 L22.2080895,67.5109698 L22.2080895,69.9508988 L25.1508353,69.9508988 L25.1508353,70.7918453 L22.2080895,70.7918453 L22.2080895,73.6107924 L25.8126576,73.6107924 L25.8126576,74.4517388 L21.2271742,74.4517388 L21.2271742,66.6818677 Z M27.4553952,66.6818677 L29.3935892,66.6818677 C30.5911785,66.6818677 31.5011751,67.0135052 32.1236064,67.6767902 C32.7460376,68.3400752 33.0572486,69.2915591 33.0572486,70.5312703 C33.0572486,71.1471778 32.978461,71.697933 32.8208835,72.1835524 C32.663306,72.6691717 32.4308826,73.0797706 32.1236064,73.4153612 C31.8163302,73.7509518 31.4381498,74.0075761 30.9890538,74.1852417 C30.5399578,74.3629073 30.0238991,74.4517388 29.4408622,74.4517388 L27.4553952,74.4517388 L27.4553952,66.6818677 Z M29.3226797,73.6463253 C30.2287505,73.6463253 30.9082934,73.3739088 31.3613289,72.8290676 C31.8143643,72.2842263 32.0408786,71.5183016 32.0408786,70.5312703 C32.0408786,69.5442391 31.8143643,68.7901585 31.3613289,68.269006 C30.9082934,67.7478535 30.2287505,67.4872812 29.3226797,67.4872812 L28.4363105,67.4872812 L28.4363105,73.6463253 L29.3226797,73.6463253 Z M34.7236227,66.6818677 L39.1909235,66.6818677 L39.1909235,67.5109698 L35.704538,67.5109698 L35.704538,69.9508988 L38.6472838,69.9508988 L38.6472838,70.7918453 L35.704538,70.7918453 L35.704538,73.6107924 L39.3091061,73.6107924 L39.3091061,74.4517388 L34.7236227,74.4517388 L34.7236227,66.6818677 Z M40.9518437,66.6818677 L41.9682137,66.6818677 L44.7691404,71.5617258 L45.6082366,73.1725527 L45.6555096,73.1725527 C45.631873,72.7777402 45.606267,72.3691154 45.578691,71.946666 C45.5511149,71.5242167 45.5373271,71.1076957 45.5373271,70.6970907 L45.5373271,66.6818677 L46.4709693,66.6818677 L46.4709693,74.4517388 L45.4545993,74.4517388 L42.6418543,69.5600364 L41.8027581,67.9610538 L41.7554851,67.9610538 C41.7870006,68.3558663 41.816546,68.756595 41.844122,69.1632519 C41.8716981,69.5699087 41.8854859,69.9785335 41.8854859,70.3891385 L41.8854859,74.4517388 L40.9518437,74.4517388 L40.9518437,66.6818677 Z M50.2055382,67.5109698 L47.8655235,67.5109698 L47.8655235,66.6818677 L53.5382865,66.6818677 L53.5382865,67.5109698 L51.1982718,67.5109698 L51.1982718,74.4517388 L50.2055382,74.4517388 L50.2055382,67.5109698 Z M54.9328407,66.6818677 L55.913756,66.6818677 L55.913756,74.4517388 L54.9328407,74.4517388 L54.9328407,66.6818677 Z M61.5865189,72.0828757 L58.7619557,72.0828757 L58.0174055,74.4517388 L57.0128538,74.4517388 L59.6365066,66.6818677 L60.7474227,66.6818677 L63.3710756,74.4517388 L62.3192508,74.4517388 L61.5865189,72.0828757 Z M61.3383355,71.2893065 L60.9719696,70.104875 C60.8301498,69.6705812 60.6962109,69.238268 60.5701489,68.8079224 C60.4440868,68.3775768 60.3180267,67.9373674 60.1919647,67.4872812 L60.1446916,67.4872812 C60.0265085,67.9373674 59.9043877,68.3775768 59.7783257,68.8079224 C59.6522637,69.238268 59.5183248,69.6705812 59.376505,70.104875 L59.0101391,71.2893065 L61.3383355,71.2893065 Z M64.4701734,66.6818677 L65.4510886,66.6818677 L65.4510886,73.6107924 L68.8429282,73.6107924 L68.8429282,74.4517388 L64.4701734,74.4517388 L64.4701734,66.6818677 Z M69.7292974,72.7580017 C70.005058,73.0501629 70.3300568,73.2850728 70.7043035,73.4627384 C71.0785501,73.6404041 71.466579,73.7292355 71.8684017,73.7292355 C72.3805287,73.7292355 72.778406,73.6127676 73.0620456,73.3798282 C73.3456852,73.1468889 73.4875028,72.8409138 73.4875028,72.4618938 C73.4875028,72.2644875 73.4540181,72.0966947 73.3870476,71.9585104 C73.3200772,71.820326 73.2294715,71.701884 73.1152277,71.6031809 C73.000984,71.5044778 72.8650754,71.4156463 72.7074979,71.3366838 C72.5499204,71.2577213 72.3805271,71.1748119 72.1993129,71.0879532 L71.0883968,70.6023362 C70.9071826,70.5233737 70.7220318,70.4286201 70.5329388,70.3180726 C70.3438457,70.2075251 70.1744524,70.0732909 70.0247538,69.9153659 C69.8750551,69.7574409 69.7529343,69.5699078 69.6583878,69.3527609 C69.5638413,69.135614 69.5165688,68.8849119 69.5165688,68.6006469 C69.5165688,68.3084856 69.5776291,68.0360691 69.6997517,67.7833891 C69.8218743,67.5307091 69.9912676,67.3115914 70.2079367,67.1260296 C70.4246058,66.9404677 70.6806655,66.7963633 70.9761234,66.693712 C71.2715813,66.5910608 71.5965801,66.5397359 71.9511295,66.5397359 C72.4159832,66.5397359 72.8453756,66.6285674 73.2393194,66.806233 C73.6332633,66.9838987 73.9681105,67.2148605 74.2438712,67.4991255 L73.7120497,68.1387186 C73.4756834,67.9097273 73.2137146,67.7300903 72.9261356,67.5998022 C72.6385566,67.4695141 72.3135578,67.404371 71.9511295,67.404371 C71.5177913,67.404371 71.1691562,67.5050467 70.9052138,67.706401 C70.6412715,67.9077554 70.5093023,68.186094 70.5093023,68.5414253 C70.5093023,68.7309353 70.5467264,68.8908319 70.6215757,69.0211201 C70.696425,69.1514082 70.7968792,69.2659021 70.9229412,69.3646052 C71.0490033,69.4633083 71.1868815,69.5501658 71.3365802,69.6251802 C71.4862789,69.7001945 71.6399146,69.7692857 71.7974922,69.8324557 L72.89659,70.3062283 C73.1171986,70.4009833 73.3259857,70.5095551 73.5229576,70.631947 C73.7199295,70.7543389 73.8893228,70.8964692 74.0311426,71.0583424 C74.1729624,71.2202155 74.2852347,71.4097226 74.3679629,71.6268695 C74.4506911,71.8440164 74.4920546,72.0947186 74.4920546,72.3789836 C74.4920546,72.6869373 74.4309942,72.9751461 74.3088716,73.2436186 C74.186749,73.5120911 74.0114466,73.747001 73.7829592,73.9483554 C73.5544718,74.1497098 73.2787152,74.3076324 72.9556813,74.422128 C72.6326473,74.5366236 72.2662851,74.5938706 71.8565835,74.5938706 C71.312941,74.5938706 70.8087004,74.4912209 70.3438467,74.2859184 C69.8789929,74.0806159 69.4771763,73.8003032 69.1383846,73.444972 L69.7292974,72.7580017 Z" id="CREDENTIALS"></path>
                </g>
            </g>
        </g>
    </g>
</svg>