<?xml version="1.0" encoding="UTF-8" standalone="no"?>
<svg width="680px" height="340px" viewBox="0 0 680 340" version="1.1" xmlns="http://www.w3.org/2000/svg" xmlns:xlink="http://www.w3.org/1999/xlink" xmlns:sketch="http://www.bohemiancoding.com/sketch/ns">
    <title>Artboard 1</title>
    <description>Created with Sketch (http://www.bohemiancoding.com/sketch)</description>
    <defs></defs>
    <g id="Page-1" stroke="none" stroke-width="1" fill="none" fill-rule="evenodd" sketch:type="MSPage">
        <g id="Artboard-1" sketch:type="MSArtboardGroup">
            <path d="M342,197 L342,193.465891 C342,190.999398 343.939288,189 346.331387,189 L354.668807,189 C357.060907,189 359,190.999398 359,193.465891 L359,197 L342,197 M342.931427,183 C338.588752,183 335.068179,186.530631 335.068179,190.885714 L335.068179,196.8 C335.068179,196.866043 328.814342,196.997143 328.814342,196.997143 C321.737222,196.997143 316,202.817786 316,209.997729 L316,238.999414 C316,246.179357 321.737222,252 328.814342,252 L372.185658,252 C379.262778,252 385,246.179357 385,238.999414 L385,209.997729 C385,202.817786 379.262778,196.997143 372.185658,196.997143 L365.926513,196.997143 C365.928085,196.931494 365.931427,190.885714 365.931427,190.885714 C365.931427,186.530631 362.411051,183 358.068179,183 L342.931427,183 Z" id="Imported-Layers" fill="#D4D4D4" sketch:type="MSShapeGroup"></path>
            <path d="M432,197 L432,193.465891 C432,190.999398 433.939288,189 436.331387,189 L444.668807,189 C447.060907,189 449,190.999398 449,193.465891 L449,197 L432,197 M448.068179,183 L432.931427,183 C428.588752,183 425.068179,186.530631 425.068179,190.885714 L425.068179,196.8 C425.068179,196.866043 425.071718,196.931494 425.073291,196.997143 L418.814342,196.997143 C411.737222,196.997143 406,202.817786 406,209.997729 L406,238.999414 C406,246.179357 411.737222,252 418.814342,252 L462.185658,252 C469.262778,252 475,246.179357 475,238.999414 L475,209.997729 C475,202.817786 469.262778,196.997143 462.185658,196.997143 L455.926513,196.997143 C455.928085,196.931494 455.931427,196.866043 455.931427,196.8 L455.931427,190.885714 C455.931427,186.530631 452.411051,183 448.068179,183" id="Imported-Layers" fill="#D4D4D4" sketch:type="MSShapeGroup"></path>
            <path d="M259.499809,231 C255.910088,231 253,228.089912 253,224.5 C253,220.910088 255.910088,218 259.499809,218 C263.089721,218 266,220.910088 266,224.5 C266,228.089912 263.089721,231 259.499809,231 M251,197 L251,193.465891 C251,190.999398 252.939288,189 255.331387,189 L263.668807,189 C266.060907,189 268,190.999398 268,193.465891 L268,197 L251,197 M267.068179,183 L251.931427,183 C247.588752,183 244.068179,186.530631 244.068179,190.885714 L244.068179,196.8 C244.068179,196.866043 244.071718,196.931494 244.073291,196.997143 L237.814342,196.997143 C230.737222,196.997143 225,202.817786 225,209.997729 L225,238.999414 C225,246.179357 230.737222,252 237.814342,252 L281.185658,252 C288.262778,252 294,246.179357 294,238.999414 L294,209.997729 C294,202.817786 288.262778,196.997143 281.185658,196.997143 L274.926513,196.997143 C274.928085,196.931494 274.931427,196.866043 274.931427,196.8 L274.931427,190.885714 C274.931427,186.530631 271.411051,183 267.068179,183" id="Imported-Layers" fill="#323232" sketch:type="MSShapeGroup"></path>
            <g id="post_travelradar_teaser" sketch:type="MSLayerGroup" transform="translate(165.000000, 54.000000)">
                <g id="Page-1" sketch:type="MSShapeGroup">
                    <g id="TravelRadar_Teaser_03">
                        <path d="M250.066929,12.429888 C246.80898,12.3810457 245.633735,18.0407498 245.633735,18.0407498 L245.60826,32.5185692 L218.947566,47.3564563 L219.085067,56.5596242 L245.706636,48.8132952 L245.706636,63.9838433 L236.115306,70.6667637 L236.115306,75.4550193 L250.320255,71.4406757 L264.043036,75.4550193 L263.975667,70.7146044 L254.60762,64.2641762 L254.516423,48.9944446 L281.121316,56.4219702 L281.121316,47.1629783 L254.516423,32.6001842 L254.516423,17.8472718 C254.516423,17.8472718 253.324879,12.4787304 250.066929,12.429888 L250.066929,12.429888 Z" id="Rectangle-1" fill="#323232" transform="translate(249.947566, 43.929574) rotate(45.000000) translate(-249.947566, -43.929574) "></path>
                        <path d="M346.5,205.5 L0.498555,205.5" id="Line" stroke="#E1E1E6" stroke-width="3"></path>
                        <path d="M35,206 L35,222 L51,206 L35,206 L35,206 Z M65,206 L65,222 L81,206 L65,206 L65,206 Z" id="Rectangle-23" fill="#D8D8D8"></path>
                        <path d="M95,206 L95,222 L111,206 L95,206 L95,206 Z M125,206 L125,222 L141,206 L125,206 L125,206 Z" id="Rectangle-23" fill="#D8D8D8"></path>
                        <path d="M155,206 L155,222 L171,206 L155,206 L155,206 Z M185,206 L185,222 L201,206 L185,206 L185,206 Z" id="Rectangle-23" fill="#D8D8D8"></path>
                        <path d="M215,206 L215,222 L231,206 L215,206 L215,206 Z M245,206 L245,222 L261,206 L245,206 L245,206 Z" id="Rectangle-23" fill="#D8D8D8"></path>
                        <path d="M275,206 L275,222 L291,206 L275,206 L275,206 Z M305,206 L305,222 L321,206 L305,206 L305,206 Z" id="Rectangle-23" fill="#D8D8D8"></path>
                        <path d="M343.679268,120.960241 L96.992736,170.705503" id="Line" stroke="#DA136C" stroke-dasharray="4"></path>
                        <path d="M104,170.5 C104,165.805579 100.194421,162 95.5,162 C90.8055789,162 87,165.805579 87,170.5 C87,175.194421 90.8055789,179 95.5,179 C100.194421,179 104,175.194421 104,170.5 Z" id="Oval-8" fill="#DA136C"></path>
                        <g id="Group-+-8m-+-Group" transform="translate(341.000000, 73.000000)">
                            <g id="Group">
                                <rect id="Rectangle-9" stroke="#C3C3CC" stroke-width="0.5" fill="#FFFFFF" x="0" y="0" width="44" height="93" rx="6"></rect>
                                <rect id="Rectangle-10" fill="#DA136C" x="2" y="13" width="40" height="67"></rect>
                                <path d="M23,90 C25.2091391,90 27,88.2091391 27,86 C27,83.7908609 25.2091391,82 23,82 C20.7908609,82 19,83.7908609 19,86 C19,88.2091391 20.7908609,90 23,90 L23,90 Z" id="Oval-2" stroke="#D4D4D4" stroke-width="0.5" fill="#FFFFFF"></path>
                                <path d="M24,6.5 C24,6.03176174 23.7854551,5.61363316 23.4493063,5.3385553 C23.1907262,5.12695361 22.8601889,5 22.5,5 C21.6715728,5 21,5.67157283 21,6.5 C21,7.32842717 21.75,8.00000011 22.5,8 C23.25,7.99999989 24,7.32842717 24,6.5 Z" id="Oval-2" stroke="#D4D4D4" stroke-width="0.5"></path>
                            </g>
                            <g id="8m" transform="translate(17.000000, 70.000000)" fill="#FFFFFF">
                                <path d="M0.654361116,1.57718506 C0.654361116,1.4698021 0.673376564,1.37584341 0.711408031,1.29530619 C0.749439499,1.21476896 0.802011621,1.14765561 0.869125974,1.09396413 C0.936240328,1.04027265 1.01342068,0.998886084 1.10066934,0.969803198 C1.187918,0.940720311 1.27852102,0.926179086 1.37248111,0.926179086 C1.52013269,0.926179086 1.63981816,0.948550201 1.73154111,0.993293104 C1.82326406,1.03803601 1.89485163,1.0939638 1.94630597,1.16107815 C1.99776031,1.2281925 2.03243554,1.29866152 2.0503327,1.37248731 C2.06822986,1.4463131 2.0771783,1.514545 2.0771783,1.57718506 C2.0771783,1.77852813 2.01006496,1.93177027 1.87583625,2.03691609 C1.74160754,2.14206191 1.57382417,2.19463403 1.37248111,2.19463403 C1.18008663,2.19463403 1.01230326,2.14206191 0.869125974,2.03691609 C0.725948686,1.93177027 0.654361116,1.77852813 0.654361116,1.57718506 L0.654361116,1.57718506 Z M-0.211409721,1.48993684 C-0.211409721,1.72259993 -0.15324482,1.92617709 -0.0369132733,2.10067441 C0.0794182735,2.27517173 0.251675865,2.39373864 0.479864668,2.4563787 L0.479864668,2.46980151 C0.197984382,2.53691586 -0.0201339969,2.67114256 -0.174497011,2.87248562 C-0.328860025,3.07382868 -0.406040374,3.32438518 -0.406040374,3.62416262 C-0.406040374,3.87919717 -0.355705364,4.0984341 -0.255033833,4.28188 C-0.154362302,4.4653259 -0.0201356077,4.61744949 0.147650277,4.73825533 C0.315436162,4.85906117 0.505590646,4.94742707 0.718119433,5.0033557 C0.930648221,5.05928433 1.15100371,5.08724822 1.37919251,5.08724822 C1.59843274,5.08724822 1.81319545,5.05704722 2.02348709,4.9966443 C2.23377873,4.93624138 2.4216961,4.84563836 2.58724484,4.72483252 C2.75279358,4.60402669 2.88590172,4.4519031 2.98657325,4.2684572 C3.08724478,4.0850113 3.13757979,3.86801148 3.13757979,3.61745122 C3.13757979,3.32214806 3.061518,3.07271012 2.90939213,2.86912992 C2.75726626,2.66554971 2.54026644,2.53244157 2.25838615,2.46980151 L2.25838615,2.4563787 C2.48657496,2.38031577 2.65771399,2.25503752 2.77180839,2.0805402 C2.8859028,1.90604288 2.94294914,1.70246573 2.94294914,1.46980263 C2.94294914,1.35347109 2.9161038,1.22260006 2.86241232,1.07718563 C2.80872084,0.931771194 2.72035493,0.795307388 2.59731195,0.667790115 C2.47426896,0.540272843 2.31207838,0.431772931 2.11073531,0.342287126 C1.90939225,0.252801321 1.66330998,0.208059089 1.37248111,0.208059089 C1.18008663,0.208059089 0.989932147,0.234904428 0.802011956,0.288595911 C0.614091765,0.342287395 0.445189841,0.422823411 0.295301118,0.530206377 C0.145412394,0.637589344 0.023489813,0.771816038 -0.0704702825,0.932890488 C-0.164430378,1.09396494 -0.211409721,1.2796452 -0.211409721,1.48993684 L-0.211409721,1.48993684 Z M0.546978686,3.57718281 C0.546978686,3.33557114 0.627514703,3.15100943 0.788589152,3.02349216 C0.949663602,2.89597489 1.14652942,2.83221721 1.37919251,2.83221721 C1.49104977,2.83221721 1.59507546,2.8501141 1.6912727,2.88590842 C1.78746994,2.92170274 1.87248018,2.97315631 1.94630597,3.04027066 C2.02013176,3.10738502 2.07829666,3.18680248 2.12080242,3.27852543 C2.16330817,3.37024838 2.18456073,3.47203696 2.18456073,3.58389421 C2.18456073,3.70022576 2.16442673,3.80760712 2.12415812,3.9060415 C2.08388951,4.00447589 2.02684316,4.08836757 1.95301737,4.15771907 C1.87919158,4.22707057 1.79418134,4.28076125 1.6979841,4.31879271 C1.60178686,4.35682418 1.49552406,4.37583963 1.37919251,4.37583963 C1.26733526,4.37583963 1.1599539,4.35682418 1.05704523,4.31879271 C0.95413655,4.28076125 0.865770643,4.22707057 0.791944853,4.15771907 C0.718119064,4.08836757 0.658835607,4.00447589 0.614092705,3.9060415 C0.569349802,3.80760712 0.546978686,3.69798865 0.546978686,3.57718281 L0.546978686,3.57718281 Z M4.62080073,1.53020525 L4.62080073,5 L5.57381979,5 L5.57381979,2.98657945 C5.57381979,2.81655642 5.59842802,2.67897406 5.64764521,2.57382824 C5.6968624,2.46868242 5.75614586,2.3881464 5.82549736,2.33221777 C5.89484886,2.27628914 5.96643643,2.23825825 6.04026222,2.21812394 C6.114088,2.19798963 6.17337146,2.18792263 6.21811436,2.18792263 C6.37024023,2.18792263 6.48545148,2.21364941 6.56375156,2.26510375 C6.64205164,2.31655809 6.69797943,2.38478999 6.7315366,2.46980151 C6.76509378,2.55481302 6.78410923,2.64765315 6.78858352,2.74832468 C6.79305781,2.84899622 6.79529492,2.95078479 6.79529492,3.05369347 L6.79529492,5 L7.74831398,5 L7.74831398,3.06711627 C7.74831398,2.95973331 7.75614387,2.85347051 7.77180389,2.74832468 C7.7874639,2.64317886 7.81878347,2.54922018 7.86576351,2.46644581 C7.91274356,2.38367144 7.9776198,2.31655809 8.06039417,2.26510375 C8.14316854,2.21364941 8.25166845,2.18792263 8.38589716,2.18792263 C8.52012586,2.18792263 8.62638866,2.21029375 8.70468874,2.25503665 C8.78298882,2.29977955 8.84227228,2.36018156 8.88254089,2.4362445 C8.92280951,2.51230743 8.94741773,2.6017919 8.95636631,2.70470057 C8.96531489,2.80760925 8.96978912,2.91722772 8.96978912,3.03355926 L8.96978912,5 L9.92280818,5 L9.92280818,2.67785496 C9.92280818,2.45414045 9.89148862,2.26286741 9.82884855,2.10403011 C9.76620849,1.9451928 9.67896114,1.81655889 9.56710388,1.7181245 C9.45524662,1.61969012 9.32101993,1.54810255 9.16441977,1.50335964 C9.00781961,1.45861674 8.83779913,1.43624563 8.65435323,1.43624563 C8.41274156,1.43624563 8.20357162,1.49441053 8.02683716,1.61074207 C7.85010269,1.72707362 7.71028322,1.86130031 7.60737454,2.01342618 C7.51341445,1.79866025 7.37583209,1.64877378 7.19462333,1.56376226 C7.01341458,1.47875075 6.81319309,1.43624563 6.59395287,1.43624563 C6.36576406,1.43624563 6.16330547,1.48546208 5.986571,1.58389647 C5.80983654,1.68233085 5.6588315,1.82103177 5.53355138,2.00000338 L5.52012857,2.00000338 L5.52012857,1.53020525 L4.62080073,1.53020525 Z"></path>
                            </g>
                            <g id="Group" transform="translate(5.000000, 29.000000)" stroke="#FFFFFF" stroke-width="3">
                                <circle id="Oval" opacity="0.6" cx="17.5" cy="17.5" r="11.5"></circle>
                                <path d="M17.5,32 C25.5081293,32 32,25.5081293 32,17.5 C32,9.49187073 25.5081293,3 17.5,3 C9.49187073,3 3,9.49187073 3,17.5 C3,25.5081293 9.49187073,32 17.5,32 L17.5,32 Z" id="Oval" opacity="0.3"></path>
                                <circle id="Oval" opacity="0.0973011364" cx="17.5" cy="17.5" r="17.5"></circle>
                            </g>
                        </g>
                    </g>
                </g>
            </g>
            <path d="M527.999971,175 C527.447706,175 527,174.552294 527,174 C527,173.447706 527.447706,173 527.999971,173 C528.552265,173 529,173.447706 529,174 C529,174.552294 528.552265,175 527.999971,175 M527,170 L527,169.558236 C527,169.249925 527.228152,169 527.509575,169 L528.490448,169 C528.771871,169 529,169.249925 529,169.558236 L529,170 L527,170 M529.096838,168 L526.903105,168 C526.273732,168 525.763504,168.511686 525.763504,169.142857 L525.763504,170 C525.763504,170.009571 525.764017,170.019057 525.764245,170.028571 L524.857151,170.028571 C523.831481,170.028571 523,170.872143 523,171.912714 L523,176.115857 C523,177.156429 523.831481,178 524.857151,178 L531.142849,178 C532.168519,178 533,177.156429 533,176.115857 L533,171.912714 C533,170.872143 532.168519,170.028571 531.142849,170.028571 L530.235726,170.028571 C530.235954,170.019057 530.236439,170.009571 530.236439,170 L530.236439,169.142857 C530.236439,168.511686 529.726239,168 529.096838,168" id="Imported-Layers" fill="#FFFFFF" sketch:type="MSShapeGroup"></path>
        </g>
    </g>
</svg>