<?xml version="1.0" encoding="UTF-8" standalone="no"?>
<svg width="680px" height="340px" viewBox="0 0 680 340" version="1.1" xmlns="http://www.w3.org/2000/svg" xmlns:xlink="http://www.w3.org/1999/xlink" xmlns:sketch="http://www.bohemiancoding.com/sketch/ns">
    <!-- Generator: Sketch 3.0.2 (7799) - http://www.bohemiancoding.com/sketch -->
    <title>post_discontinued_manual_ibeacon_entry</title>
    <description>Created with Sketch.</description>
    <defs>
        <path d="M7.27450272,76.9446058 L0.500139725,76.9446058 C0.500139725,76.9446058 13.1750698,3.24667593 85.6897536,3.24667593 C158.204437,3.24667593 170.53429,76.9446058 170.53429,76.9446058 L42.8548192,76.9446058 C42.4410171,74.1154876 39.1680885,55.3672477 25.1002778,55.3672477 C11.0324672,55.3672477 7.69764464,74.1154876 7.27450272,76.9446058 Z" id="path-1"></path>
    </defs>
    <g id="Page-1" stroke="none" stroke-width="1" fill="none" fill-rule="evenodd" sketch:type="MSPage">
        <g id="post_discontinued_manual_ibeacon_entry" sketch:type="MSArtboardGroup">
            <rect id="Rectangle-28" fill="#E6E6E6" sketch:type="MSShapeGroup" x="423.573836" y="184.126721" width="9.99445476" height="144.364347"></rect>
            <g id="Rectangle-12-+-Rectangle-28-+-Oval-4" sketch:type="MSLayerGroup" transform="translate(336.955228, 12.000000)">
                <path d="M89.6765047,51 C57.5162811,51 57.0447716,77 57.0447716,77 L57.0447716,129 L123.044772,129 L123.044772,77 C123.044772,77 121.836728,51 89.6765047,51 Z" id="Rectangle-29" fill="#E6E6E6" sketch:type="MSShapeGroup"></path>
                <path d="M140.76222,60.4175354 C145.600278,68.9754281 148.361523,78.8626751 148.361523,89.3948454 C148.361523,121.961242 121.961242,148.361523 89.3948454,148.361523 C78.8626751,148.361523 68.9754281,145.600278 60.4175354,140.76222 L140.76222,60.4175354 Z M118.376106,38.0297039 C109.817305,33.1902624 99.9286362,30.4281681 89.3948454,30.4281681 C56.8284488,30.4281681 30.4281681,56.8284488 30.4281681,89.3948454 C30.4281681,99.9286362 33.1902624,109.817305 38.0297039,118.376106 L118.376106,38.0297039 Z M89.3948454,179.229985 C139.009423,179.229985 179.229985,139.009423 179.229985,89.3948454 C179.229985,39.780268 139.009423,-0.440293906 89.3948454,-0.440293906 C39.780268,-0.440293906 -0.440293906,39.780268 -0.440293906,89.3948454 C-0.440293906,139.009423 39.780268,179.229985 89.3948454,179.229985 Z" id="Oval-4" fill="#FF8A98" sketch:type="MSShapeGroup"></path>
            </g>
            <g id="Group" sketch:type="MSLayerGroup" transform="translate(428.444797, 146.737862)">
                <path d="M85.5265575,8.29492595 C23.6528641,8.29492595 0.116879928,76.2949259 0.116879928,76.2949259 L0.116879928,181.274597 L170.15103,181.274597 L170.15103,76.2949259 C170.15103,76.2949259 147.400251,8.29492595 85.5265575,8.29492595 Z" id="Rectangle-3" fill="#EFC8DD" sketch:type="MSShapeGroup"></path>
                <path d="M166.07911,71.5553612 L166.07911,76.8557584 L181.980301,76.8557584 L166.07911,71.5553612 Z" id="Rectangle-13" fill="#4A4A4A" sketch:type="MSShapeGroup"></path>
                <path d="M8.53359809,63.6047656 L3.53359809,76.8557584 L76.8557584,76.8557584 L76.8557584,63.6047656 L8.53359809,63.6047656 Z" id="Rectangle-11" fill="#15A8E3" sketch:type="MSShapeGroup"></path>
                <path d="M54.2003119,87.4565526 C47.2860572,87.4565526 46.8201746,93.6403493 46.8201746,93.6403493 L46.8201746,115.725337 C46.8201746,115.725337 48.7301211,118.375536 54.5060034,118.375536 C60.2818857,118.375536 61.8379665,115.725337 61.8379665,115.725337 L61.8379665,93.6403493 C61.8379665,93.6403493 61.1145666,87.4565526 54.2003119,87.4565526 Z" id="Rectangle-24" fill="#FFFFFF" sketch:type="MSShapeGroup"></path>
                <path d="M49.424929,97.1739474 C46.9846038,97.1739474 46.8201746,99.4001142 46.8201746,99.4001142 L46.8201746,104.170472 C46.8201746,104.170472 47.4942734,105.124543 49.5328201,105.124543 C51.5713668,105.124543 52.1205718,104.170472 52.1205718,104.170472 L52.1205718,99.4001142 C52.1205718,99.4001142 51.8652541,97.1739474 49.424929,97.1739474 Z" id="Rectangle-23" opacity="0.788596082" fill="#000000" sketch:type="MSShapeGroup"></path>
                <path d="M98.370288,87.4565526 C91.4560333,87.4565526 90.9901507,93.6403493 90.9901507,93.6403493 L90.9901507,115.725337 C90.9901507,115.725337 92.9000972,118.375536 98.6759795,118.375536 C104.451862,118.375536 106.007943,115.725337 106.007943,115.725337 L106.007943,93.6403493 C106.007943,93.6403493 105.284543,87.4565526 98.370288,87.4565526 Z" id="Rectangle-26" fill="#FFFFFF" sketch:type="MSShapeGroup"></path>
                <path d="M93.594905,97.1739474 C91.1545799,97.1739474 90.9901507,99.4001142 90.9901507,99.4001142 L90.9901507,104.170472 C90.9901507,104.170472 91.6642495,105.124543 93.7027962,105.124543 C95.7413429,105.124543 96.2905479,104.170472 96.2905479,104.170472 L96.2905479,99.4001142 C96.2905479,99.4001142 96.0352302,97.1739474 93.594905,97.1739474 Z" id="Rectangle-25" opacity="0.788596082" fill="#000000" sketch:type="MSShapeGroup"></path>
                <path d="M67.4655486,124.880569 C67.4655486,124.880569 69.3607202,122.220332 75.9786487,122.220332 C82.5965772,122.220332 84.4917488,124.880569 84.4917488,124.880569" id="Line-2" stroke="#000000" stroke-linecap="square" opacity="0.496909981" sketch:type="MSShapeGroup"></path>
                <path d="M85.6897536,5.24594921 C88.129194,5.24594921 90.1067512,4.56656175 90.1067512,2.65019856 C90.1067512,0.733835384 87.4080206,-0.293614721 85.6897536,-0.293614721 C83.9714866,-0.293614721 81.272756,0.604899679 81.272756,2.65019856 C81.272756,4.69549745 83.2503132,5.24594921 85.6897536,5.24594921 Z" id="Oval-2" fill="#4990E2" sketch:type="MSShapeGroup"></path>
                <mask id="mask-2" sketch:name="Rectangle 10" fill="white">
                    <use xlink:href="#path-1"></use>
                </mask>
                <use id="Rectangle-10" fill="#50B9E3" sketch:type="MSShapeGroup" xlink:href="#path-1"></use>
                <path d="M81.6402502,46.6541121 L84.279848,58.2619818 L87.0466553,47.1311478 C87.2798739,46.1982732 87.5395908,45.5569316 87.8258136,45.2071036 C88.1120365,44.8572757 88.520163,44.6823643 89.0502054,44.6823643 C89.5166427,44.6823643 90.2268888,44.7353678 91.180965,44.8413762 C92.1350413,44.9473847 92.8558881,45.0003881 93.343527,45.0003881 C93.8523677,45.0003881 95.1138496,44.9155826 97.1280106,44.7459691 C97.7004564,44.7035657 98.1244839,44.6823643 98.4001059,44.6823643 C99.0997618,44.6823643 99.6615983,44.8890777 100.085632,45.3025108 C100.509666,45.7159438 100.72168,46.2830806 100.72168,47.0039383 C100.72168,47.5975857 100.557369,48.0958181 100.228743,48.4986503 C99.9001167,48.9014824 99.4919902,49.1028955 99.0043512,49.1028955 C98.8135359,49.1028955 98.5485187,49.0657931 98.2092916,48.9915872 C97.8700645,48.9173813 97.6262487,48.8802788 97.4778368,48.8802788 C96.9053911,48.8802788 96.6191725,49.590525 96.6191725,51.0110385 L96.6191725,59.8202985 C96.6191725,61.2620137 96.8947904,61.9828606 97.4460344,61.9828606 C97.615648,61.9828606 97.8700645,61.9457581 98.2092916,61.8715522 C98.5485187,61.7973463 98.8029352,61.7602439 98.9725488,61.7602439 C99.4601878,61.7602439 99.8736146,61.9616569 100.212842,62.3644891 C100.552069,62.7673213 100.72168,63.2655537 100.72168,63.8592011 C100.72168,64.5800587 100.509666,65.1471956 100.085632,65.5606286 C99.6615983,65.9740617 99.0997618,66.1807751 98.4001059,66.1807751 C97.9972737,66.1807751 97.3188297,66.1171709 96.3647534,65.9899608 C95.7287026,65.905154 95.0926613,65.8627512 94.4566104,65.8627512 C94.0537783,65.8627512 93.4601397,65.9157547 92.675677,66.0217632 C91.8912143,66.1277716 91.2975758,66.1807751 90.8947436,66.1807751 C90.2586927,66.1807751 89.7445594,65.9687613 89.352328,65.5447274 C88.9600967,65.1206935 88.7639839,64.5588571 88.7639839,63.8592011 C88.7639839,62.5446961 89.1986121,61.8874534 90.0678816,61.8874534 C90.1950918,61.8874534 90.290498,61.8980541 90.3541031,61.9192558 L90.5767197,61.9192558 C90.6615265,61.9404575 90.71453,61.9510582 90.7357317,61.9510582 C91.0749588,61.9510582 91.2763719,61.717843 91.3399769,61.2514057 C91.3611786,61.0393888 91.3717793,60.6789654 91.3717793,60.1701247 L91.3717793,48.1806264 L86.9512481,63.8273988 C86.5696176,65.1843072 85.944177,65.8627512 85.0749075,65.8627512 L83.039555,65.8627512 C82.1914872,65.8627512 81.6084494,65.258512 81.290424,64.0500154 L77.0607071,48.1806264 L77.0607071,60.1701247 C77.0607071,61.1666044 77.1561133,61.7284409 77.3469285,61.855651 C77.4105336,61.9192561 77.5271412,61.9510582 77.6967547,61.9510582 C77.7391581,61.9510582 77.8027622,61.9404575 77.887569,61.9192558 L78.0783833,61.9192558 C78.1419884,61.8980541 78.2373946,61.8874534 78.3646048,61.8874534 C79.2126725,61.8874534 79.6367001,62.5340954 79.6367001,63.8273988 C79.6367001,64.5482564 79.4458877,65.1206935 79.0642572,65.5447274 C78.6826267,65.9687613 78.1737936,66.1807751 77.5377428,66.1807751 C77.2409191,66.1807751 76.8592943,66.148973 76.392857,66.0853679 C75.7992096,66.0005612 75.4281855,65.9475577 75.2797736,65.926356 C74.834538,65.8839526 74.325705,65.8627512 73.7532593,65.8627512 C73.0324016,65.8627512 72.4281624,65.8945533 71.9405234,65.9581584 C70.6260184,66.127772 69.9687757,66.2125775 69.9687757,66.2125775 C69.3115232,66.2125775 68.7708881,65.989963 68.3468542,65.5447274 C67.9228203,65.0994918 67.7108065,64.5376554 67.7108065,63.8592011 C67.7108065,63.244352 67.8751172,62.7408193 68.2037435,62.348588 C68.5323697,61.9563566 68.9510969,61.7602439 69.4599376,61.7602439 C69.6295511,61.7602439 69.8786673,61.7973463 70.2072936,61.8715522 C70.5359198,61.9457581 70.785036,61.9828606 70.9546496,61.9828606 C71.3786835,61.9828606 71.6437007,61.7072427 71.7497091,61.1559986 C71.7921125,60.9439817 71.8133139,60.4987527 71.8133139,59.8202985 L71.8133139,51.0110385 C71.8133139,50.3325843 71.7921125,49.897956 71.7497091,49.7071408 C71.6437007,49.1558967 71.3786835,48.8802788 70.9546496,48.8802788 C70.785036,48.8802788 70.5359198,48.9173813 70.2072936,48.9915872 C69.8786673,49.0657931 69.6189505,49.1028955 69.4281352,49.1028955 C68.9404962,49.1028955 68.5323697,48.9014824 68.2037435,48.4986503 C67.8751172,48.0958181 67.7108065,47.5975857 67.7108065,47.0039383 C67.7108065,45.4562146 68.4952575,44.6823643 70.0641829,44.6823643 C70.5730235,44.6823643 71.4210786,44.7353678 72.6083735,44.8413762 C73.7956684,44.9473847 74.6861262,45.0003881 75.2797736,45.0003881 C76.2338499,45.0003881 77.2303146,44.936784 78.2691976,44.8095739 C78.9688535,44.7247671 79.5200893,44.6823643 79.9229215,44.6823643 C80.4529639,44.6823643 80.823988,44.8095726 81.0360049,45.0639929 C81.2480219,45.3184132 81.4494349,45.8484477 81.6402502,46.6541121 Z M108.958497,50.0251646 C109.552144,50.0251646 109.848964,50.4385915 109.848964,51.2654576 L109.848964,60.8379748 C109.848964,61.9192612 110.050377,62.4598963 110.453209,62.4598963 C110.538016,62.4598963 110.691726,62.4333946 110.914344,62.3803903 C111.136961,62.3273861 111.322473,62.3008844 111.470885,62.3008844 C112.361356,62.3008844 112.806585,62.8521202 112.806585,63.9546083 C112.806585,65.4175252 112.181145,66.1489727 110.930245,66.1489727 C110.718228,66.1489727 110.124589,66.0959693 109.149311,65.9899608 C108.555664,65.9263557 107.87722,65.8945536 107.113959,65.8945536 C106.732328,65.8945536 106.170492,65.9369564 105.428433,66.0217632 C104.686373,66.1065699 104.135137,66.1489727 103.774709,66.1489727 C103.202263,66.1489727 102.735833,65.95286 102.375404,65.5606286 C102.014975,65.1683973 101.834763,64.6648646 101.834763,64.0500154 C101.834763,62.8415188 102.343596,62.2372796 103.361278,62.2372796 C103.361278,62.2372796 103.636896,62.3008837 104.18814,62.4280939 C104.272946,62.4492956 104.347151,62.4598963 104.410756,62.4598963 C104.792387,62.4598963 104.983199,61.8662577 104.983199,60.6789629 L104.983199,55.5269768 C104.983199,54.3184803 104.802987,53.714241 104.442559,53.714241 C104.378954,53.714241 104.188141,53.7672445 103.870116,53.8732529 C103.658099,53.9156563 103.488488,53.9368577 103.361278,53.9368577 C102.343596,53.9368577 101.834763,53.3432192 101.834763,52.1559243 C101.834763,51.5198734 102.014975,51.0057401 102.375404,50.6135087 C102.735833,50.2212774 103.212864,50.0251646 103.806511,50.0251646 C104.03973,50.0251646 104.378952,50.0569667 104.824187,50.1205718 C105.566247,50.2265802 106.159885,50.2795837 106.605121,50.2795837 C106.965549,50.2795837 107.43198,50.2371809 108.004426,50.1523742 C108.576871,50.0675674 108.894892,50.0251646 108.958497,50.0251646 Z M107.145761,48.8166741 C106.361298,48.8166741 105.682854,48.5304555 105.110409,47.9580097 C104.537963,47.385564 104.251744,46.7071199 104.251744,45.9226572 C104.251744,45.1169929 104.532663,44.4332485 105.094507,43.8714036 C105.656352,43.3095587 106.340097,43.0286404 107.145761,43.0286404 C107.951426,43.0286404 108.63517,43.3095587 109.197015,43.8714036 C109.75886,44.4332485 110.039778,45.1169929 110.039778,45.9226572 C110.039778,46.7283216 109.75886,47.412066 109.197015,47.9739109 C108.63517,48.5357558 107.951426,48.8166741 107.145761,48.8166741 Z M120.34375,50.9156313 L120.34375,52.4421457 C121.976281,50.5339932 123.8208,49.5799313 125.877365,49.5799313 C128.082341,49.5799313 129.640642,50.406785 130.552315,52.0605171 C131.039954,52.9085849 131.28377,54.2442716 131.28377,56.0676174 L131.28377,60.8379748 C131.28377,61.9192612 131.495783,62.4598963 131.919817,62.4598963 C132.025826,62.4598963 132.184836,62.4280942 132.396853,62.3644891 C132.502862,62.3220858 132.661872,62.3008844 132.873889,62.3008844 C133.806763,62.3008844 134.273194,62.8521202 134.273194,63.9546083 C134.273194,65.4175252 133.637152,66.1489727 132.365051,66.1489727 C132.025824,66.1489727 131.516991,66.1065699 130.838536,66.0217632 C130.160082,65.9369564 129.651249,65.8945536 129.312022,65.8945536 C128.78198,65.8945536 128.220143,65.9369564 127.626496,66.0217632 C127.032848,66.1065699 126.545217,66.1489727 126.163586,66.1489727 C124.912686,66.1489727 124.287245,65.5023307 124.287245,64.2090273 C124.287245,63.0853375 124.721874,62.491699 125.591143,62.4280939 C126.163589,62.3856905 126.449808,62.1206733 126.449808,61.6330343 L126.449808,57.1807008 C126.449808,55.9510025 126.290797,55.0870464 125.972772,54.5888066 C125.654746,54.0905667 125.114111,53.8414506 124.35085,53.8414506 C123.481581,53.8414506 122.766034,54.1382698 122.204189,54.7319173 C121.642345,55.3255647 121.361426,56.0782136 121.361426,56.9898865 L121.361426,60.2973343 C121.361426,61.2514105 121.403829,61.829148 121.488636,62.0305641 C121.573443,62.2319802 121.817258,62.3644888 122.220091,62.4280939 C122.983352,62.5341024 123.364976,63.1065395 123.364976,64.1454226 C123.364976,65.4811293 122.80314,66.1489727 121.67945,66.1489727 C121.361425,66.1489727 120.969199,66.1171706 120.502762,66.0535655 C119.718299,65.9475571 119.135261,65.8945536 118.753631,65.8945536 C118.372,65.8945536 117.804864,65.9369564 117.052203,66.0217632 C116.299543,66.1065699 115.732406,66.1489727 115.350776,66.1489727 C114.015069,66.1489727 113.347226,65.4387266 113.347226,64.018213 C113.347226,62.8309182 113.856059,62.2372796 114.87374,62.2372796 C115.043354,62.2372796 115.234166,62.274382 115.446183,62.348588 C115.6582,62.4227939 115.81721,62.4598963 115.923219,62.4598963 C116.283648,62.4598963 116.463859,61.8662577 116.463859,60.6789629 L116.463859,55.5269768 C116.463859,54.3184803 116.283648,53.714241 115.923219,53.714241 C115.838412,53.714241 115.674101,53.7513434 115.430282,53.8255494 C115.186462,53.8997553 115.00095,53.9368577 114.87374,53.9368577 C113.856059,53.9368577 113.347226,53.3538199 113.347226,52.1877267 C113.347226,51.5516758 113.522137,51.0322421 113.871965,50.6294099 C114.221793,50.2265777 114.682923,50.0251646 115.255369,50.0251646 C115.424982,50.0251646 115.785406,50.0781681 116.33665,50.1841765 C116.654675,50.2477816 116.930293,50.2795837 117.163512,50.2795837 C117.417932,50.2795837 117.85256,50.2371809 118.467409,50.1523742 C119.082259,50.0675674 119.421481,50.0251646 119.485086,50.0251646 C120.057531,50.0251646 120.34375,50.3219839 120.34375,50.9156313 Z M137.310321,64.3362369 C135.879207,62.8521183 135.16366,60.7637827 135.16366,58.0711675 C135.16366,55.399754 135.873907,53.3167187 137.29442,51.8219993 C138.714934,50.3272798 140.707863,49.5799313 143.273268,49.5799313 C145.79627,49.5799313 147.783899,50.3219794 149.236215,51.8060981 C150.688531,53.2902167 151.414678,55.3255488 151.414678,57.9121556 C151.414678,60.6259725 150.709732,62.7461101 149.29982,64.2726321 C147.889907,65.7991541 145.923479,66.5624037 143.400478,66.5624037 C140.771467,66.5624037 138.741436,65.8203555 137.310321,64.3362369 Z M144.151382,54.1505515 C143.188648,54.3286708 142.19638,54.9111075 141.174548,55.8978791 C140.137465,56.8993786 139.51694,57.8743976 139.312956,58.8229653 C139.108972,59.771533 139.345719,60.5965826 140.023204,61.2981389 C141.392902,62.7165026 143.175812,62.3652784 145.371988,60.2444558 C147.568164,58.1236333 147.966669,56.3388157 146.567516,54.8899495 C145.919487,54.2188957 145.114117,53.9724322 144.151382,54.1505515 Z M159.683298,51.0110385 L159.683298,53.714241 C159.980121,52.6329546 160.329944,51.837903 160.732776,51.3290623 C161.665651,50.1629691 162.969535,49.5799313 164.644469,49.5799313 C165.810562,49.5799313 166.791126,49.9562557 167.58619,50.7089159 C168.381253,51.461576 168.778779,52.3891362 168.778779,53.4916243 C168.778779,54.3608938 168.524362,55.0764403 168.015522,55.6382852 C167.506681,56.2001301 166.860039,56.4810483 166.075576,56.4810483 C165.481929,56.4810483 164.978396,56.2902359 164.564963,55.9086054 C164.15153,55.5269749 163.944817,55.0605447 163.944817,54.5093006 C163.944817,54.2124769 164.082626,53.79905 164.358248,53.2690077 L164.167433,53.2690077 C162.74692,53.2690077 161.792858,54.0216565 161.305219,55.5269768 C160.923589,56.7354734 160.732776,58.1241636 160.732776,59.693089 L160.732776,60.9015795 C160.732776,61.6648405 160.79638,62.1524722 160.92359,62.3644891 C161.008397,62.4916993 161.156807,62.5553034 161.368824,62.5553034 C161.559639,62.5553034 161.824656,62.5129007 162.163883,62.4280939 C162.50311,62.3432871 162.757527,62.3008844 162.927141,62.3008844 C163.393578,62.3008844 163.791104,62.465195 164.11973,62.7938213 C164.448356,63.1224476 164.612667,63.5199734 164.612667,63.9864107 C164.612667,64.6012598 164.405953,65.1153932 163.99252,65.5288262 C163.579087,65.9422593 163.075555,66.1489727 162.481907,66.1489727 C162.163882,66.1489727 161.570243,66.0959693 160.700974,65.9899608 C160.170931,65.9263557 159.503088,65.8945536 158.697424,65.8945536 C157.891759,65.8945536 157.181513,65.9263557 156.566664,65.9899608 C155.548983,66.0959693 154.923542,66.1489727 154.690323,66.1489727 C153.375818,66.1489727 152.718576,65.4387266 152.718576,64.018213 C152.718576,62.8309182 153.227409,62.2372796 154.24509,62.2372796 C154.414704,62.2372796 154.605516,62.274382 154.817533,62.348588 C155.02955,62.4227939 155.18856,62.4598963 155.294569,62.4598963 C155.654998,62.4598963 155.835209,61.8662577 155.835209,60.6789629 L155.835209,55.5269768 C155.835209,54.3184803 155.654998,53.714241 155.294569,53.714241 C155.209762,53.714241 155.045451,53.7513434 154.801632,53.8255494 C154.557812,53.8997553 154.3723,53.9368577 154.24509,53.9368577 C153.227409,53.9368577 152.718576,53.3538199 152.718576,52.1877267 C152.718576,51.5516758 152.888187,51.0322421 153.227414,50.6294099 C153.566641,50.2265777 154.001269,50.0251646 154.531312,50.0251646 C154.743328,50.0251646 155.040148,50.0675674 155.421778,50.1523742 C155.803409,50.2371809 156.163832,50.2795837 156.503059,50.2795837 C156.75748,50.2795837 157.128504,50.2371809 157.616143,50.1523742 C158.103782,50.0675674 158.464205,50.0251646 158.697424,50.0251646 C159.354676,50.0251646 159.683298,50.353786 159.683298,51.0110385 L159.683298,51.0110385 Z" id="Minor" opacity="0.9" fill="#FFFFFF" sketch:type="MSShapeGroup" mask="url(#mask-2)"></path>
            </g>
            <g id="Group" sketch:type="MSLayerGroup" transform="translate(243.814297, 84.899895)">
                <path d="M86.5528908,5.36327641 C26.702634,5.36327641 -0.383259797,75.3632764 -0.383259797,75.3632764 L-0.383259797,243.907115 L169.65089,243.907115 L169.65089,75.3632764 C169.65089,75.3632764 146.403148,5.36327641 86.5528908,5.36327641 Z" id="Rectangle-2" fill="#FFE8EF" sketch:type="MSShapeGroup"></path>
                <rect id="Rectangle-6" fill="#E3D100" sketch:type="MSShapeGroup" x="46.8201746" y="62.721366" width="73.3221603" height="13.2509928"></rect>
                <path d="M48.5869737,62.721366 L48.5869737,75.9723589 L92.7569498,75.9723589 C92.7569498,75.9723589 96.2905479,73.8238755 96.2905479,69.3181979 C96.2905479,64.8125203 92.7569498,62.721366 92.7569498,62.721366 L48.5869737,62.721366 Z" id="Rectangle-7" fill="#F1E12A" sketch:type="MSShapeGroup"></path>
                <path d="M51.464009,76.0612063 L-0.383259797,76.0612063 C-0.383259797,76.0612063 12.2916703,2.36327641 84.8063541,2.36327641 C157.321038,2.36327641 169.65089,76.0612063 169.65089,76.0612063 L117.547978,76.0612063 C116.882958,72.7676619 110.957231,47.7148907 84.5723569,47.7148907 C58.1874825,47.7148907 52.1444503,72.7676619 51.464009,76.0612063 Z" id="Rectangle-8" fill="#F8E81C" sketch:type="MSShapeGroup"></path>
                <path d="M44.4829171,122.792534 C37.5686625,122.792534 37.1027799,128.97633 37.1027799,128.97633 L37.1027799,142.227323 C37.1027799,142.227323 39.0127264,144.877522 44.7886087,144.877522 C50.564491,144.877522 52.1205718,142.227323 52.1205718,142.227323 L52.1205718,128.97633 C52.1205718,128.97633 51.3971718,122.792534 44.4829171,122.792534 Z" id="Rectangle-14" fill="#FFFFFF" sketch:type="MSShapeGroup"></path>
                <path d="M49.424929,134.276727 C46.9846038,134.276727 46.8201746,136.502894 46.8201746,136.502894 L46.8201746,141.273251 C46.8201746,141.273251 47.4942734,142.227323 49.5328201,142.227323 C51.5713668,142.227323 52.1205718,141.273251 52.1205718,141.273251 L52.1205718,136.502894 C52.1205718,136.502894 51.8652541,134.276727 49.424929,134.276727 Z" id="Rectangle-16" opacity="0.788596082" fill="#000000" sketch:type="MSShapeGroup"></path>
                <path d="M123.988874,122.792534 C117.074619,122.792534 116.608737,128.97633 116.608737,128.97633 L116.608737,142.227323 C116.608737,142.227323 118.518683,144.877522 124.294566,144.877522 C130.070448,144.877522 131.626529,142.227323 131.626529,142.227323 L131.626529,128.97633 C131.626529,128.97633 130.903129,122.792534 123.988874,122.792534 Z" id="Rectangle-18" fill="#FFFFFF" sketch:type="MSShapeGroup"></path>
                <path d="M128.930886,134.276727 C126.490561,134.276727 126.326132,136.502894 126.326132,136.502894 L126.326132,141.273251 C126.326132,141.273251 127.00023,142.227323 129.038777,142.227323 C131.077324,142.227323 131.626529,141.273251 131.626529,141.273251 L131.626529,136.502894 C131.626529,136.502894 131.371211,134.276727 128.930886,134.276727 Z" id="Rectangle-17" opacity="0.788596082" fill="#000000" sketch:type="MSShapeGroup"></path>
                <path d="M78.0663429,161.983349 C78.0663429,161.983349 79.9615145,157.556312 86.579443,157.556312 C93.1973715,157.556312 95.092543,161.983349 95.092543,161.983349" id="Line" stroke="#000000" stroke-linecap="square" opacity="0.496909981" sketch:type="MSShapeGroup"></path>
                <path d="M84.8063541,5.24594921 C87.2457945,5.24594921 89.2233517,4.56656175 89.2233517,2.65019856 C89.2233517,0.733835384 86.5246211,-0.293614721 84.8063541,-0.293614721 C83.0880871,-0.293614721 80.3893565,0.604899679 80.3893565,2.65019856 C80.3893565,4.69549745 82.3669137,5.24594921 84.8063541,5.24594921 Z" id="Oval-1" fill="#C3B400" sketch:type="MSShapeGroup"></path>
                <path d="M62.0782512,36.7918233 L62.0782512,38.1911281 L62.1100536,40.9897378 L62.1100536,41.9756117 C62.1100536,44.3502015 62.0782515,45.7706937 62.0146464,46.237131 C61.8450329,47.8484597 61.3255991,49.1099416 60.4563297,50.0216145 C58.7813958,51.8025569 56.2478313,52.6930147 52.8555602,52.6930147 C49.3572806,52.6930147 46.8767195,51.7707548 45.4138026,49.9262074 C44.5233314,48.8025176 44.0781025,47.1382095 44.0781025,44.9332333 C44.0781025,44.742418 44.1099046,43.5657416 44.1735097,41.4031688 C44.2159131,39.9614536 44.2371144,38.8059785 44.2371144,37.9367091 L44.2371144,36.6964161 C44.2371144,35.5515246 43.9296945,34.9790875 43.3148453,34.9790875 C43.1664335,34.9790875 42.9332183,35.0161899 42.6151929,35.0903958 C42.2971675,35.1646017 42.042751,35.2017041 41.8519357,35.2017041 C41.3642968,35.2017041 40.9561703,35.0055914 40.627544,34.6133601 C40.2989177,34.2211287 40.1346071,33.7281967 40.1346071,33.1345493 C40.1346071,32.4136916 40.3625219,31.8412545 40.8183583,31.4172206 C41.2741947,30.9931867 41.8731336,30.7811729 42.6151929,30.7811729 C43.0816302,30.7811729 43.7812756,30.8341764 44.7141502,30.9401848 C45.6470247,31.0461933 46.3466702,31.0991968 46.8131074,31.0991968 C47.2159396,31.0991968 47.8148785,31.0461933 48.6099421,30.9401848 C49.4050056,30.8341764 50.0039445,30.7811729 50.4067767,30.7811729 C51.0428275,30.7811729 51.5516606,30.9931867 51.9332911,31.4172206 C52.3149216,31.8412545 52.505734,32.4136916 52.505734,33.1345493 C52.505734,34.4066509 52.0711057,35.0426922 51.2018363,35.0426922 L50.8838124,35.0426922 C50.777804,35.0214905 50.639995,35.0108898 50.4703815,35.0108898 C50.1099527,35.0108898 49.8979389,35.2335043 49.8343338,35.6787399 L49.8343338,36.7918233 L49.8343338,44.0745689 C49.8343338,45.5374859 50.08345,46.571053 50.5816898,47.1753013 C51.0799296,47.7795495 51.9226843,48.0816692 53.1099792,48.0816692 C54.2972741,48.0816692 55.1612302,47.7689489 55.7018734,47.1434989 C56.2425166,46.5180489 56.5128342,45.4950825 56.5128342,44.0745689 L56.5128342,36.7918233 C56.5128342,36.0073606 56.4704314,35.5144286 56.3856247,35.3130125 C56.3008179,35.1115964 56.1100055,35.0108898 55.8131818,35.0108898 C55.6647699,35.0108898 55.5375617,35.0214905 55.4315532,35.0426922 L55.1135294,35.0426922 C54.2442599,35.0426922 53.8096317,34.3960502 53.8096317,33.1027469 C53.8096317,32.403091 54.0057444,31.8412545 54.3979757,31.4172206 C54.7902071,30.9931867 55.3043405,30.7811729 55.9403913,30.7811729 C56.3432235,30.7811729 56.9527631,30.8341764 57.7690283,30.9401848 C58.5852936,31.0461933 59.1948331,31.0991968 59.5976653,31.0991968 C60.0641026,31.0991968 60.763748,31.0461933 61.6966226,30.9401848 C62.6294971,30.8341764 63.3291426,30.7811729 63.7955799,30.7811729 C64.5164375,30.7811729 65.094175,30.9931867 65.5288097,31.4172206 C65.9634445,31.8412545 66.1807586,32.4136916 66.1807586,33.1345493 C66.1807586,33.7493984 66.0164479,34.2476307 65.6878216,34.6292612 C65.3591954,35.0108917 64.9298675,35.2017041 64.3998251,35.2017041 C64.2302116,35.2017041 63.9916961,35.1646017 63.6842715,35.0903958 C63.3768469,35.0161899 63.1489321,34.9790875 63.0005203,34.9790875 C62.3856711,34.9790875 62.0782512,35.5833267 62.0782512,36.7918233 L62.0782512,36.7918233 Z" id="U" opacity="0.9" fill="#FFFFFF" sketch:type="MSShapeGroup" transform="translate(53.253090, 41.737094) rotate(-45.000000) translate(-53.253090, -41.737094) "></path>
                <path d="M83.9061562,26.3204332 L83.9061562,27.7197381 L83.9379585,30.5183478 L83.9379585,31.5042216 C83.9379585,33.8788114 83.9061565,35.2993036 83.8425514,35.7657409 C83.6729378,37.3770697 83.1535041,38.6385516 82.2842346,39.5502245 C80.6093008,41.3311668 78.0757363,42.2216246 74.6834652,42.2216246 C71.1851856,42.2216246 68.7046245,41.2993648 67.2417076,39.4548173 C66.3512364,38.3311275 65.9060075,36.6668195 65.9060075,34.4618432 C65.9060075,34.271028 65.9378096,33.0943516 66.0014147,30.9317787 C66.043818,29.4900635 66.0650194,28.3345885 66.0650194,27.465319 L66.0650194,26.2250261 C66.0650194,25.0801346 65.7575995,24.5076974 65.1427503,24.5076974 C64.9943385,24.5076974 64.7611233,24.5447998 64.4430979,24.6190058 C64.1250725,24.6932117 63.870656,24.7303141 63.6798407,24.7303141 C63.1922017,24.7303141 62.7840752,24.5342014 62.455449,24.14197 C62.1268227,23.7497387 61.962512,23.2568067 61.962512,22.6631592 C61.962512,21.9423016 62.1904268,21.3698644 62.6462633,20.9458306 C63.1020997,20.5217967 63.7010386,20.3097829 64.4430979,20.3097829 C64.9095352,20.3097829 65.6091806,20.3627863 66.5420552,20.4687948 C67.4749297,20.5748033 68.1745751,20.6278067 68.6410124,20.6278067 C69.0438446,20.6278067 69.6427835,20.5748033 70.4378471,20.4687948 C71.2329106,20.3627863 71.8318495,20.3097829 72.2346817,20.3097829 C72.8707325,20.3097829 73.3795655,20.5217967 73.7611961,20.9458306 C74.1428266,21.3698644 74.3336389,21.9423016 74.3336389,22.6631592 C74.3336389,23.9352609 73.8990107,24.5713022 73.0297412,24.5713022 L72.7117174,24.5713022 C72.6057089,24.5501005 72.4679,24.5394998 72.2982864,24.5394998 C71.9378576,24.5394998 71.7258439,24.7621143 71.6622388,25.2073498 L71.6622388,26.3204332 L71.6622388,33.6031789 C71.6622388,35.0660958 71.911355,36.0996629 72.4095948,36.7039112 C72.9078346,37.3081595 73.7505893,37.6102791 74.9378842,37.6102791 C76.1251791,37.6102791 76.9891352,37.2975588 77.5297784,36.6721088 C78.0704216,36.0466588 78.3407392,35.0236924 78.3407392,33.6031789 L78.3407392,26.3204332 C78.3407392,25.5359705 78.2983364,25.0430385 78.2135296,24.8416224 C78.1287229,24.6402063 77.9379105,24.5394998 77.6410868,24.5394998 C77.4926749,24.5394998 77.3654666,24.5501005 77.2594582,24.5713022 L76.9414343,24.5713022 C76.0721649,24.5713022 75.6375366,23.9246602 75.6375366,22.6313568 C75.6375366,21.9317009 75.8336494,21.3698644 76.2258807,20.9458306 C76.6181121,20.5217967 77.1322454,20.3097829 77.7682963,20.3097829 C78.1711285,20.3097829 78.7806681,20.3627863 79.5969333,20.4687948 C80.4131985,20.5748033 81.0227381,20.6278067 81.4255703,20.6278067 C81.8920076,20.6278067 82.591653,20.5748033 83.5245276,20.4687948 C84.4574021,20.3627863 85.1570475,20.3097829 85.6234848,20.3097829 C86.3443424,20.3097829 86.92208,20.5217967 87.3567147,20.9458306 C87.7913494,21.3698644 88.0086635,21.9423016 88.0086635,22.6631592 C88.0086635,23.2780084 87.8443529,23.7762407 87.5157266,24.1578712 C87.1871003,24.5395017 86.7577725,24.7303141 86.2277301,24.7303141 C86.0581165,24.7303141 85.8196011,24.6932117 85.5121765,24.6190058 C85.2047519,24.5447998 84.9768371,24.5076974 84.8284253,24.5076974 C84.2135761,24.5076974 83.9061562,25.1119367 83.9061562,26.3204332 L83.9061562,26.3204332 Z" id="U" opacity="0.9" fill="#FFFFFF" sketch:type="MSShapeGroup" transform="translate(75.080995, 31.265704) rotate(-7.000000) translate(-75.080995, -31.265704) "></path>
                <path d="M93.0396376,39.3770782 C93.4636715,39.3770782 93.7286887,39.1014603 93.8346972,38.5502162 C93.8771006,38.3381993 93.8983019,37.8929704 93.8983019,37.2145161 L93.8983019,28.4052561 C93.8983019,27.7268019 93.8771006,27.2921737 93.8346972,27.1013584 C93.7286887,26.5501144 93.4636715,26.2744965 93.0396376,26.2744965 C92.8700241,26.2744965 92.6209079,26.3115989 92.2922816,26.3858048 C91.9636554,26.4600107 91.7039385,26.4971131 91.5131232,26.4971131 C91.0254843,26.4971131 90.6173578,26.2957001 90.2887315,25.8928679 C89.9601052,25.4900357 89.7957946,24.9918033 89.7957946,24.3981559 C89.7957946,23.6772983 90.002508,23.1101614 90.415941,22.6967284 C90.8293741,22.2832954 91.3859102,22.0765819 92.0855661,22.0765819 C92.4035915,22.0765819 93.1456397,22.1401861 94.3117329,22.2673962 C95.0961956,22.352203 95.8594452,22.3946058 96.6015045,22.3946058 C97.1951519,22.3946058 98.0485073,22.3416023 99.1615963,22.2355939 C100.274685,22.1295854 101.011433,22.0765819 101.371862,22.0765819 C102.919586,22.0765819 103.693436,22.8504322 103.693436,24.3981559 C103.693436,24.9918033 103.529125,25.4900357 103.200499,25.8928679 C102.871873,26.2957001 102.463746,26.4971131 101.976107,26.4971131 C101.806494,26.4971131 101.552077,26.4600107 101.21285,26.3858048 C100.873623,26.3115989 100.619206,26.2744965 100.449593,26.2744965 C99.877147,26.2744965 99.5909285,26.9847426 99.5909285,28.4052561 L99.5909285,37.2145161 C99.5909285,38.6562314 99.877147,39.3770782 100.449593,39.3770782 C100.619206,39.3770782 100.873623,39.3399758 101.21285,39.2657698 C101.552077,39.1915639 101.806494,39.1544615 101.976107,39.1544615 C102.463746,39.1544615 102.871873,39.3558746 103.200499,39.7587068 C103.529125,40.161539 103.693436,40.6597713 103.693436,41.2534188 C103.693436,41.931873 103.486722,42.4937095 103.073289,42.938945 C102.659856,43.3841806 102.135122,43.6067951 101.499071,43.6067951 C101.371861,43.6067951 101.276455,43.5961944 101.21285,43.5749927 L99.2092999,43.3205736 C98.7004592,43.2569686 98.1386227,43.2251665 97.5237736,43.2251665 C96.5696973,43.2251665 95.5732326,43.2781699 94.5343496,43.3841784 C93.2834496,43.5113886 92.4671966,43.5749927 92.0855661,43.5749927 C91.4071119,43.5749927 90.8558761,43.3629789 90.4318422,42.938945 C90.0078083,42.5149112 89.7957946,41.9530747 89.7957946,41.2534188 C89.7957946,40.6385696 89.9601052,40.1350369 90.2887315,39.7428056 C90.6173578,39.3505742 91.036085,39.1544615 91.5449256,39.1544615 C91.7145392,39.1544615 91.9636554,39.1915639 92.2922816,39.2657698 C92.6209079,39.3399758 92.8700241,39.3770782 93.0396376,39.3770782 L93.0396376,39.3770782 Z" id="I" opacity="0.9" fill="#FFFFFF" sketch:type="MSShapeGroup" transform="translate(97.030837, 32.841689) rotate(14.000000) translate(-97.030837, -32.841689) "></path>
                <path d="M111.591028,51.6152672 C112.163473,51.6152672 112.449692,50.8944204 112.449692,49.4527052 L112.449692,40.6434452 C112.449692,39.2229317 112.163473,38.5126855 111.591028,38.5126855 C111.421414,38.5126855 111.172298,38.549788 110.843672,38.6239939 C110.515045,38.6981998 110.255328,38.7353022 110.064513,38.7353022 C109.576874,38.7353022 109.168748,38.5338891 108.840121,38.131057 C108.511495,37.7282248 108.347185,37.2299924 108.347185,36.636345 C108.347185,35.936689 108.559198,35.3748526 108.983232,34.9508187 C109.407266,34.5267848 109.958502,34.314771 110.636956,34.314771 C110.997385,34.314771 111.739433,34.3783751 112.863123,34.5055853 C113.605182,34.5903921 114.315428,34.6327948 114.993883,34.6327948 C115.248303,34.6327948 115.841941,34.6009928 116.774816,34.5373877 L119.09639,34.3783758 C119.711239,34.3359724 120.315478,34.314771 120.909126,34.314771 C124.746632,34.314771 127.492211,35.9366763 129.145943,39.1805356 C130.078817,41.0038813 130.545248,42.9650086 130.545248,45.0639764 C130.545248,47.1629442 130.100019,49.0922694 129.209548,50.8520101 C128.319076,52.6117507 127.131799,53.9050347 125.647681,54.7319008 C124.333176,55.4527584 122.764274,55.8131818 120.940928,55.8131818 C120.22007,55.8131818 119.605231,55.7919804 119.09639,55.749577 L116.774816,55.5587627 C116.265975,55.5163593 115.672337,55.4951579 114.993883,55.4951579 C114.145815,55.4951579 113.435569,55.52696 112.863123,55.5905651 L111.591028,55.7177746 C111.103389,55.7813797 110.785368,55.8131818 110.636956,55.8131818 C109.958502,55.8131818 109.407266,55.601168 108.983232,55.1771341 C108.559198,54.7531002 108.347185,54.1912638 108.347185,53.4916078 C108.347185,52.8979604 108.511495,52.399728 108.840121,51.9968958 C109.168748,51.5940636 109.576874,51.3926506 110.064513,51.3926506 C110.255328,51.3926506 110.520346,51.429753 110.859573,51.5039589 C111.1988,51.5781648 111.442616,51.6152672 111.591028,51.6152672 Z M119.859647,38.385476 C119.138789,38.385476 118.656458,38.4967832 118.412639,38.719401 C118.168819,38.9420188 118.046911,39.3819474 118.046911,40.0391999 L118.046911,50.0569505 C118.046911,50.714203 118.168819,51.1594319 118.412639,51.3926506 C118.656458,51.6258692 119.138789,51.7424768 119.859647,51.7424768 C121.02574,51.7424768 122.075208,51.2654458 123.008083,50.3113696 C124.089369,49.1876797 124.630005,47.5233717 124.630005,45.3183955 C124.630005,42.8377972 124.089369,41.0038781 123.008083,39.8165832 C122.520444,39.2865409 121.99041,38.9049161 121.417964,38.6716975 C120.930325,38.4808822 120.410891,38.385476 119.859647,38.385476 Z" id="D" opacity="0.9" fill="#FFFFFF" sketch:type="MSShapeGroup" transform="translate(119.923252, 45.063976) rotate(-319.000000) translate(-119.923252, -45.063976) "></path>
            </g>
            <g id="Group" sketch:type="MSLayerGroup" transform="translate(53.000000, 123.769474)">
                <path d="M91.984375,4.01585465 C28.4179714,4.01585465 5.30039713,75.0158547 5.30039713,75.0158547 L5.30039713,205.832089 L175.334547,205.832089 L175.334547,75.0158547 C175.334547,75.0158547 155.550779,4.01585465 91.984375,4.01585465 Z" id="Rectangle-1" fill="#FFFDDA" sketch:type="MSShapeGroup"></path>
                <path d="M80.8310562,129.41803 C80.8310562,129.41803 83.6347399,129.118565 88.7256456,129.41803 C93.8165514,129.717495 95.8488481,130.301429 95.8488481,130.301429" id="Line" stroke="#000000" stroke-linecap="square" opacity="0.496909981" sketch:type="MSShapeGroup"></path>
                <path d="M90.9114527,2.36327641 C18.3967689,2.36327641 5.72183879,76.0612063 5.72183879,76.0612063 C5.72183879,76.0612063 48.486092,83.9229526 90.9114518,83.9229526 C133.336812,83.9229526 175.755989,76.0612063 175.755989,76.0612063 C175.755989,76.0612063 163.426136,2.36327641 90.9114527,2.36327641 Z" id="Rectangle-4" fill="#50E3C2" sketch:type="MSShapeGroup"></path>
                <path d="M58.2522023,44.9977479 L60.2806736,56.7278553 L63.6262319,45.7570793 C63.9079538,44.8376889 64.20088,44.2108187 64.5050192,43.8764499 C64.8091584,43.5420812 65.2258797,43.3887692 65.7551957,43.4165095 C66.2209937,43.4409209 66.9274925,43.5310231 67.8747131,43.6868188 C68.8219338,43.8426145 69.5390187,43.9332715 70.0259894,43.9587926 C70.5341327,43.9854232 71.7983242,43.9667548 73.8186017,43.9027867 C74.3924822,43.8904009 74.8170382,43.8914205 75.0922825,43.9058455 C75.7909795,43.9424626 76.3412275,44.178297 76.7430429,44.6133557 C77.1448582,45.0484143 77.3268998,45.6258699 77.289173,46.3457396 C77.2581039,46.9385734 77.0679429,47.4275236 76.7186844,47.8126048 C76.3694259,48.1976859 75.9513176,48.3774633 75.4643469,48.3519422 C75.2737932,48.3419557 75.011081,48.2910342 74.6762024,48.1991762 C74.3413238,48.1073182 74.0997839,48.0575063 73.9515754,48.0497391 C73.3799142,48.0197796 73.0569165,48.7140728 72.9825725,50.1326395 L72.5215315,58.9298268 C72.4460779,60.3695662 72.6835919,61.1038498 73.2340805,61.1326997 C73.4034616,61.1415766 73.6594713,61.1178402 74.0021171,61.0614897 C74.344763,61.0051393 74.6007726,60.9814028 74.7701537,60.9902797 C75.2571244,61.0158008 75.6594435,61.2385749 75.9771231,61.6586088 C76.2948027,62.0786427 76.4381058,62.585069 76.4070367,63.1779029 C76.3693099,63.8977726 76.1279051,64.4530362 75.6828149,64.8437104 C75.2377247,65.2343847 74.6658397,65.4114106 73.9671426,65.3747934 C73.5648625,65.3537108 72.890677,65.2546868 71.9445659,65.0777185 C71.3138252,64.9597396 70.6808748,64.8841071 70.0456956,64.8508188 C69.6434155,64.8297362 69.0478165,64.8515983 68.2588809,64.9164059 C67.4699452,64.9812135 66.8743462,65.0030757 66.4720661,64.9819931 C65.836887,64.9487047 65.3345541,64.7100739 64.9650525,64.2660933 C64.5955509,63.8221127 64.4291112,63.2507825 64.4657284,62.5520854 C64.5345243,61.2393818 65.0029543,60.6057866 65.8710324,60.6512806 C65.9980683,60.6579383 66.0927889,60.6735176 66.1551972,60.6980191 L66.3775088,60.70967 C66.4610897,60.735281 66.5134657,60.7486412 66.5346384,60.7497508 C66.8734006,60.7675046 67.0867432,60.5451502 67.1746725,60.082681 C67.2069413,59.8720642 67.2363906,59.5126896 67.2630212,59.0045462 L67.8905031,47.0314791 L62.6571413,62.4254554 C62.2050187,63.7605312 61.5449282,64.4053125 60.67685,64.3598184 L58.6442869,64.2532963 C57.7973814,64.2089118 57.246766,63.5749869 56.9924242,62.3515023 L53.5990437,46.2824955 L52.9715618,58.2555626 C52.9194101,59.2506766 52.9852813,59.8167363 53.1691774,59.9537586 C53.2293664,60.0206053 53.3441498,60.0584666 53.5135309,60.0673435 C53.5558762,60.0695627 53.6199479,60.0623053 53.7057481,60.0455711 L53.8963009,60.0555576 C53.9609284,60.0377138 54.0567587,60.0321208 54.1837945,60.0387785 C55.0307,60.0831629 55.4203038,60.7511106 55.3526176,62.0426415 C55.3148908,62.7625112 55.0943809,63.3241775 54.6910811,63.7276573 C54.2877814,64.1311371 53.7685498,64.31623 53.1333706,64.2829417 C52.8369537,64.2674071 52.4575163,64.2156759 51.9950471,64.1277466 C51.4066517,64.0119869 51.0389101,63.9396382 50.8918112,63.9106983 C50.449405,63.8450512 49.9423789,63.7972486 49.3707177,63.7672891 C48.650848,63.7295623 48.0457724,63.7296974 47.5554729,63.7676942 C46.2338925,63.8682795 45.5731121,63.9185713 45.5731121,63.9185713 C44.9167603,63.8841734 44.3885169,63.6335694 43.988366,63.1667517 C43.588215,62.6999341 43.4058961,62.1277717 43.4414036,61.4502473 C43.4735823,60.8362407 43.6640207,60.3419975 44.0127244,59.9675026 C44.3614281,59.5930078 44.7898452,59.4190783 45.2979885,59.445709 C45.4673696,59.4545859 45.7142026,59.5046752 46.0384948,59.5959784 C46.3627871,59.6872816 46.6096201,59.7373709 46.7790012,59.7462478 C47.2024539,59.76844 47.4815327,59.5070697 47.6162458,58.9621292 C47.6696871,58.752622 47.7141609,58.3091129 47.7496685,57.6315885 L48.2107095,48.8344012 C48.2462171,48.1568768 48.2477915,47.7217346 48.2154327,47.5289617 C48.1384194,46.972925 47.8881901,46.6838149 47.4647373,46.6616227 C47.2953562,46.6527458 47.0446397,46.6767596 46.7125801,46.7336649 C46.3805206,46.7905702 46.1192179,46.8140292 45.9286641,46.8040427 C45.4416934,46.7785216 45.0446674,46.5560249 44.7375741,46.1365458 C44.4304808,45.7170667 44.2924708,45.2109178 44.3235399,44.6180839 C44.4045415,43.0724813 45.2284176,42.3407466 46.7951928,42.4228578 C47.3033361,42.4494885 48.147455,42.5468031 49.3275747,42.7148045 C50.5076944,42.8828059 51.3941579,42.9823396 51.9869917,43.0134087 C52.9397605,43.0633412 53.9381883,43.0519752 54.9823053,42.9793103 C55.6854408,42.9312369 56.2381403,42.9177417 56.6404204,42.9388243 C57.1697364,42.9665646 57.5335944,43.1130164 57.7320055,43.3781842 C57.9304165,43.643352 58.1038137,44.1832011 58.2522023,44.9977479 Z M92.4630466,65.1229772 C90.7247725,65.0926355 89.5710849,64.3727458 89.0019492,62.9632865 C87.4936352,64.3364838 85.7219785,65.0053114 83.6869258,64.9697894 C82.0122471,64.9405578 80.6844416,64.4773853 79.7034696,63.580258 C78.7224976,62.6831307 78.2447844,61.5032377 78.2703158,60.0405436 C78.309168,57.8147047 79.2988447,56.3900664 81.2393757,55.7665858 C82.0709261,55.5054366 83.0289129,55.2889076 84.1133649,55.1169925 C85.6228962,54.8888824 86.6507945,54.6152611 87.1970907,54.2961204 C87.7433868,53.9769797 88.0224511,53.4782414 88.0342917,52.7998905 C88.0428022,52.3123258 87.8432431,51.9006538 87.4356083,51.5648622 C87.0279736,51.2290706 86.5167861,51.0558121 85.9020306,51.0450815 C85.2024812,51.0328708 84.8488267,51.2493461 84.8410562,51.6945139 C84.8384661,51.8429031 84.846475,51.9914752 84.8650834,52.1402344 L84.8628633,52.2674246 C84.8525027,52.8609816 84.5947291,53.3547904 84.0895348,53.7488658 C83.5843404,54.1429411 82.9607795,54.3335006 82.2188332,54.3205499 C81.3708946,54.3057491 80.6757959,54.0391608 80.1335163,53.5207771 C79.5912367,53.0023934 79.3267612,52.3616388 79.340082,51.598494 C79.3600631,50.4537769 79.9799359,49.563401 81.1997191,48.9273398 C82.4195022,48.2912785 84.089292,47.9917534 86.2091386,48.0287555 C88.4985728,48.0687177 90.1989185,48.4482733 91.3102265,49.1674338 C92.5052182,49.9516697 93.0845744,51.382491 93.0483124,53.4599406 L92.9334216,60.0420312 C92.9215809,60.7203821 93.0852459,61.0625126 93.4244213,61.0684329 C93.594009,61.0713931 93.7531802,61.0635691 93.9019394,61.0449608 C93.9659049,61.0248724 94.0402834,61.0155684 94.1250772,61.0170485 C94.6126419,61.025559 95.0230457,61.2023594 95.3563008,61.5474552 C95.6895559,61.892551 95.8519258,62.308875 95.8434153,62.7964397 C95.8312047,63.495989 95.5085416,64.0628813 94.8754164,64.4971335 C94.2422913,64.9313856 93.438176,65.1399981 92.4630466,65.1229772 Z M88.0007267,58.2230957 L88.0007267,57.5234432 C87.8523149,57.60825 86.9194543,57.8732672 85.2021171,58.3185028 C84.0360239,58.6153265 83.452986,59.0711561 83.452986,59.6860053 C83.452986,60.6612832 84.0254232,61.1489149 85.1703147,61.1489149 C87.0572655,61.1489149 88.0007267,60.1736516 88.0007267,58.2230957 Z M98.2065682,66.9541795 C98.2117485,67.250958 98.1423652,67.527829 97.9984162,67.7848007 C98.1687439,67.8242375 98.3598973,67.8421055 98.5718819,67.8384053 C99.2926298,67.8258246 99.7905355,67.4990645 100.065614,66.8581153 C100.340693,66.217166 100.463985,65.0805675 100.435493,63.4482857 L100.270095,53.9726191 C100.249003,52.7643065 100.047675,52.1634895 99.6661023,52.1701498 C99.5389115,52.17237 99.3328771,52.2130744 99.0479929,52.2922643 C98.7631087,52.3714542 98.5676733,52.4119736 98.461681,52.4138237 C97.550147,52.4297346 97.0840264,51.8441418 97.0633052,50.6570277 C97.0385139,49.2367305 97.6514637,48.5156771 98.9021732,48.4938459 C99.2201502,48.4882956 99.6819499,48.5226441 100.287586,48.5968923 C100.893223,48.6711406 101.355022,48.7054891 101.672999,48.6999388 C101.990976,48.6943885 102.467195,48.6436668 103.101668,48.5477724 C103.736142,48.4518779 104.085172,48.4033763 104.148767,48.4022663 C104.742324,48.3919057 105.046314,48.8000894 105.060744,49.6268295 L105.314947,64.1901024 C105.335668,65.3772165 105.245866,66.3064855 105.045537,66.9779374 C104.845208,67.6493892 104.453821,68.3082626 103.871365,68.9545771 C102.602679,70.3762471 100.834246,71.1068672 98.5660098,71.1464594 C96.9973233,71.1738409 95.7091927,70.8729551 94.7015792,70.2437929 C93.6939657,69.6146306 93.1811011,68.7806996 93.1629701,67.7419748 C93.1500194,67.0000285 93.4040808,66.370058 93.9251619,65.8520443 C94.4462431,65.3340306 95.0989455,65.0681824 95.8832887,65.0544916 C96.5404411,65.043021 97.089531,65.2189769 97.5305749,65.5823646 C97.9716188,65.9457523 98.1969477,66.4030194 98.2065682,66.9541795 Z M99.5245659,46.4757997 C98.9424017,45.924031 98.6442938,45.2453859 98.630233,44.4398442 C98.6161722,43.6343025 98.8904142,42.9456671 99.4529672,42.3739172 C100.01552,41.8021673 100.699557,41.5092664 101.505099,41.4952056 C102.310641,41.4811448 102.999184,41.7500873 103.570749,42.3020411 C104.142313,42.8539948 104.435122,43.5327324 104.449183,44.3382741 C104.462873,45.1226173 104.193838,45.8058607 103.64207,46.3880248 C103.090301,46.9701889 102.411656,47.2682969 101.606114,47.2823577 C100.800572,47.2964185 100.10673,47.0275685 99.5245659,46.4757997 Z M117.612725,64.9306783 C115.009301,65.2965658 112.895752,64.844265 111.272016,63.5737624 C109.648279,62.3032597 108.649056,60.3348325 108.274317,57.6684216 C107.902528,55.0230061 108.315959,52.8613957 109.514624,51.1835255 C110.713288,49.5056552 112.582812,48.4882177 115.12325,48.1311823 C117.621698,47.7800484 119.693257,48.2382505 121.337989,49.5058024 C122.98272,50.7733544 123.985064,52.6878187 124.34505,55.2492527 C124.722741,57.9366589 124.319721,60.134273 123.135981,61.8421609 C121.95224,63.5500489 120.111173,64.5795444 117.612725,64.9306783 Z M119.720616,53.5497668 C118.82287,53.1590801 117.674548,53.0870727 116.275615,53.3337423 C114.855803,53.5840935 113.796141,54.0454281 113.096598,54.7177598 C112.397055,55.3900916 112.131965,56.2064759 112.301321,57.1669372 C112.643713,59.1087394 114.318214,59.8145521 117.324876,59.2843966 C120.331537,58.754241 121.65997,57.4974014 121.310215,55.5138401 C121.148223,54.595138 120.618362,53.9404534 119.720616,53.5497668 Z M132.239402,49.5684521 L132.427968,52.2650698 C132.648642,51.1657119 132.942153,50.3481946 133.308509,49.8124933 C134.157768,48.5841666 135.417806,47.9115946 137.08866,47.7947572 C138.251912,47.7134146 139.256339,48.0204217 140.101968,48.7157875 C140.947598,49.4111534 141.408859,50.3087242 141.485764,51.4085267 C141.546402,52.2756787 141.342519,53.0072293 140.87411,53.6032005 C140.405701,54.1991717 139.78023,54.5245131 138.997678,54.5792344 C138.405477,54.6206452 137.889861,54.4654223 137.450813,54.113561 C137.011766,53.7616998 136.77302,53.3108253 136.734567,52.7609241 C136.713862,52.4648234 136.822496,52.0427906 137.060472,51.4948129 L136.870123,51.5081235 C135.45307,51.6072135 134.553834,52.4245809 134.172389,53.9602503 C133.875988,55.1924243 133.782511,56.5910421 133.891954,58.1561456 L133.976254,59.3616924 C134.029496,60.1230941 134.126961,60.6051011 134.268651,60.8077279 C134.362124,60.9287123 134.514609,60.981809 134.72611,60.9670194 C134.91646,60.9537088 135.177874,60.8929227 135.510359,60.7846592 C135.842844,60.6763958 136.093683,60.6163491 136.262883,60.6045175 C136.728184,60.5719804 137.136203,60.7081608 137.486953,61.0130628 C137.837703,61.3179647 138.029343,61.7030605 138.06188,62.1683615 C138.10477,62.7817129 137.934424,63.3090135 137.550838,63.7502791 C137.167251,64.1915446 136.679365,64.4328792 136.087164,64.4742899 C135.769913,64.4964743 135.174023,64.4850101 134.299476,64.439897 C133.766288,64.4134207 133.097853,64.4282825 132.294151,64.4844828 C131.49045,64.5406832 130.784152,64.621952 130.175237,64.7282919 C129.16743,64.905032 128.54721,65.0015348 128.31456,65.0178033 C127.003257,65.1094986 126.298071,64.4468295 126.198981,63.0297763 C126.116159,61.8453736 126.582343,61.2176867 127.597545,61.1466969 C127.766745,61.1348652 127.959681,61.1585668 128.176358,61.2178025 C128.393035,61.2770381 128.554246,61.3029581 128.659996,61.2955633 C129.019547,61.2704211 129.157909,60.6656577 129.075088,59.481255 L128.715704,54.3418189 C128.631403,53.1362662 128.409481,52.5460698 128.04993,52.571212 C127.96533,52.5771279 127.804007,52.6256016 127.565958,52.7166348 C127.327909,52.8076679 127.145437,52.8576206 127.018537,52.8664944 C126.003334,52.9374842 125.45507,52.391361 125.373728,51.2281084 C125.329359,50.5936069 125.462323,50.063607 125.772624,49.6380928 C126.082924,49.2125786 126.502444,48.9813381 127.031195,48.9443642 C127.242696,48.9295746 127.54175,48.951169 127.928366,49.009148 C128.314983,49.067127 128.677486,49.0842846 129.015887,49.0606213 C129.269688,49.0428738 129.63685,48.974693 130.117385,48.8560769 C130.597921,48.7374607 130.954508,48.6700194 131.187159,48.6537509 C131.84281,48.6079033 132.193555,48.9128006 132.239402,49.5684521 L132.239402,49.5684521 Z" id="Major" opacity="0.9" fill="#FFFFFF" sketch:type="MSShapeGroup"></path>
                <path d="M20.1525521,32.3786629 C-13.5935304,32.3786629 5.40988871,76.2138923 5.40988871,76.2138923 C18.1839008,79.0856572 24.2466961,79.912295 39.4056707,81.3553607 C51.0603066,82.4648292 63.0430869,83.8714949 85.8507202,83.8714949 C81.6777969,70.2430135 53.8986345,32.3786629 20.1525521,32.3786629 Z" id="Rectangle-9" fill="#9B9B9B" sketch:type="MSShapeGroup"></path>
                <path d="M65.2072023,90.704751 C52.119052,90.704751 51.2371723,102.410201 51.2371723,102.410201 L51.2371723,118.659312 C51.2371723,118.659312 54.8525535,123.675933 65.7858528,123.675933 C76.719152,123.675933 79.6646928,118.659312 79.6646928,118.659312 L79.6646928,102.410201 C79.6646928,102.410201 78.2953525,90.704751 65.2072023,90.704751 Z" id="Rectangle-20" fill="#FFFFFF" sketch:type="MSShapeGroup"></path>
                <path d="M66.1725306,108.250543 C63.3830903,108.250543 63.1951377,110.795187 63.1951377,110.795187 L63.1951377,114.114197 C63.1951377,114.114197 63.9656737,115.204759 66.2958567,115.204759 C68.6260398,115.204759 69.2538145,114.114197 69.2538145,114.114197 L69.2538145,110.795187 C69.2538145,110.795187 68.9619709,108.250543 66.1725306,108.250543 Z" id="Rectangle-19" opacity="0.788596082" fill="#000000" sketch:type="MSShapeGroup"></path>
                <path d="M109.377178,90.704751 C96.2890281,90.704751 95.4071483,102.410201 95.4071483,102.410201 L95.4071483,118.659312 C95.4071483,118.659312 99.0225296,123.675933 109.955829,123.675933 C120.889128,123.675933 123.834669,118.659312 123.834669,118.659312 L123.834669,102.410201 C123.834669,102.410201 122.465329,90.704751 109.377178,90.704751 Z" id="Rectangle-22" fill="#FFFFFF" sketch:type="MSShapeGroup"></path>
                <path d="M110.342507,108.250543 C107.553066,108.250543 107.365114,110.795187 107.365114,110.795187 L107.365114,114.114197 C107.365114,114.114197 108.13565,115.204759 110.465833,115.204759 C112.796016,115.204759 113.423791,114.114197 113.423791,114.114197 L113.423791,110.795187 C113.423791,110.795187 113.131947,108.250543 110.342507,108.250543 Z" id="Rectangle-21" opacity="0.788596082" fill="#000000" sketch:type="MSShapeGroup"></path>
                <path d="M91.8735502,5.24594921 C94.3129907,5.24594921 96.2905479,4.56656175 96.2905479,2.65019856 C96.2905479,0.733835384 93.5918172,-0.293614721 91.8735502,-0.293614721 C90.1552833,-0.293614721 87.4565526,0.604899679 87.4565526,2.65019856 C87.4565526,4.69549745 89.4341098,5.24594921 91.8735502,5.24594921 Z" id="Oval-3" fill="#35AB90" sketch:type="MSShapeGroup"></path>
            </g>
        </g>
    </g>
</svg>