<?xml version="1.0" encoding="utf-8"?>
<!-- Generator: Adobe Illustrator 17.0.0, SVG Export Plug-In . SVG Version: 6.00 Build 0)  -->
<!DOCTYPE svg PUBLIC "-//W3C//DTD SVG 1.1//EN" "http://www.w3.org/Graphics/SVG/1.1/DTD/svg11.dtd">
<svg version="1.1" id="Layer_1" xmlns:sketch="http://www.bohemiancoding.com/sketch/ns"
	 xmlns="http://www.w3.org/2000/svg" xmlns:xlink="http://www.w3.org/1999/xlink" x="0px" y="0px" width="680px" height="340px"
	 viewBox="0 0 680 340" enable-background="new 0 0 680 340" xml:space="preserve">
<g id="Page-1" sketch:type="MSPage">
	<g id="iBeacon_Emitter_Options" sketch:type="MSArtboardGroup">
		<g id="Rectangle-1-_x2B_-Imported-Layers" transform="translate(53.000000, 87.000000)" sketch:type="MSLayerGroup">
			<path id="Rectangle-1" sketch:type="MSShapeGroup" fill="#D8D8D8" stroke="#CACACA" d="M16,0h210c8.837,0,16,7.163,16,16v135
				c0,8.837-7.163,16-16,16H16c-8.837,0-16-7.163-16-16V16C0,7.163,7.163,0,16,0z"/>
			<g id="Imported-Layers" transform="translate(108.000000, 64.000000)" sketch:type="MSShapeGroup" opacity="0.7077">
				<path id="Fill-1" fill="#F3F2F9" stroke="#D9D9E0" d="M8.604,31.688H7.976C7.58,31.621,7.2,31.506,6.841,31.322
					c-0.659-0.338-1.218-0.806-1.698-1.356c-0.509-0.583-0.979-1.2-1.451-1.814c-0.558-0.725-1.04-1.5-1.456-2.313
					c-0.807-1.58-1.438-3.226-1.798-4.965c-0.137-0.661-0.241-1.329-0.344-1.996c-0.05-0.322-0.064-0.65-0.095-0.975v-1.435
					c0.01-0.076,0.026-0.153,0.029-0.229c0.039-0.873,0.212-1.722,0.46-2.557c0.214-0.723,0.516-1.41,0.905-2.06
					c0.534-0.892,1.193-1.677,2.024-2.308C4.384,8.581,5.452,8.061,6.662,7.85c0.599-0.104,1.199-0.168,1.805-0.098
					c0.693,0.08,1.36,0.275,2.016,0.507c0.676,0.239,1.352,0.475,2.026,0.719c0.469,0.17,0.926,0.152,1.393-0.018
					c0.845-0.306,1.692-0.609,2.546-0.889c0.861-0.282,1.743-0.473,2.658-0.425c0.389,0.02,0.779,0.066,1.164,0.127
					c0.798,0.125,1.566,0.358,2.286,0.727c0.795,0.408,1.498,0.937,2.08,1.616c0.184,0.215,0.354,0.441,0.536,0.668
					c-0.103,0.071-0.18,0.123-0.257,0.176c-0.081,0.056-0.163,0.112-0.243,0.168c-1.191,0.842-2.1,1.901-2.582,3.291
					c-0.309,0.892-0.399,1.812-0.357,2.748c0.044,0.996,0.267,1.953,0.727,2.842c0.436,0.843,1.035,1.565,1.77,2.169
					c0.539,0.443,1.112,0.835,1.772,1.087v0.062c-0.012,0.021-0.028,0.042-0.037,0.065c-0.273,0.676-0.52,1.364-0.823,2.026
					c-0.531,1.159-1.213,2.233-1.98,3.252c-0.571,0.758-1.158,1.5-1.913,2.09c-0.712,0.556-1.506,0.904-2.429,0.89
					c-0.696-0.01-1.354-0.207-1.997-0.449c-0.659-0.248-1.309-0.516-2.004-0.66c-0.694-0.144-1.383-0.187-2.087-0.058
					c-0.63,0.115-1.242,0.28-1.836,0.514c-0.604,0.238-1.206,0.476-1.845,0.608C8.901,31.638,8.752,31.662,8.604,31.688"/>
				<path id="Fill-3" fill="#F3F2F9" stroke="#D9D9E0" d="M19.305,1.501c-0.055,0.704-0.281,1.367-0.59,2.001
					c-0.331,0.679-0.752,1.301-1.261,1.86c-0.606,0.666-1.307,1.21-2.14,1.573c-0.743,0.323-1.52,0.428-2.331,0.367
					c-0.07-0.452-0.052-0.892,0.002-1.328c0.095-0.78,0.333-1.519,0.721-2.204c0.761-1.344,1.8-2.408,3.219-3.072
					c0.621-0.29,1.253-0.553,1.94-0.652c0.086-0.011,0.172-0.03,0.258-0.046h0.22C19.332,0.5,19.344,1.003,19.305,1.501z"/>
			</g>
		</g>
		<g id="Group" transform="translate(466.000000, 131.000000)" sketch:type="MSLayerGroup">
			
				<g transform="translate(25.000000, 45.000000) rotate(-180.000000) translate(-25.000000, -45.000000) translate(16.000000, 0.000000)" sketch:type="MSShapeGroup">
				<path id="Rectangle-3" fill="#394E80" d="M1,79.375h15c0.552,0,1,0.448,1,1V88c0,0.552-0.448,1-1,1H1c-0.552,0-1-0.448-1-1
					v-7.625C0,79.823,0.448,79.375,1,79.375z"/>
				<rect id="Rectangle-4" x="1.503" y="3.17" fill="#C3C3CC" width="8.673" height="5.435"/>
				<path id="Path" d="M11.333,4.642h0.347v1.585H0.116V4.642h0.347V0.113h10.871v4.529H11.333z"/>
			</g>
			<path id="Rectangle-7" sketch:type="MSShapeGroup" fill="#393939" d="M0.459,8.446C0.79,8.194,1.375,8.291,1.375,8.291h47
				c0,0,0.569-0.018,0.805,0.266C49.416,8.84,49.367,9.5,49.367,9.5v71.148c0,0-7.243,2.001-24.368,2.001s-24.858-2-24.858-2V9.25
				C0.141,9.25,0.128,8.698,0.459,8.446z"/>
			<g id="Imported-Layers_1_" transform="translate(16.153981, 34.380997)" sketch:type="MSShapeGroup">
				<path id="Fill-1_1_" opacity="0.2" fill="#010000" enable-background="new    " d="M4.699,0H4.86
					c0.112,0.029,0.228,0.049,0.333,0.1C5.3,0.151,5.403,0.191,5.518,0.132C5.527,0.128,5.539,0.13,5.55,0.128
					c0.215-0.031,0.402,0.045,0.58,0.151c0.033,0.02,0.062,0.034,0.105,0.023C6.451,0.246,6.65,0.29,6.832,0.415
					c0.105,0.072,0.2,0.154,0.29,0.243c0.026,0.026,0.051,0.039,0.091,0.038C7.417,0.693,7.59,0.764,7.741,0.9
					c0.412,0.373,0.712,0.823,0.931,1.33C8.681,2.25,8.681,2.278,8.71,2.289c0.009-0.018,0.017-0.034,0.024-0.051
					C8.954,1.721,9.259,1.265,9.68,0.89c0.145-0.129,0.313-0.196,0.507-0.193c0.045,0.001,0.074-0.015,0.105-0.045
					c0.09-0.089,0.186-0.171,0.291-0.242c0.171-0.116,0.358-0.16,0.56-0.116c0.062,0.014,0.106,0.003,0.157-0.028
					c0.223-0.135,0.459-0.194,0.715-0.1c0.016,0.006,0.029,0.009,0.045,0C12.21,0.091,12.37,0.043,12.532,0h0.145
					c0.058,0.016,0.123,0.019,0.171,0.05c0.128,0.084,0.256,0.063,0.388,0.023c0.005-0.002,0.01-0.003,0.016-0.004
					c0.236-0.051,0.461-0.037,0.659,0.117c0.044,0.034,0.085,0.046,0.139,0.042c0.23-0.018,0.445,0.022,0.623,0.183
					c0.02,0.018,0.042,0.021,0.067,0.019c0.092-0.008,0.183-0.001,0.274,0.008c0.23,0.023,0.457,0.065,0.621,0.247
					c0.055,0.062,0.107,0.078,0.186,0.071c0.478-0.042,0.861,0.397,0.76,0.866c-0.01,0.048,0.006,0.319,0.022,0.363
					c0.091,0.248,0.035,0.475-0.094,0.693c-0.015,0.026-0.042,0.048-0.032,0.087c0.076,0.278-0.012,0.513-0.192,0.723
					c-0.047,0.055-0.08,0.107-0.06,0.186c0.013,0.051,0.003,0.107-0.004,0.16c-0.029,0.21-0.151,0.364-0.299,0.502
					c-0.035,0.033-0.053,0.066-0.055,0.117c-0.009,0.2-0.09,0.368-0.237,0.504c-0.093,0.086-0.192,0.165-0.296,0.237
					c-0.035,0.024-0.055,0.05-0.064,0.094c-0.036,0.181-0.132,0.327-0.279,0.438c-0.119,0.089-0.251,0.156-0.386,0.215
					c-0.027,0.012-0.051,0.022-0.064,0.054c-0.089,0.222-0.256,0.359-0.479,0.434c-0.057,0.019-0.113,0.04-0.177,0.063
					c0.03,0.021,0.049,0.035,0.069,0.048c0.264,0.171,0.49,0.388,0.69,0.628c0.572,0.686,0.853,1.481,0.86,2.374
					c0.001,0.122,0.065,0.234,0.161,0.31c0.101,0.081,0.204,0.158,0.302,0.242c0.574,0.496,0.94,1.117,1.111,1.854
					c0.114,0.489,0.116,0.982,0.011,1.472c-0.12,0.561-0.358,1.067-0.727,1.508c-0.03,0.036-0.048,0.074-0.058,0.121
					c-0.062,0.297-0.141,0.59-0.239,0.877c-0.02,0.06-0.031,0.118-0.031,0.181c0.001,0.651-0.165,1.261-0.483,1.825
					c-0.484,0.858-1.204,1.437-2.137,1.751c-0.049,0.017-0.093,0.039-0.135,0.07c-0.53,0.395-1.101,0.719-1.714,0.967
					c-0.056,0.023-0.103,0.052-0.144,0.098c-0.11,0.125-0.227,0.244-0.355,0.352c-0.903,0.76-1.941,1.036-3.098,0.837
					c-0.812-0.14-1.496-0.533-2.058-1.136c-0.03-0.035-0.066-0.056-0.11-0.073c-0.739-0.278-1.42-0.661-2.043-1.146
					c-0.036-0.028-0.074-0.052-0.118-0.068C3.284,19.447,2.967,19.244,2.68,19c-0.697-0.595-1.133-1.345-1.297-2.25
					c-0.013-0.073-0.018-0.149-0.049-0.219c-0.193-0.444-0.341-0.903-0.446-1.376c-0.007-0.033-0.02-0.06-0.042-0.086
					C0.672,14.863,0.525,14.64,0.4,14.4c-0.378-0.724-0.481-1.492-0.326-2.285c0.175-0.891,0.646-1.603,1.374-2.15
					c0.104-0.078,0.172-0.21,0.171-0.349c-0.003-0.415,0.049-0.82,0.176-1.215c0.228-0.705,0.634-1.287,1.214-1.748
					c0.1-0.08,0.206-0.151,0.318-0.232C3.172,6.366,3.029,6.29,2.96,6.152C2.879,5.991,2.755,5.905,2.599,5.84
					C2.543,5.817,2.493,5.778,2.442,5.743c-0.111-0.076-0.219-0.17-0.248-0.299c-0.043-0.19-0.167-0.299-0.313-0.4
					C1.839,5.016,1.802,4.979,1.766,4.943c-0.125-0.12-0.207-0.264-0.217-0.437C1.543,4.412,1.506,4.348,1.44,4.287
					C1.268,4.129,1.163,3.934,1.183,3.695C1.191,3.6,1.169,3.532,1.106,3.467C1.079,3.438,1.057,3.403,1.035,3.37
					C0.919,3.199,0.876,3.012,0.921,2.81c0.012-0.054,0.002-0.095-0.025-0.141C0.742,2.412,0.704,2.146,0.858,1.875
					c0.026-0.046,0.032-0.081,0.01-0.132c-0.09-0.214-0.076-0.428,0.041-0.627C1.06,0.859,1.29,0.737,1.589,0.757
					c0.075,0.005,0.127-0.003,0.18-0.066c0.089-0.11,0.212-0.171,0.348-0.206c0.176-0.046,0.355-0.061,0.536-0.057
					C2.679,0.429,2.706,0.437,2.73,0.415C2.918,0.24,3.147,0.208,3.391,0.229C3.43,0.232,3.456,0.216,3.484,0.194
					C3.63,0.08,3.796,0.03,3.981,0.044C4.1,0.054,4.215,0.081,4.33,0.108C4.355,0.114,4.383,0.135,4.407,0.12
					C4.496,0.059,4.602,0.041,4.699,0C4.699,0,4.602,0.041,4.699,0L4.699,0L4.699,0z M11.709,0.873
					c-0.026,0.014-0.053,0.026-0.078,0.041c-0.183,0.114-0.327,0.27-0.463,0.433c-0.058,0.069-0.086,0.069-0.147,0
					c-0.022-0.024-0.034-0.053-0.045-0.084c-0.03-0.083-0.006-0.163,0.012-0.25c-0.085,0.062-0.16,0.126-0.231,0.197
					c-0.156,0.156-0.296,0.327-0.432,0.5c-0.032,0.041-0.049,0.038-0.074-0.003c-0.052-0.082-0.078-0.172-0.086-0.277
					c-0.025,0.023-0.042,0.04-0.059,0.056C9.67,1.902,9.402,2.414,9.242,2.989c-0.057,0.206-0.085,0.414-0.04,0.627
					c0.082,0.387,0.33,0.634,0.67,0.805C9.908,4.44,9.933,4.437,9.965,4.409c0.23-0.202,0.476-0.385,0.73-0.556
					c0.899-0.606,1.865-1.08,2.876-1.467c0.192-0.074,0.384-0.151,0.585-0.198c0.003,0.005,0.007,0.009,0.01,0.014
					c-0.011,0.008-0.02,0.017-0.032,0.022c-0.963,0.489-1.875,1.06-2.729,1.721c-0.366,0.283-0.717,0.584-1.025,0.932
					c-0.03,0.034-0.039,0.06-0.026,0.106c0.042,0.143,0.101,0.277,0.182,0.402c0.215,0.328,0.537,0.501,0.897,0.618
					c0.374,0.122,0.756,0.199,1.149,0.222c0.134,0.008,0.266-0.007,0.397-0.029c-0.074-0.034-0.143-0.07-0.201-0.123
					c-0.085-0.078-0.076-0.124,0.029-0.162c0.028-0.01,0.055-0.02,0.086-0.02c0.162,0.005,0.322-0.01,0.481-0.035
					c0.155-0.024,0.309-0.054,0.472-0.125c-0.107-0.022-0.195-0.044-0.263-0.108c-0.023-0.021-0.06-0.042-0.051-0.076
					c0.009-0.033,0.048-0.038,0.079-0.047c0.238-0.064,0.476-0.13,0.704-0.226c0.074-0.031,0.149-0.061,0.217-0.12
					c-0.105,0.006-0.198-0.001-0.286-0.042c-0.039-0.018-0.093-0.035-0.095-0.078c-0.002-0.044,0.057-0.048,0.092-0.064
					c0.311-0.142,0.613-0.3,0.87-0.53l0.003-0.004L15.115,4.44c-0.12,0.02-0.24,0.028-0.355-0.026
					c-0.02-0.01-0.052-0.013-0.05-0.044c0.001-0.025,0.023-0.04,0.044-0.054c0.07-0.044,0.141-0.089,0.21-0.136
					c0.189-0.129,0.367-0.269,0.532-0.447c-0.121,0.022-0.229,0.033-0.336,0.003c-0.031-0.009-0.068-0.017-0.076-0.051
					c-0.007-0.034,0.03-0.048,0.051-0.066c0.159-0.129,0.306-0.271,0.446-0.42c0.063-0.067,0.125-0.135,0.179-0.225
					c-0.131,0.039-0.25,0.071-0.374,0.036C15.351,3,15.3,3.008,15.292,2.965c-0.007-0.044,0.01-0.087,0.051-0.119
					c0.096-0.074,0.191-0.148,0.281-0.229c0.117-0.104,0.219-0.222,0.291-0.371c-0.126,0.023-0.243,0.035-0.362,0.034
					c-0.097-0.001-0.097-0.001-0.067-0.094c0.082-0.256,0.195-0.497,0.373-0.707c-0.344,0.031-0.679,0.032-1.03-0.025
					c0.093-0.1,0.175-0.187,0.271-0.266c-0.099-0.022-0.193-0.038-0.29-0.035c-0.238,0.006-0.468,0.053-0.693,0.13
					c-0.05,0.017-0.108,0.036-0.145-0.001c-0.046-0.046-0.026-0.111-0.001-0.167s0.069-0.095,0.121-0.126
					c0.018-0.011,0.036-0.022,0.07-0.044C14.05,0.96,13.959,0.961,13.87,0.982c-0.186,0.044-0.37,0.102-0.551,0.168
					c-0.089,0.032-0.121,0.005-0.116-0.087c0.003-0.045,0.024-0.082,0.047-0.118c0.045-0.07,0.116-0.111,0.184-0.166
					c-0.225,0.019-0.606,0.163-0.853,0.319c-0.083,0.052-0.132,0.031-0.15-0.066c-0.008-0.046,0.001-0.09,0.022-0.133
					c0.027-0.056,0.07-0.101,0.11-0.148c-0.094,0.024-0.18,0.061-0.262,0.108c-0.167,0.095-0.318,0.209-0.46,0.338
					c-0.065,0.059-0.086,0.05-0.128-0.024C11.656,1.073,11.657,0.974,11.709,0.873c0.004-0.002,0.007-0.006,0.011-0.009
					C11.717,0.867,11.713,0.87,11.709,0.873C11.709,0.873,11.713,0.87,11.709,0.873L11.709,0.873L11.709,0.873z M2.294,4.44
					L2.29,4.437L2.294,4.44c0.019,0.019,0.038,0.038,0.059,0.055c0.249,0.199,0.527,0.35,0.818,0.479
					c0.032,0.014,0.085,0.017,0.081,0.064C3.249,5.077,3.204,5.092,3.17,5.108C3.079,5.153,2.982,5.16,2.868,5.154
					c0.078,0.057,0.153,0.091,0.228,0.122C3.325,5.371,3.562,5.437,3.8,5.501c0.029,0.008,0.063,0.013,0.074,0.042
					C3.887,5.581,3.849,5.599,3.827,5.62C3.76,5.689,3.666,5.705,3.566,5.735C3.6,5.748,3.62,5.756,3.64,5.763
					c0.272,0.091,0.553,0.126,0.839,0.128c0.038,0,0.077-0.004,0.11,0.016s0.092,0.008,0.096,0.058s-0.031,0.09-0.07,0.121
					c-0.038,0.03-0.078,0.057-0.123,0.075C4.469,6.17,4.448,6.183,4.422,6.196c0.075,0.029,0.147,0.008,0.215,0.026
					c0.026,0.006,0.054,0.005,0.08,0.004c0.526-0.012,1.032-0.12,1.516-0.323C6.652,5.728,6.929,5.42,7.054,4.98
					C7.066,4.939,7.06,4.913,7.032,4.881C6.786,4.602,6.51,4.355,6.222,4.12C5.511,3.539,4.746,3.038,3.948,2.586
					C3.715,2.454,3.478,2.33,3.243,2.202c0.003-0.005,0.007-0.009,0.01-0.014c0.036,0.009,0.073,0.016,0.109,0.028
					c0.512,0.171,1.011,0.374,1.5,0.602C5.784,3.25,6.666,3.747,7.446,4.411c0.025,0.021,0.045,0.032,0.079,0.016
					c0.524-0.25,0.78-0.699,0.684-1.247C8.138,2.775,7.977,2.4,7.761,2.05C7.62,1.821,7.451,1.614,7.242,1.433
					c-0.005,0.1-0.031,0.186-0.079,0.265C7.138,1.739,7.118,1.76,7.078,1.704C7.019,1.621,6.952,1.543,6.886,1.466
					c-0.14-0.163-0.282-0.325-0.465-0.452C6.43,1.055,6.439,1.091,6.444,1.127c0.01,0.08-0.003,0.156-0.056,0.22
					c-0.06,0.071-0.089,0.07-0.147,0.001C6.226,1.329,6.211,1.31,6.195,1.292C6.048,1.13,5.902,0.968,5.7,0.873
					C5.695,0.871,5.69,0.87,5.685,0.868C5.69,0.87,5.694,0.872,5.699,0.874c0.054,0.103,0.05,0.204-0.007,0.307
					c-0.034,0.063-0.069,0.066-0.12,0.023C5.495,1.137,5.418,1.069,5.336,1.009C5.186,0.898,5.028,0.8,4.829,0.742
					c0.063,0.061,0.11,0.112,0.136,0.179c0.022,0.056,0.02,0.109-0.009,0.163c-0.027,0.051-0.06,0.063-0.11,0.028
					C4.753,1.047,4.653,0.996,4.55,0.95C4.368,0.868,4.179,0.809,3.963,0.775C3.994,0.797,4.01,0.807,4.025,0.818
					C4.098,0.87,4.163,0.93,4.196,1.016C4.211,1.057,4.22,1.107,4.193,1.14c-0.03,0.037-0.078,0.022-0.12,0.005
					c-0.03-0.012-0.06-0.024-0.09-0.034C3.748,1.033,3.514,0.956,3.247,0.95c0.036,0.021,0.059,0.034,0.081,0.048
					C3.389,1.037,3.431,1.09,3.452,1.161c0.013,0.045,0.013,0.091-0.017,0.122C3.406,1.312,3.359,1.303,3.32,1.292
					C3.28,1.281,3.243,1.265,3.205,1.254C2.912,1.173,2.617,1.111,2.307,1.187c0.095,0.08,0.179,0.165,0.268,0.267
					C2.226,1.51,1.891,1.508,1.548,1.479c0.183,0.216,0.295,0.466,0.38,0.73C1.946,2.264,1.935,2.281,1.877,2.28
					c-0.127,0-0.254-0.011-0.386-0.034C1.568,2.397,1.67,2.518,1.79,2.623c0.091,0.08,0.185,0.155,0.281,0.229
					c0.04,0.031,0.051,0.073,0.046,0.113C2.111,3.007,2.063,3,2.031,3.008c-0.085,0.023-0.17,0.019-0.255,0
					C1.737,2.999,1.698,2.989,1.644,2.975c0.187,0.25,0.401,0.448,0.623,0.64c0.023,0.02,0.065,0.035,0.057,0.07
					C2.317,3.722,2.275,3.73,2.241,3.739C2.136,3.766,2.03,3.754,1.928,3.738C1.976,3.79,2.022,3.846,2.075,3.894
					c0.176,0.159,0.369,0.295,0.572,0.418c0.024,0.014,0.05,0.029,0.051,0.058c0.001,0.034-0.035,0.036-0.057,0.047
					C2.528,4.468,2.411,4.46,2.294,4.44C2.294,4.44,2.411,4.46,2.294,4.44L2.294,4.44L2.294,4.44z M5.597,14.07
					c0.107,0.01,0.281-0.021,0.449-0.064c0.681-0.177,1.198-0.589,1.601-1.153c0.258-0.361,0.433-0.758,0.489-1.204
					c0.024-0.189,0.056-0.378,0.046-0.569c-0.014-0.262-0.07-0.512-0.166-0.758c-0.105-0.268-0.243-0.513-0.451-0.707
					C7.016,9.103,6.368,8.94,5.64,9.104c-0.588,0.133-1.069,0.452-1.452,0.907c-0.581,0.691-0.837,1.487-0.678,2.39
					c0.087,0.493,0.326,0.905,0.719,1.223C4.608,13.931,5.045,14.065,5.597,14.07C5.597,14.07,5.045,14.065,5.597,14.07L5.597,14.07
					L5.597,14.07z M13.824,11.89c0-0.148-0.008-0.295-0.034-0.442c-0.125-0.713-0.448-1.317-0.988-1.801
					c-0.36-0.323-0.773-0.547-1.252-0.645c-0.314-0.064-0.628-0.062-0.934,0.023C10.084,9.174,9.696,9.506,9.445,10
					c-0.246,0.486-0.269,1.001-0.199,1.526c0.059,0.449,0.257,0.852,0.505,1.218c0.242,0.355,0.543,0.669,0.933,0.875
					c0.218,0.115,0.43,0.241,0.679,0.286c0.148,0.027,0.298,0.032,0.445,0.064c0.055,0.012,0.111,0.017,0.168,0.012
					c0.239-0.023,0.468-0.08,0.692-0.171c0.429-0.175,0.724-0.487,0.925-0.89C13.756,12.598,13.825,12.251,13.824,11.89
					C13.824,11.89,13.825,12.251,13.824,11.89L13.824,11.89L13.824,11.89z M8.692,13.709c-0.149-0.012-0.296,0.008-0.441,0.034
					c-0.513,0.093-0.97,0.303-1.359,0.655c-0.236,0.214-0.392,0.483-0.534,0.76c-0.055,0.107-0.098,0.222-0.119,0.341
					c-0.071,0.406-0.082,0.805,0.065,1.205c0.133,0.361,0.337,0.667,0.618,0.919c0.373,0.334,0.816,0.528,1.312,0.604
					c0.381,0.058,0.756,0.033,1.123-0.075c0.457-0.135,0.856-0.368,1.18-0.724c0.237-0.259,0.399-0.562,0.5-0.892
					s0.099-0.673,0.034-1.013c-0.046-0.241-0.153-0.452-0.273-0.665c-0.218-0.388-0.544-0.661-0.923-0.862
					C9.512,13.803,9.109,13.71,8.692,13.709C8.692,13.709,9.109,13.71,8.692,13.709L8.692,13.709L8.692,13.709z M15.178,16.088
					c0.011-0.37-0.06-0.717-0.184-1.051c-0.095-0.256-0.269-0.44-0.552-0.504c-0.255-0.057-0.499-0.009-0.734,0.075
					c-0.441,0.158-0.78,0.47-1.107,0.79c-0.259,0.252-0.456,0.555-0.654,0.857c-0.291,0.444-0.463,0.929-0.548,1.449
					c-0.037,0.226-0.002,0.451,0.033,0.674c0.029,0.186,0.136,0.344,0.274,0.464c0.142,0.124,0.326,0.178,0.516,0.177
					c0.332,0,0.657-0.057,0.972-0.167c0.606-0.211,1.099-0.576,1.462-1.102C15.002,17.25,15.182,16.691,15.178,16.088
					C15.178,16.088,15.182,16.691,15.178,16.088L15.178,16.088L15.178,16.088z M5.851,17.953c-0.051-0.352-0.106-0.704-0.269-1.027
					c-0.029-0.057-0.069-0.109-0.095-0.168c-0.13-0.292-0.305-0.555-0.518-0.792c-0.068-0.076-0.146-0.144-0.21-0.223
					c-0.192-0.237-0.426-0.424-0.682-0.584c-0.166-0.104-0.338-0.194-0.527-0.256c-0.217-0.071-0.437-0.075-0.659-0.067
					c-0.016,0.001-0.032,0.006-0.047,0.011c-0.326,0.091-0.52,0.309-0.596,0.633c-0.106,0.456-0.085,0.912,0.033,1.363
					c0.105,0.403,0.289,0.768,0.551,1.092c0.339,0.419,0.761,0.723,1.266,0.912c0.294,0.11,0.596,0.178,0.911,0.177
					c0.156,0,0.315-0.026,0.436-0.12c0.189-0.149,0.346-0.333,0.374-0.588C5.832,18.196,5.855,18.076,5.851,17.953
					C5.851,17.953,5.855,18.076,5.851,17.953L5.851,17.953L5.851,17.953z M8.774,8.876c0.331,0.019,0.59-0.062,0.855-0.102
					c0.199-0.03,0.375-0.123,0.555-0.208c0.205-0.097,0.381-0.22,0.523-0.403c0.203-0.263,0.212-0.528,0.036-0.821
					c-0.095-0.158-0.229-0.284-0.369-0.402C9.748,6.413,9.03,6.192,8.218,6.298C7.603,6.378,7.079,6.65,6.639,7.084
					C6.477,7.243,6.372,7.431,6.377,7.668C6.381,7.893,6.5,8.066,6.643,8.22c0.149,0.161,0.346,0.26,0.543,0.354
					C7.709,8.82,8.263,8.894,8.774,8.876C8.774,8.876,8.263,8.894,8.774,8.876L8.774,8.876L8.774,8.876z M8.705,21.212
					c0.387-0.01,0.728-0.082,1.051-0.222c0.497-0.217,0.904-0.545,1.223-0.984c0.09-0.123,0.115-0.26,0.056-0.395
					c-0.046-0.104-0.136-0.19-0.233-0.251c-0.257-0.161-0.545-0.252-0.839-0.317c-0.225-0.049-0.457-0.064-0.685-0.096
					c-0.362-0.051-0.721-0.024-1.078,0.006c-0.422,0.036-0.839,0.11-1.236,0.278C6.753,19.32,6.561,19.434,6.4,19.595
					c-0.08,0.08-0.124,0.186-0.106,0.308c0.016,0.109,0.077,0.194,0.146,0.273C7.037,20.867,7.791,21.215,8.705,21.212
					C8.705,21.212,7.791,21.215,8.705,21.212L8.705,21.212L8.705,21.212z M2.731,11.773c0.004-0.167-0.012-0.416-0.051-0.663
					c-0.025-0.157-0.057-0.311-0.147-0.447c-0.137-0.205-0.229-0.227-0.437-0.096c-0.125,0.079-0.245,0.167-0.353,0.268
					c-0.664,0.622-0.959,1.383-0.854,2.291c0.066,0.571,0.309,1.062,0.697,1.483c0.121,0.131,0.288,0.128,0.404-0.012
					c0.106-0.127,0.198-0.265,0.277-0.412c0.072-0.134,0.097-0.283,0.154-0.422c0.097-0.234,0.135-0.484,0.187-0.731
					C2.689,12.643,2.734,12.253,2.731,11.773C2.731,11.773,2.734,12.253,2.731,11.773L2.731,11.773L2.731,11.773z M14.44,11.561
					c-0.023,0.237,0.017,0.493,0.05,0.748c0.073,0.565,0.177,1.123,0.38,1.658c0.077,0.202,0.177,0.396,0.323,0.552
					c0.148,0.158,0.215,0.194,0.387,0.003c0.054-0.06,0.106-0.122,0.156-0.185c0.381-0.477,0.568-1.025,0.57-1.633
					c0.002-0.523-0.148-1.006-0.439-1.442c-0.243-0.365-0.561-0.649-0.945-0.859c-0.128-0.07-0.248-0.046-0.303,0.066
					c-0.033,0.067-0.065,0.135-0.084,0.209C14.463,10.96,14.421,11.246,14.44,11.561C14.44,11.561,14.421,11.246,14.44,11.561
					L14.44,11.561L14.44,11.561z M11.776,6.748c-0.123-0.003-0.349,0.029-0.572,0.081c-0.063,0.015-0.086,0.044-0.075,0.107
					c0.021,0.114,0.074,0.213,0.145,0.301c0.296,0.367,0.634,0.694,0.968,1.025c0.335,0.333,0.728,0.595,1.087,0.897
					c0.153,0.129,0.337,0.212,0.495,0.331c0.178,0.134,0.384,0.213,0.582,0.307c0.159,0.076,0.231,0.023,0.237-0.151
					c0.007-0.213-0.007-0.424-0.046-0.633c-0.119-0.646-0.427-1.185-0.924-1.609C13.16,6.967,12.56,6.749,11.776,6.748
					C11.776,6.748,12.56,6.749,11.776,6.748L11.776,6.748L11.776,6.748z M2.475,9.541c0.001,0.015,0.004,0.05,0.007,0.085
					c0.01,0.12,0.079,0.168,0.197,0.134c0.023-0.007,0.045-0.018,0.068-0.025c0.319-0.102,0.589-0.297,0.866-0.473
					c0.32-0.203,0.606-0.456,0.903-0.691C4.822,8.329,5.102,8.056,5.38,7.783c0.238-0.234,0.468-0.482,0.598-0.8
					c0.036-0.088,0.015-0.138-0.079-0.161C5.493,6.724,5.084,6.714,4.676,6.801C3.361,7.079,2.486,8.213,2.475,9.541L2.475,9.541z"
					/>
				<path id="Fill-17" fill="#D5264F" d="M11.709,0.873c0.004-0.003,0.008-0.006,0.012-0.009c-0.004,0.003-0.007,0.007-0.011,0.01
					L11.709,0.873"/>
				<path id="Fill-18" fill="#D5264F" d="M5.699,0.874C5.694,0.872,5.69,0.87,5.685,0.868C5.69,0.87,5.695,0.871,5.699,0.874
					L5.699,0.874"/>
				<path id="Fill-19" fill="#D5264F" d="M15.115,4.44l0.004-0.004C15.119,4.436,15.116,4.441,15.115,4.44L15.115,4.44"/>
				<path id="Fill-20" fill="#D5264F" d="M2.293,4.441L2.29,4.437C2.29,4.437,2.294,4.44,2.293,4.441L2.293,4.441"/>
				<path id="Fill-22" fill="#010000" d="M3.243,2.202C3.232,2.198,3.21,2.203,3.22,2.183c0.007-0.014,0.023-0.005,0.033,0.005
					C3.249,2.192,3.246,2.197,3.243,2.202"/>
				<path id="Fill-23" fill="#010000" d="M14.156,2.188c0.01-0.01,0.026-0.018,0.033-0.004c0.009,0.02-0.012,0.015-0.023,0.019
					L14.156,2.188"/>
			</g>
			<path id="Imported-Layers_2_" sketch:type="MSShapeGroup" opacity="0.7053" fill="#FFFFFF" enable-background="new    " d="
				M27.703,84.805c0.42,0.416,0.84,0.832,1.265,1.253c-0.274,0.282-0.546,0.561-0.823,0.845c0.274,0.281,0.546,0.561,0.824,0.847
				c-0.43,0.42-0.858,0.838-1.278,1.248V87.35c-0.004-0.002-0.008-0.003-0.012-0.005c-0.224,0.231-0.448,0.461-0.675,0.696
				c-0.087-0.091-0.171-0.179-0.252-0.263c0.289-0.289,0.577-0.576,0.866-0.865c-0.298-0.298-0.585-0.585-0.877-0.876
				c0.089-0.093,0.174-0.182,0.262-0.274c0.227,0.234,0.451,0.464,0.686,0.707v-1.66C27.695,84.808,27.699,84.806,27.703,84.805
				C27.703,84.805,27.699,84.806,27.703,84.805L27.703,84.805L27.703,84.805z M28.046,87.342v0.795
				c0.141-0.133,0.275-0.261,0.407-0.385C28.316,87.613,28.184,87.48,28.046,87.342C28.046,87.342,28.184,87.48,28.046,87.342
				L28.046,87.342L28.046,87.342z M28.047,85.677v0.792c0.14-0.133,0.275-0.261,0.406-0.385
				C28.315,85.945,28.182,85.812,28.047,85.677L28.047,85.677z"/>
		</g>
		<g id="Group_1_" transform="translate(359.000000, 129.000000)" sketch:type="MSLayerGroup">
			<path id="Rectangle-9" sketch:type="MSShapeGroup" stroke="#C3C3CC" d="M6,0h32c3.314,0,6,2.686,6,6v81c0,3.314-2.686,6-6,6H6
				c-3.314,0-6-2.686-6-6V6C0,2.686,2.686,0,6,0z"/>
			<rect id="Rectangle-10" x="2" y="13" sketch:type="MSShapeGroup" fill="#F3F2F9" width="40" height="67">
			</rect>
			<circle id="Oval-2" sketch:type="MSShapeGroup" fill="#393939" cx="23" cy="86" r="4">
			</circle>
			<circle id="Oval-2_1_" sketch:type="MSShapeGroup" fill="#393939" cx="22.5" cy="6.5" r="1.5">
			</circle>
		</g>
		<g id="Group_2_" transform="translate(579.000000, 147.000000)" sketch:type="MSLayerGroup">
			<polygon id="Rectangle-8" sketch:type="MSShapeGroup" fill="#3C3A66" points="10.779,5.838 22.5,0.483 36.126,5.271 
				41.416,19.314 40.677,38.681 34.965,52.247 23.988,57.217 5.518,48.498 0.854,28.768 			">
			</polygon>
			<path id="Path-33" sketch:type="MSShapeGroup" fill="#554C8E" d="M13.172,5.315l-0.504,3.139l14.533-2.189l1.963-3.003
				l-6.987-2.224L13.172,5.315z"/>
			<path id="Path-34" sketch:type="MSShapeGroup" fill="#4D4486" d="M27.591,6.729l3.807,1.725l3.78-3.184l-5.574-2.009
				L27.591,6.729z"/>
			<path id="Path-35" sketch:type="MSShapeGroup" fill="#42416F" d="M35.362,5.859L32.02,9l3.009,14.504l4.9,14.361l0.392-19.087
				L35.362,5.859z"/>
			<path id="Path-36" sketch:type="MSShapeGroup" fill="#594F91" d="M12.668,5.271l-0.36,3.703L1.946,29.703l-0.629-2.039
				L11.172,6.62L12.668,5.271z"/>
			<path id="Path-37" sketch:type="MSShapeGroup" fill="#4B4281" d="M5.518,46.27l10.039-6.339l4.835,1.932l3.227,12.045
				L6.273,47.401L5.518,46.27z"/>
			<path id="Path-38" sketch:type="MSShapeGroup" fill="none" d="M5.906,47.511l18.498,6.411l9.698-2.936l5.834-12.815v9.341
				l-15.891,9.341L6.507,50.23L5.906,47.511z"/>
			<path id="Path-39" sketch:type="MSShapeGroup" fill="#53498A" d="M11.046,11.842l4.044,27.951l-9.686,5.899L1.985,30.991
				L11.046,11.842z"/>
			<path id="Path-40" sketch:type="MSShapeGroup" fill="#46407B" d="M35.089,24.93L20.627,41.929l3.755,12.231l9.485-3.148
				l5.878-12.218L35.089,24.93z"/>
			<path id="Path-41" sketch:type="MSShapeGroup" fill="#574E8C" d="M11.5,11.895l4.135,27.371l4.777,2.271l14.552-17.224
				L31.633,9.445l-4.041-2.716L12.833,9L11.5,11.895z"/>
			<circle id="Oval-1" sketch:type="MSShapeGroup" fill="#443E6D" cx="22.5" cy="10.5" r="1.5">
			</circle>
		</g>
		<g id="Rectangle-1-_x2B_-Imported-Layers_1_" transform="translate(53.000000, 87.000000)" sketch:type="MSLayerGroup">
		</g>
	</g>
</g>
<g id="Rectangle-1-_x2B_-Imported-Layers_3_" transform="translate(53.000000, 87.000000)" sketch:type="MSLayerGroup" opacity="0.2">
	<path id="Rectangle-1_1_" sketch:type="MSShapeGroup" fill="#828797" d="M241.107,153.9c0,7.015-8.081,12.701-16.816,12.701H16.708
		c-8.735,0-15.816-5.686-15.816-12.701c0,0,7.162,8.813,15.816,8.813s195.787,0,207.583,0S241.107,153.9,241.107,153.9z"/>
</g>
</svg>
