<?xml version="1.0" encoding="UTF-8" standalone="no"?>
<svg width="1380px" height="1200px" viewBox="0 0 1380 1200" version="1.1" xmlns="http://www.w3.org/2000/svg" xmlns:xlink="http://www.w3.org/1999/xlink" xmlns:sketch="http://www.bohemiancoding.com/sketch/ns">
    <title>TravelRadar_Teaser_04</title>
    <description>Created with Sketch (http://www.bohemiancoding.com/sketch)</description>
    <defs>
        <linearGradient x1="50%" y1="0%" x2="50%" y2="100%" id="linearGradient-1">
            <stop stop-color="#DE136E" offset="0%"></stop>
            <stop stop-color="#670E2E" offset="100%"></stop>
        </linearGradient>
        <filter x="-20%" y="-20%" width="140%" height="140%" filterUnits="objectBoundingBox" id="filter-2">
            <feOffset dx="-1" dy="1" in="SourceAlpha" result="shadowOffsetOuter1"></feOffset>
            <feGaussianBlur stdDeviation="1" in="shadowOffsetOuter1" result="shadowBlurOuter1"></feGaussianBlur>
            <feColorMatrix values="0 0 0 0 0   0 0 0 0 0   0 0 0 0 0  0 0 0 0.7 0" in="shadowBlurOuter1" type="matrix" result="shadowMatrixOuter1"></feColorMatrix>
            <feMerge>
                <feMergeNode in="shadowMatrixOuter1"></feMergeNode>
                <feMergeNode in="SourceGraphic"></feMergeNode>
            </feMerge>
        </filter>
    </defs>
    <g id="Page-1" stroke="none" stroke-width="1" fill="none" fill-rule="evenodd" sketch:type="MSPage">
        <g id="TravelRadar_Teaser_04" sketch:type="MSArtboardGroup">
            <g id="P" sketch:type="MSLayerGroup" transform="translate(466.000000, 56.000000)">
                <path d="M69.991425,0 C31.3362284,0 0,31.330364 0,70.0035015 L0,1038.9965 C0,1077.65836 31.3437291,1109 69.991425,1109 L453.008575,1109 C491.663772,1109 523,1077.65448 523,1039.00811 L523,80.4023115 L523,69.9941078 C523,31.3374295 491.656271,0 453.008575,0 L69.991425,0 Z" id="Rectangle-9" stroke="#9B9B9B" fill="#FFFFFF" sketch:type="MSShapeGroup"></path>
                <circle id="Oval-16" stroke="#D4D4D4" fill="#F4F4F4" sketch:type="MSShapeGroup" cx="262.5" cy="56.5" r="10.5"></circle>
                <circle id="Oval-17" stroke="#9B9B9B" fill="#FFFFFF" sketch:type="MSShapeGroup" cx="263" cy="1028" r="43"></circle>
                <rect id="Rectangle-10" stroke="#D4D4D4" fill="#F4F4F4" sketch:type="MSShapeGroup" x="224" y="93" width="77" height="13" rx="10"></rect>
            </g>
            <rect id="Rectangle-2" fill="url(#linearGradient-1)" sketch:type="MSShapeGroup" x="500" y="206" width="457" height="810"></rect>
            <g id="Group" sketch:type="MSLayerGroup" transform="translate(513.000000, 215.000000)">
                <path d="M3.90185508,3.54198162 C6.07281026,3.54198162 7.83181949,5.30099085 7.83181949,7.4698863 C7.83181949,9.64084149 6.07281026,11.3998507 3.90185508,11.3998507 C1.7308999,11.3998507 -0.028109333,9.64084149 -0.028109333,7.4698863 C-0.028109333,5.30099085 1.7308999,3.54198162 3.90185508,3.54198162" id="Fill-17" fill="#000000" sketch:type="MSShapeGroup"></path>
                <path d="M14.2087429,3.54198162 C16.3796981,3.54198162 18.1387073,5.30099085 18.1387073,7.4698863 C18.1387073,9.64084149 16.3796981,11.3998507 14.2087429,11.3998507 C12.0377877,11.3998507 10.2787785,9.64084149 10.2787785,7.4698863 C10.2787785,5.30099085 12.0377877,3.54198162 14.2087429,3.54198162 L14.2087429,3.54198162 Z M24.5135709,3.54198162 C26.6845261,3.54198162 28.4435354,5.30099085 28.4435354,7.4698863 C28.4435354,9.64084149 26.6845261,11.3998507 24.5135709,11.3998507 C22.3426158,11.3998507 20.5836065,9.64084149 20.5836065,7.4698863 C20.5836065,5.30099085 22.3426158,3.54198162 24.5135709,3.54198162 L24.5135709,3.54198162 Z M34.818399,3.54198162 C36.9893542,3.54198162 38.7483634,5.30099085 38.7483634,7.4698863 C38.7483634,9.64084149 36.9893542,11.3998507 34.818399,11.3998507 C32.6474438,11.3998507 30.8884346,9.64084149 30.8884346,7.4698863 C30.8884346,5.30099085 32.6474438,3.54198162 34.818399,3.54198162 L34.818399,3.54198162 Z M45.1232271,3.54198162 C47.2941823,3.54198162 49.0531915,5.30099085 49.0531915,7.4698863 C49.0531915,9.64084149 47.2941823,11.3998507 45.1232271,11.3998507 C42.9522719,11.3998507 41.1932627,9.64084149 41.1932627,7.4698863 C41.1932627,5.30099085 42.9522719,3.54198162 45.1232271,3.54198162 L45.1232271,3.54198162 Z" id="Stroke-18" stroke="#000000" stroke-width="0.5" sketch:type="MSShapeGroup"></path>
                <path d="M358.080629,2.29996457 L353.361788,13.2824437 L352.294848,8.35019555 L346.509067,7.27215224 L358.080629,2.29996457 Z" id="Fill-19" fill="#000000" sketch:type="MSShapeGroup"></path>
                <path d="M368.074438,3.77885055 L376.59142,11.7191088 L372.331899,15.75 L372.331899,0.553313717 L376.59142,4.58214516 L368.074438,12.0651434 L368.074438,3.77885055 Z M418.146469,12.1557715 C418.146469,13.2927424 417.22371,14.2155013 416.086739,14.2155013 L388.976576,14.2155013 C387.839605,14.2155013 386.916846,13.2927424 386.916846,12.1557715 L386.916846,3.63055 C386.916846,2.49357917 387.839605,1.57082023 388.976576,1.57082023 L416.086739,1.57082023 C417.22371,1.57082023 418.146469,2.49357917 418.146469,3.63055 L418.146469,12.1557715 L418.146469,12.1557715 Z" id="Stroke-20" stroke="#000000" stroke-width="0.5" sketch:type="MSShapeGroup"></path>
                <path d="M417.114544,11.1259067 C417.114544,12.2628775 416.191785,13.1856364 415.054814,13.1856364 L390.004381,13.1856364 C388.86741,13.1856364 387.944651,12.2628775 387.944651,11.1259067 L387.944651,4.66041489 C387.944651,3.52550378 388.86741,2.60274484 390.004381,2.60274484 L415.054814,2.60274484 C416.191785,2.60274484 417.114544,3.52550378 417.114544,4.66041489 L417.114544,11.1259067" id="Fill-21" fill="#000000" sketch:type="MSShapeGroup"></path>
                <path d="M419.236066,5.82416221 C420.476023,5.82416221 421.481171,6.97761089 421.481171,8.40500362 C421.481171,9.8282769 420.476023,10.985845 419.236066,10.985845" id="Fill-22" fill="#000000" sketch:type="MSShapeGroup"></path>
                <path d="M429.577969,1.57082023 L424.91886,8.15165686 L428.066127,8.40500362 L426.241207,14.2155013 L431.528533,6.82519088 L428.224726,6.57184412 L429.577969,1.57082023" id="Fill-23" fill="#000000" sketch:type="MSShapeGroup"></path>
                <path d="M200.972681,5.82416221 C201.423761,5.82416221 201.790393,6.18873438 201.790393,6.64187493 C201.790393,7.09295575 201.423761,7.45752792 200.972681,7.45752792 C200.5216,7.45752792 200.154968,7.09295575 200.154968,6.64187493 C200.154968,6.18873438 200.5216,5.82416221 200.972681,5.82416221" id="Fill-24" fill="#231F1F" sketch:type="MSShapeGroup"></path>
                <path d="M200.972681,9.94362176 C201.423761,9.94362176 201.790393,10.3102537 201.790393,10.7613345 C201.790393,11.214475 201.423761,11.5790472 200.972681,11.5790472 C200.5216,11.5790472 200.154968,11.214475 200.154968,10.7613345 C200.154968,10.3102537 200.5216,9.94362176 200.972681,9.94362176" id="Fill-25" fill="#231F1F" sketch:type="MSShapeGroup"></path>
                <text id="8-13-PM" sketch:type="MSTextLayer" font-family="Helvetica Neue" font-size="14" font-weight="normal" letter-spacing="-0.401333362" fill="#000000">
                    <tspan x="191" y="13">8 13 PM</tspan>
                </text>
            </g>
            <g id="Group" sketch:type="MSLayerGroup" transform="translate(566.000000, 444.000000)" stroke="#FFFFFF" stroke-width="28">
                <ellipse id="Oval" opacity="0.6" sketch:type="MSShapeGroup" cx="166.508447" cy="165.885042" rx="110.391781" ry="110.385042"></ellipse>
                <path d="M166.5,304.633333 C243.129513,304.633333 305.25,242.512846 305.25,165.883333 C305.25,89.2538205 243.129513,27.1333333 166.5,27.1333333 C89.8704872,27.1333333 27.75,89.2538205 27.75,165.883333 C27.75,242.512846 89.8704872,304.633333 166.5,304.633333 Z" id="Oval" opacity="0.3" sketch:type="MSShapeGroup"></path>
                <ellipse id="Oval" opacity="0.0973011364" sketch:type="MSShapeGroup" cx="166.196721" cy="166.80663" rx="166.196721" ry="166.80663"></ellipse>
            </g>
            <g id="path5-+-Rectangle-5" sketch:type="MSLayerGroup" transform="translate(673.000000, 551.000000)">
                <path d="M80.8262887,27.2089436 C80.8292246,26.6817358 80.8292246,26.1135113 80.8292246,25.4957027 L80.8292246,13.3667137 C80.8292246,9.5178294 80.8292246,7.59338713 80.1193654,5.52180788 C79.2272158,3.25998671 77.2963398,1.47826408 74.8451814,0.655028685 C72.6001787,1.07864874e-15 70.5146404,1.07864874e-15 66.3435631,1.07864874e-15 L53.1992429,0 C49.0281655,0 46.9426272,0 44.6976246,0.655028685 C42.2464661,1.47826408 40.3155902,3.25998822 39.4234405,5.52180917 C38.7135814,7.59338713 38.7135814,9.5178294 38.7135814,13.3667137 L38.7135814,25.4957027 C38.7135814,26.1126809 38.7135814,26.6802082 38.7165054,27.2068176 C39.9357516,27.2036915 41.2325299,27.2036915 42.6194547,27.2036915 L76.2409219,27.2036915 C77.8897146,27.2036915 79.4111055,27.2036915 80.8262887,27.2089437 Z" id="path5" stroke="#F7F7F7" stroke-width="12" sketch:type="MSShapeGroup"></path>
                <path d="M22.0098495,17.8702703 C9.8541453,17.8702703 0,27.7284708 0,39.8640991 L0,92.0061712 C0,104.153027 9.84558513,114 22.0098495,114 L97.9901505,114 C110.145855,114 120,104.1418 120,92.0061712 L120,39.8640991 C120,27.7172428 110.154415,17.8702703 97.9901505,17.8702703 L22.0098495,17.8702703 Z M60.7329193,76.5440467 C67.0447453,76.5440467 72.1614907,71.4203868 72.1614907,65.1000313 C72.1614907,58.7796758 67.0447453,53.6560159 60.7329193,53.6560159 C54.4210932,53.6560159 49.3043478,58.7796758 49.3043478,65.1000313 C49.3043478,71.4203868 54.4210932,76.5440467 60.7329193,76.5440467 Z" id="Rectangle-5" fill="#F7F7F7" sketch:type="MSShapeGroup"></path>
            </g>
            <text id="8.7-m" sketch:type="MSTextLayer" font-family="Helvetica Neue" font-size="60" font-weight="bold" sketch:alignment="middle" letter-spacing="-0.860000014" fill="#F7F7F7">
                <tspan x="668.43" y="866">8.7 m</tspan>
            </text>
            <text id="Show-on-lock-screen" opacity="0.335582386" sketch:type="MSTextLayer" font-family="Helvetica Neue" font-size="27" font-weight="bold" letter-spacing="-0.833291948" fill="#FFFFFF">
                <tspan x="634" y="951">Show on lock screen</tspan>
            </text>
            <path d="M592.995353,919 C598.424443,919 582.137172,919 576.708082,919 L563.872162,919 L562.991658,919 C549.189146,919 538,930.187581 538,943.990242 L538,945.112253 L538,945.112253 C538,958.305092 549.200744,969 562.99712,969 L562.99712,969 L594.348973,969 L594.348973,969 C607.411075,969 618,957.810155 618,944 C618,944 617.999999,956.5 618,944 C618.000002,931.5 618,944 618,944 C618,930.192881 606.814108,919 592.999908,919 L592.995353,919 Z" id="Rectangle-28" fill="#54D76A" sketch:type="MSShapeGroup"></path>
            <path d="M593.5,967 C605.926407,967 616,956.926407 616,944.5 C616,932.073593 605.926407,922 593.5,922 C581.073593,922 571,932.073593 571,944.5 C571,956.926407 581.073593,967 593.5,967 Z" id="Oval-29" fill="#FFFFFF" filter="url(#filter-2)" sketch:type="MSShapeGroup"></path>
        </g>
    </g>
</svg>