<?xml version="1.0" encoding="UTF-8" standalone="no"?>
<svg width="2720px" height="1360px" viewBox="0 0 2720 1360" version="1.1" xmlns="http://www.w3.org/2000/svg" xmlns:xlink="http://www.w3.org/1999/xlink" xmlns:sketch="http://www.bohemiancoding.com/sketch/ns">
    <!-- Generator: Sketch 3.0.3 (7891) - http://www.bohemiancoding.com/sketch -->
    <title>post_bringing_context_home</title>
    <desc>Created with Sketch.</desc>
    <defs></defs>
    <g id="Page-1" stroke="none" stroke-width="1" fill="none" fill-rule="evenodd" sketch:type="MSPage">
        <g id="post_bringing_context_home" sketch:type="MSArtboardGroup">
            <g sketch:type="MSLayerGroup" transform="translate(112.000000, 303.000000)" id="Page-1">
                <g sketch:type="MSShapeGroup">
                    <g id="post_bringing_context_home">
                        <path d="M1330.7588,221.421062 L1330.7588,208.850286 C1330.7588,202.77072 1335.68675,197.846235 1341.76567,197.846235 L1381.41794,197.846235 C1387.50858,197.846235 1392.42481,202.772916 1392.42481,208.850286 L1392.42481,273.381989 L1330.7588,221.421062 L1330.7588,221.421062 Z M1408.43802,307.596005 C1410.78343,310.792198 1412.51083,314.288207 1413.61221,317.930868 C1415.84292,322.860454 1417.09121,328.378673 1417.09121,334.20433 L1417.09121,532.254853 L1081.01148,532.254853 L1081.01148,334.20433 C1081.01148,329.748642 1081.74194,325.473339 1083.08356,321.503884 C1084.48991,313.979518 1088.465,306.852086 1094.9438,301.388836 L1220.7366,195.314065 C1233.89034,184.22218 1253.98209,182.549757 1269.22819,190.295212 L1408.43802,307.596005 L1408.43802,307.596005 Z" id="Rectangle-9" stroke="#4A4A4A" stroke-width="2"></path>
                        <g id="Rectangle-12" transform="translate(0.000000, 267.000000)" stroke-width="2" stroke="#000000" stroke-dasharray="5,5" opacity="0.554454291">
                            <path d="M251.914488,100.249985 C253.606514,103.991189 254.553358,108.179123 254.553358,112.60038 L254.553358,262.906581 L-0.367801,262.906581 L-0.367801,112.60038 C-0.367801,109.218832 0.186263,105.974182 1.203897,102.961649 C2.270634,97.251193 5.285797,91.841981 10.20006,87.695764 L105.615652,7.19259 C115.592943,-1.225359 130.832819,-2.494608 142.397199,3.383639 L247.989789,92.406563 C249.768814,94.832245 251.079075,97.485466 251.914488,100.249985 Z"></path>
                        </g>
                        <g id="Rectangle-12-2" transform="translate(362.047145, 264.000000)" stroke="#000000" stroke-width="2" opacity="0.554454291" stroke-dasharray="5,5">
                            <path d="M251.914488,100.249985 C253.606514,103.991189 254.553358,108.179123 254.553358,112.60038 L254.553358,262.906581 L-0.367801,262.906581 L-0.367801,112.60038 C-0.367801,109.218832 0.186263,105.974182 1.203897,102.961649 C2.270634,97.251193 5.285797,91.841981 10.20006,87.695764 L105.615652,7.19259 C115.592943,-1.225359 130.832819,-2.494608 142.397199,3.383639 L247.989789,92.406563 C249.768814,94.832245 251.079075,97.485466 251.914488,100.249985 Z" id="Rectangle-12"></path>
                        </g>
                        <g id="Rectangle-12-3" transform="translate(705.047145, 264.000000)" stroke="#000000" stroke-width="2" opacity="0.554454291" stroke-dasharray="5,5">
                            <path d="M251.914488,100.249985 C253.606514,103.991189 254.553358,108.179123 254.553358,112.60038 L254.553358,262.906581 L-0.367801,262.906581 L-0.367801,112.60038 C-0.367801,109.218832 0.186263,105.974182 1.203897,102.961649 C2.270634,97.251193 5.285797,91.841981 10.20006,87.695764 L105.615652,7.19259 C115.592943,-1.225359 130.832819,-2.494608 142.397199,3.383639 L247.989789,92.406563 C249.768814,94.832245 251.079075,97.485466 251.914488,100.249985 Z" id="Rectangle-12"></path>
                        </g>
                        <g id="Rectangle-12-4" transform="translate(1547.047145, 264.000000)" stroke="#000000" stroke-width="2" opacity="0.554454291" stroke-dasharray="5,5">
                            <path d="M251.914488,100.249985 C253.606514,103.991189 254.553358,108.179123 254.553358,112.60038 L254.553358,262.906581 L-0.367801,262.906581 L-0.367801,112.60038 C-0.367801,109.218832 0.186263,105.974182 1.203897,102.961649 C2.270634,97.251193 5.285797,91.841981 10.20006,87.695764 L105.615652,7.19259 C115.592943,-1.225359 130.832819,-2.494608 142.397199,3.383639 L247.989789,92.406563 C249.768814,94.832245 251.079075,97.485466 251.914488,100.249985 Z" id="Rectangle-12"></path>
                        </g>
                        <g id="Rectangle-12-5" transform="translate(1901.047145, 264.000000)" stroke="#000000" stroke-width="2" opacity="0.554454291" stroke-dasharray="5,5">
                            <path d="M251.914488,100.249985 C253.606514,103.991189 254.553358,108.179123 254.553358,112.60038 L254.553358,262.906581 L-0.367801,262.906581 L-0.367801,112.60038 C-0.367801,109.218832 0.186263,105.974182 1.203897,102.961649 C2.270634,97.251193 5.285797,91.841981 10.20006,87.695764 L105.615652,7.19259 C115.592943,-1.225359 130.832819,-2.494608 142.397199,3.383639 L247.989789,92.406563 C249.768814,94.832245 251.079075,97.485466 251.914488,100.249985 Z" id="Rectangle-12"></path>
                        </g>
                        <g id="Rectangle-12-6" transform="translate(2241.047145, 264.000000)" stroke="#000000" stroke-width="2" opacity="0.554454291" stroke-dasharray="5,5">
                            <path d="M251.914488,100.249985 C253.606514,103.991189 254.553358,108.179123 254.553358,112.60038 L254.553358,262.906581 L-0.367801,262.906581 L-0.367801,112.60038 C-0.367801,109.218832 0.186263,105.974182 1.203897,102.961649 C2.270634,97.251193 5.285797,91.841981 10.20006,87.695764 L105.615652,7.19259 C115.592943,-1.225359 130.832819,-2.494608 142.397199,3.383639 L247.989789,92.406563 C249.768814,94.832245 251.079075,97.485466 251.914488,100.249985 Z" id="Rectangle-12"></path>
                        </g>
                        <g id="Oval-92-+-Oval-90-+-Oval-91" transform="translate(1157.330322, 298.601783)" fill="#6675E9">
                            <circle id="Oval-92" opacity="0.123892257" cx="90.4084741" cy="90.4084741" r="90.4084741"></circle>
                            <circle id="Oval-91" opacity="0.494111474" cx="90.5774815" cy="90.5774815" r="64.5774815"></circle>
                            <circle id="Oval-90" cx="90.268897" cy="90.268897" r="42.268897"></circle>
                        </g>
                        <path d="M1516.40515,12.880833 C1560.89115,29.072983 1595.92702,64.10885 1612.11917,108.59485 C1625,149.335983 1625,187.186783 1625,262.875817 L1625,491.124183 C1625,566.8195 1625,604.657733 1612.11917,645.40515 C1595.92702,689.89115 1560.89115,724.92702 1516.40515,741.11288 C1475.65773,754 1437.8195,754 1362.12418,754 L1133.87582,754 C1058.1805,754 1020.33598,754 979.59485,741.11288 C935.10885,724.92702 900.07298,689.89115 883.88083,645.40515 C871,604.657733 871,566.8195 871,491.124183 L871,262.875817 C871,187.186783 871,149.335983 883.88083,108.59485 C900.07298,64.10885 935.10885,29.072983 979.59485,12.880833 C1020.33598,0 1058.1805,0 1133.87582,0 L1362.12418,0 C1437.8195,0 1475.65773,0 1516.40515,12.880833 Z" id="Icon-Shape-5" stroke="#6675E9" stroke-width="51"></path>
                    </g>
                </g>
            </g>
        </g>
    </g>
</svg>