<?xml version="1.0" encoding="UTF-8" standalone="no"?>
<svg width="680px" height="340px" viewBox="0 0 680 340" version="1.1" xmlns="http://www.w3.org/2000/svg" xmlns:xlink="http://www.w3.org/1999/xlink" xmlns:sketch="http://www.bohemiancoding.com/sketch/ns">
    <!-- Generator: Sketch 3.0.2 (7799) - http://www.bohemiancoding.com/sketch -->
    <title>post_open_beacon_credentials</title>
    <description>Created with Sketch.</description>
    <defs></defs>
    <g id="Page-1" stroke="none" stroke-width="1" fill="none" fill-rule="evenodd" sketch:type="MSPage">
        <g id="post_open_beacon_credentials" sketch:type="MSArtboardGroup">
            <g id="Group" sketch:type="MSLayerGroup" transform="translate(218.000000, 51.000000)">
                <path d="M3.45,71.404 L6.45,71.404 C6.452,53.464 13.713,37.251 25.467,25.492 C37.226,13.738 53.439,6.477 71.379,6.476 C89.319,6.477 105.532,13.738 117.292,25.492 C129.047,37.251 136.308,53.464 136.31,71.404 C136.308,89.345 129.047,105.558 117.292,117.318 C105.532,129.072 89.319,136.333 71.379,136.335 C53.439,136.333 37.226,129.072 25.467,117.318 C13.713,105.558 6.452,89.345 6.45,71.404 L0.45,71.404 C0.449,90.982 8.393,108.734 21.224,121.56 C34.05,134.391 51.801,142.336 71.379,142.335 C90.956,142.336 108.708,134.392 121.535,121.56 C134.366,108.734 142.311,90.982 142.309,71.404 C142.311,51.827 134.366,34.075 121.535,21.25 C108.708,8.419 90.956,0.474 71.379,0.476 C51.801,0.474 34.05,8.419 21.224,21.25 C8.393,34.075 0.449,51.826 0.45,71.404 L3.45,71.404" id="Fill-15" fill="#C6C6C6" sketch:type="MSShapeGroup"></path>
                <path d="M15.949,71.404 L18.949,71.404 C18.951,56.917 24.813,43.829 34.305,34.332 C43.803,24.839 56.891,18.977 71.379,18.976 C85.867,18.977 98.955,24.839 108.452,34.332 C117.945,43.829 123.807,56.917 123.809,71.404 C123.807,85.892 117.945,98.98 108.452,108.477 C98.955,117.97 85.867,123.831 71.379,123.833 C56.891,123.831 43.802,117.97 34.305,108.477 C24.813,98.98 18.951,85.892 18.949,71.404 L12.949,71.404 C12.948,87.53 19.494,102.156 30.063,112.72 C40.627,123.289 55.253,129.834 71.379,129.833 C87.504,129.834 102.131,123.289 112.695,112.72 C123.264,102.156 129.81,87.53 129.808,71.404 C129.81,55.279 123.264,40.653 112.695,30.089 C102.131,19.52 87.505,12.974 71.379,12.976 C55.253,12.974 40.627,19.52 30.063,30.089 C19.494,40.653 12.948,55.279 12.949,71.404 L15.949,71.404" id="Fill-16" fill="#C6C6C6" sketch:type="MSShapeGroup"></path>
                <path d="M45.775,71.404 C45.775,57.264 57.237,45.801 71.379,45.801 C85.52,45.801 96.984,57.264 96.984,71.404 C96.984,85.546 85.52,97.009 71.379,97.009 C57.237,97.009 45.775,85.546 45.775,71.404" id="Fill-17" fill="#878787" sketch:type="MSShapeGroup"></path>
                <path d="M29.822,71.404 L32.822,71.404 C32.824,60.748 37.133,51.127 44.115,44.141 C51.102,37.159 60.722,32.849 71.379,32.848 C82.035,32.849 91.656,37.159 98.642,44.141 C105.625,51.127 109.934,60.748 109.936,71.404 C109.934,82.061 105.625,91.681 98.643,98.667 C91.656,105.649 82.036,109.958 71.379,109.96 C60.722,109.958 51.102,105.649 44.115,98.667 C37.133,91.681 32.824,82.061 32.822,71.404 L26.822,71.404 C26.821,83.699 31.814,94.857 39.873,102.91 C47.926,110.968 59.084,115.961 71.379,115.96 C83.673,115.961 94.832,110.968 102.885,102.91 C110.944,94.857 115.937,83.699 115.935,71.404 C115.937,59.11 110.944,47.952 102.885,39.898 C94.832,31.84 83.673,26.846 71.379,26.848 C59.084,26.846 47.926,31.84 39.872,39.898 C31.814,47.952 26.821,59.11 26.822,71.404 L29.822,71.404" id="Fill-18" fill="#C6C6C6" sketch:type="MSShapeGroup"></path>
                <path d="M244,12 C244,6.478 239.523,2 234,2 L179,2 C173.477,2 169,6.478 169,12 L169,132 C169,137.523 173.477,142 179,142 L234,142 C239.523,142 244,137.523 244,132 L244,12 L244,12 Z M206.166,134.334 C202.856,134.334 200.166,131.644 200.166,128.334 C200.166,125.025 202.856,122.334 206.166,122.334 C209.477,122.334 212.166,125.025 212.166,128.334 C212.166,131.644 209.477,134.334 206.166,134.334 L206.166,134.334 Z M176,21 L237,21 L237,115 L176,115 L176,21 Z" id="Fill-39" fill="#878787" sketch:type="MSShapeGroup"></path>
                <path d="M228.434,49.871 C226.27,47.961 222.966,48.168 221.056,50.332 L202.289,71.6 L194.758,59.882 C193.196,57.453 189.963,56.75 187.535,58.312 C185.106,59.873 184.403,63.106 185.965,65.534 L197.148,82.932 C198.146,84.485 199.83,85.333 201.55,85.333 C202.518,85.333 203.497,85.064 204.371,84.502 C204.607,84.35 204.823,84.178 205.027,83.996 C205.417,83.742 205.783,83.439 206.105,83.073 L228.895,57.248 C230.805,55.084 230.598,51.781 228.434,49.871" id="Fill-40" fill="#C6C6C6" sketch:type="MSShapeGroup"></path>
                <path d="M23.4914109,217.018473 C23.4914109,215.097225 23.7589223,213.37056 24.2939533,211.838426 C24.8289842,210.306292 25.5707205,209.005214 26.5191845,207.935152 C27.4676484,206.86509 28.5924125,206.044316 29.8935105,205.472806 C31.1946085,204.901296 32.6112032,204.615545 34.1433373,204.615545 C35.6025126,204.615545 36.8792718,204.913455 37.9736533,205.509285 C39.0680348,206.105115 39.967846,206.792133 40.6731141,207.57036 L38.9585917,209.503757 C38.3262824,208.822809 37.6271047,208.281706 36.8610377,207.880433 C36.0949706,207.47916 35.2012392,207.278526 34.1798165,207.278526 C33.0367958,207.278526 32.0032288,207.503479 31.0790845,207.953391 C30.1549401,208.403304 29.3645654,209.047763 28.7079365,209.886789 C28.0513076,210.725815 27.5406039,211.741142 27.1758101,212.932802 C26.8110163,214.124462 26.6286221,215.462019 26.6286221,216.945514 C26.6286221,218.453329 26.8049365,219.809125 27.1575705,221.012945 C27.5102045,222.216765 28.0026688,223.244252 28.6349781,224.095437 C29.2672874,224.946623 30.0394227,225.603242 30.9514073,226.065314 C31.8633918,226.527386 32.890879,226.758419 34.0338997,226.758419 C35.2012399,226.758419 36.2165675,226.527386 37.0799129,226.065314 C37.9432583,225.603242 38.7640321,224.946623 39.5422589,224.095437 L41.2567813,225.955877 C40.3083173,227.050258 39.2382715,227.901431 38.0466117,228.509421 C36.8549519,229.11741 35.4930753,229.421401 33.9609413,229.421401 C32.4531268,229.421401 31.0608513,229.14173 29.7840729,228.582379 C28.5072945,228.023029 27.4007698,227.214414 26.4644657,226.156512 C25.5281615,225.09861 24.7985848,223.797532 24.2757137,222.253238 C23.7528425,220.708944 23.4914109,218.96404 23.4914109,217.018473 Z M58.8397557,228.98365 L53.0760421,218.878912 L48.7350173,218.878912 L48.7350173,228.98365 L45.7072437,228.98365 L45.7072437,205.053295 L53.1854797,205.053295 C54.4014591,205.053295 55.5262232,205.168811 56.5598057,205.399847 C57.5933882,205.630884 58.4810398,206.013911 59.2227873,206.548942 C59.9645347,207.083973 60.5421163,207.777071 60.9555493,208.628257 C61.3689823,209.479442 61.5756957,210.525169 61.5756957,211.765468 C61.5756957,213.638076 61.0893112,215.133708 60.1165277,216.252409 C59.1437441,217.371111 57.8426657,218.137166 56.2132533,218.550599 L62.2688005,228.98365 L58.8397557,228.98365 Z M48.7350173,216.398326 L52.7477293,216.398326 C54.6203376,216.398326 56.0551718,216.015298 57.0522749,215.249231 C58.049378,214.483164 58.5479221,213.321922 58.5479221,211.765468 C58.5479221,210.184695 58.049378,209.07817 57.0522749,208.445861 C56.0551718,207.813551 54.6203376,207.497401 52.7477293,207.497401 L48.7350173,207.497401 L48.7350173,216.398326 Z M66.9016589,205.053295 L80.6907965,205.053295 L80.6907965,207.606839 L69.9294325,207.606839 L69.9294325,215.121554 L79.0127533,215.121554 L79.0127533,217.711577 L69.9294325,217.711577 L69.9294325,226.393627 L81.0555885,226.393627 L81.0555885,228.98365 L66.9016589,228.98365 L66.9016589,205.053295 Z M86.1261973,205.053295 L92.1087861,205.053295 C95.8053635,205.053295 98.6142338,206.074702 100.535481,208.117548 C102.456729,210.160393 103.417338,213.09086 103.417338,216.909035 C103.417338,218.805963 103.174146,220.502229 102.687754,221.997883 C102.201362,223.493538 101.483945,224.758138 100.535481,225.79172 C99.5870173,226.825303 98.4196946,227.615678 97.0334781,228.162868 C95.6472615,228.710059 94.0543524,228.98365 92.2547029,228.98365 L86.1261973,228.98365 L86.1261973,205.053295 Z M91.8899109,226.503065 C94.6866635,226.503065 96.7841966,225.664051 98.1825729,223.986 C99.5809492,222.307948 100.280127,219.948984 100.280127,216.909035 C100.280127,213.869087 99.5809492,211.546601 98.1825729,209.941508 C96.7841966,208.336415 94.6866635,207.533881 91.8899109,207.533881 L89.1539709,207.533881 L89.1539709,226.503065 L91.8899109,226.503065 Z M108.560905,205.053295 L122.350043,205.053295 L122.350043,207.606839 L111.588679,207.606839 L111.588679,215.121554 L120.672,215.121554 L120.672,217.711577 L111.588679,217.711577 L111.588679,226.393627 L122.714835,226.393627 L122.714835,228.98365 L108.560905,228.98365 L108.560905,205.053295 Z M127.785444,205.053295 L130.922655,205.053295 L139.568225,220.082725 L142.158248,225.043897 L142.304165,225.043897 C142.231207,223.827917 142.152169,222.569397 142.06705,221.268299 C141.981932,219.967201 141.939373,218.684362 141.939373,217.419744 L141.939373,205.053295 L144.82123,205.053295 L144.82123,228.98365 L141.684019,228.98365 L133.001969,213.917741 L130.411946,208.993049 L130.266029,208.993049 C130.363308,210.209028 130.454505,211.443229 130.539623,212.695687 C130.624742,213.948146 130.6673,215.206666 130.6673,216.471285 L130.6673,228.98365 L127.785444,228.98365 L127.785444,205.053295 Z M156.348657,207.606839 L149.125776,207.606839 L149.125776,205.053295 L166.635792,205.053295 L166.635792,207.606839 L159.41291,207.606839 L159.41291,228.98365 L156.348657,228.98365 L156.348657,207.606839 Z M170.940337,205.053295 L173.968111,205.053295 L173.968111,228.98365 L170.940337,228.98365 L170.940337,205.053295 Z M191.478127,221.68781 L182.759598,221.68781 L180.461408,228.98365 L177.360676,228.98365 L185.459059,205.053295 L188.888104,205.053295 L196.986486,228.98365 L193.739837,228.98365 L191.478127,221.68781 Z M190.712064,219.243704 L189.581208,215.595784 C189.143456,214.258207 188.730029,212.926729 188.340916,211.601311 C187.951802,210.275894 187.562695,208.920097 187.173581,207.533881 L187.027664,207.533881 C186.662871,208.920097 186.285923,210.275894 185.896809,211.601311 C185.507696,212.926729 185.094269,214.258207 184.656516,215.595784 L183.525661,219.243704 L190.712064,219.243704 Z M200.379052,205.053295 L203.406825,205.053295 L203.406825,226.393627 L213.876356,226.393627 L213.876356,228.98365 L200.379052,228.98365 L200.379052,205.053295 Z M216.612296,223.767125 C217.463481,224.666949 218.466649,225.390446 219.62183,225.937637 C220.77701,226.484828 221.974732,226.758419 223.215031,226.758419 C224.795804,226.758419 226.023925,226.399711 226.89943,225.682283 C227.774935,224.964855 228.212681,224.022485 228.212681,222.855145 C228.212681,222.247155 228.109325,221.730371 227.902608,221.304779 C227.695892,220.879186 227.416221,220.514398 227.063586,220.210403 C226.710952,219.906408 226.291446,219.632817 225.805054,219.389621 C225.318662,219.146425 224.795799,218.891073 224.236448,218.623557 L220.807404,217.12791 C220.248053,216.884714 219.676551,216.592884 219.092881,216.252409 C218.509211,215.911935 217.986348,215.498508 217.524276,215.012117 C217.062204,214.525725 216.685256,213.948143 216.39342,213.279355 C216.101585,212.610566 215.95567,211.838431 215.95567,210.962925 C215.95567,210.063101 216.144144,209.224087 216.521098,208.445861 C216.898051,207.667634 217.420915,206.992775 218.089703,206.421265 C218.758492,205.849755 219.548867,205.405929 220.460851,205.089774 C221.372836,204.77362 222.376004,204.615545 223.470385,204.615545 C224.905241,204.615545 226.230639,204.889136 227.446618,205.436327 C228.662597,205.983517 229.696164,206.694855 230.54735,207.57036 L228.905786,209.540237 C228.176198,208.834969 227.367584,208.281706 226.479919,207.880433 C225.592254,207.47916 224.589086,207.278526 223.470385,207.278526 C222.132808,207.278526 221.056682,207.588596 220.241976,208.208746 C219.42727,208.828895 219.019923,209.686148 219.019923,210.780529 C219.019923,211.3642 219.135439,211.856664 219.366475,212.257937 C219.597511,212.65921 219.907581,213.011839 220.296695,213.315834 C220.685808,213.619829 221.111395,213.88734 221.573467,214.118376 C222.035539,214.349412 222.509764,214.562206 222.996156,214.756762 L226.388721,216.21593 C227.06967,216.507765 227.714129,216.842155 228.322119,217.219108 C228.930109,217.596062 229.452972,218.033808 229.890724,218.532359 C230.328477,219.030911 230.675026,219.614572 230.930382,220.283361 C231.185737,220.95215 231.313413,221.724285 231.313413,222.59979 C231.313413,223.548254 231.124939,224.435906 230.747986,225.262772 C230.371032,226.089638 229.829929,226.813135 229.124661,227.433284 C228.419393,228.053434 227.56822,228.539818 226.571117,228.892452 C225.574014,229.245086 224.44317,229.421401 223.178552,229.421401 C221.5005,229.421401 219.94407,229.105251 218.509214,228.472941 C217.074358,227.840632 215.834078,226.9773 214.788336,225.882918 L216.612296,223.767125 Z" id="CREDENTIALS" fill="#878787" sketch:type="MSShapeGroup"></path>
                <path d="M28.2555944,189.936315 C26.7477799,189.936315 25.367664,189.644484 24.1152052,189.060814 C22.8627464,188.477144 21.7866208,187.64421 20.886796,186.561989 C19.9869712,185.479767 19.2877936,184.166529 18.789242,182.622235 C18.2906904,181.077941 18.0414184,179.345196 18.0414184,177.423949 C18.0414184,175.502702 18.2906904,173.782116 18.789242,172.262142 C19.2877936,170.742168 19.9869712,169.453249 20.886796,168.395347 C21.7866208,167.337445 22.8627464,166.528831 24.1152052,165.96948 C25.367664,165.41013 26.7477799,165.130459 28.2555944,165.130459 C29.7634089,165.130459 31.1435248,165.416209 32.3959836,165.98772 C33.6484424,166.55923 34.7306478,167.373924 35.6426324,168.431826 C36.554617,169.489728 37.2598744,170.778647 37.758426,172.298621 C38.2569776,173.818596 38.5062496,175.527021 38.5062496,177.423949 C38.5062496,179.345196 38.2569776,181.077941 37.758426,182.622235 C37.2598744,184.166529 36.554617,185.479767 35.6426324,186.561989 C34.7306478,187.64421 33.6484424,188.477144 32.3959836,189.060814 C31.1435248,189.644484 29.7634089,189.936315 28.2555944,189.936315 Z M28.2555944,187.273333 C29.3256563,187.273333 30.2923454,187.0423 31.1556908,186.580228 C32.0190362,186.118156 32.7607725,185.455457 33.380922,184.592112 C34.0010715,183.728766 34.4813762,182.695199 34.8218504,181.49138 C35.1623246,180.28756 35.3325592,178.931763 35.3325592,177.423949 C35.3325592,175.940454 35.1623246,174.602897 34.8218504,173.411237 C34.4813762,172.219577 34.0010715,171.210329 33.380922,170.383463 C32.7607725,169.556597 32.0190362,168.918218 31.1556908,168.468305 C30.2923454,168.018393 29.3256563,167.79344 28.2555944,167.79344 C27.1855325,167.79344 26.2188434,168.018393 25.355498,168.468305 C24.4921526,168.918218 23.7504163,169.556597 23.1302668,170.383463 C22.5101173,171.210329 22.0298126,172.219577 21.6893384,173.411237 C21.3488642,174.602897 21.1786296,175.940454 21.1786296,177.423949 C21.1786296,178.931763 21.3488642,180.28756 21.6893384,181.49138 C22.0298126,182.695199 22.5101173,183.728766 23.1302668,184.592112 C23.7504163,185.455457 24.4921526,186.118156 25.355498,186.580228 C26.2188434,187.0423 27.1855325,187.273333 28.2555944,187.273333 Z M43.6498168,165.568209 L50.982136,165.568209 C52.2953938,165.568209 53.4991953,165.689805 54.5935768,165.933001 C55.6879583,166.176197 56.6181686,166.571384 57.3842356,167.118575 C58.1503026,167.665766 58.7461236,168.389263 59.1717164,169.289087 C59.5973092,170.188912 59.8101024,171.295437 59.8101024,172.608695 C59.8101024,173.873313 59.5973092,174.967678 59.1717164,175.891823 C58.7461236,176.815967 58.1442228,177.582022 57.365996,178.190012 C56.5877692,178.798002 55.6575589,179.253987 54.5753372,179.557982 C53.4931155,179.861977 52.2953938,180.013972 50.982136,180.013972 L46.6775904,180.013972 L46.6775904,189.498564 L43.6498168,189.498564 L43.6498168,165.568209 Z M50.617344,177.533387 C52.7088286,177.533387 54.2591791,177.138199 55.268442,176.347813 C56.2777049,175.557426 56.7823288,174.311066 56.7823288,172.608695 C56.7823288,170.882004 56.2716251,169.684282 55.2502024,169.015493 C54.2287797,168.346705 52.684509,168.012315 50.617344,168.012315 L46.6775904,168.012315 L46.6775904,177.533387 L50.617344,177.533387 Z M64.661836,165.568209 L78.4509736,165.568209 L78.4509736,168.121753 L67.6896096,168.121753 L67.6896096,175.636468 L76.7729304,175.636468 L76.7729304,178.226491 L67.6896096,178.226491 L67.6896096,186.908541 L78.8157656,186.908541 L78.8157656,189.498564 L64.661836,189.498564 L64.661836,165.568209 Z M83.8863744,165.568209 L87.0235856,165.568209 L95.669156,180.597639 L98.2591792,185.558811 L98.405096,185.558811 C98.3321372,184.342831 98.2530998,183.084311 98.1679812,181.783213 C98.0828626,180.482115 98.040304,179.199276 98.040304,177.934658 L98.040304,165.568209 L100.922161,165.568209 L100.922161,189.498564 L97.7849496,189.498564 L89.1029,174.432655 L86.5128768,169.507963 L86.36696,169.507963 C86.4642384,170.723942 86.5554354,171.958143 86.640554,173.210601 C86.7256726,174.46306 86.7682312,175.72158 86.7682312,176.986199 L86.7682312,189.498564 L83.8863744,189.498564 L83.8863744,165.568209 Z M114.857215,165.568209 L121.970659,165.568209 C123.186639,165.568209 124.299243,165.677645 125.308506,165.896522 C126.317769,166.115398 127.181101,166.455867 127.898529,166.917939 C128.615957,167.380012 129.175299,167.981912 129.576572,168.72366 C129.977846,169.465407 130.178479,170.359139 130.178479,171.404881 C130.178479,172.596541 129.83801,173.672666 129.157062,174.63329 C128.476113,175.593914 127.430387,176.256613 126.01985,176.621407 L126.01985,176.767323 C127.770861,177.034839 129.132737,177.642819 130.105521,178.591283 C131.078304,179.539747 131.564689,180.840826 131.564689,182.494558 C131.564689,183.661898 131.345816,184.683305 130.908063,185.558811 C130.470311,186.434316 129.85017,187.163892 129.047624,187.747563 C128.245078,188.331233 127.284468,188.768979 126.165767,189.060814 C125.047066,189.352649 123.818945,189.498564 122.481368,189.498564 L114.857215,189.498564 L114.857215,165.568209 Z M121.423471,175.782385 C123.490636,175.782385 124.968029,175.429756 125.855694,174.724488 C126.743359,174.01922 127.187185,172.997813 127.187185,171.660235 C127.187185,170.346978 126.71904,169.404608 125.782736,168.833097 C124.846431,168.261587 123.441996,167.975836 121.569388,167.975836 L117.884989,167.975836 L117.884989,175.782385 L121.423471,175.782385 Z M122.043618,187.090937 C124.110783,187.090937 125.715851,186.707909 126.858872,185.941842 C128.001893,185.175775 128.573394,183.978053 128.573394,182.348641 C128.573394,180.865146 128.014052,179.776861 126.895351,179.083753 C125.77665,178.390644 124.159422,178.044095 122.043618,178.044095 L117.884989,178.044095 L117.884989,187.090937 L122.043618,187.090937 Z M136.306985,165.568209 L150.096122,165.568209 L150.096122,168.121753 L139.334758,168.121753 L139.334758,175.636468 L148.418079,175.636468 L148.418079,178.226491 L139.334758,178.226491 L139.334758,186.908541 L150.460914,186.908541 L150.460914,189.498564 L136.306985,189.498564 L136.306985,165.568209 Z M166.475283,182.202724 L157.756754,182.202724 L155.458565,189.498564 L152.357833,189.498564 L160.456215,165.568209 L163.88526,165.568209 L171.983642,189.498564 L168.736994,189.498564 L166.475283,182.202724 Z M165.70922,179.758618 L164.578365,176.110698 C164.140612,174.77312 163.727185,173.441643 163.338072,172.116225 C162.948959,170.790808 162.559851,169.435011 162.170738,168.048795 L162.024821,168.048795 C161.660027,169.435011 161.283079,170.790808 160.893966,172.116225 C160.504852,173.441643 160.091425,174.77312 159.653673,176.110698 L158.522818,179.758618 L165.70922,179.758618 Z M173.260414,177.533387 C173.260414,175.612139 173.527926,173.885474 174.062957,172.35334 C174.597988,170.821206 175.339724,169.520128 176.288188,168.450066 C177.236652,167.380004 178.361416,166.55923 179.662514,165.98772 C180.963612,165.416209 182.380207,165.130459 183.912341,165.130459 C185.371516,165.130459 186.648275,165.428369 187.742657,166.024199 C188.837038,166.620029 189.73685,167.307047 190.442118,168.085274 L188.727595,170.018671 C188.095286,169.337723 187.396108,168.79662 186.630041,168.395347 C185.863974,167.994074 184.970243,167.79344 183.94882,167.79344 C182.805799,167.79344 181.772232,168.018393 180.848088,168.468305 C179.923944,168.918218 179.133569,169.562677 178.47694,170.401703 C177.820311,171.240729 177.309607,172.256056 176.944814,173.447716 C176.58002,174.639376 176.397626,175.976933 176.397626,177.460428 C176.397626,178.968243 176.57394,180.324039 176.926574,181.527859 C177.279208,182.731679 177.771672,183.759166 178.403982,184.610351 C179.036291,185.461537 179.808426,186.118156 180.720411,186.580228 C181.632395,187.0423 182.659883,187.273333 183.802903,187.273333 C184.970243,187.273333 185.985571,187.0423 186.848916,186.580228 C187.712262,186.118156 188.533036,185.461537 189.311262,184.610351 L191.025785,186.470791 C190.077321,187.565172 189.007275,188.416345 187.815615,189.024335 C186.623955,189.632324 185.262079,189.936315 183.729945,189.936315 C182.22213,189.936315 180.829855,189.656644 179.553076,189.097293 C178.276298,188.537942 177.169773,187.729328 176.233469,186.671426 C175.297165,185.613524 174.567588,184.312446 174.044717,182.768152 C173.521846,181.223858 173.260414,179.478954 173.260414,177.533387 Z M202.224899,189.936315 C200.717085,189.936315 199.336969,189.644484 198.08451,189.060814 C196.832051,188.477144 195.755926,187.64421 194.856101,186.561989 C193.956276,185.479767 193.257098,184.166529 192.758547,182.622235 C192.259995,181.077941 192.010723,179.345196 192.010723,177.423949 C192.010723,175.502702 192.259995,173.782116 192.758547,172.262142 C193.257098,170.742168 193.956276,169.453249 194.856101,168.395347 C195.755926,167.337445 196.832051,166.528831 198.08451,165.96948 C199.336969,165.41013 200.717085,165.130459 202.224899,165.130459 C203.732714,165.130459 205.11283,165.416209 206.365288,165.98772 C207.617747,166.55923 208.699953,167.373924 209.611937,168.431826 C210.523922,169.489728 211.229179,170.778647 211.727731,172.298621 C212.226282,173.818596 212.475554,175.527021 212.475554,177.423949 C212.475554,179.345196 212.226282,181.077941 211.727731,182.622235 C211.229179,184.166529 210.523922,185.479767 209.611937,186.561989 C208.699953,187.64421 207.617747,188.477144 206.365288,189.060814 C205.11283,189.644484 203.732714,189.936315 202.224899,189.936315 Z M202.224899,187.273333 C203.294961,187.273333 204.26165,187.0423 205.124996,186.580228 C205.988341,186.118156 206.730077,185.455457 207.350227,184.592112 C207.970376,183.728766 208.450681,182.695199 208.791155,181.49138 C209.131629,180.28756 209.301864,178.931763 209.301864,177.423949 C209.301864,175.940454 209.131629,174.602897 208.791155,173.411237 C208.450681,172.219577 207.970376,171.210329 207.350227,170.383463 C206.730077,169.556597 205.988341,168.918218 205.124996,168.468305 C204.26165,168.018393 203.294961,167.79344 202.224899,167.79344 C201.154837,167.79344 200.188148,168.018393 199.324803,168.468305 C198.461457,168.918218 197.719721,169.556597 197.099572,170.383463 C196.479422,171.210329 195.999117,172.219577 195.658643,173.411237 C195.318169,174.602897 195.147934,175.940454 195.147934,177.423949 C195.147934,178.931763 195.318169,180.28756 195.658643,181.49138 C195.999117,182.695199 196.479422,183.728766 197.099572,184.592112 C197.719721,185.455457 198.461457,186.118156 199.324803,186.580228 C200.188148,187.0423 201.154837,187.273333 202.224899,187.273333 Z M217.619122,165.568209 L220.756333,165.568209 L229.401903,180.597639 L231.991926,185.558811 L232.137843,185.558811 C232.064884,184.342831 231.985847,183.084311 231.900728,181.783213 C231.81561,180.482115 231.773051,179.199276 231.773051,177.934658 L231.773051,165.568209 L234.654908,165.568209 L234.654908,189.498564 L231.517697,189.498564 L222.835647,174.432655 L220.245624,169.507963 L220.099707,169.507963 C220.196986,170.723942 220.288183,171.958143 220.373301,173.210601 C220.45842,174.46306 220.500978,175.72158 220.500978,176.986199 L220.500978,189.498564 L217.619122,189.498564 L217.619122,165.568209 Z" id="OPEN-BEACON" fill="#878787" sketch:type="MSShapeGroup"></path>
            </g>
        </g>
    </g>
</svg>