<?xml version="1.0" encoding="UTF-8" standalone="no"?>
<svg width="1360px" height="680px" viewBox="0 0 1360 680" version="1.1" xmlns="http://www.w3.org/2000/svg" xmlns:xlink="http://www.w3.org/1999/xlink" xmlns:sketch="http://www.bohemiancoding.com/sketch/ns">
    <!-- Generator: Sketch 3.0.1 (7597) - http://www.bohemiancoding.com/sketch -->
    <title>post_launch-here_1-2_landscape</title>
    <description>Created with Sketch.</description>
    <defs>
        <rect id="path-1" x="278" y="116" width="811" height="459"></rect>
        <filter x="-50%" y="-50%" width="200%" height="200%" filterUnits="objectBoundingBox" id="filter-3">
            <feOffset dx="-1" dy="1" in="SourceAlpha" result="shadowOffsetOuter1"></feOffset>
            <feGaussianBlur stdDeviation="1" in="shadowOffsetOuter1" result="shadowBlurOuter1"></feGaussianBlur>
            <feColorMatrix values="0 0 0 0 0   0 0 0 0 0   0 0 0 0 0  0 0 0 0.229144646 0" in="shadowBlurOuter1" type="matrix" result="shadowMatrixOuter1"></feColorMatrix>
            <feMerge>
                <feMergeNode in="shadowMatrixOuter1"></feMergeNode>
                <feMergeNode in="SourceGraphic"></feMergeNode>
            </feMerge>
        </filter>
    </defs>
    <g id="Page-1" stroke="none" stroke-width="1" fill="none" fill-rule="evenodd" sketch:type="MSPage">
        <g id="post_launch-here_1-2_landscape" sketch:type="MSArtboardGroup">
            <g id="Imported-Layers" sketch:type="MSLayerGroup" transform="translate(129.000000, 86.000000)" stroke="#B5B5B5">
                <g id="Stroke-26-+-Path-+-Path" transform="translate(553.500000, 260.500000) rotate(-90.000000) translate(-553.500000, -260.500000) translate(293.000000, -293.000000)" sketch:type="MSShapeGroup">
                    <path d="M520.392,69.8045275 C520.392,31.4961225 489.337227,0.442 451.029473,0.442 L69.2498393,0.442 C30.9420844,0.442 -0.112688145,31.4961225 -0.112688145,69.8045275 L-0.112688145,1037.63954 C-0.112688145,1075.9462 30.9424094,1107 69.2498393,1107 L451.029473,1107 C489.336902,1107 520.392,1075.9462 520.392,1037.63954 L520.392,69.8045275 Z M486.955121,151.840727 L485.919859,956.632393 L33.3241911,955.597131 L34.3594527,150.805466 L486.955121,151.840727 Z M32.2889295,956.632393 L486.955121,957.667655 L487.990382,150.805466 L33.3241911,149.770204 L32.2889295,956.632393 Z M302.77587,1026.36969 C302.77587,1049.52819 284.002141,1068.30192 260.843634,1068.30192 C237.685127,1068.30192 218.911398,1049.52819 218.911398,1026.36969 C218.911398,1003.21118 237.685127,984.437449 260.843634,984.437449 C284.002141,984.437449 302.77587,1003.21118 302.77587,1026.36969 Z M269.109162,54.3045907 C269.109162,58.8684798 265.408092,62.5701194 260.843634,62.5701194 C256.279176,62.5701194 252.578105,58.8684798 252.578105,54.3045907 C252.578105,49.7393818 256.278425,46.0390621 260.843634,46.0390621 C265.408843,46.0390621 269.109162,49.7393818 269.109162,54.3045907 Z M293.444022,104.053052 L227.199702,104.053052 C223.768591,104.053052 220.986062,101.269425 220.986062,97.8394117 C220.986062,94.40623 223.767618,91.6257715 227.199702,91.6257715 L293.444022,91.6257715 C296.876106,91.6257715 299.657662,94.40623 299.657662,97.8394117 C299.657662,101.269974 296.874584,104.053052 293.444022,104.053052 Z" id="Stroke-26"></path>
                </g>
            </g>
            <mask id="mask-2" sketch:name="Rectangle 10" fill="white">
                <use xlink:href="#path-1"></use>
            </mask>
            <use id="Rectangle-10" stroke="#B5B5B5" fill="#50E3C2" sketch:type="MSShapeGroup" xlink:href="#path-1"></use>
            <g id="Statusbar" sketch:type="MSLayerGroup" mask="url(#mask-2)">
                <g transform="translate(284.000000, 121.000000)">
                    <rect id="Rectangle-17" fill="#50E3C2" sketch:type="MSShapeGroup" x="0" y="0" width="797" height="27"></rect>
                    <g id="Group-2" stroke-width="1" fill="none" sketch:type="MSLayerGroup" transform="translate(9.000000, 4.000000)">
                        <g id="Fill-17-+-Stroke-18" transform="translate(0.000000, 4.000000)" sketch:type="MSShapeGroup">
                            <path d="M3.90185508,-0.458018379 C6.07281026,-0.458018379 7.83181949,1.30099085 7.83181949,3.4698863 C7.83181949,5.64084149 6.07281026,7.39985071 3.90185508,7.39985071 C1.7308999,7.39985071 -0.028109333,5.64084149 -0.028109333,3.4698863 C-0.028109333,1.30099085 1.7308999,-0.458018379 3.90185508,-0.458018379" id="Fill-17" fill="#000000"></path>
                            <path d="M14.2087429,-0.458018379 C16.3796981,-0.458018379 18.1387073,1.30099085 18.1387073,3.4698863 C18.1387073,5.64084149 16.3796981,7.39985071 14.2087429,7.39985071 C12.0377877,7.39985071 10.2787785,5.64084149 10.2787785,3.4698863 C10.2787785,1.30099085 12.0377877,-0.458018379 14.2087429,-0.458018379 L14.2087429,-0.458018379 Z M24.5135709,-0.458018379 C26.6845261,-0.458018379 28.4435354,1.30099085 28.4435354,3.4698863 C28.4435354,5.64084149 26.6845261,7.39985071 24.5135709,7.39985071 C22.3426158,7.39985071 20.5836065,5.64084149 20.5836065,3.4698863 C20.5836065,1.30099085 22.3426158,-0.458018379 24.5135709,-0.458018379 L24.5135709,-0.458018379 Z M34.818399,-0.458018379 C36.9893542,-0.458018379 38.7483634,1.30099085 38.7483634,3.4698863 C38.7483634,5.64084149 36.9893542,7.39985071 34.818399,7.39985071 C32.6474438,7.39985071 30.8884346,5.64084149 30.8884346,3.4698863 C30.8884346,1.30099085 32.6474438,-0.458018379 34.818399,-0.458018379 L34.818399,-0.458018379 Z M45.1232271,-0.458018379 C47.2941823,-0.458018379 49.0531915,1.30099085 49.0531915,3.4698863 C49.0531915,5.64084149 47.2941823,7.39985071 45.1232271,7.39985071 C42.9522719,7.39985071 41.1932627,5.64084149 41.1932627,3.4698863 C41.1932627,1.30099085 42.9522719,-0.458018379 45.1232271,-0.458018379 L45.1232271,-0.458018379 Z" id="Stroke-18" stroke="#000000" stroke-width="0.5"></path>
                        </g>
                        <g id="Group" transform="translate(704.000000, 1.000000)" sketch:type="MSShapeGroup">
                            <path d="M11.0806289,1.29996457 L6.36178796,12.2824437 L5.2948479,7.35019555 L-0.490933004,6.27215224 L11.0806289,1.29996457 Z" id="Fill-19" fill="#000000"></path>
                            <path d="M21.0744377,2.77885055 L29.5914204,10.7191088 L25.3318992,14.75 L25.3318992,-0.446686283 L29.5914204,3.58214516 L21.0744377,11.0651434 L21.0744377,2.77885055 Z M71.1464686,11.1557715 C71.1464686,12.2927424 70.2237096,13.2155013 69.0867388,13.2155013 L41.9765755,13.2155013 C40.8396047,13.2155013 39.9168457,12.2927424 39.9168457,11.1557715 L39.9168457,2.63055 C39.9168457,1.49357917 40.8396047,0.570820226 41.9765755,0.570820226 L69.0867388,0.570820226 C70.2237096,0.570820226 71.1464686,1.49357917 71.1464686,2.63055 L71.1464686,11.1557715 L71.1464686,11.1557715 Z" id="Stroke-20" stroke="#000000" stroke-width="0.5"></path>
                            <path d="M70.114544,10.1259067 C70.114544,11.2628775 69.191785,12.1856364 68.0548142,12.1856364 L43.0043807,12.1856364 C41.8674098,12.1856364 40.9446509,11.2628775 40.9446509,10.1259067 L40.9446509,3.66041489 C40.9446509,2.52550378 41.8674098,1.60274484 43.0043807,1.60274484 L68.0548142,1.60274484 C69.191785,1.60274484 70.114544,2.52550378 70.114544,3.66041489 L70.114544,10.1259067" id="Fill-21" fill="#000000"></path>
                            <path d="M72.2360656,4.82416221 C73.476023,4.82416221 74.4811711,5.97761089 74.4811711,7.40500362 C74.4811711,8.8282769 73.476023,9.98584503 72.2360656,9.98584503" id="Fill-22" fill="#000000"></path>
                        </g>
                        <g id="Fill-24-+-Fill-25-+-8-13-PM" transform="translate(365.000000, 0.000000)">
                            <path d="M9.97268053,5.82416221 C10.4237613,5.82416221 10.7903932,6.18873438 10.7903932,6.64187493 C10.7903932,7.09295575 10.4237613,7.45752792 9.97268053,7.45752792 C9.52159971,7.45752792 9.15496781,7.09295575 9.15496781,6.64187493 C9.15496781,6.18873438 9.52159971,5.82416221 9.97268053,5.82416221" id="Fill-24" fill="#231F1F" sketch:type="MSShapeGroup"></path>
                            <path d="M9.97268053,9.94362176 C10.4237613,9.94362176 10.7903932,10.3102537 10.7903932,10.7613345 C10.7903932,11.214475 10.4237613,11.5790472 9.97268053,11.5790472 C9.52159971,11.5790472 9.15496781,11.214475 9.15496781,10.7613345 C9.15496781,10.3102537 9.52159971,9.94362176 9.97268053,9.94362176" id="Fill-25" fill="#231F1F" sketch:type="MSShapeGroup"></path>
                            <text id="8-13-PM" sketch:type="MSTextLayer" font-family="Helvetica Neue" font-size="14" font-weight="normal" letter-spacing="-0.401333362" fill="#000000">
                                <tspan x="0" y="13">8 13 PM</tspan>
                            </text>
                        </g>
                    </g>
                </g>
            </g>
            <g id="Footer" sketch:type="MSLayerGroup" mask="url(#mask-2)">
                <g transform="translate(279.000000, 501.000000)">
                    <text id="Shortcuts-on-lock-sc" fill="none" sketch:type="MSTextLayer" font-family="Helvetica Neue" font-size="22" font-weight="bold" sketch:alignment="middle" line-spacing="36">
                        <tspan x="274.292" y="21" fill="#FFFFFF">Shortcuts on lock screen</tspan>
                    </text>
                    <path d="M78.120934,0 C82.8713881,0 68.6200259,0 63.8695718,0 L52.6381417,0 C46.2587611,5.91716647e-07 51.5071602,8.67508851e-08 51.5071602,8.67508851e-08 C39.6290836,3.88396942e-08 30,9.62131937 30,21.4916085 L30,22.4565378 L30,22.4565378 C30,33.8023787 39.6254173,43 51.4928418,43 L51.8724796,43 L79.3053515,43 L79.3053515,43 C90.7346903,43 99.9999996,33.3767329 100,21.5078735 C100,21.5078735 99.9999992,32.25 100,21.5 C100.000001,10.75 100,21.4921265 100,21.4921265 C100,9.62235278 90.3716842,0 78.5006862,0 L78.120934,0 Z" id="Rectangle-28" fill="#54D76A" fill-rule="evenodd" sketch:type="MSShapeGroup"></path>
                    <path d="M78.5,42 C89.2695532,42 98,33.2695532 98,22.5 C98,11.7304468 89.2695532,3 78.5,3 C67.7304468,3 59,11.7304468 59,22.5 C59,33.2695532 67.7304468,42 78.5,42 Z" id="Oval-29" fill="#FFFFFF" fill-rule="evenodd" filter="url(#filter-3)" sketch:type="MSShapeGroup"></path>
                </g>
            </g>
            <g id="Beacon_01" sketch:type="MSLayerGroup" mask="url(#mask-2)">
                <g transform="translate(320.000000, 203.000000)">
                    <path d="M248.506098,141 C248.506098,83.3020258 201.419929,36.5555556 143.368902,36.5555556 C85.3178758,36.5555556 38.2317073,83.3020258 38.2317073,141 C38.2317073,198.697974 85.3178758,245.444444 143.368902,245.444444 C201.419929,245.444444 248.506098,198.697974 248.506098,141 Z M50.3963415,141.87037 C50.3963415,90.4512143 92.3959295,48.7407407 144.237805,48.7407407 C196.07968,48.7407407 238.079268,90.4512143 238.079268,141.87037 C238.079268,193.289526 196.07968,235 144.237805,235 C92.3959295,235 50.3963415,193.289526 50.3963415,141.87037 Z" id="Oval" fill="#FFFFFF" fill-rule="evenodd" sketch:type="MSShapeGroup"></path>
                    <path d="M265.884146,141 C265.884146,73.6887489 210.629007,19.1481481 142.5,19.1481481 C74.3709934,19.1481481 19.1158537,73.6887489 19.1158537,141 C19.1158537,208.311251 74.3709934,262.851852 142.5,262.851852 C210.629007,262.851852 265.884146,208.311251 265.884146,141 Z M31.2804878,141.87037 C31.2804878,80.8367872 81.4499819,31.3333333 143.368902,31.3333333 C205.287823,31.3333333 255.457317,80.8367872 255.457317,141.87037 C255.457317,202.903954 205.287823,252.407407 143.368902,252.407407 C81.4499819,252.407407 31.2804878,202.903954 31.2804878,141.87037 Z" id="Oval" opacity="0.6" fill="#FFFFFF" fill-rule="evenodd" sketch:type="MSShapeGroup"></path>
                    <path d="M285,141 C285,63.1124507 221.185401,0 142.5,0 C63.8145989,0 0,63.1124507 0,141 C0,218.887549 63.8145989,282 142.5,282 C221.185401,282 285,218.887549 285,141 Z M12.1646341,141.87037 C12.1646341,70.2626239 70.8915906,12.1851852 143.368902,12.1851852 C215.846214,12.1851852 274.573171,70.2626239 274.573171,141.87037 C274.573171,213.478117 215.846214,271.555556 143.368902,271.555556 C70.8915906,271.555556 12.1646341,213.478117 12.1646341,141.87037 Z" id="Oval" opacity="0.2" fill="#FFFFFF" fill-rule="evenodd" sketch:type="MSShapeGroup"></path>
                    <text id="Sofa" fill="none" sketch:type="MSTextLayer" font-family="Helvetica Neue" font-size="29" font-weight="bold" sketch:alignment="middle" line-spacing="36">
                        <tspan x="112.5785" y="135" fill="#FFFFFF">Sofa</tspan>
                    </text>
                    <text id="Remote" opacity="0.5" fill="none" sketch:type="MSTextLayer" font-family="Helvetica Neue" font-size="29" font-weight="bold" sketch:alignment="middle" line-spacing="36">
                        <tspan x="89.7845" y="170" fill="#FFFFFF">Remote</tspan>
                    </text>
                </g>
            </g>
            <g id="Beacon_02" sketch:type="MSLayerGroup" mask="url(#mask-2)">
                <g transform="translate(637.000000, 244.000000)">
                    <text id="Bed" stroke="none" sketch:type="MSTextLayer" font-family="Helvetica Neue" font-size="29" font-weight="bold" sketch:alignment="middle" line-spacing="36">
                        <tspan x="73.6095" y="94" fill="#FFFFFF">Bed</tspan>
                    </text>
                    <text id="Day-One" stroke="none" opacity="0.5" sketch:type="MSTextLayer" font-family="Helvetica Neue" font-size="29" font-weight="bold" sketch:alignment="middle" line-spacing="36">
                        <tspan x="42.1735" y="129" fill="#FFFFFF">Day One</tspan>
                    </text>
                    <circle id="Oval-1" stroke="#FFFFFF" stroke-width="9" stroke-dasharray="10,9" sketch:type="MSShapeGroup" cx="101" cy="101" r="101"></circle>
                </g>
            </g>
            <g id="Beacon_03" sketch:type="MSLayerGroup" mask="url(#mask-2)">
                <g transform="translate(909.000000, 244.000000)">
                    <text id="Fridge" stroke="none" sketch:type="MSTextLayer" font-family="Helvetica Neue" font-size="29" font-weight="bold" sketch:alignment="middle" line-spacing="36">
                        <tspan x="56.978" y="94" fill="#FFFFFF">Fridge</tspan>
                    </text>
                    <text id="Wunderlist" stroke="none" opacity="0.5" sketch:type="MSTextLayer" font-family="Helvetica Neue" font-size="29" font-weight="bold" sketch:alignment="middle" line-spacing="36">
                        <tspan x="27.1805" y="129" fill="#FFFFFF">Wunderlist</tspan>
                    </text>
                    <circle id="Oval-2" stroke="#FFFFFF" stroke-width="9" stroke-dasharray="10,9" sketch:type="MSShapeGroup" cx="101" cy="101" r="101"></circle>
                </g>
            </g>
            <g id="Badge" sketch:type="MSLayerGroup" transform="translate(1136.000000, 17.000000)">
                <path d="M84.5,169 C131.168064,169 169,131.168064 169,84.5 C169,37.8319363 131.168064,0 84.5,0 C37.8319363,0 0,37.8319363 0,84.5 C0,131.168064 37.8319363,169 84.5,169 Z" id="Oval-7" fill="#4990E2" sketch:type="MSShapeGroup"></path>
                <path d="M52.6196702,63.3725691 L42.8038132,63.3725691 L47.5095424,55.3581241 L61.1855678,55.3581241 L61.1855678,112.120982 L52.6196702,112.120982 L52.6196702,63.3725691 Z M71.0633975,108.003469 C71.0633975,106.630958 71.5658271,105.442283 72.5707014,104.437409 C73.5755757,103.432534 74.7765049,102.930105 76.1735253,102.930105 C77.5705456,102.930105 78.7714749,103.432534 79.7763492,104.437409 C80.7812234,105.442283 81.283653,106.643212 81.283653,108.040233 C81.283653,109.461762 80.7812234,110.674946 79.7763492,111.67982 C78.795984,112.660185 77.5950547,113.15036 76.1735253,113.15036 C74.7274867,113.15036 73.514303,112.660185 72.5339379,111.67982 C71.5535727,110.699455 71.0633975,109.474017 71.0633975,108.003469 L71.0633975,108.003469 Z M106.650474,104.069774 L127.789492,104.069774 L127.789492,112.120982 L89.6657331,112.120982 L109.370974,88.2614647 C111.307195,85.8840793 112.930901,83.8253433 114.242139,82.0851952 C115.553377,80.3450471 116.552109,78.8867758 117.238365,77.7103376 C118.635385,75.4064795 119.333885,73.3354892 119.333885,71.4973046 C119.333885,68.8503187 118.402552,66.6322758 116.539858,64.8431094 C114.677165,63.053943 112.373341,62.1593733 109.628319,62.1593733 C103.893182,62.1593733 100.609008,65.5538367 99.7756981,72.3428653 L91.246564,72.3428653 C92.6190752,60.3824105 98.6604848,54.4022728 109.370974,54.4022728 C114.5424,54.4022728 118.880451,56.0443598 122.385256,59.3285831 C125.914571,62.6128063 127.679202,66.6812606 127.679202,71.5340681 C127.679202,74.6222183 126.858158,77.6490503 125.216046,80.6146548 C124.382736,82.1587299 123.163425,83.9907598 121.558077,86.1107994 C119.952729,88.2308391 117.924629,90.7368599 115.473717,93.6289371 L106.650474,104.069774 Z" id="1.2" fill="#FFFFFF" sketch:type="MSShapeGroup"></path>
            </g>
        </g>
    </g>
</svg>