<?xml version="1.0" encoding="utf-8"?>
<!-- Generator: Adobe Illustrator 17.0.0, SVG Export Plug-In . SVG Version: 6.00 Build 0)  -->
<!DOCTYPE svg PUBLIC "-//W3C//DTD SVG 1.1//EN" "http://www.w3.org/Graphics/SVG/1.1/DTD/svg11.dtd">
<svg version="1.1" id="Layer_1" xmlns:sketch="http://www.bohemiancoding.com/sketch/ns"
	 xmlns="http://www.w3.org/2000/svg" xmlns:xlink="http://www.w3.org/1999/xlink" x="0px" y="0px" width="680px" height="340px"
	 viewBox="0 0 680 340" enable-background="new 0 0 680 340" xml:space="preserve">
<g>
	<path id="path-1" fill="#FFFFFF" d="M31,0h64c17.121,0,31,13.879,31,31v64c0,17.121-13.879,31-31,31H31c-17.121,0-31-13.879-31-31
		V31C0,13.879,13.879,0,31,0z"/>
</g>
<title>Kitchen 1</title>
<description>Created with Sketch (http://www.bohemiancoding.com/sketch)</description>
<g id="Page-1" sketch:type="MSPage">
	<g id="Kitchen-1" sketch:type="MSArtboardGroup">
		<path id="Oval-5" sketch:type="MSShapeGroup" fill="#50E3C2" d="M509.5,265c48.325,0,87.5-39.175,87.5-87.5S557.825,90,509.5,90
			S422,129.175,422,177.5S461.175,265,509.5,265z"/>
		<path id="Fill-4" sketch:type="MSShapeGroup" fill="none" stroke="#979797" d="M144.76,21C126.665,21,112,35.667,112,53.76
			v289.241h248.982V53.76c0-18.093-14.665-32.76-32.76-32.76H144.76z M257.24,72.995c0,1.809-1.466,3.274-3.274,3.274h-36.834
			c-1.809,0-3.274-1.466-3.274-3.274v-0.996c0-1.809,1.466-3.274,3.274-3.274h36.834c1.809,0,3.274,1.466,3.274,3.274V72.995
			L257.24,72.995z M239.72,47.94c1.626,1.626,1.626,4.263,0,5.887c-1.624,1.626-4.259,1.626-5.887,0
			c-1.624-1.624-1.624-4.261,0-5.887C235.461,46.316,238.096,46.316,239.72,47.94L239.72,47.94z M342.12,343H132.749V107.766H342.12
			V343z"/>
		<g id="Group" transform="translate(142.000000, 143.000000)" sketch:type="MSLayerGroup">
			<path id="Oval-1" sketch:type="MSShapeGroup" fill="#D8D8D8" d="M92,11c1.105,0,2-0.895,2-2s-0.895-2-2-2s-2,0.895-2,2
				S90.895,11,92,11z M92,34c1.105,0,2-0.895,2-2c0-1.105-0.895-2-2-2s-2,0.895-2,2C90,33.105,90.895,34,92,34z"/>
			<path id="Rectangle-2" sketch:type="MSShapeGroup" fill="#D8D8D8" d="M3,87h6c1.657,0,3,1.343,3,3v6c0,1.657-1.343,3-3,3H3
				c-1.657,0-3-1.343-3-3v-6C0,88.343,1.343,87,3,87z"/>
			<path id="_x30_8-30" sketch:type="MSShapeGroup" fill="#D8D8D8" d="M41.29,39.66c-2.75,0-5.005-0.596-6.765-1.787
				c-1.76-1.192-3.162-2.732-4.208-4.62c-1.045-1.888-1.769-3.997-2.172-6.325s-0.605-4.629-0.605-6.903s0.202-4.574,0.605-6.902
				s1.127-4.437,2.172-6.325c1.045-1.888,2.447-3.428,4.208-4.62c1.76-1.192,4.015-1.788,6.765-1.788
				c2.75,0,5.005,0.596,6.765,1.788s3.162,2.732,4.208,4.62s1.769,3.997,2.173,6.325s0.605,4.629,0.605,6.902
				s-0.202,4.574-0.605,6.903s-1.127,4.437-2.173,6.325c-1.045,1.888-2.447,3.428-4.208,4.62C46.295,39.064,44.04,39.66,41.29,39.66
				z M41.29,37.845c2.347,0,4.281-0.568,5.802-1.705c1.522-1.137,2.713-2.585,3.575-4.345c0.862-1.76,1.458-3.685,1.788-5.775
				c0.33-2.09,0.495-4.088,0.495-5.995c0-1.907-0.165-3.905-0.495-5.995c-0.33-2.09-0.926-4.015-1.788-5.775
				s-2.053-3.208-3.575-4.345c-1.522-1.137-3.456-1.705-5.802-1.705c-2.383,0-4.327,0.568-5.83,1.705s-2.686,2.585-3.547,4.345
				c-0.862,1.76-1.457,3.685-1.788,5.775s-0.495,4.088-0.495,5.995c0,1.907,0.165,3.905,0.495,5.995s0.926,4.015,1.788,5.775
				c0.862,1.76,2.044,3.208,3.547,4.345S38.907,37.845,41.29,37.845z M57.725,28.11c0-2.75,0.742-4.996,2.228-6.738
				c1.485-1.742,3.547-2.759,6.188-3.052v-0.11c-2.31-0.44-4.052-1.402-5.225-2.887s-1.76-3.291-1.76-5.418
				c0-1.797,0.33-3.3,0.99-4.51s1.54-2.182,2.64-2.915s2.347-1.265,3.74-1.595S69.367,0.39,70.87,0.39
				c1.467,0,2.906,0.165,4.317,0.495s2.667,0.862,3.768,1.595s1.98,1.705,2.64,2.915s0.99,2.713,0.99,4.51
				c0,2.127-0.587,3.932-1.76,5.418S77.91,17.77,75.6,18.21v0.11c2.64,0.293,4.702,1.311,6.188,3.052
				c1.485,1.742,2.228,3.987,2.228,6.738c0,1.98-0.348,3.694-1.045,5.142c-0.697,1.448-1.632,2.649-2.805,3.603
				s-2.567,1.659-4.18,2.118s-3.318,0.688-5.115,0.688c-1.833,0-3.547-0.229-5.143-0.688s-2.979-1.164-4.153-2.118
				s-2.108-2.154-2.805-3.603C58.073,31.804,57.725,30.09,57.725,28.11z M70.87,17.44c1.21,0,2.392-0.137,3.548-0.413
				c1.155-0.275,2.182-0.715,3.08-1.32s1.622-1.384,2.173-2.338c0.55-0.953,0.825-2.108,0.825-3.465c0-1.43-0.266-2.64-0.798-3.63
				s-1.247-1.787-2.145-2.393s-1.925-1.036-3.08-1.293c-1.155-0.257-2.356-0.385-3.603-0.385s-2.447,0.128-3.603,0.385
				s-2.182,0.687-3.08,1.293s-1.613,1.402-2.145,2.393s-0.798,2.2-0.798,3.63c0,1.357,0.275,2.512,0.825,3.465
				c0.55,0.953,1.274,1.732,2.173,2.338s1.925,1.045,3.08,1.32S69.66,17.44,70.87,17.44z M59.815,28.11
				c0,1.687,0.302,3.144,0.908,4.372c0.605,1.228,1.412,2.237,2.42,3.025s2.182,1.375,3.52,1.76
				c1.338,0.385,2.741,0.577,4.208,0.577s2.86-0.193,4.18-0.577c1.32-0.385,2.493-0.972,3.52-1.76s1.842-1.797,2.448-3.025
				c0.605-1.228,0.908-2.686,0.908-4.372c0-1.577-0.293-2.924-0.88-4.043c-0.587-1.118-1.393-2.035-2.42-2.75
				c-1.027-0.715-2.209-1.237-3.548-1.567s-2.741-0.495-4.207-0.495c-1.503,0-2.915,0.165-4.235,0.495s-2.493,0.852-3.52,1.567
				c-1.027,0.715-1.833,1.632-2.42,2.75C60.108,25.186,59.815,26.533,59.815,28.11z M103.52,26.46
				c-0.073,1.76,0.138,3.346,0.632,4.758c0.495,1.412,1.219,2.603,2.173,3.575s2.127,1.723,3.52,2.255s2.97,0.798,4.73,0.798
				c1.393,0,2.75-0.202,4.07-0.605c1.32-0.403,2.484-0.999,3.493-1.788c1.008-0.788,1.815-1.769,2.42-2.943
				c0.605-1.173,0.907-2.512,0.907-4.015c0-1.797-0.367-3.291-1.1-4.483c-0.733-1.192-1.705-2.117-2.915-2.778
				c-1.21-0.66-2.576-1.1-4.097-1.32c-1.522-0.22-3.071-0.275-4.647-0.165v-1.815c1.393,0.073,2.796,0.009,4.207-0.192
				s2.686-0.605,3.823-1.21c1.137-0.605,2.062-1.439,2.777-2.502s1.073-2.42,1.073-4.07c0-1.32-0.302-2.475-0.908-3.465
				s-1.393-1.797-2.365-2.42s-2.053-1.091-3.245-1.402s-2.356-0.467-3.493-0.467c-1.65,0-3.098,0.275-4.345,0.825
				c-1.247,0.55-2.283,1.302-3.108,2.255s-1.457,2.09-1.897,3.41s-0.697,2.768-0.77,4.345h-2.09c0-1.87,0.284-3.584,0.853-5.142
				s1.384-2.887,2.448-3.987s2.347-1.962,3.85-2.585s3.19-0.935,5.06-0.935c1.54,0,3.034,0.183,4.483,0.55s2.732,0.935,3.85,1.705
				s2.026,1.76,2.722,2.97s1.045,2.658,1.045,4.345c0,1.137-0.174,2.2-0.523,3.19c-0.348,0.99-0.852,1.87-1.512,2.64
				c-0.66,0.77-1.448,1.402-2.365,1.898s-1.925,0.816-3.025,0.962v0.11c1.283,0.147,2.438,0.495,3.465,1.045
				c1.027,0.55,1.897,1.256,2.613,2.118c0.715,0.862,1.265,1.852,1.65,2.97s0.577,2.319,0.577,3.603c0,1.87-0.348,3.502-1.045,4.895
				c-0.697,1.393-1.632,2.557-2.805,3.493s-2.548,1.632-4.125,2.09s-3.245,0.688-5.005,0.688c-2.09,0-3.969-0.293-5.637-0.88
				s-3.08-1.439-4.235-2.557s-2.017-2.493-2.585-4.125c-0.568-1.632-0.798-3.511-0.688-5.638H103.52z M144.32,39.66
				c-2.75,0-5.005-0.596-6.765-1.787c-1.76-1.192-3.162-2.732-4.207-4.62c-1.045-1.888-1.769-3.997-2.173-6.325
				s-0.605-4.629-0.605-6.903s0.202-4.574,0.605-6.902s1.127-4.437,2.173-6.325c1.045-1.888,2.447-3.428,4.207-4.62
				c1.76-1.192,4.015-1.788,6.765-1.788c2.75,0,5.005,0.596,6.765,1.788s3.162,2.732,4.207,4.62
				c1.045,1.888,1.769,3.997,2.173,6.325s0.605,4.629,0.605,6.902s-0.202,4.574-0.605,6.903s-1.127,4.437-2.173,6.325
				c-1.045,1.888-2.447,3.428-4.207,4.62C149.325,39.064,147.07,39.66,144.32,39.66z M144.32,37.845
				c2.347,0,4.281-0.568,5.802-1.705c1.522-1.137,2.713-2.585,3.575-4.345c0.862-1.76,1.458-3.685,1.788-5.775
				s0.495-4.088,0.495-5.995c0-1.907-0.165-3.905-0.495-5.995s-0.926-4.015-1.788-5.775c-0.862-1.76-2.053-3.208-3.575-4.345
				c-1.522-1.137-3.456-1.705-5.802-1.705c-2.383,0-4.327,0.568-5.83,1.705s-2.686,2.585-3.548,4.345
				c-0.862,1.76-1.458,3.685-1.788,5.775s-0.495,4.088-0.495,5.995c0,1.907,0.165,3.905,0.495,5.995s0.926,4.015,1.788,5.775
				c0.862,1.76,2.044,3.208,3.548,4.345S141.937,37.845,144.32,37.845z"/>
			<path id="Monday_x2C_-November-19" sketch:type="MSShapeGroup" fill="#D8D8D8" d="M40.21,49.718l3.081,8.138l3.198-8.138h1.3V59
				h-0.884v-8.021h-0.026L43.707,59h-0.832l-3.055-8.021h-0.026V59H38.91v-9.282H40.21z M51.947,52.097
				c-0.511,0-0.964,0.095-1.358,0.286c-0.394,0.191-0.726,0.446-0.994,0.767c-0.269,0.321-0.472,0.695-0.611,1.125
				c-0.139,0.429-0.208,0.886-0.208,1.371s0.069,0.942,0.208,1.372c0.139,0.429,0.342,0.804,0.611,1.124
				c0.269,0.321,0.6,0.574,0.994,0.761c0.394,0.186,0.847,0.279,1.358,0.279c0.511,0,0.964-0.093,1.359-0.279
				s0.726-0.44,0.994-0.761c0.269-0.321,0.472-0.695,0.611-1.124c0.139-0.429,0.208-0.886,0.208-1.372s-0.069-0.942-0.208-1.371
				c-0.139-0.429-0.342-0.804-0.611-1.125c-0.269-0.321-0.6-0.576-0.994-0.767C52.911,52.192,52.458,52.097,51.947,52.097z
				 M51.947,52.786c0.39,0,0.732,0.082,1.027,0.247c0.295,0.165,0.54,0.381,0.735,0.65c0.195,0.269,0.342,0.574,0.442,0.917
				s0.149,0.691,0.149,1.047s-0.05,0.704-0.149,1.047s-0.247,0.648-0.442,0.917c-0.195,0.269-0.44,0.485-0.735,0.65
				c-0.295,0.165-0.637,0.247-1.027,0.247c-0.39,0-0.732-0.082-1.027-0.247c-0.295-0.165-0.539-0.381-0.734-0.65
				c-0.195-0.269-0.342-0.574-0.442-0.917s-0.149-0.691-0.149-1.047s0.05-0.704,0.149-1.047s0.247-0.648,0.442-0.917
				c0.195-0.269,0.44-0.485,0.734-0.65C51.215,52.868,51.557,52.786,51.947,52.786z M55.988,52.292V59h0.819v-3.913
				c0.009-0.329,0.063-0.635,0.163-0.917c0.1-0.282,0.238-0.524,0.416-0.728c0.178-0.204,0.394-0.364,0.65-0.481
				s0.548-0.175,0.877-0.175c0.329,0,0.604,0.052,0.826,0.156s0.396,0.247,0.527,0.429c0.13,0.182,0.221,0.396,0.273,0.644
				c0.052,0.247,0.078,0.514,0.078,0.799V59h0.819v-4.316c0-0.399-0.039-0.758-0.117-1.079c-0.078-0.321-0.212-0.591-0.403-0.812
				c-0.191-0.221-0.444-0.392-0.761-0.514c-0.316-0.121-0.708-0.182-1.176-0.182c-0.477,0-0.914,0.123-1.313,0.37
				c-0.399,0.247-0.676,0.574-0.832,0.982h-0.026v-1.157H55.988z M68.544,59v-9.282h-0.819v3.848h-0.026
				c-0.087-0.243-0.21-0.455-0.37-0.637c-0.16-0.182-0.344-0.336-0.552-0.462s-0.431-0.219-0.67-0.279
				c-0.238-0.061-0.483-0.091-0.734-0.091c-0.511,0-0.955,0.095-1.333,0.286c-0.377,0.191-0.691,0.448-0.942,0.774
				c-0.251,0.325-0.438,0.702-0.559,1.131c-0.121,0.429-0.182,0.882-0.182,1.359s0.061,0.929,0.182,1.359
				c0.121,0.429,0.308,0.806,0.559,1.131c0.251,0.325,0.565,0.581,0.942,0.767c0.377,0.186,0.821,0.279,1.333,0.279
				c0.243,0,0.487-0.035,0.734-0.104c0.247-0.069,0.479-0.167,0.696-0.292s0.41-0.279,0.578-0.461
				c0.169-0.182,0.297-0.381,0.383-0.598h0.026V59H68.544z M63.175,55.646c0-0.347,0.041-0.691,0.124-1.034s0.212-0.648,0.39-0.917
				c0.178-0.269,0.405-0.487,0.683-0.656c0.277-0.169,0.611-0.254,1.001-0.254c0.433,0,0.799,0.084,1.098,0.254
				c0.299,0.169,0.542,0.388,0.728,0.656c0.186,0.269,0.321,0.574,0.403,0.917c0.082,0.342,0.123,0.687,0.123,1.034
				s-0.041,0.691-0.123,1.034c-0.082,0.342-0.217,0.648-0.403,0.917s-0.429,0.487-0.728,0.656c-0.299,0.169-0.665,0.254-1.098,0.254
				c-0.39,0-0.724-0.084-1.001-0.254c-0.277-0.169-0.505-0.388-0.683-0.656c-0.178-0.269-0.308-0.574-0.39-0.917
				S63.175,55.993,63.175,55.646z M69.686,54.346h0.819c0.017-0.546,0.191-0.943,0.52-1.189c0.329-0.247,0.754-0.371,1.274-0.371
				c0.243,0,0.47,0.02,0.682,0.059c0.212,0.039,0.399,0.11,0.559,0.214c0.16,0.104,0.286,0.245,0.377,0.423
				c0.091,0.178,0.136,0.405,0.136,0.683c0,0.182-0.024,0.329-0.072,0.442s-0.115,0.201-0.201,0.267
				c-0.087,0.065-0.195,0.111-0.325,0.136c-0.13,0.026-0.282,0.048-0.455,0.065c-0.442,0.052-0.877,0.106-1.306,0.162
				c-0.429,0.056-0.815,0.154-1.157,0.292c-0.342,0.139-0.618,0.34-0.826,0.604s-0.312,0.63-0.312,1.098
				c0,0.338,0.058,0.631,0.175,0.878c0.117,0.247,0.277,0.451,0.481,0.611c0.204,0.16,0.442,0.277,0.715,0.351
				c0.273,0.074,0.565,0.111,0.878,0.111c0.329,0,0.613-0.03,0.852-0.091c0.238-0.061,0.451-0.147,0.637-0.26
				c0.186-0.113,0.355-0.254,0.507-0.423c0.152-0.169,0.301-0.362,0.449-0.578h0.026c0,0.173,0.011,0.331,0.032,0.474
				s0.067,0.266,0.137,0.37c0.069,0.104,0.167,0.184,0.292,0.241C74.706,58.972,74.873,59,75.081,59
				c0.113,0,0.206-0.004,0.279-0.013c0.074-0.009,0.158-0.022,0.254-0.039v-0.689c-0.078,0.035-0.165,0.052-0.26,0.052
				c-0.321,0-0.481-0.165-0.481-0.494v-3.562c0-0.451-0.074-0.817-0.221-1.098c-0.147-0.282-0.338-0.5-0.572-0.657
				s-0.498-0.262-0.793-0.319c-0.295-0.056-0.589-0.084-0.884-0.084c-0.39,0-0.745,0.043-1.066,0.13
				c-0.321,0.087-0.6,0.221-0.839,0.403c-0.238,0.182-0.427,0.416-0.565,0.702C69.794,53.618,69.712,53.956,69.686,54.346z
				 M74.054,55.334V56.4c0,0.329-0.063,0.624-0.188,0.884c-0.126,0.26-0.295,0.481-0.507,0.663
				c-0.212,0.182-0.461,0.321-0.747,0.416s-0.585,0.143-0.897,0.143c-0.191,0-0.377-0.03-0.559-0.091
				c-0.182-0.061-0.342-0.15-0.481-0.267c-0.139-0.117-0.249-0.256-0.332-0.416c-0.082-0.16-0.123-0.344-0.123-0.552
				c0-0.329,0.097-0.583,0.292-0.761c0.195-0.178,0.444-0.314,0.748-0.41c0.303-0.095,0.639-0.167,1.007-0.214
				c0.368-0.048,0.726-0.102,1.072-0.163c0.113-0.017,0.243-0.048,0.39-0.091c0.147-0.043,0.247-0.113,0.299-0.208H74.054z
				 M75.417,52.292l2.678,6.682l-0.286,0.754c-0.069,0.156-0.134,0.299-0.195,0.429s-0.134,0.24-0.221,0.331
				c-0.087,0.091-0.188,0.163-0.305,0.215c-0.117,0.052-0.267,0.078-0.449,0.078c-0.095,0-0.188-0.006-0.28-0.019
				c-0.091-0.013-0.184-0.028-0.279-0.046v0.689c0.069,0.026,0.149,0.041,0.241,0.046c0.091,0.004,0.219,0.011,0.383,0.02
				c0.26,0,0.474-0.024,0.644-0.072c0.169-0.048,0.316-0.126,0.442-0.234c0.126-0.108,0.241-0.256,0.345-0.442
				c0.104-0.186,0.217-0.422,0.338-0.708l2.912-7.722h-0.819l-2.067,5.72l-2.21-5.72H75.417z M82.227,57.622h-1.092V59h0.546
				c0.009,0.095,0.002,0.206-0.02,0.332s-0.059,0.247-0.11,0.364c-0.052,0.117-0.117,0.223-0.195,0.319
				c-0.078,0.095-0.169,0.16-0.273,0.195v0.559c0.191-0.052,0.357-0.139,0.501-0.26c0.143-0.121,0.262-0.262,0.357-0.423
				c0.095-0.16,0.167-0.334,0.215-0.52c0.048-0.186,0.071-0.375,0.071-0.565V57.622z M87.345,49.718V59h0.884v-7.852h0.026
				L93.663,59h0.988v-9.282h-0.884v7.852h-0.026l-5.408-7.852H87.345z M98.848,52.097c-0.511,0-0.964,0.095-1.358,0.286
				c-0.394,0.191-0.726,0.446-0.994,0.767c-0.269,0.321-0.472,0.695-0.611,1.125c-0.139,0.429-0.208,0.886-0.208,1.371
				s0.069,0.942,0.208,1.372c0.139,0.429,0.342,0.804,0.611,1.124c0.269,0.321,0.6,0.574,0.994,0.761
				c0.394,0.186,0.847,0.279,1.358,0.279s0.964-0.093,1.358-0.279c0.394-0.186,0.726-0.44,0.994-0.761
				c0.269-0.321,0.472-0.695,0.611-1.124c0.139-0.429,0.208-0.886,0.208-1.372s-0.069-0.942-0.208-1.371
				c-0.139-0.429-0.342-0.804-0.611-1.125c-0.269-0.321-0.6-0.576-0.994-0.767C99.812,52.192,99.359,52.097,98.848,52.097z
				 M98.848,52.786c0.39,0,0.732,0.082,1.027,0.247c0.295,0.165,0.539,0.381,0.734,0.65c0.195,0.269,0.342,0.574,0.442,0.917
				c0.1,0.342,0.149,0.691,0.149,1.047s-0.05,0.704-0.149,1.047c-0.1,0.342-0.247,0.648-0.442,0.917
				c-0.195,0.269-0.44,0.485-0.734,0.65c-0.295,0.165-0.637,0.247-1.027,0.247s-0.732-0.082-1.027-0.247
				c-0.295-0.165-0.539-0.381-0.734-0.65c-0.195-0.269-0.342-0.574-0.442-0.917c-0.1-0.342-0.149-0.691-0.149-1.047
				s0.05-0.704,0.149-1.047c0.1-0.342,0.247-0.648,0.442-0.917c0.195-0.269,0.44-0.485,0.734-0.65
				C98.116,52.868,98.458,52.786,98.848,52.786z M102.148,52.292L104.735,59h0.871l2.509-6.708h-0.845l-2.08,5.889h-0.026
				l-2.106-5.889H102.148z M109.062,55.867h5.161c0.017-0.468-0.026-0.929-0.13-1.385c-0.104-0.455-0.275-0.858-0.514-1.209
				s-0.548-0.635-0.929-0.851c-0.381-0.217-0.841-0.325-1.378-0.325c-0.529,0-0.986,0.102-1.372,0.306
				c-0.386,0.204-0.7,0.472-0.942,0.806s-0.423,0.713-0.539,1.138c-0.117,0.425-0.176,0.858-0.176,1.3
				c0,0.477,0.059,0.929,0.176,1.359c0.117,0.429,0.297,0.806,0.539,1.131c0.243,0.325,0.557,0.581,0.942,0.767
				c0.386,0.186,0.843,0.279,1.372,0.279c0.849,0,1.506-0.208,1.969-0.624c0.464-0.416,0.782-1.005,0.955-1.768h-0.819
				c-0.13,0.52-0.364,0.936-0.702,1.248c-0.338,0.312-0.806,0.468-1.404,0.468c-0.39,0-0.724-0.082-1.001-0.247
				c-0.277-0.165-0.507-0.373-0.689-0.624c-0.182-0.251-0.314-0.535-0.396-0.851S109.062,56.162,109.062,55.867z M113.404,55.178
				h-4.342c0.035-0.303,0.106-0.6,0.215-0.891c0.108-0.29,0.254-0.546,0.436-0.767s0.403-0.399,0.663-0.533s0.559-0.201,0.897-0.201
				c0.329,0,0.624,0.067,0.884,0.201s0.481,0.312,0.663,0.533s0.323,0.474,0.423,0.76C113.341,54.567,113.395,54.866,113.404,55.178
				z M114.988,52.292V59h0.819v-3.744c0-0.355,0.039-0.682,0.117-0.981c0.078-0.299,0.197-0.559,0.357-0.78
				c0.16-0.221,0.368-0.394,0.624-0.52s0.557-0.188,0.903-0.188c0.26,0,0.481,0.043,0.663,0.13s0.327,0.206,0.436,0.357
				c0.108,0.152,0.186,0.329,0.234,0.533c0.048,0.204,0.071,0.418,0.071,0.644V59h0.819v-3.796c0-0.312,0.028-0.613,0.085-0.903
				c0.056-0.29,0.154-0.548,0.292-0.773c0.139-0.225,0.325-0.405,0.559-0.54s0.529-0.201,0.884-0.201
				c0.589,0,1.001,0.145,1.235,0.436c0.234,0.29,0.351,0.713,0.351,1.267V59h0.819v-4.55c0-1.569-0.741-2.353-2.223-2.353
				c-0.442,0-0.858,0.108-1.248,0.325c-0.39,0.217-0.685,0.546-0.884,0.988c-0.121-0.442-0.362-0.771-0.722-0.988
				c-0.36-0.217-0.76-0.325-1.202-0.325c-0.546,0-0.994,0.117-1.345,0.351c-0.351,0.234-0.635,0.559-0.852,0.975h-0.039v-1.131
				H114.988z M125.477,49.718V59h0.754v-1.274h0.026c0.191,0.468,0.5,0.828,0.929,1.079s0.916,0.377,1.463,0.377
				c0.511,0,0.955-0.093,1.333-0.279c0.377-0.186,0.691-0.442,0.942-0.767c0.251-0.325,0.438-0.702,0.559-1.131
				c0.121-0.429,0.182-0.882,0.182-1.359s-0.061-0.929-0.182-1.359c-0.121-0.429-0.308-0.806-0.559-1.131
				c-0.251-0.325-0.565-0.583-0.942-0.774c-0.377-0.191-0.821-0.286-1.333-0.286c-0.243,0-0.485,0.03-0.728,0.091
				c-0.243,0.061-0.468,0.154-0.676,0.279s-0.392,0.279-0.553,0.462c-0.16,0.182-0.284,0.394-0.37,0.637h-0.026v-3.848H125.477z
				 M130.846,55.646c0,0.347-0.041,0.691-0.123,1.034s-0.212,0.648-0.39,0.917c-0.178,0.269-0.405,0.487-0.683,0.656
				c-0.277,0.169-0.611,0.254-1.001,0.254c-0.433,0-0.799-0.084-1.099-0.254c-0.299-0.169-0.542-0.388-0.728-0.656
				s-0.321-0.574-0.403-0.917c-0.082-0.342-0.124-0.687-0.124-1.034s0.041-0.691,0.124-1.034c0.082-0.342,0.217-0.648,0.403-0.917
				c0.186-0.269,0.429-0.487,0.728-0.656c0.299-0.169,0.665-0.254,1.099-0.254c0.39,0,0.724,0.084,1.001,0.254
				c0.277,0.169,0.505,0.388,0.683,0.656c0.178,0.269,0.308,0.574,0.39,0.917S130.846,55.299,130.846,55.646z M133.08,55.867h5.161
				c0.017-0.468-0.026-0.929-0.13-1.385c-0.104-0.455-0.275-0.858-0.513-1.209c-0.238-0.351-0.548-0.635-0.93-0.851
				s-0.841-0.325-1.378-0.325c-0.529,0-0.986,0.102-1.371,0.306s-0.7,0.472-0.943,0.806c-0.243,0.334-0.423,0.713-0.54,1.138
				c-0.117,0.425-0.175,0.858-0.175,1.3c0,0.477,0.059,0.929,0.175,1.359c0.117,0.429,0.297,0.806,0.54,1.131
				c0.243,0.325,0.557,0.581,0.943,0.767s0.843,0.279,1.371,0.279c0.849,0,1.506-0.208,1.97-0.624
				c0.464-0.416,0.782-1.005,0.955-1.768h-0.819c-0.13,0.52-0.364,0.936-0.702,1.248c-0.338,0.312-0.806,0.468-1.404,0.468
				c-0.39,0-0.724-0.082-1.001-0.247c-0.277-0.165-0.507-0.373-0.689-0.624c-0.182-0.251-0.314-0.535-0.396-0.851
				C133.121,56.467,133.08,56.162,133.08,55.867z M137.422,55.178h-4.342c0.035-0.303,0.106-0.6,0.214-0.891
				c0.108-0.29,0.254-0.546,0.436-0.767c0.182-0.221,0.403-0.399,0.663-0.533c0.26-0.134,0.559-0.201,0.897-0.201
				c0.329,0,0.624,0.067,0.884,0.201c0.26,0.134,0.481,0.312,0.663,0.533c0.182,0.221,0.323,0.474,0.423,0.76
				C137.359,54.567,137.413,54.866,137.422,55.178z M139.006,52.292V59h0.819v-3.575c0-0.355,0.061-0.682,0.182-0.981
				c0.121-0.299,0.292-0.557,0.513-0.774c0.221-0.217,0.483-0.383,0.787-0.5c0.303-0.117,0.641-0.167,1.014-0.149v-0.819
				c-0.607-0.026-1.129,0.108-1.566,0.403s-0.76,0.715-0.969,1.261h-0.026v-1.573H139.006z M146.516,51.655v0.585h2.405V59h0.819
				v-9.1h-0.663c-0.061,0.416-0.162,0.739-0.305,0.968s-0.321,0.401-0.533,0.514c-0.212,0.113-0.464,0.184-0.754,0.215
				C147.194,51.627,146.871,51.646,146.516,51.655z M153.625,56.816h-0.819c0.095,0.806,0.381,1.402,0.858,1.787
				s1.122,0.578,1.937,0.578c0.494,0,0.919-0.087,1.274-0.26c0.355-0.173,0.652-0.396,0.891-0.67
				c0.238-0.273,0.429-0.581,0.572-0.923c0.143-0.342,0.254-0.68,0.332-1.014c0.078-0.334,0.128-0.648,0.149-0.942
				c0.022-0.295,0.033-0.533,0.033-0.715c0-0.884-0.063-1.634-0.188-2.249c-0.126-0.615-0.319-1.116-0.579-1.501
				c-0.26-0.386-0.589-0.663-0.988-0.832c-0.399-0.169-0.875-0.254-1.43-0.254c-0.451,0-0.865,0.078-1.242,0.234
				s-0.702,0.37-0.975,0.644c-0.273,0.273-0.485,0.598-0.637,0.975s-0.227,0.786-0.227,1.229s0.071,0.849,0.214,1.222
				s0.344,0.693,0.605,0.962c0.26,0.269,0.576,0.479,0.949,0.63c0.373,0.152,0.784,0.228,1.235,0.228
				c0.52,0,0.999-0.139,1.437-0.416c0.438-0.277,0.765-0.641,0.981-1.092h0.026c0,0.416-0.03,0.86-0.091,1.333
				c-0.061,0.472-0.182,0.912-0.364,1.319c-0.182,0.407-0.436,0.745-0.76,1.014s-0.756,0.403-1.294,0.403
				c-0.529,0-0.96-0.156-1.293-0.468C153.896,57.726,153.694,57.319,153.625,56.816z M155.601,55.256
				c-0.347,0-0.656-0.063-0.93-0.188c-0.273-0.126-0.503-0.297-0.689-0.514c-0.186-0.217-0.329-0.472-0.429-0.767
				c-0.1-0.295-0.149-0.607-0.149-0.936c0-0.312,0.052-0.611,0.156-0.897c0.104-0.286,0.253-0.535,0.449-0.747
				s0.427-0.381,0.695-0.507c0.269-0.126,0.563-0.188,0.884-0.188c0.399,0,0.741,0.061,1.027,0.182
				c0.286,0.121,0.522,0.288,0.708,0.5c0.186,0.212,0.323,0.459,0.41,0.741c0.087,0.282,0.13,0.587,0.13,0.917
				c0,0.338-0.05,0.652-0.15,0.942c-0.1,0.29-0.247,0.544-0.442,0.761s-0.433,0.388-0.715,0.514
				C156.275,55.193,155.956,55.256,155.601,55.256z"/>
			<path id="now" sketch:type="MSShapeGroup" fill="#D8D8D8" d="M53.54,92.347h0.972v0.684l0.018,0.018
				c0.156-0.258,0.36-0.461,0.612-0.608c0.252-0.147,0.531-0.22,0.837-0.22c0.51,0,0.912,0.132,1.206,0.396
				c0.294,0.264,0.441,0.66,0.441,1.188V97H56.6v-2.925c-0.012-0.366-0.09-0.631-0.234-0.796s-0.369-0.248-0.675-0.248
				c-0.174,0-0.33,0.032-0.468,0.095c-0.138,0.063-0.255,0.15-0.351,0.261s-0.171,0.242-0.225,0.392s-0.081,0.309-0.081,0.477V97
				H53.54V92.347z M60.539,97.126c-0.372,0-0.703-0.062-0.995-0.185c-0.291-0.123-0.537-0.292-0.738-0.508s-0.354-0.474-0.459-0.774
				c-0.105-0.3-0.158-0.63-0.158-0.99c0-0.354,0.053-0.681,0.158-0.981c0.105-0.3,0.258-0.558,0.459-0.774s0.447-0.385,0.738-0.508
				c0.291-0.123,0.623-0.185,0.995-0.185s0.703,0.062,0.994,0.185s0.537,0.292,0.738,0.508s0.354,0.474,0.459,0.774
				c0.105,0.3,0.158,0.627,0.158,0.981c0,0.36-0.053,0.69-0.158,0.99c-0.105,0.3-0.258,0.558-0.459,0.774s-0.447,0.385-0.738,0.508
				S60.911,97.126,60.539,97.126L60.539,97.126z M60.539,96.316c0.228,0,0.426-0.048,0.594-0.144
				c0.168-0.096,0.306-0.222,0.414-0.378c0.108-0.156,0.188-0.331,0.238-0.526c0.051-0.195,0.076-0.395,0.076-0.599
				c0-0.198-0.025-0.396-0.076-0.594c-0.051-0.198-0.131-0.373-0.238-0.526c-0.108-0.153-0.246-0.277-0.414-0.373
				c-0.168-0.096-0.366-0.144-0.594-0.144c-0.228,0-0.426,0.048-0.594,0.144s-0.306,0.22-0.414,0.373
				c-0.108,0.153-0.187,0.328-0.238,0.526c-0.051,0.198-0.076,0.396-0.076,0.594c0,0.204,0.026,0.404,0.076,0.599
				c0.051,0.195,0.131,0.37,0.238,0.526c0.108,0.156,0.246,0.282,0.414,0.378S60.311,96.316,60.539,96.316L60.539,96.316z
				 M63.02,92.347h1.089l0.909,3.474h0.018l0.873-3.474h1.035l0.837,3.474h0.018l0.945-3.474h1.044L68.33,97h-1.053l-0.864-3.456
				h-0.018L65.54,97h-1.08L63.02,92.347z"/>
			<path id="Timer" sketch:type="MSShapeGroup" fill="#50E3C2" d="M21.088,89.146h6.358v1.188h-2.497V97h-1.375v-6.666h-2.486
				V89.146z M27.849,89.146h1.254v1.188h-1.254V89.146z M27.849,91.313h1.254V97h-1.254V91.313z M30.101,91.313h1.188v0.792h0.033
				c0.095-0.139,0.198-0.268,0.308-0.385s0.233-0.216,0.368-0.297c0.136-0.081,0.291-0.145,0.468-0.192
				c0.176-0.048,0.378-0.072,0.605-0.072c0.345,0,0.665,0.077,0.962,0.231c0.297,0.154,0.508,0.392,0.633,0.715
				c0.213-0.293,0.458-0.524,0.737-0.693c0.279-0.169,0.627-0.253,1.045-0.253c0.601,0,1.069,0.147,1.403,0.44s0.5,0.785,0.5,1.474
				V97h-1.254v-3.322c0-0.227-0.007-0.435-0.022-0.621c-0.015-0.187-0.057-0.348-0.126-0.484s-0.174-0.24-0.313-0.313
				s-0.33-0.11-0.572-0.11c-0.425,0-0.733,0.132-0.924,0.396c-0.191,0.264-0.286,0.638-0.286,1.122V97h-1.254v-3.652
				c0-0.396-0.071-0.695-0.215-0.896s-0.405-0.302-0.786-0.302c-0.161,0-0.317,0.033-0.468,0.099
				c-0.15,0.066-0.282,0.161-0.396,0.286c-0.114,0.125-0.205,0.279-0.275,0.462c-0.07,0.183-0.105,0.392-0.105,0.627V97h-1.254
				V91.313z M40.283,94.481c0,0.22,0.031,0.433,0.093,0.638c0.062,0.205,0.156,0.385,0.281,0.539
				c0.125,0.154,0.282,0.277,0.473,0.368c0.191,0.092,0.418,0.138,0.682,0.138c0.367,0,0.662-0.079,0.885-0.237
				c0.224-0.158,0.391-0.394,0.501-0.709h1.188c-0.066,0.308-0.18,0.583-0.341,0.825c-0.161,0.242-0.356,0.446-0.583,0.611
				c-0.227,0.165-0.482,0.29-0.765,0.374c-0.282,0.084-0.577,0.127-0.885,0.127c-0.447,0-0.843-0.073-1.188-0.22
				s-0.636-0.352-0.875-0.616s-0.418-0.579-0.539-0.946c-0.121-0.367-0.181-0.77-0.181-1.21c0-0.403,0.064-0.786,0.193-1.15
				c0.128-0.363,0.312-0.682,0.55-0.957c0.238-0.275,0.526-0.493,0.863-0.654c0.337-0.161,0.719-0.242,1.144-0.242
				c0.447,0,0.849,0.094,1.205,0.281c0.356,0.187,0.651,0.435,0.885,0.743s0.405,0.662,0.512,1.062s0.134,0.812,0.083,1.238H40.283z
				 M43.209,93.656c-0.015-0.198-0.057-0.389-0.126-0.572s-0.165-0.343-0.286-0.479c-0.121-0.136-0.268-0.246-0.44-0.33
				c-0.172-0.084-0.365-0.126-0.577-0.126c-0.22,0-0.42,0.038-0.599,0.116c-0.18,0.077-0.334,0.183-0.462,0.319
				c-0.128,0.136-0.231,0.295-0.308,0.478s-0.119,0.381-0.126,0.594H43.209z M45.053,91.313h1.177v1.1h0.022
				c0.037-0.154,0.108-0.304,0.215-0.451c0.106-0.147,0.235-0.28,0.385-0.401s0.317-0.218,0.5-0.292s0.37-0.11,0.561-0.11
				c0.147,0,0.247,0.004,0.302,0.011s0.112,0.015,0.171,0.022v1.21c-0.088-0.015-0.178-0.028-0.27-0.038
				c-0.092-0.011-0.181-0.017-0.27-0.017c-0.213,0-0.412,0.042-0.599,0.127c-0.187,0.084-0.35,0.209-0.489,0.374
				c-0.139,0.165-0.249,0.368-0.33,0.61s-0.121,0.521-0.121,0.836V97h-1.254V91.313z"/>
			<path id="slide-to-set-35-sec-" sketch:type="MSShapeGroup" fill="#50E3C2" d="M22.314,108.506c0.03,0.3,0.144,0.51,0.342,0.63
				c0.198,0.12,0.435,0.18,0.711,0.18c0.096,0,0.205-0.007,0.328-0.022c0.123-0.015,0.239-0.044,0.347-0.086
				s0.197-0.104,0.266-0.185s0.101-0.188,0.094-0.319c-0.006-0.132-0.054-0.24-0.144-0.324s-0.205-0.151-0.346-0.202
				c-0.141-0.051-0.302-0.094-0.482-0.131c-0.18-0.036-0.363-0.075-0.549-0.117c-0.192-0.042-0.376-0.093-0.554-0.153
				c-0.177-0.06-0.336-0.141-0.477-0.243c-0.141-0.102-0.253-0.232-0.337-0.391c-0.084-0.159-0.126-0.355-0.126-0.59
				c0-0.252,0.062-0.464,0.185-0.634c0.123-0.171,0.279-0.309,0.468-0.414s0.399-0.179,0.63-0.221s0.451-0.063,0.661-0.063
				c0.24,0,0.469,0.025,0.689,0.076c0.219,0.051,0.417,0.133,0.594,0.247c0.177,0.114,0.324,0.263,0.441,0.446
				s0.191,0.403,0.22,0.661h-1.071c-0.048-0.246-0.16-0.411-0.337-0.495c-0.177-0.084-0.379-0.126-0.608-0.126
				c-0.072,0-0.158,0.006-0.257,0.018c-0.099,0.012-0.192,0.035-0.279,0.067c-0.087,0.033-0.16,0.081-0.22,0.144
				c-0.06,0.063-0.09,0.146-0.09,0.248c0,0.126,0.043,0.228,0.131,0.306c0.087,0.078,0.201,0.142,0.342,0.193
				s0.301,0.094,0.482,0.131c0.18,0.036,0.366,0.075,0.558,0.117c0.186,0.042,0.369,0.093,0.549,0.153
				c0.18,0.06,0.34,0.141,0.481,0.243c0.141,0.102,0.255,0.231,0.342,0.387c0.087,0.156,0.13,0.348,0.13,0.576
				c0,0.276-0.063,0.51-0.189,0.702c-0.126,0.192-0.289,0.348-0.49,0.468c-0.201,0.12-0.424,0.207-0.671,0.261
				c-0.246,0.054-0.489,0.081-0.729,0.081c-0.294,0-0.566-0.033-0.815-0.099s-0.465-0.166-0.648-0.301s-0.327-0.303-0.432-0.504
				c-0.105-0.201-0.16-0.439-0.167-0.715H22.314z M25.838,103.574h1.026V110h-1.026V103.574z M27.607,103.574h1.026v0.972h-1.026
				V103.574z M27.607,105.347h1.026V110h-1.026V105.347z M33.732,110H32.76v-0.63h-0.018c-0.138,0.27-0.339,0.463-0.603,0.58
				c-0.264,0.117-0.543,0.175-0.837,0.175c-0.366,0-0.685-0.064-0.958-0.193c-0.273-0.129-0.499-0.305-0.68-0.527
				c-0.18-0.222-0.315-0.484-0.405-0.787c-0.09-0.303-0.135-0.628-0.135-0.977c0-0.42,0.057-0.783,0.171-1.089
				s0.265-0.558,0.455-0.756c0.189-0.198,0.405-0.343,0.648-0.437c0.243-0.093,0.49-0.139,0.743-0.139
				c0.144,0,0.291,0.013,0.441,0.04c0.15,0.027,0.294,0.071,0.432,0.131c0.138,0.06,0.265,0.137,0.382,0.229
				c0.117,0.093,0.215,0.202,0.292,0.328h0.018v-2.376h1.026V110z M30.15,107.723c0,0.198,0.025,0.393,0.076,0.585
				s0.129,0.363,0.234,0.513c0.105,0.15,0.238,0.27,0.4,0.36c0.162,0.09,0.354,0.135,0.576,0.135c0.228,0,0.424-0.048,0.59-0.144
				s0.3-0.222,0.405-0.378c0.105-0.156,0.183-0.331,0.234-0.526c0.051-0.195,0.076-0.395,0.076-0.599
				c0-0.516-0.115-0.918-0.347-1.206s-0.544-0.432-0.941-0.432c-0.24,0-0.442,0.049-0.608,0.148c-0.165,0.099-0.3,0.228-0.405,0.387
				c-0.105,0.159-0.18,0.339-0.225,0.54C30.173,107.308,30.15,107.513,30.15,107.723L30.15,107.723z M37.643,107.264
				c-0.012-0.162-0.047-0.318-0.104-0.468c-0.057-0.15-0.135-0.28-0.234-0.391s-0.219-0.201-0.36-0.27
				c-0.141-0.069-0.299-0.104-0.472-0.104c-0.18,0-0.343,0.032-0.491,0.095c-0.147,0.063-0.273,0.15-0.378,0.261
				s-0.189,0.242-0.252,0.392s-0.097,0.312-0.104,0.486H37.643z M35.249,107.939c0,0.18,0.025,0.354,0.076,0.522
				c0.051,0.168,0.127,0.315,0.229,0.441s0.231,0.227,0.387,0.301c0.156,0.075,0.342,0.113,0.558,0.113
				c0.3,0,0.542-0.064,0.724-0.194c0.183-0.129,0.319-0.322,0.41-0.58h0.972c-0.054,0.252-0.147,0.477-0.279,0.675
				c-0.132,0.198-0.291,0.364-0.477,0.499s-0.394,0.237-0.625,0.306c-0.231,0.069-0.472,0.104-0.724,0.104
				c-0.366,0-0.69-0.06-0.972-0.18s-0.521-0.288-0.715-0.504s-0.342-0.474-0.441-0.774c-0.099-0.3-0.148-0.63-0.148-0.99
				c0-0.33,0.053-0.644,0.158-0.94c0.105-0.297,0.255-0.558,0.45-0.783c0.195-0.225,0.43-0.403,0.706-0.535
				c0.276-0.132,0.588-0.198,0.936-0.198c0.366,0,0.694,0.076,0.986,0.229s0.532,0.355,0.724,0.607s0.332,0.541,0.419,0.868
				c0.087,0.327,0.109,0.664,0.067,1.013H35.249z M40.686,105.347h0.774v-1.395h1.026v1.395h0.927v0.765h-0.927v2.484
				c0,0.108,0.005,0.201,0.014,0.279s0.03,0.144,0.063,0.198s0.083,0.095,0.148,0.122c0.066,0.027,0.156,0.04,0.27,0.04
				c0.072,0,0.144-0.002,0.216-0.005c0.072-0.003,0.144-0.013,0.216-0.032v0.792c-0.114,0.012-0.225,0.024-0.333,0.036
				c-0.108,0.012-0.219,0.018-0.333,0.018c-0.27,0-0.487-0.025-0.653-0.076c-0.165-0.051-0.294-0.126-0.387-0.225
				c-0.093-0.099-0.156-0.223-0.189-0.373c-0.033-0.15-0.053-0.321-0.059-0.513v-2.745h-0.774V105.347z M45.884,110.126
				c-0.372,0-0.703-0.062-0.994-0.185s-0.537-0.292-0.738-0.508s-0.354-0.474-0.459-0.774c-0.105-0.3-0.158-0.63-0.158-0.99
				c0-0.354,0.052-0.681,0.158-0.981c0.105-0.3,0.258-0.558,0.459-0.774c0.201-0.216,0.447-0.385,0.738-0.508
				s0.622-0.185,0.994-0.185s0.703,0.062,0.995,0.185c0.291,0.123,0.537,0.292,0.738,0.508c0.201,0.216,0.354,0.474,0.459,0.774
				c0.105,0.3,0.158,0.627,0.158,0.981c0,0.36-0.053,0.69-0.158,0.99c-0.105,0.3-0.258,0.558-0.459,0.774s-0.447,0.385-0.738,0.508
				C46.587,110.064,46.256,110.126,45.884,110.126L45.884,110.126z M45.884,109.316c0.228,0,0.426-0.048,0.594-0.144
				c0.168-0.096,0.306-0.222,0.414-0.378c0.108-0.156,0.188-0.331,0.239-0.526c0.051-0.195,0.076-0.395,0.076-0.599
				c0-0.198-0.026-0.396-0.076-0.594c-0.051-0.198-0.131-0.373-0.239-0.526c-0.108-0.153-0.246-0.277-0.414-0.373
				c-0.168-0.096-0.366-0.144-0.594-0.144s-0.426,0.048-0.594,0.144c-0.168,0.096-0.306,0.22-0.414,0.373s-0.188,0.328-0.238,0.526
				c-0.051,0.198-0.076,0.396-0.076,0.594c0,0.204,0.025,0.404,0.076,0.599c0.051,0.195,0.13,0.37,0.238,0.526
				c0.108,0.156,0.246,0.282,0.414,0.378C45.458,109.268,45.656,109.316,45.884,109.316L45.884,109.316z M51.564,108.506
				c0.03,0.3,0.144,0.51,0.342,0.63c0.198,0.12,0.435,0.18,0.711,0.18c0.096,0,0.205-0.007,0.328-0.022s0.238-0.044,0.347-0.086
				s0.196-0.104,0.265-0.185s0.101-0.188,0.095-0.319c-0.006-0.132-0.054-0.24-0.144-0.324s-0.205-0.151-0.347-0.202
				c-0.141-0.051-0.301-0.094-0.481-0.131c-0.18-0.036-0.363-0.075-0.549-0.117c-0.192-0.042-0.376-0.093-0.554-0.153
				s-0.336-0.141-0.477-0.243c-0.141-0.102-0.253-0.232-0.337-0.391c-0.084-0.159-0.126-0.355-0.126-0.59
				c0-0.252,0.061-0.464,0.184-0.634c0.123-0.171,0.279-0.309,0.468-0.414c0.189-0.105,0.399-0.179,0.63-0.221
				c0.231-0.042,0.451-0.063,0.662-0.063c0.24,0,0.469,0.025,0.688,0.076s0.417,0.133,0.594,0.247
				c0.177,0.114,0.324,0.263,0.441,0.446s0.19,0.403,0.221,0.661h-1.071c-0.048-0.246-0.16-0.411-0.337-0.495
				c-0.177-0.084-0.38-0.126-0.608-0.126c-0.072,0-0.157,0.006-0.257,0.018c-0.099,0.012-0.192,0.035-0.279,0.067
				c-0.087,0.033-0.16,0.081-0.221,0.144c-0.06,0.063-0.09,0.146-0.09,0.248c0,0.126,0.044,0.228,0.131,0.306
				c0.087,0.078,0.201,0.142,0.342,0.193c0.141,0.051,0.302,0.094,0.482,0.131s0.366,0.075,0.558,0.117
				c0.186,0.042,0.369,0.093,0.549,0.153c0.18,0.06,0.34,0.141,0.482,0.243c0.141,0.102,0.255,0.231,0.342,0.387
				c0.087,0.156,0.131,0.348,0.131,0.576c0,0.276-0.063,0.51-0.189,0.702c-0.126,0.192-0.289,0.348-0.49,0.468
				c-0.201,0.12-0.424,0.207-0.671,0.261s-0.489,0.081-0.729,0.081c-0.294,0-0.565-0.033-0.814-0.099s-0.465-0.166-0.648-0.301
				c-0.183-0.135-0.327-0.303-0.432-0.504c-0.105-0.201-0.16-0.439-0.167-0.715H51.564z M58.256,107.264
				c-0.012-0.162-0.047-0.318-0.104-0.468s-0.135-0.28-0.234-0.391c-0.099-0.111-0.219-0.201-0.36-0.27
				c-0.141-0.069-0.298-0.104-0.472-0.104c-0.18,0-0.343,0.032-0.49,0.095c-0.147,0.063-0.273,0.15-0.378,0.261
				c-0.105,0.111-0.189,0.242-0.252,0.392s-0.097,0.312-0.104,0.486H58.256z M55.862,107.939c0,0.18,0.026,0.354,0.076,0.522
				c0.051,0.168,0.127,0.315,0.229,0.441s0.231,0.227,0.387,0.301c0.156,0.075,0.342,0.113,0.558,0.113
				c0.3,0,0.542-0.064,0.725-0.194c0.183-0.129,0.319-0.322,0.41-0.58h0.972c-0.054,0.252-0.147,0.477-0.279,0.675
				c-0.132,0.198-0.291,0.364-0.477,0.499s-0.395,0.237-0.625,0.306c-0.231,0.069-0.472,0.104-0.725,0.104
				c-0.366,0-0.69-0.06-0.972-0.18s-0.52-0.288-0.715-0.504c-0.195-0.216-0.342-0.474-0.441-0.774c-0.099-0.3-0.149-0.63-0.149-0.99
				c0-0.33,0.053-0.644,0.158-0.94c0.105-0.297,0.255-0.558,0.45-0.783c0.195-0.225,0.43-0.403,0.707-0.535
				c0.276-0.132,0.588-0.198,0.936-0.198c0.366,0,0.694,0.076,0.986,0.229c0.291,0.153,0.533,0.355,0.725,0.607
				s0.331,0.541,0.418,0.868s0.11,0.664,0.068,1.013H55.862z M59.197,105.347h0.774v-1.395h1.026v1.395h0.927v0.765h-0.927v2.484
				c0,0.108,0.004,0.201,0.013,0.279c0.009,0.078,0.03,0.144,0.063,0.198c0.033,0.054,0.082,0.095,0.148,0.122
				c0.066,0.027,0.156,0.04,0.27,0.04c0.072,0,0.144-0.002,0.216-0.005c0.072-0.003,0.144-0.013,0.216-0.032v0.792
				c-0.114,0.012-0.225,0.024-0.333,0.036s-0.219,0.018-0.333,0.018c-0.27,0-0.487-0.025-0.653-0.076
				c-0.165-0.051-0.294-0.126-0.387-0.225c-0.093-0.099-0.156-0.223-0.189-0.373s-0.052-0.321-0.058-0.513v-2.745h-0.774V105.347z
				 M65.876,106.31c0.168,0.006,0.336-0.006,0.504-0.036c0.168-0.03,0.318-0.083,0.45-0.158c0.132-0.075,0.238-0.178,0.319-0.311
				s0.121-0.294,0.121-0.486c0-0.27-0.091-0.486-0.274-0.648c-0.183-0.162-0.418-0.243-0.706-0.243c-0.18,0-0.336,0.036-0.468,0.108
				c-0.132,0.072-0.242,0.169-0.328,0.292s-0.151,0.261-0.193,0.414s-0.06,0.311-0.054,0.473H64.22
				c0.012-0.306,0.069-0.59,0.171-0.851c0.102-0.261,0.242-0.488,0.419-0.68s0.391-0.342,0.644-0.45
				c0.252-0.108,0.537-0.162,0.855-0.162c0.246,0,0.488,0.036,0.725,0.108s0.45,0.177,0.639,0.315s0.34,0.313,0.454,0.526
				c0.114,0.213,0.171,0.458,0.171,0.734c0,0.318-0.072,0.595-0.216,0.832c-0.144,0.237-0.369,0.41-0.675,0.518v0.018
				c0.36,0.072,0.641,0.25,0.841,0.535c0.201,0.285,0.302,0.632,0.302,1.039c0,0.3-0.06,0.569-0.18,0.806
				c-0.12,0.237-0.282,0.438-0.486,0.603c-0.204,0.165-0.441,0.293-0.711,0.382c-0.27,0.09-0.555,0.135-0.855,0.135
				c-0.366,0-0.686-0.052-0.959-0.158c-0.273-0.105-0.501-0.253-0.684-0.445s-0.323-0.423-0.419-0.693
				c-0.096-0.27-0.147-0.57-0.153-0.9h1.026c-0.012,0.384,0.083,0.703,0.284,0.958c0.201,0.255,0.503,0.383,0.905,0.383
				c0.342,0,0.628-0.098,0.859-0.293s0.347-0.472,0.347-0.832c0-0.246-0.048-0.441-0.144-0.585
				c-0.096-0.144-0.222-0.253-0.378-0.328c-0.156-0.075-0.331-0.121-0.526-0.139c-0.195-0.018-0.395-0.024-0.599-0.018V106.31z
				 M69.535,103.7h3.258v0.918H70.3l-0.324,1.602l0.018,0.018c0.138-0.156,0.313-0.274,0.526-0.355
				c0.213-0.081,0.424-0.121,0.634-0.121c0.312,0,0.591,0.052,0.837,0.158c0.246,0.105,0.453,0.252,0.621,0.441
				c0.168,0.189,0.296,0.412,0.382,0.671s0.131,0.537,0.131,0.837c0,0.252-0.04,0.512-0.121,0.779s-0.21,0.51-0.387,0.729
				c-0.177,0.219-0.403,0.399-0.679,0.54c-0.276,0.141-0.606,0.212-0.99,0.212c-0.306,0-0.59-0.04-0.85-0.121
				c-0.261-0.081-0.491-0.202-0.689-0.365c-0.198-0.162-0.355-0.361-0.472-0.599c-0.117-0.237-0.182-0.514-0.194-0.832h1.026
				c0.03,0.342,0.147,0.604,0.351,0.787c0.204,0.183,0.474,0.275,0.81,0.275c0.216,0,0.399-0.036,0.549-0.108
				c0.15-0.072,0.271-0.171,0.365-0.297c0.093-0.126,0.159-0.273,0.198-0.441c0.039-0.168,0.059-0.348,0.059-0.54
				c0-0.174-0.024-0.34-0.072-0.5c-0.048-0.159-0.12-0.299-0.216-0.418c-0.096-0.12-0.22-0.216-0.373-0.288
				s-0.331-0.108-0.535-0.108c-0.216,0-0.418,0.041-0.607,0.121c-0.189,0.081-0.326,0.232-0.41,0.455H68.86L69.535,103.7z
				 M76.448,108.506c0.03,0.3,0.144,0.51,0.342,0.63c0.198,0.12,0.435,0.18,0.711,0.18c0.096,0,0.205-0.007,0.328-0.022
				s0.239-0.044,0.347-0.086s0.196-0.104,0.265-0.185s0.101-0.188,0.095-0.319c-0.006-0.132-0.054-0.24-0.144-0.324
				c-0.09-0.084-0.205-0.151-0.346-0.202c-0.141-0.051-0.301-0.094-0.481-0.131c-0.18-0.036-0.363-0.075-0.549-0.117
				c-0.192-0.042-0.376-0.093-0.553-0.153s-0.336-0.141-0.477-0.243c-0.141-0.102-0.253-0.232-0.337-0.391
				c-0.084-0.159-0.126-0.355-0.126-0.59c0-0.252,0.062-0.464,0.185-0.634c0.123-0.171,0.279-0.309,0.468-0.414
				s0.399-0.179,0.63-0.221c0.231-0.042,0.451-0.063,0.661-0.063c0.24,0,0.47,0.025,0.689,0.076
				c0.219,0.051,0.417,0.133,0.594,0.247c0.177,0.114,0.324,0.263,0.441,0.446c0.117,0.183,0.19,0.403,0.22,0.661h-1.071
				c-0.048-0.246-0.16-0.411-0.337-0.495c-0.177-0.084-0.38-0.126-0.608-0.126c-0.072,0-0.157,0.006-0.257,0.018
				c-0.099,0.012-0.192,0.035-0.279,0.067c-0.087,0.033-0.16,0.081-0.22,0.144c-0.06,0.063-0.09,0.146-0.09,0.248
				c0,0.126,0.044,0.228,0.131,0.306c0.087,0.078,0.201,0.142,0.342,0.193s0.301,0.094,0.481,0.131s0.366,0.075,0.558,0.117
				c0.186,0.042,0.369,0.093,0.549,0.153c0.18,0.06,0.34,0.141,0.481,0.243c0.141,0.102,0.255,0.231,0.342,0.387
				c0.087,0.156,0.13,0.348,0.13,0.576c0,0.276-0.063,0.51-0.189,0.702s-0.289,0.348-0.491,0.468
				c-0.201,0.12-0.424,0.207-0.671,0.261s-0.489,0.081-0.729,0.081c-0.294,0-0.565-0.033-0.814-0.099s-0.465-0.166-0.648-0.301
				s-0.327-0.303-0.432-0.504c-0.105-0.201-0.16-0.439-0.167-0.715H76.448z M83.14,107.264c-0.012-0.162-0.047-0.318-0.104-0.468
				s-0.135-0.28-0.234-0.391s-0.219-0.201-0.36-0.27c-0.141-0.069-0.299-0.104-0.472-0.104c-0.18,0-0.343,0.032-0.491,0.095
				c-0.147,0.063-0.273,0.15-0.378,0.261c-0.105,0.111-0.189,0.242-0.252,0.392c-0.063,0.15-0.098,0.312-0.104,0.486H83.14z
				 M80.746,107.939c0,0.18,0.025,0.354,0.076,0.522c0.051,0.168,0.127,0.315,0.229,0.441c0.102,0.126,0.231,0.227,0.387,0.301
				c0.156,0.075,0.342,0.113,0.558,0.113c0.3,0,0.541-0.064,0.724-0.194c0.183-0.129,0.32-0.322,0.41-0.58h0.972
				c-0.054,0.252-0.147,0.477-0.279,0.675c-0.132,0.198-0.291,0.364-0.477,0.499c-0.186,0.135-0.395,0.237-0.626,0.306
				c-0.231,0.069-0.472,0.104-0.724,0.104c-0.366,0-0.69-0.06-0.972-0.18c-0.282-0.12-0.521-0.288-0.715-0.504
				s-0.342-0.474-0.441-0.774s-0.148-0.63-0.148-0.99c0-0.33,0.052-0.644,0.158-0.94c0.105-0.297,0.255-0.558,0.45-0.783
				c0.195-0.225,0.43-0.403,0.706-0.535c0.276-0.132,0.588-0.198,0.936-0.198c0.366,0,0.694,0.076,0.985,0.229
				s0.533,0.355,0.725,0.607s0.331,0.541,0.419,0.868c0.087,0.327,0.109,0.664,0.067,1.013H80.746z M87.69,106.904
				c-0.042-0.288-0.158-0.506-0.347-0.652c-0.189-0.147-0.427-0.221-0.715-0.221c-0.132,0-0.273,0.022-0.423,0.068
				c-0.15,0.045-0.288,0.129-0.414,0.252s-0.231,0.294-0.315,0.513s-0.126,0.505-0.126,0.859c0,0.192,0.022,0.384,0.068,0.576
				c0.045,0.192,0.117,0.363,0.216,0.513c0.099,0.15,0.227,0.272,0.382,0.365c0.156,0.093,0.345,0.14,0.567,0.14
				c0.3,0,0.548-0.093,0.743-0.279c0.195-0.186,0.316-0.447,0.365-0.783h1.026c-0.096,0.606-0.326,1.07-0.689,1.391
				c-0.363,0.321-0.844,0.481-1.444,0.481c-0.366,0-0.688-0.062-0.967-0.185s-0.515-0.291-0.707-0.504s-0.337-0.466-0.436-0.76
				c-0.099-0.294-0.149-0.612-0.149-0.954c0-0.348,0.048-0.675,0.144-0.981c0.096-0.306,0.24-0.571,0.432-0.796
				c0.192-0.225,0.43-0.402,0.715-0.531c0.285-0.129,0.619-0.193,1.004-0.193c0.27,0,0.526,0.035,0.769,0.104
				c0.243,0.069,0.459,0.173,0.648,0.311s0.343,0.312,0.464,0.522c0.12,0.21,0.192,0.459,0.216,0.747H87.69z M90.787,105.347h0.774
				v-1.395h1.026v1.395h0.927v0.765h-0.927v2.484c0,0.108,0.005,0.201,0.014,0.279c0.009,0.078,0.03,0.144,0.063,0.198
				c0.033,0.054,0.083,0.095,0.148,0.122c0.066,0.027,0.156,0.04,0.27,0.04c0.072,0,0.144-0.002,0.216-0.005
				c0.072-0.003,0.144-0.013,0.216-0.032v0.792c-0.114,0.012-0.225,0.024-0.333,0.036s-0.219,0.018-0.333,0.018
				c-0.27,0-0.487-0.025-0.652-0.076c-0.165-0.051-0.294-0.126-0.387-0.225c-0.093-0.099-0.156-0.223-0.189-0.373
				s-0.052-0.321-0.059-0.513v-2.745h-0.774V105.347z M93.879,103.574h1.026v0.972h-1.026V103.574z M93.879,105.347h1.026V110
				h-1.026V105.347z M95.621,105.347h0.972v0.648h0.027c0.078-0.114,0.162-0.219,0.252-0.315c0.09-0.096,0.19-0.177,0.301-0.243
				c0.111-0.066,0.239-0.118,0.382-0.157c0.144-0.039,0.309-0.059,0.495-0.059c0.282,0,0.544,0.063,0.787,0.189
				c0.243,0.126,0.415,0.321,0.518,0.585c0.174-0.24,0.375-0.429,0.603-0.567s0.513-0.207,0.855-0.207
				c0.492,0,0.874,0.12,1.147,0.36c0.273,0.24,0.41,0.642,0.41,1.206V110h-1.026v-2.718c0-0.186-0.006-0.355-0.018-0.508
				c-0.012-0.153-0.047-0.285-0.104-0.396c-0.057-0.111-0.143-0.197-0.257-0.257c-0.114-0.06-0.27-0.09-0.468-0.09
				c-0.348,0-0.6,0.108-0.756,0.324c-0.156,0.216-0.234,0.522-0.234,0.918V110h-1.026v-2.988c0-0.324-0.059-0.568-0.175-0.733
				c-0.117-0.165-0.332-0.248-0.644-0.248c-0.132,0-0.259,0.027-0.382,0.081s-0.231,0.132-0.324,0.234
				c-0.093,0.102-0.168,0.228-0.225,0.378s-0.085,0.321-0.085,0.513V110h-1.026V105.347z M106.246,107.264
				c-0.012-0.162-0.047-0.318-0.104-0.468s-0.135-0.28-0.234-0.391s-0.219-0.201-0.36-0.27s-0.299-0.104-0.473-0.104
				c-0.18,0-0.343,0.032-0.49,0.095c-0.147,0.063-0.273,0.15-0.378,0.261c-0.105,0.111-0.189,0.242-0.252,0.392
				c-0.063,0.15-0.097,0.312-0.104,0.486H106.246z M103.852,107.939c0,0.18,0.026,0.354,0.076,0.522
				c0.051,0.168,0.128,0.315,0.229,0.441c0.102,0.126,0.231,0.227,0.387,0.301c0.156,0.075,0.342,0.113,0.558,0.113
				c0.3,0,0.542-0.064,0.725-0.194c0.183-0.129,0.319-0.322,0.41-0.58h0.972c-0.054,0.252-0.147,0.477-0.279,0.675
				c-0.132,0.198-0.291,0.364-0.477,0.499c-0.186,0.135-0.395,0.237-0.626,0.306s-0.472,0.104-0.725,0.104
				c-0.366,0-0.69-0.06-0.972-0.18c-0.282-0.12-0.52-0.288-0.715-0.504c-0.195-0.216-0.342-0.474-0.441-0.774
				c-0.099-0.3-0.149-0.63-0.149-0.99c0-0.33,0.053-0.644,0.158-0.94c0.105-0.297,0.255-0.558,0.45-0.783
				c0.195-0.225,0.43-0.403,0.706-0.535c0.276-0.132,0.588-0.198,0.936-0.198c0.366,0,0.695,0.076,0.986,0.229
				s0.533,0.355,0.725,0.607s0.331,0.541,0.418,0.868s0.11,0.664,0.068,1.013H103.852z M107.655,105.347h0.963v0.9h0.018
				c0.03-0.126,0.089-0.249,0.175-0.369s0.192-0.229,0.315-0.328c0.123-0.099,0.259-0.178,0.41-0.239
				c0.15-0.06,0.303-0.09,0.459-0.09c0.12,0,0.202,0.003,0.247,0.009c0.045,0.006,0.091,0.012,0.14,0.018v0.99
				c-0.072-0.012-0.146-0.022-0.221-0.032c-0.075-0.009-0.148-0.013-0.22-0.013c-0.174,0-0.338,0.035-0.491,0.104
				s-0.286,0.171-0.4,0.306c-0.114,0.135-0.204,0.301-0.27,0.499c-0.066,0.198-0.099,0.426-0.099,0.684V110h-1.026V105.347z"/>
		</g>
		<g id="Group_1_" transform="translate(455.000000, 214.000000)" sketch:type="MSLayerGroup">
			<rect id="Rectangle-10" x="99" y="3" sketch:type="MSShapeGroup" fill="#D8D8D8" stroke="#979797" width="6" height="42">
			</rect>
			<rect id="Rectangle-10_1_" x="5" y="3" sketch:type="MSShapeGroup" fill="#D8D8D8" stroke="#979797" width="6" height="42">
			</rect>
			<rect id="Rectangle-22" x="10" y="5" sketch:type="MSShapeGroup" fill="#D8D8D8" stroke="#979797" width="90" height="12">
			</rect>
			<rect id="Rectangle-10_2_" sketch:type="MSShapeGroup" fill="#D8D8D8" stroke="#979797" width="110" height="6">
			</rect>
		</g>
		<path id="Oval-75" sketch:type="MSShapeGroup" fill="#898989" d="M487.152,175.639c0,0,7.243-14.359,2.212-20.355
			c-5.031-5.995,2.681-16.446,1.965-15.845s-9.361,11.835-4.33,17.83C492.029,163.264,487.152,175.639,487.152,175.639z"/>
		<g id="Rectangle-27-_x2B_-Path-9-_x2B_-Rectangle-27" transform="translate(476.000000, 177.000000)" sketch:type="MSLayerGroup">
			<path id="Rectangle-27" sketch:type="MSShapeGroup" fill="#D8D8D8" stroke="#979797" d="M15.095,13H7.187C4.791,13,0,14,0,14v2
				h22v-2C22,14,17.397,13,15.095,13z"/>
			<path id="Path-9" sketch:type="MSShapeGroup" fill="#D8D8D8" stroke="#979797" d="M18.186,1.568c0,0,5.681-2.045,6.264,3.292
				c0.583,5.336-9.614,5.899-9.614,5.899l-0.573-1.41c0,0,9.334-0.966,8.834-4.489s-4.911-1.75-4.911-1.75V1.568z"/>
			<path id="Rectangle-27_1_" sketch:type="MSShapeGroup" fill="#D8D8D8" stroke="#979797" d="M1,0l6,14h8l6-14H1z"/>
		</g>
		<g id="Rectangle-29-_x2B_-Rectangle-29" transform="translate(475.000000, 193.000000)" sketch:type="MSLayerGroup">
			<path id="Rectangle-29" sketch:type="MSShapeGroup" fill="#D8D8D8" stroke="#979797" d="M23.242,14.272
				C23.69,16.38,24,17.987,24,18.397C24,19.598,23,22,23,22H1c0,0-0.906-1.363-0.772-3.422C0.634,12.317,4.405,3.622,4,3.257
				C3.361,2.682,2.132,1.731,1.75,0.718S5,0,5,0h15c0,0,0.083,0.351,0.225,0.957c1.053-0.428,6.048-2.127,7.876,3.35
				C29.723,9.164,25.2,12.917,23.242,14.272z"/>
			<path id="Rectangle-29_1_" sketch:type="MSShapeGroup" fill="#4A4A4A" d="M1.762,15c0,0-0.601,2.723-0.601,4.041
				C1.161,19.723,1.572,21,1.572,21h20.785c0,0,0.643-1.68,0.643-2.644C23,17.32,22.357,15,22.357,15H1.762z"/>
		</g>
		<g id="AppIcon" transform="translate(35.000000, 75.000000)" sketch:type="MSLayerGroup">
			<g id="Rectangle-29_2_" sketch:type="MSShapeGroup">
				<path id="path-1_1_" fill="#50E3C2" stroke="#9FD3DA" d="M31,0h64c17.121,0,31,13.879,31,31v64c0,17.121-13.879,31-31,31H31
					c-17.121,0-31-13.879-31-31V31C0,13.879,13.879,0,31,0z"/>
			</g>
		</g>
		<path id="Timer_1_" sketch:type="MSShapeGroup" fill="#F5F5FA" d="M73.94,134.656h-4.536v-2.352H81.26v2.352h-4.536V148H73.94
			V134.656z M84.367,134.152c-0.496,0-0.904-0.144-1.224-0.432c-0.32-0.288-0.48-0.664-0.48-1.128s0.16-0.844,0.48-1.14
			c0.32-0.296,0.728-0.444,1.224-0.444s0.904,0.148,1.224,0.444c0.32,0.296,0.48,0.676,0.48,1.14s-0.16,0.84-0.48,1.128
			C85.271,134.008,84.863,134.152,84.367,134.152z M82.975,136.216h2.76V148h-2.76V136.216z M88.602,136.216h2.28l0.192,1.608h0.096
			c0.496-0.528,1.036-0.976,1.62-1.344c0.584-0.368,1.244-0.552,1.98-0.552c0.864,0,1.556,0.184,2.076,0.552
			c0.52,0.368,0.916,0.888,1.188,1.56c0.56-0.608,1.144-1.112,1.752-1.512s1.288-0.6,2.04-0.6c1.248,0,2.168,0.404,2.76,1.212
			s0.888,1.964,0.888,3.468V148h-2.784v-7.032c0-0.976-0.148-1.664-0.444-2.064c-0.296-0.4-0.748-0.6-1.356-0.6
			c-0.736,0-1.56,0.488-2.472,1.464V148h-2.76v-7.032c0-0.976-0.148-1.664-0.444-2.064c-0.296-0.4-0.756-0.6-1.38-0.6
			c-0.736,0-1.56,0.488-2.472,1.464V148h-2.76V136.216z M107.406,142.12c0-0.96,0.152-1.824,0.456-2.592s0.708-1.416,1.212-1.944
			c0.504-0.528,1.084-0.936,1.74-1.224s1.328-0.432,2.016-0.432c0.8,0,1.504,0.136,2.112,0.408s1.116,0.656,1.524,1.152
			c0.408,0.496,0.716,1.088,0.924,1.776c0.208,0.688,0.312,1.44,0.312,2.256c0,0.544-0.04,0.976-0.12,1.296h-7.488
			c0.128,1.072,0.5,1.896,1.116,2.472c0.616,0.576,1.404,0.864,2.364,0.864c0.512,0,0.988-0.076,1.428-0.228
			c0.44-0.152,0.876-0.364,1.308-0.636l0.936,1.728c-0.56,0.368-1.184,0.672-1.872,0.912c-0.688,0.24-1.408,0.36-2.16,0.36
			c-0.816,0-1.576-0.14-2.28-0.42c-0.704-0.28-1.32-0.684-1.848-1.212c-0.528-0.528-0.94-1.172-1.236-1.932
			C107.554,143.964,107.406,143.096,107.406,142.12z M115.302,141.064c0-0.944-0.196-1.68-0.588-2.208
			c-0.392-0.528-0.996-0.792-1.812-0.792c-0.704,0-1.32,0.252-1.848,0.756c-0.528,0.504-0.856,1.252-0.984,2.244H115.302z
			 M119.681,136.216h2.28l0.192,2.088h0.096c0.416-0.768,0.92-1.356,1.512-1.764c0.592-0.408,1.2-0.612,1.824-0.612
			c0.56,0,1.008,0.08,1.344,0.24l-0.48,2.4c-0.208-0.064-0.4-0.112-0.576-0.144c-0.176-0.032-0.392-0.048-0.648-0.048
			c-0.464,0-0.952,0.18-1.464,0.54c-0.512,0.36-0.952,0.988-1.32,1.884v7.2h-2.76V136.216z"/>
		<path id="Rectangle-67" sketch:type="MSShapeGroup" fill="#D8D8D8" stroke="#979797" d="M534.673,202
			c0.555,0,1.005,0.447,1.005,0.999v11.003c0,0.551-0.45,0.999-1.005,0.999h-8.469c-0.555,0-1.005-0.447-1.005-0.999v-11.003
			c0-0.551,0.45-0.999,1.005-0.999H534.673z"/>
		<path fill="#50E3C2" stroke="#979797" d="M497.603,204.337c-0.608-2.744-1.299-5.747-1.816-7.972
			c1.321-0.669,3.984-1.541,4.825,1.724C501.361,200.993,498.904,203.333,497.603,204.337z"/>
	</g>
</g>
</svg>
