<?xml version="1.0" encoding="UTF-8" standalone="no"?>
<svg width="2720px" height="1360px" viewBox="0 0 2720 1360" version="1.1" xmlns="http://www.w3.org/2000/svg" xmlns:xlink="http://www.w3.org/1999/xlink" xmlns:sketch="http://www.bohemiancoding.com/sketch/ns">
    <!-- Generator: Sketch 3.2.2 (9983) - http://www.bohemiancoding.com/sketch -->
    <title>post_pausing_launch-here_travel_radar</title>
    <desc>Created with Sketch.</desc>
    <defs>
        <rect id="path-1" x="314" y="214" width="1024" height="1024" rx="300"></rect>
        <rect id="path-3" x="1454" y="214" width="1024" height="1024" rx="300"></rect>
    </defs>
    <g id="Page-1" stroke="none" stroke-width="1" fill="none" fill-rule="evenodd" sketch:type="MSPage">
        <g id="post_pausing_launch-here_travel_radar" sketch:type="MSArtboardGroup">
            <mask id="mask-2" sketch:name="rect4108" fill="white">
                <use xlink:href="#path-1"></use>
            </mask>
            <use id="rect4108" stroke="#46DFBD" stroke-width="2" sketch:type="MSShapeGroup" xlink:href="#path-1"></use>
            <path d="M828.81238,1043.27839 C1005.03283,1043.27839 1147.88772,900.432226 1147.88772,724.22253 C1147.88772,548.012834 1005.03283,405.166667 828.81238,405.166667 C652.591925,405.166667 509.737037,548.012834 509.737037,724.22253 C509.737037,900.432226 652.591925,1043.27839 828.81238,1043.27839 Z" id="Oval" stroke="#48E0BE" stroke-width="2" sketch:type="MSShapeGroup" mask="url(#mask-2)"></path>
            <path d="M828.796232,974.885929 C967.248876,974.885929 1079.48691,862.654749 1079.48691,724.210557 C1079.48691,585.766365 967.248876,473.535185 828.796232,473.535185 C690.343588,473.535185 578.105556,585.766365 578.105556,724.210557 C578.105556,862.654749 690.343588,974.885929 828.796232,974.885929 Z" id="Oval" stroke="#48E0BE" stroke-width="2" sketch:type="MSShapeGroup" mask="url(#mask-2)"></path>
            <path d="M828.829893,1117.4547 C1046.01212,1117.4547 1222.07309,941.404487 1222.07309,724.235515 C1222.07309,507.066544 1046.01212,331.016327 828.829893,331.016327 C611.647662,331.016327 435.586698,507.066544 435.586698,724.235515 C435.586698,941.404487 611.647662,1117.4547 828.829893,1117.4547 Z" id="Oval" stroke="#48E0BE" stroke-width="2" sketch:type="MSShapeGroup" mask="url(#mask-2)"></path>
            <path d="M714.711067,810.285251 C762.825041,873.985633 829,929 829,929 C829,929 903.4745,867.62012 952.468051,799.457727 C979.747599,761.50499 995,721.449507 995,688.715952 C995,597.193554 920.679273,523 829,523 C737.320727,523 663,597.193554 663,688.715952 C663,724.58133 683.706427,769.23673 714.711067,810.285251 Z" id="Oval-13" stroke="#48E0BE" stroke-width="2" sketch:type="MSShapeGroup" mask="url(#mask-2)"></path>
            <path d="M828.747878,720.081816 C854.103225,720.081816 874.657792,699.528504 874.657792,674.174705 C874.657792,648.820905 854.103225,628.267593 828.747878,628.267593 C803.392531,628.267593 782.837963,648.820905 782.837963,674.174705 C782.837963,699.528504 803.392531,720.081816 828.747878,720.081816 Z" id="Oval" stroke="#48E0BE" stroke-width="2" sketch:type="MSShapeGroup" mask="url(#mask-2)"></path>
            <path d="M1236.5,405 C1323.48485,405 1394,334.484852 1394,247.5 C1394,160.515148 1323.48485,90 1236.5,90 C1149.51515,90 1079,160.515148 1079,247.5 C1079,334.484852 1149.51515,405 1236.5,405 Z M1255,169.234974 L1288,169.234974 L1288,326.016327 L1255,326.016327 L1255,169.234974 Z M1185,169.234974 L1218,169.234974 L1218,326.016327 L1185,326.016327 L1185,169.234974 Z" id="Oval-7" fill="#6FD8EB" sketch:type="MSShapeGroup"></path>
            <path d="M2376.5,405 C2463.48485,405 2534,334.484852 2534,247.5 C2534,160.515148 2463.48485,90 2376.5,90 C2289.51515,90 2219,160.515148 2219,247.5 C2219,334.484852 2289.51515,405 2376.5,405 Z M2395,169.234974 L2428,169.234974 L2428,326.016327 L2395,326.016327 L2395,169.234974 Z M2325,169.234974 L2358,169.234974 L2358,326.016327 L2325,326.016327 L2325,169.234974 Z" id="Oval-9" fill="#6FD8EB" sketch:type="MSShapeGroup"></path>
            <mask id="mask-4" sketch:name="rect4108 2" fill="white">
                <use xlink:href="#path-3"></use>
            </mask>
            <use id="rect4108-2" stroke="#46DFBD" stroke-width="2" sketch:type="MSShapeGroup" xlink:href="#path-3"></use>
            <path d="M1968.81238,1043.27839 C2145.03283,1043.27839 2287.88772,900.432226 2287.88772,724.22253 C2287.88772,548.012834 2145.03283,405.166667 1968.81238,405.166667 C1792.59193,405.166667 1649.73704,548.012834 1649.73704,724.22253 C1649.73704,900.432226 1792.59193,1043.27839 1968.81238,1043.27839 Z" id="Oval-5" stroke="#48E0BE" stroke-width="2" sketch:type="MSShapeGroup" mask="url(#mask-4)"></path>
            <path d="M1968.79623,974.885929 C2107.24888,974.885929 2219.48691,862.654749 2219.48691,724.210557 C2219.48691,585.766365 2107.24888,473.535185 1968.79623,473.535185 C1830.34359,473.535185 1718.10556,585.766365 1718.10556,724.210557 C1718.10556,862.654749 1830.34359,974.885929 1968.79623,974.885929 Z" id="Oval-4" stroke="#48E0BE" stroke-width="2" sketch:type="MSShapeGroup" mask="url(#mask-4)"></path>
            <path d="M1968.82989,1117.4547 C2186.01212,1117.4547 2362.07309,941.404487 2362.07309,724.235515 C2362.07309,507.066544 2186.01212,331.016327 1968.82989,331.016327 C1751.64766,331.016327 1575.5867,507.066544 1575.5867,724.235515 C1575.5867,941.404487 1751.64766,1117.4547 1968.82989,1117.4547 Z" id="Oval-3" stroke="#48E0BE" stroke-width="2" sketch:type="MSShapeGroup" mask="url(#mask-4)"></path>
            <path d="M1974.38642,771.267593 C1956.43782,771.267593 1941.88738,756.717152 1941.88738,738.767593 C1941.88738,720.818034 1956.43782,706.267593 1974.38642,706.267593 C1992.33598,706.267593 2006.88738,720.818034 2006.88738,738.767593 C2006.88738,756.717152 1992.33598,771.267593 1974.38642,771.267593 M1931.88738,607.267593 L1931.88738,590.480575 C1931.88738,578.764734 1941.35566,569.267593 1953.03474,569.267593 L1993.74096,569.267593 C2005.42004,569.267593 2014.88738,578.764734 2014.88738,590.480575 L2014.88738,607.267593 L1931.88738,607.267593 M1936.64141,539.267593 C1915.5574,539.267593 1898.46477,556.357896 1898.46477,577.439022 L1898.46477,606.067593 C1898.46477,606.387279 1868.10193,607.021879 1868.10193,607.021879 C1833.74201,607.021879 1805.88738,635.197164 1805.88738,669.95225 L1805.88738,810.337222 C1805.88738,845.092307 1833.74201,873.267593 1868.10193,873.267593 L2078.67282,873.267593 C2113.03275,873.267593 2140.88738,845.092307 2140.88738,810.337222 L2140.88738,669.95225 C2140.88738,635.197164 2113.03275,607.021879 2078.67282,607.021879 L2048.28421,607.021879 C2048.29185,606.704102 2048.30807,577.439022 2048.30807,577.439022 C2048.30807,556.357896 2031.21639,539.267593 2010.13144,539.267593 L1936.64141,539.267593 Z" id="Imported-Layers" stroke="#48E0BE" stroke-width="2" sketch:type="MSShapeGroup" mask="url(#mask-4)"></path>
        </g>
    </g>
</svg>