<?xml version="1.0" encoding="UTF-8" standalone="no"?>
<svg width="680px" height="340px" viewBox="0 0 680 340" version="1.1" xmlns="http://www.w3.org/2000/svg" xmlns:xlink="http://www.w3.org/1999/xlink" xmlns:sketch="http://www.bohemiancoding.com/sketch/ns">
    <title>TrackingPrecision 1</title>
    <description>Created with Sketch (http://www.bohemiancoding.com/sketch)</description>
    <defs></defs>
    <g id="Page-1" stroke="none" stroke-width="1" fill="none" fill-rule="evenodd" sketch:type="MSPage">
        <g id="TrackingPrecision-1" sketch:type="MSArtboardGroup">
            <g id="Group" sketch:type="MSLayerGroup" transform="translate(38.000000, -120.000000)">
                <path d="M218,436 C338.398081,436 436,338.398081 436,218 C436,97.6019186 338.398081,0 218,0 C97.6019186,0 0,97.6019186 0,218 C0,338.398081 97.6019186,436 218,436 Z" id="Oval-29" opacity="0.2" fill="#B3D8F2" sketch:type="MSShapeGroup"></path>
                <path d="M217.5,262 C241.524388,262 261,242.524388 261,218.5 C261,194.475612 241.524388,175 217.5,175 C193.475612,175 174,194.475612 174,218.5 C174,242.524388 193.475612,262 217.5,262 Z" id="Oval-29" opacity="0.2" fill="#84A5CC" sketch:type="MSShapeGroup"></path>
                <path d="M218.5,219 C218.776142,219 219,218.776142 219,218.5 C219,218.223858 218.776142,218 218.5,218 C218.223858,218 218,218.223858 218,218.5 C218,218.776142 218.223858,219 218.5,219 Z" id="Oval-29" stroke="#50E3C2" stroke-width="2" fill="#50E3C2" sketch:type="MSShapeGroup"></path>
                <path d="M221.369724,218.3125 L465.734055,218.3125" id="Line" stroke="#4A4A4A" stroke-width="0.5" stroke-linecap="square" opacity="0.3" sketch:type="MSShapeGroup"></path>
                <path d="M221.369724,240.25 L465.734055,240.25" id="Line" stroke="#4A4A4A" stroke-width="0.5" stroke-linecap="square" opacity="0.3" sketch:type="MSShapeGroup"></path>
                <path d="M221.369724,338.25 L465.734055,338.25" id="Line" stroke="#4A4A4A" stroke-width="0.5" stroke-linecap="square" opacity="0.3" sketch:type="MSShapeGroup"></path>
            </g>
            <path d="M509.876,36.968 L506.475,36.968 L506.475,34.612 L516.089,34.612 L516.089,36.968 L512.688,36.968 L512.688,47 L509.876,47 L509.876,36.968 Z M516.477923,37.576 L518.757923,37.576 L518.947923,39.229 L519.023923,39.229 C519.365925,38.5829968 519.777587,38.1080015 520.258923,37.804 C520.740259,37.4999985 521.221587,37.348 521.702923,37.348 C521.968924,37.348 522.187422,37.3638332 522.358423,37.3955 C522.529424,37.4271668 522.684589,37.4746663 522.823923,37.538 L522.367923,39.951 C522.190589,39.9003331 522.025924,39.8623335 521.873923,39.837 C521.721922,39.8116665 521.544591,39.799 521.341923,39.799 C520.987255,39.799 520.616758,39.9256654 520.230423,40.179 C519.844088,40.4323346 519.524258,40.8819968 519.270923,41.528 L519.270923,47 L516.477923,47 L516.477923,37.576 Z M522.623846,44.378 C522.623846,43.3899951 523.041842,42.6173361 523.877846,42.06 C524.71385,41.5026639 526.062837,41.1290009 527.924846,40.939 C527.899513,40.5209979 527.772847,40.1885012 527.544846,39.9415 C527.316845,39.6944988 526.949515,39.571 526.442846,39.571 C526.037511,39.571 525.632181,39.6469992 525.226846,39.799 C524.821511,39.9510008 524.390848,40.1599987 523.934846,40.426 L522.946846,38.583 C523.554849,38.2156648 524.191343,37.9180011 524.856346,37.69 C525.521349,37.4619989 526.227509,37.348 526.974846,37.348 C528.190852,37.348 529.118676,37.6931632 529.758346,38.3835 C530.398016,39.0738368 530.717846,40.147326 530.717846,41.604 L530.717846,47 L528.437846,47 L528.228846,46.031 L528.171846,46.031 C527.766511,46.3856684 527.339015,46.6738322 526.889346,46.8955 C526.439677,47.1171678 525.948849,47.228 525.416846,47.228 C524.986177,47.228 524.599848,47.1551674 524.257846,47.0095 C523.915844,46.8638326 523.624514,46.661168 523.383846,46.4015 C523.143178,46.141832 522.956347,45.8410017 522.823346,45.499 C522.690345,45.1569983 522.623846,44.7833354 522.623846,44.378 Z M525.283846,44.169 C525.283846,44.4730015 525.382012,44.6978326 525.578346,44.8435 C525.77468,44.9891674 526.037511,45.062 526.366846,45.062 C526.696181,45.062 526.974845,44.992334 527.202846,44.853 C527.430847,44.713666 527.671511,44.5173346 527.924846,44.264 L527.924846,42.611 C526.924174,42.750334 526.233848,42.9529987 525.853846,43.219 C525.473844,43.4850013 525.283846,43.8016648 525.283846,44.169 Z M532.037769,42.288 C532.037769,41.5026627 532.170768,40.8028364 532.436769,40.1885 C532.70277,39.5741636 533.0606,39.0580021 533.510269,38.64 C533.959938,38.2219979 534.482433,37.9021678 535.077769,37.6805 C535.673105,37.4588322 536.293766,37.348 536.939769,37.348 C537.522439,37.348 538.0481,37.4461657 538.516769,37.6425 C538.985438,37.8388343 539.378101,38.101665 539.694769,38.431 L538.421769,40.16 C537.978434,39.7926648 537.541438,39.609 537.110769,39.609 C536.426766,39.609 535.888438,39.8496643 535.495769,40.331 C535.103101,40.8123357 534.906769,41.4646625 534.906769,42.288 C534.906769,43.1113374 535.106267,43.7636643 535.505269,44.245 C535.904271,44.7263357 536.407766,44.967 537.015769,44.967 C537.357771,44.967 537.668101,44.897334 537.946769,44.758 C538.225437,44.618666 538.478768,44.4603342 538.706769,44.283 L539.827769,46.05 C539.371767,46.4553354 538.865105,46.752999 538.307769,46.943 C537.750433,47.1330009 537.212105,47.228 536.692769,47.228 C536.034099,47.228 535.422939,47.1171678 534.859269,46.8955 C534.2956,46.6738322 533.804771,46.3540021 533.386769,45.936 C532.968767,45.5179979 532.639437,45.0018364 532.398769,44.3875 C532.158101,43.7731636 532.037769,43.0733373 532.037769,42.288 Z M540.938692,33.681 L543.655692,33.681 L543.655692,41.319 L543.731692,41.319 L546.714692,37.576 L549.754692,37.576 L546.448692,41.452 L550.001692,47 L546.980692,47 L544.852692,43.333 L543.655692,44.682 L543.655692,47 L540.938692,47 L540.938692,33.681 Z M552.214615,36.189 C551.745946,36.189 551.359617,36.0528347 551.055615,35.7805 C550.751614,35.5081653 550.599615,35.1566688 550.599615,34.726 C550.599615,34.2953312 550.751614,33.9470013 551.055615,33.681 C551.359617,33.4149987 551.745946,33.282 552.214615,33.282 C552.695951,33.282 553.085447,33.4149987 553.383115,33.681 C553.680783,33.9470013 553.829615,34.2953312 553.829615,34.726 C553.829615,35.1566688 553.680783,35.5081653 553.383115,35.7805 C553.085447,36.0528347 552.695951,36.189 552.214615,36.189 Z M550.827615,37.576 L553.620615,37.576 L553.620615,47 L550.827615,47 L550.827615,37.576 Z M555.548538,37.576 L557.828538,37.576 L558.018538,38.773 L558.094538,38.773 C558.499874,38.3929981 558.943203,38.0605014 559.424538,37.7755 C559.905874,37.4904986 560.469535,37.348 561.115538,37.348 C562.141543,37.348 562.885703,37.6836633 563.348038,38.355 C563.810374,39.0263367 564.041538,39.9573274 564.041538,41.148 L564.041538,47 L561.248538,47 L561.248538,41.509 C561.248538,40.8249966 561.156706,40.3563346 560.973038,40.103 C560.789371,39.8496654 560.494874,39.723 560.089538,39.723 C559.73487,39.723 559.430873,39.8021659 559.177538,39.9605 C558.924204,40.1188341 558.64554,40.3436652 558.341538,40.635 L558.341538,47 L555.548538,47 L555.548538,37.576 Z M565.304461,48.615 C565.304461,47.8549962 565.754124,47.2216692 566.653461,46.715 L566.653461,46.639 C566.400127,46.4743325 566.191129,46.2653346 566.026461,46.012 C565.861794,45.7586654 565.779461,45.4356686 565.779461,45.043 C565.779461,44.7009983 565.880794,44.3748349 566.083461,44.0645 C566.286129,43.7541651 566.53946,43.4913344 566.843461,43.276 L566.843461,43.2 C566.514126,42.9719989 566.219629,42.6458355 565.959961,42.2215 C565.700293,41.7971645 565.570461,41.3063361 565.570461,40.749 C565.570461,40.1789971 565.678127,39.6818355 565.893461,39.2575 C566.108796,38.8331645 566.39696,38.4785014 566.757961,38.1935 C567.118963,37.9084986 567.533792,37.696334 568.002461,37.557 C568.47113,37.417666 568.958792,37.348 569.465461,37.348 C570.022797,37.348 570.510459,37.4239992 570.928461,37.576 L574.367461,37.576 L574.367461,39.609 L572.866461,39.609 C572.955128,39.748334 573.027961,39.9256656 573.084961,40.141 C573.141962,40.3563344 573.170461,40.5906654 573.170461,40.844 C573.170461,41.3886694 573.075462,41.860498 572.885461,42.2595 C572.69546,42.658502 572.43263,42.987832 572.096961,43.2475 C571.761293,43.507168 571.36863,43.7003327 570.918961,43.827 C570.469292,43.9536673 569.984797,44.017 569.465461,44.017 C569.098126,44.017 568.71813,43.9536673 568.325461,43.827 C568.198794,43.9283338 568.110128,44.0296662 568.059461,44.131 C568.008794,44.2323338 567.983461,44.3653325 567.983461,44.53 C567.983461,44.7706679 568.08796,44.9479994 568.296961,45.062 C568.505962,45.1760006 568.876459,45.233 569.408461,45.233 L570.928461,45.233 C572.0938,45.233 572.983625,45.4198315 573.597961,45.7935 C574.212298,46.1671685 574.519461,46.7783291 574.519461,47.627 C574.519461,48.1210025 574.395963,48.5738313 574.148961,48.9855 C573.90196,49.3971687 573.550464,49.7518318 573.094461,50.0495 C572.638459,50.3471682 572.087465,50.5814991 571.441461,50.7525 C570.795458,50.9235009 570.067132,51.009 569.256461,51.009 C568.699125,51.009 568.182964,50.9615005 567.707961,50.8665 C567.232959,50.7714995 566.814963,50.6290009 566.453961,50.439 C566.09296,50.248999 565.811129,50.0020015 565.608461,49.698 C565.405794,49.3939985 565.304461,49.0330021 565.304461,48.615 Z M567.603461,48.178 C567.603461,48.5326684 567.793459,48.8018324 568.173461,48.9855 C568.553463,49.1691676 569.060125,49.261 569.693461,49.261 C570.326798,49.261 570.846126,49.1501678 571.251461,48.9285 C571.656797,48.7068322 571.859461,48.431335 571.859461,48.102 C571.859461,47.8106652 571.735963,47.6143338 571.488961,47.513 C571.24196,47.4116662 570.88413,47.361 570.415461,47.361 L569.446461,47.361 C569.117126,47.361 568.851129,47.3515001 568.648461,47.3325 C568.445794,47.3134999 568.268462,47.2850002 568.116461,47.247 C567.77446,47.5510015 567.603461,47.8613317 567.603461,48.178 Z M569.465461,42.326 C569.832797,42.326 570.13996,42.196168 570.386961,41.9365 C570.633963,41.676832 570.757461,41.2810027 570.757461,40.749 C570.757461,40.2549975 570.633963,39.878168 570.386961,39.6185 C570.13996,39.358832 569.832797,39.229 569.465461,39.229 C569.098126,39.229 568.790963,39.3556654 568.543961,39.609 C568.29696,39.8623346 568.173461,40.2423308 568.173461,40.749 C568.173461,41.2810027 568.29696,41.676832 568.543961,41.9365 C568.790963,42.196168 569.098126,42.326 569.465461,42.326 Z M579.173307,34.612 L583.695307,34.612 C584.366644,34.612 584.996804,34.6784993 585.585807,34.8115 C586.17481,34.9445007 586.687805,35.1661651 587.124807,35.4765 C587.56181,35.7868349 587.906973,36.1984974 588.160307,36.7115 C588.413642,37.2245026 588.540307,37.8546629 588.540307,38.602 C588.540307,39.3240036 588.410475,39.9509973 588.150807,40.483 C587.891139,41.0150027 587.539643,41.4519983 587.096307,41.794 C586.652972,42.1360017 586.139977,42.3893325 585.557307,42.554 C584.974638,42.7186675 584.353977,42.801 583.695307,42.801 L581.966307,42.801 L581.966307,47 L579.173307,47 L579.173307,34.612 Z M583.524307,40.578 C585.044315,40.578 585.804307,39.9193399 585.804307,38.602 C585.804307,37.9559968 585.611143,37.5000013 585.224807,37.234 C584.838472,36.9679987 584.271645,36.835 583.524307,36.835 L581.966307,36.835 L581.966307,40.578 L583.524307,40.578 Z M589.93623,37.576 L592.21623,37.576 L592.40623,39.229 L592.48223,39.229 C592.824232,38.5829968 593.235895,38.1080015 593.71723,37.804 C594.198566,37.4999985 594.679895,37.348 595.16123,37.348 C595.427232,37.348 595.64573,37.3638332 595.81673,37.3955 C595.987731,37.4271668 596.142896,37.4746663 596.28223,37.538 L595.82623,39.951 C595.648896,39.9003331 595.484231,39.8623335 595.33223,39.837 C595.18023,39.8116665 595.002898,39.799 594.80023,39.799 C594.445562,39.799 594.075066,39.9256654 593.68873,40.179 C593.302395,40.4323346 592.982565,40.8819968 592.72923,41.528 L592.72923,47 L589.93623,47 L589.93623,37.576 Z M596.234154,42.288 C596.234154,41.5279962 596.360819,40.8408364 596.614154,40.2265 C596.867488,39.6121636 597.199985,39.0928355 597.611654,38.6685 C598.023322,38.2441645 598.495151,37.9180011 599.027154,37.69 C599.559156,37.4619989 600.110151,37.348 600.680154,37.348 C601.35149,37.348 601.937318,37.4619989 602.437654,37.69 C602.937989,37.9180011 603.355985,38.2346646 603.691654,38.64 C604.027322,39.0453354 604.277486,39.5234972 604.442154,40.0745 C604.606821,40.6255028 604.689154,41.2239968 604.689154,41.87 C604.689154,42.1233346 604.676487,42.354499 604.651154,42.5635 C604.62582,42.772501 604.600487,42.9339994 604.575154,43.048 L598.932154,43.048 C599.058821,43.7700036 599.340651,44.2924984 599.777654,44.6155 C600.214656,44.9385016 600.749817,45.1 601.383154,45.1 C602.05449,45.1 602.73215,44.8910021 603.416154,44.473 L604.347154,46.164 C603.865818,46.493335 603.330656,46.752999 602.741654,46.943 C602.152651,47.1330009 601.573156,47.228 601.003154,47.228 C600.331817,47.228 599.704823,47.1171678 599.122154,46.8955 C598.539484,46.6738322 598.032822,46.3508355 597.602154,45.9265 C597.171485,45.5021645 596.835821,44.986003 596.595154,44.378 C596.354486,43.769997 596.234154,43.0733373 596.234154,42.288 Z M602.314154,41.319 C602.314154,40.7743306 602.193821,40.3310017 601.953154,39.989 C601.712486,39.6469983 601.307156,39.476 600.737154,39.476 C600.293818,39.476 599.904322,39.6248318 599.568654,39.9225 C599.232985,40.2201682 599.014487,40.6856635 598.913154,41.319 L602.314154,41.319 Z M605.553077,42.288 C605.553077,41.5026627 605.686075,40.8028364 605.952077,40.1885 C606.218078,39.5741636 606.575908,39.0580021 607.025577,38.64 C607.475245,38.2219979 607.99774,37.9021678 608.593077,37.6805 C609.188413,37.4588322 609.809073,37.348 610.455077,37.348 C611.037746,37.348 611.563408,37.4461657 612.032077,37.6425 C612.500746,37.8388343 612.893408,38.101665 613.210077,38.431 L611.937077,40.16 C611.493741,39.7926648 611.056745,39.609 610.626077,39.609 C609.942073,39.609 609.403745,39.8496643 609.011077,40.331 C608.618408,40.8123357 608.422077,41.4646625 608.422077,42.288 C608.422077,43.1113374 608.621575,43.7636643 609.020577,44.245 C609.419579,44.7263357 609.923074,44.967 610.531077,44.967 C610.873078,44.967 611.183409,44.897334 611.462077,44.758 C611.740745,44.618666 611.994075,44.4603342 612.222077,44.283 L613.343077,46.05 C612.887074,46.4553354 612.380413,46.752999 611.823077,46.943 C611.26574,47.1330009 610.727413,47.228 610.208077,47.228 C609.549407,47.228 608.938246,47.1171678 608.374577,46.8955 C607.810907,46.6738322 607.320079,46.3540021 606.902077,45.936 C606.484074,45.5179979 606.154744,45.0018364 605.914077,44.3875 C605.673409,43.7731636 605.553077,43.0733373 605.553077,42.288 Z M615.841,36.189 C615.372331,36.189 614.986001,36.0528347 614.682,35.7805 C614.377998,35.5081653 614.226,35.1566688 614.226,34.726 C614.226,34.2953312 614.377998,33.9470013 614.682,33.681 C614.986001,33.4149987 615.372331,33.282 615.841,33.282 C616.322335,33.282 616.711831,33.4149987 617.0095,33.681 C617.307168,33.9470013 617.456,34.2953312 617.456,34.726 C617.456,35.1566688 617.307168,35.5081653 617.0095,35.7805 C616.711831,36.0528347 616.322335,36.189 615.841,36.189 Z M614.454,37.576 L617.247,37.576 L617.247,47 L614.454,47 L614.454,37.576 Z M619.592923,44.169 C620.023591,44.498335 620.435254,44.7453325 620.827923,44.91 C621.220591,45.0746675 621.619587,45.157 622.024923,45.157 C622.442925,45.157 622.746922,45.087334 622.936923,44.948 C623.126924,44.808666 623.221923,44.6123346 623.221923,44.359 C623.221923,44.2069992 623.16809,44.0708339 623.060423,43.9505 C622.952755,43.8301661 622.80709,43.7193338 622.623423,43.618 C622.439755,43.5166662 622.233924,43.4248337 622.005923,43.3425 C621.777922,43.2601663 621.543591,43.1683338 621.302923,43.067 C621.011588,42.9529994 620.720257,42.8200008 620.428923,42.668 C620.137588,42.5159992 619.871591,42.3291678 619.630923,42.1075 C619.390255,41.8858322 619.193923,41.6261682 619.041923,41.3285 C618.889922,41.0308318 618.813923,40.6856686 618.813923,40.293 C618.813923,39.8623312 618.899422,39.4633352 619.070423,39.096 C619.241424,38.7286648 619.485254,38.4183346 619.801923,38.165 C620.118591,37.9116654 620.498587,37.7121674 620.941923,37.5665 C621.385258,37.4208326 621.879253,37.348 622.423923,37.348 C623.145926,37.348 623.779253,37.4714988 624.323923,37.7185 C624.868592,37.9655012 625.343587,38.2409985 625.748923,38.545 L624.494923,40.217 C624.152921,39.9636654 623.817258,39.767334 623.487923,39.628 C623.158588,39.488666 622.829258,39.419 622.499923,39.419 C621.790586,39.419 621.435923,39.6659975 621.435923,40.16 C621.435923,40.3120008 621.486589,40.4418328 621.587923,40.5495 C621.689257,40.6571672 621.825422,40.7553329 621.996423,40.844 C622.167424,40.9326671 622.363755,41.0181663 622.585423,41.1005 C622.80709,41.1828337 623.038255,41.2683329 623.278923,41.357 C623.582924,41.4710006 623.883755,41.6008326 624.181423,41.7465 C624.479091,41.8921674 624.751421,42.0726656 624.998423,42.288 C625.245424,42.5033344 625.444922,42.7661651 625.596923,43.0765 C625.748923,43.3868349 625.824923,43.7573312 625.824923,44.188 C625.824923,44.6186688 625.74259,45.0176648 625.577923,45.385 C625.413255,45.7523352 625.166258,46.0721653 624.836923,46.3445 C624.507588,46.6168347 624.102258,46.8321659 623.620923,46.9905 C623.139587,47.1488341 622.582259,47.228 621.948923,47.228 C621.328253,47.228 620.691759,47.1076679 620.039423,46.867 C619.387086,46.6263321 618.820258,46.3096686 618.338923,45.917 L619.592923,44.169 Z M628.455846,36.189 C627.987177,36.189 627.600847,36.0528347 627.296846,35.7805 C626.992844,35.5081653 626.840846,35.1566688 626.840846,34.726 C626.840846,34.2953312 626.992844,33.9470013 627.296846,33.681 C627.600847,33.4149987 627.987177,33.282 628.455846,33.282 C628.937181,33.282 629.326678,33.4149987 629.624346,33.681 C629.922014,33.9470013 630.070846,34.2953312 630.070846,34.726 C630.070846,35.1566688 629.922014,35.5081653 629.624346,35.7805 C629.326678,36.0528347 628.937181,36.189 628.455846,36.189 Z M627.068846,37.576 L629.861846,37.576 L629.861846,47 L627.068846,47 L627.068846,37.576 Z M631.238769,42.288 C631.238769,41.5026627 631.365434,40.8028364 631.618769,40.1885 C631.872103,39.5741636 632.210933,39.0580021 632.635269,38.64 C633.059604,38.2219979 633.550433,37.9021678 634.107769,37.6805 C634.665105,37.4588322 635.241432,37.348 635.836769,37.348 C636.432105,37.348 637.005266,37.4588322 637.556269,37.6805 C638.107272,37.9021678 638.594933,38.2219979 639.019269,38.64 C639.443604,39.0580021 639.782434,39.5741636 640.035769,40.1885 C640.289103,40.8028364 640.415769,41.5026627 640.415769,42.288 C640.415769,43.0733373 640.289103,43.7731636 640.035769,44.3875 C639.782434,45.0018364 639.443604,45.5179979 639.019269,45.936 C638.594933,46.3540021 638.107272,46.6738322 637.556269,46.8955 C637.005266,47.1171678 636.432105,47.228 635.836769,47.228 C635.241432,47.228 634.665105,47.1171678 634.107769,46.8955 C633.550433,46.6738322 633.059604,46.3540021 632.635269,45.936 C632.210933,45.5179979 631.872103,45.0018364 631.618769,44.3875 C631.365434,43.7731636 631.238769,43.0733373 631.238769,42.288 Z M634.107769,42.288 C634.107769,43.1113375 634.250267,43.7636643 634.535269,44.245 C634.82027,44.7263357 635.254099,44.967 635.836769,44.967 C636.406772,44.967 636.837434,44.7263357 637.128769,44.245 C637.420104,43.7636643 637.565769,43.1113375 637.565769,42.288 C637.565769,41.4646626 637.420104,40.8123357 637.128769,40.331 C636.837434,39.8496643 636.406772,39.609 635.836769,39.609 C635.254099,39.609 634.82027,39.8496643 634.535269,40.331 C634.250267,40.8123357 634.107769,41.4646626 634.107769,42.288 Z M641.811692,37.576 L644.091692,37.576 L644.281692,38.773 L644.357692,38.773 C644.763027,38.3929981 645.206356,38.0605014 645.687692,37.7755 C646.169028,37.4904986 646.732689,37.348 647.378692,37.348 C648.404697,37.348 649.148856,37.6836633 649.611192,38.355 C650.073527,39.0263367 650.304692,39.9573274 650.304692,41.148 L650.304692,47 L647.511692,47 L647.511692,41.509 C647.511692,40.8249966 647.419859,40.3563346 647.236192,40.103 C647.052524,39.8496654 646.758027,39.723 646.352692,39.723 C645.998023,39.723 645.694026,39.8021659 645.440692,39.9605 C645.187357,40.1188341 644.908693,40.3436652 644.604692,40.635 L644.604692,47 L641.811692,47 L641.811692,37.576 Z" id="Tracking-Precision" fill="#4C4C4C" sketch:type="MSShapeGroup"></path>
            <path d="M508.622,94.189 C508.153331,94.189 507.767002,94.0528347 507.463,93.7805 C507.158998,93.5081653 507.007,93.1566688 507.007,92.726 C507.007,92.2953312 507.158998,91.9470013 507.463,91.681 C507.767002,91.4149987 508.153331,91.282 508.622,91.282 C509.103336,91.282 509.492832,91.4149987 509.7905,91.681 C510.088168,91.9470013 510.237,92.2953312 510.237,92.726 C510.237,93.1566688 510.088168,93.5081653 509.7905,93.7805 C509.492832,94.0528347 509.103336,94.189 508.622,94.189 Z M507.235,95.576 L510.028,95.576 L510.028,105 L507.235,105 L507.235,95.576 Z M512.183923,92.612 L516.420923,92.612 C517.066926,92.612 517.66542,92.6594995 518.216423,92.7545 C518.767426,92.8495005 519.248754,93.0173321 519.660423,93.258 C520.072092,93.4986679 520.395089,93.8153314 520.629423,94.208 C520.863758,94.6006686 520.980923,95.0946637 520.980923,95.69 C520.980923,95.9686681 520.939757,96.2473319 520.857423,96.526 C520.775089,96.8046681 520.651591,97.0643321 520.486923,97.305 C520.322256,97.5456679 520.106924,97.7609991 519.840923,97.951 C519.574922,98.141001 519.264591,98.2803329 518.909923,98.369 L518.909923,98.445 C519.796594,98.6096675 520.464754,98.926331 520.914423,99.395 C521.364092,99.863669 521.588923,100.515996 521.588923,101.352 C521.588923,101.985337 521.465424,102.529998 521.218423,102.986 C520.971422,103.442002 520.629425,103.818832 520.192423,104.1165 C519.755421,104.414168 519.245593,104.635833 518.662923,104.7815 C518.080253,104.927167 517.45326,105 516.781923,105 L512.183923,105 L512.183923,92.612 Z M516.287923,97.609 C516.971926,97.609 517.469088,97.4728347 517.779423,97.2005 C518.089758,96.9281653 518.244923,96.557669 518.244923,96.089 C518.244923,95.620331 518.086591,95.2846677 517.769923,95.082 C517.453255,94.8793323 516.965593,94.778 516.306923,94.778 L514.976923,94.778 L514.976923,97.609 L516.287923,97.609 Z M516.553923,102.834 C518.086597,102.834 518.852923,102.270339 518.852923,101.143 C518.852923,100.598331 518.662925,100.202501 518.282923,99.9555 C517.902921,99.7084988 517.326594,99.585 516.553923,99.585 L514.976923,99.585 L514.976923,102.834 L516.553923,102.834 Z M522.376846,100.288 C522.376846,99.5279962 522.503511,98.8408364 522.756846,98.2265 C523.010181,97.6121636 523.342677,97.0928355 523.754346,96.6685 C524.166015,96.2441645 524.637843,95.9180011 525.169846,95.69 C525.701849,95.4619989 526.252843,95.348 526.822846,95.348 C527.494183,95.348 528.08001,95.4619989 528.580346,95.69 C529.080682,95.9180011 529.498678,96.2346646 529.834346,96.64 C530.170014,97.0453354 530.420179,97.5234972 530.584846,98.0745 C530.749514,98.6255028 530.831846,99.2239968 530.831846,99.87 C530.831846,100.123335 530.81918,100.354499 530.793846,100.5635 C530.768513,100.772501 530.74318,100.933999 530.717846,101.048 L525.074846,101.048 C525.201513,101.770004 525.483344,102.292498 525.920346,102.6155 C526.357348,102.938502 526.89251,103.1 527.525846,103.1 C528.197183,103.1 528.874843,102.891002 529.558846,102.473 L530.489846,104.164 C530.00851,104.493335 529.473349,104.752999 528.884346,104.943 C528.295343,105.133001 527.715849,105.228 527.145846,105.228 C526.474509,105.228 525.847516,105.117168 525.264846,104.8955 C524.682177,104.673832 524.175515,104.350835 523.744846,103.9265 C523.314177,103.502165 522.978514,102.986003 522.737846,102.378 C522.497178,101.769997 522.376846,101.073337 522.376846,100.288 Z M528.456846,99.319 C528.456846,98.7743306 528.336514,98.3310017 528.095846,97.989 C527.855178,97.6469983 527.449849,97.476 526.879846,97.476 C526.436511,97.476 526.047014,97.6248318 525.711346,97.9225 C525.375678,98.2201682 525.15718,98.6856635 525.055846,99.319 L528.456846,99.319 Z M531.695769,102.378 C531.695769,101.389995 532.113765,100.617336 532.949769,100.06 C533.785773,99.5026639 535.13476,99.129001 536.996769,98.939 C536.971436,98.5209979 536.84477,98.1885012 536.616769,97.9415 C536.388768,97.6944988 536.021438,97.571 535.514769,97.571 C535.109434,97.571 534.704105,97.6469992 534.298769,97.799 C533.893434,97.9510008 533.462771,98.1599987 533.006769,98.426 L532.018769,96.583 C532.626772,96.2156648 533.263266,95.9180011 533.928269,95.69 C534.593272,95.4619989 535.299432,95.348 536.046769,95.348 C537.262775,95.348 538.190599,95.6931632 538.830269,96.3835 C539.469939,97.0738368 539.789769,98.1473261 539.789769,99.604 L539.789769,105 L537.509769,105 L537.300769,104.031 L537.243769,104.031 C536.838434,104.385668 536.410938,104.673832 535.961269,104.8955 C535.5116,105.117168 535.020772,105.228 534.488769,105.228 C534.0581,105.228 533.671771,105.155167 533.329769,105.0095 C532.987767,104.863833 532.696437,104.661168 532.455769,104.4015 C532.215101,104.141832 532.02827,103.841002 531.895269,103.499 C531.762268,103.156998 531.695769,102.783335 531.695769,102.378 Z M534.355769,102.169 C534.355769,102.473002 534.453935,102.697833 534.650269,102.8435 C534.846603,102.989167 535.109434,103.062 535.438769,103.062 C535.768104,103.062 536.046768,102.992334 536.274769,102.853 C536.50277,102.713666 536.743435,102.517335 536.996769,102.264 L536.996769,100.611 C535.996097,100.750334 535.305771,100.952999 534.925769,101.219 C534.545767,101.485001 534.355769,101.801665 534.355769,102.169 Z M541.109692,100.288 C541.109692,99.5026627 541.242691,98.8028364 541.508692,98.1885 C541.774694,97.5741636 542.132523,97.0580021 542.582192,96.64 C543.031861,96.2219979 543.554356,95.9021678 544.149692,95.6805 C544.745029,95.4588322 545.365689,95.348 546.011692,95.348 C546.594362,95.348 547.120023,95.4461657 547.588692,95.6425 C548.057361,95.8388343 548.450024,96.101665 548.766692,96.431 L547.493692,98.16 C547.050357,97.7926648 546.613361,97.609 546.182692,97.609 C545.498689,97.609 544.960361,97.8496643 544.567692,98.331 C544.175024,98.8123357 543.978692,99.4646625 543.978692,100.288 C543.978692,101.111337 544.17819,101.763664 544.577192,102.245 C544.976194,102.726336 545.479689,102.967 546.087692,102.967 C546.429694,102.967 546.740024,102.897334 547.018692,102.758 C547.29736,102.618666 547.550691,102.460334 547.778692,102.283 L548.899692,104.05 C548.44369,104.455335 547.937028,104.752999 547.379692,104.943 C546.822356,105.133001 546.284028,105.228 545.764692,105.228 C545.106022,105.228 544.494862,105.117168 543.931192,104.8955 C543.367523,104.673832 542.876694,104.354002 542.458692,103.936 C542.04069,103.517998 541.71136,103.001836 541.470692,102.3875 C541.230024,101.773164 541.109692,101.073337 541.109692,100.288 Z M548.927615,100.288 C548.927615,99.5026627 549.054281,98.8028364 549.307615,98.1885 C549.56095,97.5741636 549.89978,97.0580021 550.324115,96.64 C550.748451,96.2219979 551.239279,95.9021678 551.796615,95.6805 C552.353951,95.4588322 552.930279,95.348 553.525615,95.348 C554.120952,95.348 554.694112,95.4588322 555.245115,95.6805 C555.796118,95.9021678 556.28378,96.2219979 556.708115,96.64 C557.132451,97.0580021 557.471281,97.5741636 557.724615,98.1885 C557.97795,98.8028364 558.104615,99.5026627 558.104615,100.288 C558.104615,101.073337 557.97795,101.773164 557.724615,102.3875 C557.471281,103.001836 557.132451,103.517998 556.708115,103.936 C556.28378,104.354002 555.796118,104.673832 555.245115,104.8955 C554.694112,105.117168 554.120952,105.228 553.525615,105.228 C552.930279,105.228 552.353951,105.117168 551.796615,104.8955 C551.239279,104.673832 550.748451,104.354002 550.324115,103.936 C549.89978,103.517998 549.56095,103.001836 549.307615,102.3875 C549.054281,101.773164 548.927615,101.073337 548.927615,100.288 Z M551.796615,100.288 C551.796615,101.111337 551.939114,101.763664 552.224115,102.245 C552.509117,102.726336 552.942946,102.967 553.525615,102.967 C554.095618,102.967 554.52628,102.726336 554.817615,102.245 C555.10895,101.763664 555.254615,101.111337 555.254615,100.288 C555.254615,99.4646625 555.10895,98.8123357 554.817615,98.331 C554.52628,97.8496643 554.095618,97.609 553.525615,97.609 C552.942946,97.609 552.509117,97.8496643 552.224115,98.331 C551.939114,98.8123357 551.796615,99.4646625 551.796615,100.288 Z M559.500538,95.576 L561.780538,95.576 L561.970538,96.773 L562.046538,96.773 C562.451874,96.3929981 562.895203,96.0605014 563.376538,95.7755 C563.857874,95.4904986 564.421535,95.348 565.067538,95.348 C566.093543,95.348 566.837703,95.6836633 567.300038,96.355 C567.762374,97.0263367 567.993538,97.9573274 567.993538,99.148 L567.993538,105 L565.200538,105 L565.200538,99.509 C565.200538,98.8249966 565.108706,98.3563346 564.925038,98.103 C564.741371,97.8496654 564.446874,97.723 564.041538,97.723 C563.68687,97.723 563.382873,97.8021659 563.129538,97.9605 C562.876204,98.1188341 562.59754,98.3436652 562.293538,98.635 L562.293538,105 L559.500538,105 L559.500538,95.576 Z M572.685384,98.35 L580.361384,95.272 L580.361384,95.88 L575.801384,97.666 L573.293384,98.654 L573.293384,98.73 L575.801384,99.718 L580.361384,101.504 L580.361384,102.112 L572.685384,99.034 L572.685384,98.35 Z M585.35723,104.468 L588.24523,104.468 L588.24523,93.98 L586.07923,93.98 L586.07923,93.562 C586.560566,93.4859996 586.988062,93.3846673 587.36173,93.258 C587.735399,93.1313327 588.055229,92.9920008 588.32123,92.84 L588.81523,92.84 L588.81523,104.468 L591.51323,104.468 L591.51323,105 L585.35723,105 L585.35723,104.468 Z M596.652154,105.228 C595.499481,105.228 594.622323,104.677006 594.020654,103.575 C593.418984,102.472994 593.118154,100.908677 593.118154,98.882 C593.118154,96.8553232 593.418984,95.3036721 594.020654,94.227 C594.622323,93.150328 595.499481,92.612 596.652154,92.612 C597.804826,92.612 598.681984,93.150328 599.283654,94.227 C599.885323,95.3036721 600.186154,96.8553232 600.186154,98.882 C600.186154,100.908677 599.885323,102.472994 599.283654,103.575 C598.681984,104.677006 597.804826,105.228 596.652154,105.228 Z M596.652154,104.696 C597.551491,104.696 598.263984,104.198838 598.789654,103.2045 C599.315323,102.210162 599.578154,100.769343 599.578154,98.882 C599.578154,96.9946572 599.315323,95.5665048 598.789654,94.5975 C598.263984,93.6284952 597.551491,93.144 596.652154,93.144 C595.752816,93.144 595.040323,93.6284952 594.514654,94.5975 C593.988984,95.5665048 593.726154,96.9946572 593.726154,98.882 C593.726154,100.769343 593.988984,102.210162 594.514654,103.2045 C595.040323,104.198838 595.752816,104.696 596.652154,104.696 Z M604.878,100.478 C604.878,99.7179962 604.988832,99.0403363 605.2105,98.445 C605.432167,97.8496637 605.729831,97.3493354 606.1035,96.944 C606.477168,96.5386646 606.907831,96.2283344 607.3955,96.013 C607.883169,95.7976656 608.39933,95.69 608.944,95.69 C609.577336,95.69 610.102998,95.8071655 610.521,96.0415 C610.939002,96.2758345 611.299998,96.5386652 611.604,96.83 L611.224,97.248 C610.919998,96.9566652 610.584335,96.7128343 610.217,96.5165 C609.849664,96.3201657 609.425335,96.222 608.944,96.222 C608.462664,96.222 608.009835,96.326499 607.5855,96.5355 C607.161164,96.744501 606.793835,97.0358315 606.4835,97.4095 C606.173165,97.7831685 605.929334,98.2328307 605.752,98.7585 C605.574665,99.2841693 605.486,99.8573302 605.486,100.478 C605.486,101.111336 605.568332,101.684497 605.733,102.1975 C605.897667,102.710503 606.131998,103.153831 606.436,103.5275 C606.740001,103.901169 607.104164,104.189332 607.5285,104.392 C607.952835,104.594668 608.424664,104.696 608.944,104.696 C609.463336,104.696 609.935164,104.588334 610.3595,104.373 C610.783835,104.157666 611.160665,103.898002 611.49,103.594 L611.832,104.012 C611.451998,104.354002 611.024502,104.642165 610.5495,104.8765 C610.074497,105.110835 609.539336,105.228 608.944,105.228 C608.36133,105.228 607.823002,105.120334 607.329,104.905 C606.834997,104.689666 606.407501,104.379335 606.0465,103.974 C605.685498,103.568665 605.400501,103.071503 605.1915,102.4825 C604.982499,101.893497 604.878,101.225337 604.878,100.478 Z M613.626923,95.918 L614.120923,95.918 L614.196923,97.362 L614.234923,97.362 C614.652925,96.8806643 615.115253,96.4816682 615.621923,96.165 C616.128592,95.8483317 616.62892,95.69 617.122923,95.69 C617.87026,95.69 618.437087,95.8641649 618.823423,96.2125 C619.209758,96.5608351 619.478922,97.0199971 619.630923,97.59 C620.162925,96.9946637 620.68542,96.5291683 621.198423,96.1935 C621.711425,95.8578317 622.227587,95.69 622.746923,95.69 C623.646261,95.69 624.320754,95.9686639 624.770423,96.526 C625.220092,97.0833361 625.444923,97.9573274 625.444923,99.148 L625.444923,105 L624.874923,105 L624.874923,99.224 C624.874923,98.2106616 624.700758,97.4570025 624.352423,96.963 C624.004088,96.4689975 623.45626,96.222 622.708923,96.222 C622.25292,96.222 621.790592,96.3739985 621.321923,96.678 C620.853254,96.9820015 620.352925,97.437997 619.820923,98.046 L619.820923,105 L619.250923,105 L619.250923,99.224 C619.250923,98.2106616 619.076758,97.4570025 618.728423,96.963 C618.380088,96.4689975 617.83226,96.222 617.084923,96.222 C616.223585,96.222 615.260928,96.8299939 614.196923,98.046 L614.196923,105 L613.626923,105 L613.626923,95.918 Z" id="iBeacon-&lt;-10-cm" fill="#50E3C2" sketch:type="MSShapeGroup"></path>
            <path d="M506.874,119.882 C506.874,118.855995 507.035498,117.940837 507.3585,117.1365 C507.681502,116.332163 508.118497,115.651336 508.6695,115.094 C509.220503,114.536664 509.866496,114.112335 510.6075,113.821 C511.348504,113.529665 512.136996,113.384 512.973,113.384 C513.847004,113.384 514.60383,113.548665 515.2435,113.878 C515.88317,114.207335 516.405665,114.580998 516.811,114.999 L515.272,116.728 C514.967998,116.436665 514.648168,116.208667 514.3125,116.044 C513.976832,115.879333 513.543003,115.797 513.011,115.797 C512.529664,115.797 512.089502,115.888832 511.6905,116.0725 C511.291498,116.256168 510.946335,116.518998 510.655,116.861 C510.363665,117.203002 510.138834,117.620998 509.9805,118.115 C509.822166,118.609002 509.743,119.16633 509.743,119.787 C509.743,121.06634 510.031164,122.057496 510.6075,122.7605 C511.183836,123.463504 512.054661,123.815 513.22,123.815 C513.473335,123.815 513.720332,123.783334 513.961,123.72 C514.201668,123.656666 514.397999,123.561667 514.55,123.435 L514.55,121.307 L512.498,121.307 L512.498,119.027 L517.02,119.027 L517.02,124.727 C516.576664,125.145002 515.994004,125.499665 515.272,125.791 C514.549996,126.082335 513.752004,126.228 512.878,126.228 C512.041996,126.228 511.259837,126.091835 510.5315,125.8195 C509.803163,125.547165 509.166669,125.145003 508.622,124.613 C508.077331,124.080997 507.649835,123.419171 507.3395,122.6275 C507.029165,121.835829 506.874,120.920672 506.874,119.882 Z M519.061923,113.612 L523.583923,113.612 C524.25526,113.612 524.88542,113.678499 525.474423,113.8115 C526.063426,113.944501 526.576421,114.166165 527.013423,114.4765 C527.450425,114.786835 527.795588,115.198497 528.048923,115.7115 C528.302258,116.224503 528.428923,116.854663 528.428923,117.602 C528.428923,118.324004 528.299091,118.950997 528.039423,119.483 C527.779755,120.015003 527.428259,120.451998 526.984923,120.794 C526.541587,121.136002 526.028593,121.389333 525.445923,121.554 C524.863253,121.718667 524.242593,121.801 523.583923,121.801 L521.854923,121.801 L521.854923,126 L519.061923,126 L519.061923,113.612 Z M523.412923,119.578 C524.932931,119.578 525.692923,118.91934 525.692923,117.602 C525.692923,116.955997 525.499758,116.500001 525.113423,116.234 C524.727088,115.967999 524.16026,115.835 523.412923,115.835 L521.854923,115.835 L521.854923,119.578 L523.412923,119.578 Z M530.660846,122.523 C531.104182,122.903002 531.59501,123.213332 532.133346,123.454 C532.671682,123.694668 533.20051,123.815 533.719846,123.815 C534.302516,123.815 534.736345,123.707334 535.021346,123.492 C535.306348,123.276666 535.448846,122.985335 535.448846,122.618 C535.448846,122.427999 535.40768,122.263334 535.325346,122.124 C535.243012,121.984666 535.12268,121.861167 534.964346,121.7535 C534.806012,121.645833 534.616014,121.5445 534.394346,121.4495 C534.172678,121.3545 533.928847,121.250001 533.662846,121.136 L532.047846,120.452 C531.731178,120.325333 531.424014,120.160668 531.126346,119.958 C530.828678,119.755332 530.562681,119.517835 530.328346,119.2455 C530.094012,118.973165 529.90718,118.656502 529.767846,118.2955 C529.628512,117.934498 529.558846,117.526002 529.558846,117.07 C529.558846,116.563331 529.666512,116.085169 529.881846,115.6355 C530.097181,115.185831 530.401177,114.793168 530.793846,114.4575 C531.186515,114.121832 531.65201,113.859001 532.190346,113.669 C532.728682,113.478999 533.320843,113.384 533.966846,113.384 C534.68885,113.384 535.401343,113.523332 536.104346,113.802 C536.80735,114.080668 537.424843,114.485997 537.956846,115.018 L536.531846,116.785 C536.126511,116.468332 535.721181,116.224501 535.315846,116.0535 C534.910511,115.882499 534.460849,115.797 533.966846,115.797 C533.48551,115.797 533.102348,115.895166 532.817346,116.0915 C532.532345,116.287834 532.389846,116.563332 532.389846,116.918 C532.389846,117.108001 532.437346,117.269499 532.532346,117.4025 C532.627347,117.535501 532.760345,117.655833 532.931346,117.7635 C533.102347,117.871167 533.301845,117.9725 533.529846,118.0675 C533.757847,118.1625 534.004845,118.266999 534.270846,118.381 L535.866846,119.027 C536.62685,119.331002 537.225344,119.748997 537.662346,120.281 C538.099348,120.813003 538.317846,121.515996 538.317846,122.39 C538.317846,122.909336 538.213347,123.400164 538.004346,123.8625 C537.795345,124.324836 537.491348,124.730165 537.092346,125.0785 C536.693344,125.426835 536.202516,125.705499 535.619846,125.9145 C535.037177,126.123501 534.378516,126.228 533.643846,126.228 C532.833175,126.228 532.025683,126.079168 531.221346,125.7815 C530.417009,125.483832 529.698183,125.037336 529.064846,124.442 L530.660846,122.523 Z M545.754615,119.35 L553.430615,116.272 L553.430615,116.88 L548.870615,118.666 L546.362615,119.654 L546.362615,119.73 L548.870615,120.718 L553.430615,122.504 L553.430615,123.112 L545.754615,120.034 L545.754615,119.35 Z M558.426461,125.468 L561.314461,125.468 L561.314461,114.98 L559.148461,114.98 L559.148461,114.562 C559.629797,114.486 560.057293,114.384667 560.430961,114.258 C560.80463,114.131333 561.12446,113.992001 561.390461,113.84 L561.884461,113.84 L561.884461,125.468 L564.582461,125.468 L564.582461,126 L558.426461,126 L558.426461,125.468 Z M569.721384,126.228 C568.568712,126.228 567.691554,125.677006 567.089884,124.575 C566.488215,123.472994 566.187384,121.908677 566.187384,119.882 C566.187384,117.855323 566.488215,116.303672 567.089884,115.227 C567.691554,114.150328 568.568712,113.612 569.721384,113.612 C570.874057,113.612 571.751215,114.150328 572.352884,115.227 C572.954554,116.303672 573.255384,117.855323 573.255384,119.882 C573.255384,121.908677 572.954554,123.472994 572.352884,124.575 C571.751215,125.677006 570.874057,126.228 569.721384,126.228 Z M569.721384,125.696 C570.620722,125.696 571.333215,125.198838 571.858884,124.2045 C572.384554,123.210162 572.647384,121.769343 572.647384,119.882 C572.647384,117.994657 572.384554,116.566505 571.858884,115.5975 C571.333215,114.628495 570.620722,114.144 569.721384,114.144 C568.822047,114.144 568.109554,114.628495 567.583884,115.5975 C567.058215,116.566505 566.795384,117.994657 566.795384,119.882 C566.795384,121.769343 567.058215,123.210162 567.583884,124.2045 C568.109554,125.198838 568.822047,125.696 569.721384,125.696 Z M578.74523,116.918 L579.23923,116.918 L579.31523,118.362 L579.35323,118.362 C579.771233,117.880664 580.233561,117.481668 580.74023,117.165 C581.2469,116.848332 581.747228,116.69 582.24123,116.69 C582.988568,116.69 583.555395,116.864165 583.94173,117.2125 C584.328066,117.560835 584.59723,118.019997 584.74923,118.59 C585.281233,117.994664 585.803728,117.529168 586.31673,117.1935 C586.829733,116.857832 587.345895,116.69 587.86523,116.69 C588.764568,116.69 589.439062,116.968664 589.88873,117.526 C590.338399,118.083336 590.56323,118.957327 590.56323,120.148 L590.56323,126 L589.99323,126 L589.99323,120.224 C589.99323,119.210662 589.819066,118.457002 589.47073,117.963 C589.122395,117.468998 588.574568,117.222 587.82723,117.222 C587.371228,117.222 586.908899,117.373998 586.44023,117.678 C585.971561,117.982002 585.471233,118.437997 584.93923,119.046 L584.93923,126 L584.36923,126 L584.36923,120.224 C584.36923,119.210662 584.195066,118.457002 583.84673,117.963 C583.498395,117.468998 582.950568,117.222 582.20323,117.222 C581.341893,117.222 580.379236,117.829994 579.31523,119.046 L579.31523,126 L578.74523,126 L578.74523,116.918 Z" id="GPS--&lt;-10-m" fill="#84A5CC" sketch:type="MSShapeGroup"></path>
            <path d="M506.266,211.612 L509.135,211.612 L509.99,217.407 C510.066,218.053003 510.148333,218.702163 510.237,219.3545 C510.325667,220.006837 510.408,220.66233 510.484,221.321 L510.56,221.321 C510.686667,220.66233 510.810166,220.006837 510.9305,219.3545 C511.050834,218.702163 511.174333,218.053003 511.301,217.407 L512.631,211.612 L515.006,211.612 L516.336,217.407 C516.462667,218.040336 516.586166,218.683163 516.7065,219.3355 C516.826834,219.987837 516.950333,220.649663 517.077,221.321 L517.153,221.321 C517.241667,220.649663 517.327166,219.991003 517.4095,219.345 C517.491834,218.698997 517.577333,218.053003 517.666,217.407 L518.521,211.612 L521.2,211.612 L518.996,224 L515.481,224 L514.265,218.376 C514.163666,217.894664 514.071834,217.410169 513.9895,216.9225 C513.907166,216.434831 513.834334,215.963002 513.771,215.507 L513.695,215.507 C513.619,215.963002 513.539834,216.434831 513.4575,216.9225 C513.375166,217.410169 513.283334,217.894664 513.182,218.376 L512.023,224 L508.565,224 L506.266,211.612 Z M523.545923,213.189 C523.077254,213.189 522.690925,213.052835 522.386923,212.7805 C522.082922,212.508165 521.930923,212.156669 521.930923,211.726 C521.930923,211.295331 522.082922,210.947001 522.386923,210.681 C522.690925,210.414999 523.077254,210.282 523.545923,210.282 C524.027259,210.282 524.416755,210.414999 524.714423,210.681 C525.012091,210.947001 525.160923,211.295331 525.160923,211.726 C525.160923,212.156669 525.012091,212.508165 524.714423,212.7805 C524.416755,213.052835 524.027259,213.189 523.545923,213.189 Z M522.158923,214.576 L524.951923,214.576 L524.951923,224 L522.158923,224 L522.158923,214.576 Z M526.461846,218.205 L531.135846,218.205 L531.135846,220.181 L526.461846,220.181 L526.461846,218.205 Z M532.892769,211.612 L540.701769,211.612 L540.701769,213.968 L535.685769,213.968 L535.685769,216.837 L539.979769,216.837 L539.979769,219.193 L535.685769,219.193 L535.685769,224 L532.892769,224 L532.892769,211.612 Z M543.484692,213.189 C543.016023,213.189 542.629694,213.052835 542.325692,212.7805 C542.021691,212.508165 541.869692,212.156669 541.869692,211.726 C541.869692,211.295331 542.021691,210.947001 542.325692,210.681 C542.629694,210.414999 543.016023,210.282 543.484692,210.282 C543.966028,210.282 544.355524,210.414999 544.653192,210.681 C544.95086,210.947001 545.099692,211.295331 545.099692,211.726 C545.099692,212.156669 544.95086,212.508165 544.653192,212.7805 C544.355524,213.052835 543.966028,213.189 543.484692,213.189 Z M542.097692,214.576 L544.890692,214.576 L544.890692,224 L542.097692,224 L542.097692,214.576 Z M552.897461,217.35 L560.573461,214.272 L560.573461,214.88 L556.013461,216.666 L553.505461,217.654 L553.505461,217.73 L556.013461,218.718 L560.573461,220.504 L560.573461,221.112 L552.897461,218.034 L552.897461,217.35 Z M564.809307,222.176 C564.986642,222.366001 565.182973,222.552832 565.398307,222.7365 C565.613642,222.920168 565.857473,223.081666 566.129807,223.221 C566.402142,223.360334 566.709306,223.474333 567.051307,223.563 C567.393309,223.651667 567.785972,223.696 568.229307,223.696 C568.64731,223.696 569.046306,223.613667 569.426307,223.449 C569.806309,223.284333 570.141973,223.050002 570.433307,222.746 C570.724642,222.441998 570.955807,222.077835 571.126807,221.6535 C571.297808,221.229165 571.383307,220.757336 571.383307,220.238 C571.383307,219.211995 571.101477,218.404503 570.537807,217.8155 C569.974138,217.226497 569.217312,216.932 568.267307,216.932 C567.785972,216.932 567.371143,217.007999 567.022807,217.16 C566.674472,217.312001 566.316643,217.514665 565.949307,217.768 L565.455307,217.464 L565.911307,211.84 L571.345307,211.84 L571.345307,212.372 L566.443307,212.372 L566.025307,217.046 C566.354642,216.843332 566.696639,216.678667 567.051307,216.552 C567.405976,216.425333 567.823972,216.362 568.305307,216.362 C568.811977,216.362 569.290139,216.437999 569.739807,216.59 C570.189476,216.742001 570.582139,216.973165 570.917807,217.2835 C571.253476,217.593835 571.516306,217.992831 571.706307,218.4805 C571.896308,218.968169 571.991307,219.54133 571.991307,220.2 C571.991307,220.846003 571.883642,221.419164 571.668307,221.9195 C571.452973,222.419836 571.164809,222.840998 570.803807,223.183 C570.442806,223.525002 570.03431,223.784666 569.578307,223.962 C569.122305,224.139334 568.659976,224.228 568.191307,224.228 C567.709972,224.228 567.279309,224.177334 566.899307,224.076 C566.519306,223.974666 566.177309,223.848001 565.873307,223.696 C565.569306,223.543999 565.300142,223.369834 565.065807,223.1735 C564.831473,222.977166 564.619308,222.784001 564.429307,222.594 L564.809307,222.176 Z M576.86423,224.228 C575.711558,224.228 574.8344,223.677006 574.23273,222.575 C573.631061,221.472994 573.33023,219.908677 573.33023,217.882 C573.33023,215.855323 573.631061,214.303672 574.23273,213.227 C574.8344,212.150328 575.711558,211.612 576.86423,211.612 C578.016903,211.612 578.894061,212.150328 579.49573,213.227 C580.0974,214.303672 580.39823,215.855323 580.39823,217.882 C580.39823,219.908677 580.0974,221.472994 579.49573,222.575 C578.894061,223.677006 578.016903,224.228 576.86423,224.228 Z M576.86423,223.696 C577.763568,223.696 578.476061,223.198838 579.00173,222.2045 C579.5274,221.210162 579.79023,219.769343 579.79023,217.882 C579.79023,215.994657 579.5274,214.566505 579.00173,213.5975 C578.476061,212.628495 577.763568,212.144 576.86423,212.144 C575.964893,212.144 575.2524,212.628495 574.72673,213.5975 C574.201061,214.566505 573.93823,215.994657 573.93823,217.882 C573.93823,219.769343 574.201061,221.210162 574.72673,222.2045 C575.2524,223.198838 575.964893,223.696 576.86423,223.696 Z M585.888077,214.918 L586.382077,214.918 L586.458077,216.362 L586.496077,216.362 C586.914079,215.880664 587.376407,215.481668 587.883077,215.165 C588.389746,214.848332 588.890074,214.69 589.384077,214.69 C590.131414,214.69 590.698241,214.864165 591.084577,215.2125 C591.470912,215.560835 591.740076,216.019997 591.892077,216.59 C592.424079,215.994664 592.946574,215.529168 593.459577,215.1935 C593.972579,214.857832 594.488741,214.69 595.008077,214.69 C595.907414,214.69 596.581908,214.968664 597.031577,215.526 C597.481245,216.083336 597.706077,216.957327 597.706077,218.148 L597.706077,224 L597.136077,224 L597.136077,218.224 C597.136077,217.210662 596.961912,216.457002 596.613577,215.963 C596.265242,215.468998 595.717414,215.222 594.970077,215.222 C594.514074,215.222 594.051746,215.373998 593.583077,215.678 C593.114408,215.982002 592.614079,216.437997 592.082077,217.046 L592.082077,224 L591.512077,224 L591.512077,218.224 C591.512077,217.210662 591.337912,216.457002 590.989577,215.963 C590.641242,215.468998 590.093414,215.222 589.346077,215.222 C588.484739,215.222 587.522082,215.829994 586.458077,217.046 L586.458077,224 L585.888077,224 L585.888077,214.918 Z" id="Wi-Fi--&lt;-50-m" fill="#D0E4F2" sketch:type="MSShapeGroup"></path>
        </g>
    </g>
</svg>