<?xml version="1.0" encoding="UTF-8" standalone="no"?>
<svg width="4402px" height="2479px" viewBox="0 0 4402 2479" version="1.1" xmlns="http://www.w3.org/2000/svg" xmlns:xlink="http://www.w3.org/1999/xlink" xmlns:sketch="http://www.bohemiancoding.com/sketch/ns">
    <title>Slice 1</title>
    <description>Created with Sketch (http://www.bohemiancoding.com/sketch)</description>
    <defs id="path-1">
        <path d="M310.351562,984.156255 C310.351562,984.156255 343.898426,1131.44531 418.585938,1205.53125 C493.273438,1279.61719 647.228518,1322.43953 907.861328,1275.0254 C1168.49414,1227.61133 1183.36914,1129.26368 1216.1875,1058.25 C1267.63672,951.919922 1319.57031,804.905608 1231.09379,810.410161 C1191.86523,937.476563 1185.47852,930.708974 1142.96875,1030.17187 C1149.44336,1109.72266 1129.17969,1124.63477 1097.42188,1168.61915 C1070.28306,1206.20624 982.773438,1244.47852 782.001953,1259.75196 C581.230469,1275.0254 544.042969,1239.60938 469.355469,1205.53125 C394.667969,1171.45313 310.351562,984.156255 310.351562,984.156255 Z M310.351562,984.156255"></path>
    </defs>
    <g id="Page 1" stroke="none" stroke-width="1" fill="none" fill-rule="evenodd">
        <g id="Group" transform="translate(308.000000, 401.000000)">
            <path d="M241.293839,614.697266 L194.408203,614.697266 C194.408203,614.697266 92.3080107,494.361464 66.9774088,527.943241 C66.9774104,512.542038 120.794922,494.404297 120.794922,494.404297 L241.293839,614.697266 Z M241.293839,614.697266" id="Path 11" fill="#000000"></path>
            <path d="M65.548272,802.194051 C65.548272,802.194051 512.584358,704.438142 776.056084,691.209676 C1039.52781,677.981209 1285.8764,729.264363 1325.61077,738.928426 C1393.69671,762.983114 1385.18263,761.315204 1463.56387,747.576859 C1541.94511,733.838513 1570.69668,681.412796 1570.69668,681.412796 C1570.69668,681.412796 1787.00143,570.631553 1962.29827,546.444051 C2137.59512,522.25655 2354.15765,508.795614 2475.1264,522.256551 C2475.56791,530.651179 2477.0991,538.336332 2479.28448,545.388673 C2490.46817,539.311336 2503.72249,534.081154 2520.53587,531.134173 C2595.33503,518.023679 2691.18158,428.487381 2691.18158,428.487381 C2691.18158,428.487381 2809.34004,327.067974 2976.6257,303.985858 C3143.91135,280.903743 3350.57682,268.057981 3466.01721,280.903744 C3469.34235,344.126072 3463.82531,350.776345 3455.54974,396.746731 C3420.4196,411.791856 3419.21181,419.635003 3369.58825,442.135591 C3293.87806,566.224321 3269.72475,670.772257 3202.58588,736.820228 C3135.44701,802.8682 3101.9382,833.055287 2988.46234,855.32605 C2874.98649,877.596817 2753.51171,909.757814 2672.57422,835.861328 C2591.63672,761.964844 2567.25769,636.443566 2549.5957,567.033203 C2536.58269,562.247677 2518.21053,569.454962 2497.27896,581.534886 C2511.95156,604.619189 2520.9805,616.593185 2475.12637,626.125 C2400.28897,641.681641 2426.07952,667.631551 2374.07952,691.209676 C2294.74363,821.240927 2290.48794,878.929138 2227.60244,961.459686 C2164.71693,1043.99023 2014.13674,1099.49414 2014.13674,1099.49414 C2014.13674,1099.49414 1871.43655,1154.69403 1732.98928,1128.60028 C1594.54202,1102.50653 1524.00921,941.162801 1505.5014,868.428426 C1469.8607,855.321581 1405.17327,881.725301 1345.1889,907.100301 C1297.50142,966.25655 1246.64199,1113.64718 1204.72015,1154.69405 C1162.7983,1195.74093 1145.87891,1250.875 928.431056,1299.60809 C479.658203,1401.08008 372.003292,1211.41294 316.298272,1128.6003 C260.59326,1045.78766 257.079363,986.531399 227.532647,961.459676 C197.985933,936.387953 158.993584,943.444051 80.563897,928.569051 C45.048272,864.248739 65.548272,802.194051 65.548272,802.194051 Z M331.650391,846.900392 C294.611328,965.509767 343.320309,1166.00001 458.445313,1236.75 C573.570312,1307.5 701.515624,1302.46094 843.98438,1288.60937 C986.453137,1274.75781 1105.06249,1228.3125 1172.77344,1126.07031 C1240.48438,1023.82812 1287.15625,847.437499 1219.14844,796.609375 C1151.14063,745.78125 957.765618,713.109374 772.40625,732.375 C587.046882,751.640625 440.111328,750.064461 331.650391,846.900392 Z M2656.25734,534.177049 C2615.37195,659.518746 2629.55445,763.731849 2686.61109,816.172278 C2743.66773,868.612706 3020.35719,868.540048 3169.57836,728.0651 C3318.79953,587.590075 3313.21794,415.788699 3294.43376,398.3763 C3275.64959,380.9639 3199.61418,282.008119 2922.10452,346.772958 C2841.29908,376.233955 2748.6904,408.5668 2656.25734,534.177049 Z M1613.04688,784.546875 C1569.03906,919.460938 1614.62031,1021.61029 1676.03437,1078.0556 C1737.44843,1134.50091 2004.9531,1144.44523 2165.57031,993.242188 C2326.18752,842.039063 2320.17966,657.117187 2299.96094,638.375 C2279.74221,619.632813 2210.45312,540.515622 1911.75,610.226563 C1824.77344,641.9375 1712.53906,649.34375 1613.04688,784.546875 Z M1613.04688,784.546875" id="Path 1" stroke="#979797" fill="#D4D4D4"></path>
            <path d="M331.58358,1237.66164 L385.222366,1947.33681 L3521.74154,932.026184 L3143.31234,752.377335 L331.58358,1237.66164 Z M331.58358,1237.66164" id="Rectangle 8" stroke="#979797" opacity="0.0558238636" fill="#000000"></path>
            <path d="M337.650391,846.900392 C446.111328,750.064461 593.046882,751.640625 778.40625,732.375 C963.765618,713.109374 1157.14063,745.78125 1225.14844,796.609375 C1293.15625,847.437499 1246.48438,1023.82812 1178.77344,1126.07031 C1111.06249,1228.3125 992.453137,1274.75781 849.98438,1288.60937 C707.515624,1302.46094 579.570312,1307.5 464.445313,1236.75 C349.320309,1166.00001 300.611328,965.509767 337.650391,846.900392 Z M2662.25734,534.177049 C2754.6904,408.5668 2847.29908,376.233955 2928.10452,346.772958 C3205.61418,282.008119 3281.64959,380.9639 3300.43376,398.3763 C3319.21794,415.788699 3324.79953,587.590075 3175.57836,728.0651 C3026.35719,868.540048 2749.66773,868.612706 2692.61109,816.172278 C2635.55445,763.731849 2621.37195,659.518746 2662.25734,534.177049 Z M1619.04688,784.546875 C1718.53906,649.34375 1830.77344,641.9375 1917.75,610.226563 C2216.45312,540.515622 2285.74221,619.632813 2305.96094,638.375 C2326.17966,657.117187 2332.18752,842.039063 2171.57031,993.242188 C2010.9531,1144.44523 1743.44843,1134.50091 1682.03437,1078.0556 C1620.62031,1021.61029 1575.03906,919.460938 1619.04688,784.546875 Z M1619.04688,784.546875" id="Path 3" opacity="0.465767045" fill="#F3F2F9"></path>
            <path d="M40.875,395.929688 C40.875,395.929688 -8.0234375,480.3125 1.90625,580.625 C11.8359375,680.9375 40.8749991,811.570221 40.8749991,811.570221 C40.8749991,811.570221 55.3905519,808.592954 80.389804,803.549233 C212.60724,776.873715 638.074715,692.395322 760.320313,684.859375 C905.679717,675.898438 1221.27346,700.570317 1298.47656,728.351562 C1375.67966,756.132812 1399.60941,760.054688 1466.13281,750.203125 C1532.65622,740.351562 1555.32817,687.078127 1612.29687,662.78125 C1669.26559,638.484375 1861.9921,561.421874 2006.97656,542.710938 C2151.96103,524 2568.88559,561.911041 2568.88559,561.911041 C2568.88559,561.911041 2605.44124,467.776733 2523.3663,500.120003 C2441.29135,532.463272 2429.96347,516.253128 2324.87875,516.253128 C2219.79404,516.253128 2201.53549,489.747055 1893.36569,542.710938 C1585.19589,595.674819 1531.67807,718.023438 1428.55453,728.351562 C1325.43099,738.679686 1362.53729,716.9375 1230.49826,684.859375 C1098.45923,652.781249 921.324705,633.819794 733.043426,653.819794 C544.76214,673.819791 108,755.5625 108,755.5625 C108,755.5625 58.4609231,692.367188 58.4609375,617.539062 C58.4609366,542.710938 45.578125,444.257812 84.09375,383.875 C57.875,383.953125 40.875,395.929688 40.875,395.929688 Z M40.875,395.929688" id="Path 4" fill="#9B9B9B"></path>
            <path d="M2477.36181,518.601868 C2362.70181,518.601877 2495.79106,572.472658 2552.75977,548.175781 C2609.72849,523.878906 2906.3032,314.766601 3051.28767,296.055664 C3196.27213,277.344727 3520.46735,277.344727 3520.46735,277.344727 C3520.46735,277.344727 3236.03769,137.66504 3143.66267,96.5478516 C3051.28763,55.4306641 3020.8133,39.4672313 2911.49311,5.79785156 C2802.17293,-27.8715315 2604.78959,115.147461 2604.78959,115.147461 C2604.78959,115.147461 2821.69392,-5.09277366 2865.39701,5.79785156 C2909.1001,16.6884766 2877.2499,8.18945479 2967.71094,50.9394531 C3058.17197,93.6894531 3404.55533,246.543945 3404.55533,246.543945 C3404.55533,246.543945 3215.6002,258.633788 3051.05329,277.344727 C2886.50638,296.055664 2883.16193,296.055664 2765.66349,347.644623 C2648.16506,399.233588 2540.30796,518.601868 2477.36181,518.601868 Z M2477.36181,518.601868" id="Path 4" stroke="#979797" fill="#9B9B9B"></path>
            <path d="M1.87548096,520.315674 C-8.40772216,749.153564 47.4921875,881.804688 70.8046875,933.671875 C55.3203125,854.617188 46.875,810.09375 46.875,810.09375 C46.875,810.09375 19.2875903,712.200439 1.87548096,520.315674 Z M1.87548096,520.315674" id="Path 6" stroke="#979797" fill="#000000"></path>
            <path d="M2581.90158,117.351929 C2581.90158,117.351929 2573.90158,212.031615 2584.34689,224.476929 C2594.7922,236.922242 2790.22879,101.847031 2830.97189,90.6097415 C2871.71499,79.3724516 2893.86252,108.906616 2925.27657,117.351929 C2956.69063,125.797242 3041.96408,172.320679 3041.96408,172.320679 L3207.32345,259.812867 L3401.72189,247.000367 C3401.72189,247.000367 2925.43282,4.96130402 2847.86252,4.96130402 C2770.29221,4.96130402 2581.90158,117.351929 2581.90158,117.351929 Z M2581.90158,117.351929" id="Path 7" stroke="#979797" fill="#4A4A4A"></path>
            <path d="M1591.13477,950.115229 C1600.76367,1026.43359 1618.91797,1136.91211 1770.89062,1122.67969 C1905.08008,1109.77344 2037.72461,1115.73632 2176.98437,979.939448 C2235.98113,922.409732 2286.98243,820.826172 2305.24609,700.271487 C2323.50977,579.716803 2339.31752,675.230215 2318.22656,634.453125 C2281.63284,563.703125 2187.17188,573.117188 2187.17188,573.117188 C2187.17188,573.117188 2307.78905,587.929694 2260.29688,738.765625 C2240.31092,802.241383 2216.22478,864.501343 2179.57626,918.005108 C2129.13777,991.641067 2054.90441,1048.6916 1934.81641,1069.5 C1727.47266,1105.42773 1604.13281,1140.52539 1591.13477,950.115229 Z M1591.13477,950.115229" id="Path 9" fill="#EDEDED"></path>
            <use id="Path 8" fill="#EDEDED" xlink:href="#path-1"></use>
            <use id="Path 8-1" xlink:href="#path-1"></use>
            <path d="M2634.42365,685.510007 C2643.4427,756.994662 2660.44717,860.475897 2802.79447,847.144902 C2928.48489,835.056084 3052.72823,840.641299 3183.16782,713.445275 C3238.42795,659.559268 3286.19903,564.409616 3303.30594,451.490397 C3320.41286,338.571179 3335.21941,428.035142 3315.46428,389.840714 C3281.18826,323.571745 3192.71008,332.389557 3192.71008,332.389557 C3192.71008,332.389557 3305.68783,346.263897 3261.20363,487.546466 C3216.71944,628.829036 3150.54923,763.681193 2956.33783,797.333405 C2762.12643,830.985616 2646.59845,863.860327 2634.42365,685.510007 Z M2634.42365,685.510007" id="Path 9" fill="#EDEDED"></path>
            <path d="M43.4850794,801.274283 C43.4850794,801.274283 501.384756,694.292964 721.685551,677.169917 C941.986336,660.046865 942.369074,662.628904 1144.4394,691.056636 C1346.50971,719.48437 1314.33007,766.999993 1461.87497,749.320307 C1508.72902,743.705982 1557.95112,689.140558 1609.59565,663.830073 C1720.58138,609.437043 1840.97944,564.694069 1960.60937,548.1875 C2135.90622,523.999999 2192.74103,521.61386 2326.15705,530.773438 C2459.57306,539.933018 2400.55132,546.248814 2523.18146,530.773438 C2523.19884,530.771245 2523.21621,530.769055 2523.23357,530.766868 C2595.177,506.037859 2623.84176,470.687006 2693.44561,419.284942 C2784.74445,351.861252 2853.17582,320.917971 3028.47267,296.730469 C3203.76951,272.542968 3398.46875,267.686605 3519.4375,281.147543 C3522.92187,347.397543 3517.77612,332.932624 3509.10424,381.104499 C3472.29174,396.870124 3425.34289,408.781081 3425.34289,408.781081 C3425.34289,408.781081 3348.08864,458.271472 3302.1535,486.094375 C3308.9456,444.18926 3312.51873,397.999999 3274.83886,381.104499 C3237.15899,364.209 3190.63543,320.283767 2957.68237,364.532424 C2724.7293,408.781081 2642.23636,585.056631 2634.32227,646.369141 C2593.92098,640.548636 2487.45328,623.901653 2412.85861,663.502949 C2401.94743,670.56271 2394.2796,675.357912 2392.04127,676.751218 C2391.71995,676.995168 2391.39952,677.240567 2391.08005,677.487399 C2387.43695,681.507088 2349.44679,723.205096 2294.96882,774.498676 C2305.19572,696.265312 2306.87433,677.792652 2277.05671,633.175784 C2247.23907,588.558918 2154.21416,548.1875 1870.28643,618.865981 C1586.35866,689.544455 1585.40657,886.829296 1588.58979,922.345713 C1522.29102,882.804687 1505.61127,869.603526 1424.85932,881.320323 C1344.10737,893.037121 1240.47455,992.945323 1240.47455,992.945323 C1240.47455,992.945323 1300.29685,860.921885 1251.39841,816.773448 C1202.49997,772.62501 1035.08588,703.999993 774.36716,731.64062 C513.64844,759.281245 344.515628,852.03126 344.515628,852.03126 C344.515628,852.03126 285.839844,894.341797 308.05469,992.945323 C289.693865,997.106983 270.612736,1004.66537 261.855473,1004.36134 C237.445823,1003.5139 247.589066,981.655007 225.84375,963.203125 C196.297036,938.131402 155.236328,956.53126 76.8066407,941.65626 C41.2910157,877.335948 43.4850794,801.274283 43.4850794,801.274283 Z M43.4850794,801.274283" id="Path 1" fill="#000000"></path>
            <path d="M233.691401,487.255119 C250.394532,505.716056 249.377741,550.796265 240.815241,615.546265 C182.748841,554.891968 127.990062,507.863961 106.25,505.304688 C84.5099382,502.74541 93.8750007,533.820313 84.0234375,599.242188 C74.171875,664.664062 72.7062292,693.883598 72.7062292,693.883598 C72.7062292,693.883598 10.915831,543.794792 78.2302842,384.210808 C125.691222,395.460808 216.98827,468.794182 233.691401,487.255119 Z M233.691401,487.255119" id="Path 5" fill="#4A4A4A"></path>
        </g>
    </g>
</svg>