<?xml version="1.0" encoding="utf-8"?>
<!-- Generator: Adobe Illustrator 17.0.0, SVG Export Plug-In . SVG Version: 6.00 Build 0)  -->
<!DOCTYPE svg PUBLIC "-//W3C//DTD SVG 1.1//EN" "http://www.w3.org/Graphics/SVG/1.1/DTD/svg11.dtd">
<svg version="1.1" id="Layer_1" xmlns:sketch="http://www.bohemiancoding.com/sketch/ns"
	 xmlns="http://www.w3.org/2000/svg" xmlns:xlink="http://www.w3.org/1999/xlink" x="0px" y="0px" width="680px" height="340px"
	 viewBox="0 0 680 340" enable-background="new 0 0 680 340" xml:space="preserve">
<title>AwwRuler_Teaser</title>
<description>Created with Sketch (http://www.bohemiancoding.com/sketch)</description>
<g id="Page-1" sketch:type="MSPage">
	<g id="AwwRuler_Teaser" sketch:type="MSArtboardGroup">
		
			<rect id="Rectangle-4" x="252" y="186" sketch:type="MSShapeGroup" opacity="0.2377" fill="none" stroke="#979797" enable-background="new    " width="166" height="98">
		</rect>
		<g id="Imported-Layers" transform="translate(208.628988, 23.619719)" sketch:type="MSLayerGroup">
			<path id="Fill-4" sketch:type="MSShapeGroup" fill="none" stroke="#979797" d="M216.222,0H32.76C14.665,0,0,14.667,0,32.76
				v239.241c0,18.093,14.665,32.76,32.76,32.76h183.462c18.095,0,32.76-14.667,32.76-32.76V32.76
				C248.982,14.667,234.317,0,216.222,0z M145.24,51.995c0,1.809-1.466,3.274-3.274,3.274h-36.834c-1.809,0-3.274-1.466-3.274-3.274
				v-0.996c0-1.809,1.466-3.274,3.274-3.274h36.834c1.809,0,3.274,1.466,3.274,3.274V51.995L145.24,51.995L145.24,51.995
				L145.24,51.995z M127.72,26.94c1.626,1.626,1.626,4.263,0,5.887c-1.624,1.626-4.259,1.626-5.887,0
				c-1.624-1.624-1.624-4.261,0-5.887C123.461,25.316,126.096,25.316,127.72,26.94z M230.12,86.766V309.88H20.749V86.766H230.12z"/>
		</g>
		
			<rect id="Rectangle-4_1_" x="239" y="169" sketch:type="MSShapeGroup" opacity="0.2377" fill="none" stroke="#979797" enable-background="new    " width="191" height="113">
		</rect>
		<polyline fill="#FFFFFF" stroke="#98989C" points="675,262.504 616.501,204 9,204 9,338 675,338 675,262.504 		"/>
		<path id="Rectangle-2_3_" sketch:type="MSShapeGroup" fill="#FFFFFF" stroke="#98989C" d="M675,262.504"/>
		<path id="Rectangle-2_2_" sketch:type="MSShapeGroup" fill="#FFFFFF" stroke="#98989C" d="M615.5,204"/>
		<g id="Unknown" transform="translate(33.000000, 205.000000)" sketch:type="MSLayerGroup">
			<g id="Group" transform="translate(0.000000, 48.000000)" sketch:type="MSTextLayer">
				<text transform="matrix(1 0 0 1 0 11)" font-family="'Helvetica-Bold'" font-size="11.5909">0</text>
				<text transform="matrix(1 0 0 1 32 11)" font-family="'Helvetica-Bold'" font-size="11.5909">100</text>
				<text transform="matrix(1 0 0 1 66 11)" font-family="'Helvetica-Bold'" font-size="11.5909">200</text>
				<text transform="matrix(1 0 0 1 98 11)" font-family="'Helvetica-Bold'" font-size="11.5909">300</text>
				<text transform="matrix(1 0 0 1 131 11)" font-family="'Helvetica-Bold'" font-size="11.5909">400</text>
				<text transform="matrix(1 0 0 1 163 11)" font-family="'Helvetica-Bold'" font-size="11.5909">500</text>
				<text transform="matrix(1 0 0 1 196 11)" font-family="'Helvetica-Bold'" font-size="11.5909">600</text>
				<text transform="matrix(1 0 0 1 228 11)" font-family="'Helvetica-Bold'" font-size="11.5909">700</text>
				<text transform="matrix(1 0 0 1 262 11)" font-family="'Helvetica-Bold'" font-size="11.5909">800</text>
				<text transform="matrix(1 0 0 1 294 11)" font-family="'Helvetica-Bold'" font-size="11.5909">900</text>
				<text transform="matrix(1 0 0 1 327 11)" font-family="'Helvetica-Bold'" font-size="11.5909">1000</text>
				<text transform="matrix(1 0 0 1 359 11)" font-family="'Helvetica-Bold'" font-size="11.5909">1100</text>
				<text transform="matrix(1 0 0 1 392 11)" font-family="'Helvetica-Bold'" font-size="11.5909">1200</text>
				<text transform="matrix(1 0 0 1 425 11)" font-family="'Helvetica-Bold'" font-size="11.5909">1300</text>
				<text transform="matrix(1 0 0 1 457 11)" font-family="'Helvetica-Bold'" font-size="11.5909">1400</text>
				<text transform="matrix(1 0 0 1 490 11)" font-family="'Helvetica-Bold'" font-size="11.5909">1500</text>
				<text transform="matrix(1 0 0 1 522 11)" font-family="'Helvetica-Bold'" font-size="11.5909">1600</text>
				<text transform="matrix(1 0 0 1 550 11)" font-family="'Helvetica-Bold'" font-size="11.5909">px</text>
			</g>
			<g id="Group_1_" transform="translate(2.000000, 0.000000)" sketch:type="MSShapeGroup">
				<path id="Stroke-1" fill="none" stroke="#98989C" d="M0,42V0"/>
				<path id="Stroke-2" fill="none" stroke="#98989C" d="M33,42V0"/>
				<path id="Stroke-3" fill="none" stroke="#98989C" d="M66,42V0"/>
				<path id="Stroke-4" fill="none" stroke="#98989C" d="M98,42V0"/>
				<path id="Stroke-5" fill="none" stroke="#98989C" d="M131,42V0"/>
				<path id="Stroke-6" fill="none" stroke="#98989C" d="M163,42V0"/>
				<path id="Stroke-7" fill="none" stroke="#98989C" d="M196,42V0"/>
				<path id="Stroke-8" fill="none" stroke="#98989C" d="M229,42V0"/>
				<path id="Stroke-9" fill="none" stroke="#98989C" d="M262,42V0"/>
				<path id="Stroke-10" fill="none" stroke="#98989C" d="M294,42V0"/>
				<path id="Stroke-11" fill="none" stroke="#98989C" d="M327,42V0"/>
				<path id="Stroke-12" fill="none" stroke="#98989C" d="M359,42V0"/>
				<path id="Stroke-13" fill="none" stroke="#98989C" d="M392,42V0"/>
				<path id="Stroke-14" fill="none" stroke="#98989C" d="M425,42V0"/>
				<path id="Stroke-15" fill="none" stroke="#98989C" d="M456.5,42V0"/>
				<path id="Stroke-16" fill="none" stroke="#98989C" d="M490,42V0"/>
				<path id="Stroke-17" fill="none" stroke="#98989C" d="M522,42V0"/>
				<path id="Stroke-22" fill="none" stroke="#98989C" d="M16,21V0"/>
				<path id="Stroke-23" fill="none" stroke="#98989C" d="M50,21V0"/>
				<path id="Stroke-24" fill="none" stroke="#98989C" d="M82,21V0"/>
				<path id="Stroke-25" fill="none" stroke="#98989C" d="M115,21V0"/>
				<path id="Stroke-26" fill="none" stroke="#98989C" d="M147,21V0"/>
				<path id="Stroke-27" fill="none" stroke="#98989C" d="M179,21V0"/>
				<path id="Stroke-28" fill="none" stroke="#98989C" d="M213,21V0"/>
				<path id="Stroke-29" fill="none" stroke="#98989C" d="M245,21V0"/>
				<path id="Stroke-30" fill="none" stroke="#98989C" d="M278,21V0"/>
				<path id="Stroke-31" fill="none" stroke="#98989C" d="M310,21V0"/>
				<path id="Stroke-32" fill="none" stroke="#98989C" d="M343,21V0"/>
				<path id="Stroke-33" fill="none" stroke="#98989C" d="M375,21V0"/>
				<path id="Stroke-34" fill="none" stroke="#98989C" d="M409,21V0"/>
				<path id="Stroke-35" fill="none" stroke="#98989C" d="M441,21V0"/>
				<path id="Stroke-36" fill="none" stroke="#98989C" d="M474,21V0"/>
				<path id="Stroke-37" fill="none" stroke="#98989C" d="M506,21V0"/>
			</g>
		</g>
		
			<rect id="Rectangle-4_2_" x="229" y="110" sketch:type="MSShapeGroup" opacity="0.2377" fill="none" stroke="#979797" enable-background="new    " width="210" height="44">
		</rect>
		<text transform="matrix(1 0 0 1 247 312)" font-family="'Helvetica'" font-size="12">Pixel Ruler 320 dpi • </text>
		<text transform="matrix(1 0 0 1 358.5918 312)" font-family="'Helvetica-Bold'" font-size="12">Aww Apps</text>
		<polygon id="Rectangle-3" sketch:type="MSShapeGroup" fill="#EEEEEE" stroke="#98989C" points="617,204 675,262 617,262 		">
		</polygon>
	</g>
</g>
</svg>
