<?xml version="1.0" encoding="UTF-8" standalone="no"?>
<svg width="29px" height="29px" viewBox="0 0 29 29" version="1.1" xmlns="http://www.w3.org/2000/svg" xmlns:xlink="http://www.w3.org/1999/xlink" xmlns:sketch="http://www.bohemiancoding.com/sketch/ns">
    <title>RSS</title>
    <description>Created with Sketch (http://www.bohemiancoding.com/sketch)</description>
    <defs></defs>
    <g id="Page 1" stroke="none" stroke-width="1" fill="none" fill-rule="evenodd">
        <g id="Group" fill="#FFFFFF">
            <path d="M13.4310345,29 C13.4310345,21.5822445 7.41775552,15.5689655 0,15.5689655 L0,10 C10.4934102,10 19,18.5065898 19,29 Z M4.5,29 C2.0147185,29 0,26.9852815 0,24.5 C0,22.0147185 2.0147185,20 4.5,20 C6.9852815,20 9,22.0147185 9,24.5 C9,26.9852815 6.9852815,29 4.5,29 Z M23.2,29 C23.2,16.1869938 12.8130062,5.8 0,5.8 L0,0 C16.0162577,3.53241246e-15 29,12.9837423 29,29 Z M23.2,29" id="Oval"></path>
        </g>
    </g>
</svg>