<?xml version="1.0" encoding="UTF-8" standalone="no"?>
<svg width="800px" height="400px" viewBox="0 0 800 400" version="1.1" xmlns="http://www.w3.org/2000/svg" xmlns:xlink="http://www.w3.org/1999/xlink" xmlns:sketch="http://www.bohemiancoding.com/sketch/ns">
    <title>Teaser</title>
    <description>Created with Sketch (http://www.bohemiancoding.com/sketch)</description>
    <defs></defs>
    <g id="Page 1" stroke="none" stroke-width="1" fill="none" fill-rule="evenodd">
        <g id="Logo_Stick" transform="translate(0.000000, -112.000000)">
            <path d="M-15,-14 L-15,665 L859,665 L859,-14 L-15,-14 Z M-15,-14" id="Rectangle 10" stroke="#979797" fill="#F4F0E5"></path>
            <path d="M481.074154,347.603291 C481.770914,341.080396 487.292162,336 494,336 C501.179702,336 507,341.820298 507,349 C507,354.811422 503.186733,359.732207 497.925846,361.396709 C497.97486,360.937856 498,360.471864 498,360 C498,352.820298 492.179702,347 485,347 C483.63172,347 482.312812,347.211389 481.074154,347.603291 Z M481.074154,347.603291" id="Oval 8" fill="#F1EAD7"></path>
            <g id="Group" transform="translate(-27.000000, -31.000000)">
                <path d="M22,27 L22,260 C22,260 144.859375,220.794906 190.738281,220.794922 C236.617188,220.794937 224.50001,260 427.000021,260 C490.861371,260 479.710938,301.417969 568.910156,301.417969 C658.109375,301.417969 629.984401,260 705.246081,260 L896,260 L896,27 L22,27 Z M22,27" id="Rectangle 10" fill="#FFFFFF"></path>
                <path d="M0,0 L0,233 C0,233 86.4970784,185.363281 172.125,185.363281 C293.060433,185.363281 301.606932,233.000005 413.126708,233 C524.646484,233 469.599609,266.207031 578.505859,263.855469 C687.412109,261.503906 874,233 874,233 L874,0 L0,0 Z M0,0" id="Rectangle 10" fill="#3892E3"></path>
                <path d="M487.381301,436.544503 C484.339518,435.126096 482.171551,432.596688 481.135578,429.665953 L476.482467,419.687325 L471.829357,429.665953 C470.793383,432.596688 468.625417,435.126096 465.583633,436.544503 C463.930883,437.315193 462.192517,437.677471 460.482465,437.672667 C458.772413,437.67747 457.034049,437.315192 455.381301,436.544503 C452.339518,435.126096 450.171551,432.596688 449.135578,429.665953 L444.482467,419.687325 L439.829357,429.665953 C438.793383,432.596688 436.625417,435.126096 433.583633,436.544503 C431.930883,437.315193 430.192517,437.677471 428.482465,437.672667 C426.772413,437.67747 425.034049,437.315192 423.381301,436.544503 C420.339518,435.126096 418.171551,432.596688 417.135578,429.665953 L412.482467,419.687325 L407.324594,430.748421 C404.525044,436.752075 397.387781,439.345371 391.381301,436.544503 C391.237365,436.477385 391.095386,436.407779 390.955392,436.335761 C388.476566,435.186691 386.374119,433.189056 385.128214,430.517202 L368.982467,395.892537 L352.836721,430.517202 C350.0334,436.528944 342.893743,439.127372 336.887264,436.326504 C330.879463,433.525021 328.283172,426.38362 331.085334,420.374364 L357.696353,363.306849 C358.751098,360.436245 360.89645,357.966059 363.887264,356.571419 C365.537931,355.8017 367.274179,355.439752 368.98249,355.444357 C370.690776,355.439757 372.427013,355.801705 374.077671,356.571419 C377.068485,357.966059 379.213836,360.436245 380.268581,363.306849 L396.280313,397.644119 L401.135578,387.23197 C402.171551,384.301235 404.339518,381.771827 407.381301,380.35342 C409.034049,379.582731 410.772413,379.220453 412.482465,379.225257 C414.192517,379.220452 415.930883,379.58273 417.583633,380.35342 C420.625417,381.771827 422.793383,384.301235 423.829357,387.23197 L428.482467,397.210598 L433.135578,387.23197 C434.171551,384.301235 436.339518,381.771827 439.381301,380.35342 C441.034049,379.582731 442.772413,379.220453 444.482465,379.225257 C446.192517,379.220452 447.930883,379.58273 449.583633,380.35342 C452.625417,381.771827 454.793383,384.301235 455.829357,387.23197 L460.482467,397.210598 L465.135578,387.23197 C466.171551,384.301235 468.339518,381.771827 471.381301,380.35342 C473.034051,379.58273 474.772417,379.220452 476.482471,379.225257 C478.192521,379.220453 479.930885,379.582731 481.583633,380.35342 C484.625417,381.771827 486.793383,384.301235 487.829357,387.23197 L492.482467,397.210598 L497.640341,386.149503 C500.439891,380.145849 507.577154,377.552553 513.583633,380.35342 C519.591434,383.154904 522.190485,390.290386 519.391727,396.292341 L503.829357,429.665953 C502.793383,432.596688 500.625417,435.126096 497.583633,436.544503 C495.930885,437.315192 494.192521,437.67747 492.482471,437.672667 C490.772417,437.677471 489.034051,437.315193 487.381301,436.544503 Z M487.381301,436.544503" id="AwwApps Logo" fill="#EEE5CA"></path>
                <path d="M489.381301,441.544503 C486.339518,440.126096 484.171551,437.596688 483.135578,434.665953 L478.482467,424.687325 L473.829357,434.665953 C472.793383,437.596688 470.625417,440.126096 467.583633,441.544503 C465.930883,442.315193 464.192517,442.677471 462.482465,442.672667 C460.772413,442.67747 459.034049,442.315192 457.381301,441.544503 C454.339518,440.126096 452.171551,437.596688 451.135578,434.665953 L446.482467,424.687325 L441.829357,434.665953 C440.793383,437.596688 438.625417,440.126096 435.583633,441.544503 C433.930883,442.315193 432.192517,442.677471 430.482465,442.672667 C428.772413,442.67747 427.034049,442.315192 425.381301,441.544503 C422.339518,440.126096 420.171551,437.596688 419.135578,434.665953 L414.482467,424.687325 L409.324594,435.748421 C406.525044,441.752075 399.387781,444.345371 393.381301,441.544503 C393.237365,441.477385 393.095386,441.407779 392.955392,441.335761 C390.476566,440.186691 388.374119,438.189056 387.128214,435.517202 L370.982467,400.892537 L354.836721,435.517202 C352.0334,441.528944 344.893743,444.127372 338.887264,441.326504 C332.879463,438.525021 330.283172,431.38362 333.085334,425.374364 L359.696353,368.306849 C360.751098,365.436245 362.89645,362.966059 365.887264,361.571419 C367.537931,360.8017 369.274179,360.439752 370.98249,360.444357 C372.690776,360.439757 374.427013,360.801705 376.077671,361.571419 C379.068485,362.966059 381.213836,365.436245 382.268581,368.306849 L398.280313,402.644119 L403.135578,392.23197 C404.171551,389.301235 406.339518,386.771827 409.381301,385.35342 C411.034049,384.582731 412.772413,384.220453 414.482465,384.225257 C416.192517,384.220452 417.930883,384.58273 419.583633,385.35342 C422.625417,386.771827 424.793383,389.301235 425.829357,392.23197 L430.482467,402.210598 L435.135578,392.23197 C436.171551,389.301235 438.339518,386.771827 441.381301,385.35342 C443.034049,384.582731 444.772413,384.220453 446.482465,384.225257 C448.192517,384.220452 449.930883,384.58273 451.583633,385.35342 C454.625417,386.771827 456.793383,389.301235 457.829357,392.23197 L462.482467,402.210598 L467.135578,392.23197 C468.171551,389.301235 470.339518,386.771827 473.381301,385.35342 C475.034051,384.58273 476.772417,384.220452 478.482471,384.225257 C480.192521,384.220453 481.930885,384.582731 483.583633,385.35342 C486.625417,386.771827 488.793383,389.301235 489.829357,392.23197 L494.482467,402.210598 L499.640341,391.149503 C502.439891,385.145849 509.577154,382.552553 515.583633,385.35342 C521.591434,388.154904 524.190485,395.290386 521.391727,401.292341 L505.829357,434.665953 C504.793383,437.596688 502.625417,440.126096 499.583633,441.544503 C497.930885,442.315192 496.192521,442.67747 494.482471,442.672667 C492.772417,442.677471 491.034051,442.315193 489.381301,441.544503 Z M489.381301,441.544503" id="AwwApps Logo" opacity="0.303693182" fill="#FFFFFF"></path>
                <g transform="translate(763.930805, 383.089321) rotate(-354.000000) translate(-763.930805, -383.089321) translate(496.930805, 116.089321)">
                    <path d="M128.219097,213.731789 L130.719157,216.460764 L130.386109,219.331219 L125.827564,229.918907 L116.877877,241.560222 L113.373839,249.126747 L119.931992,239.206035 L127.294207,229.956254 L132.131757,218.473115 L131.660744,213.414997 L131.210821,209.565169 L128.894421,210.827501 L128.115404,212.668934 L128.219097,213.731789 Z M128.219097,213.731789" id="Path 7" fill="#322920"></path>
                    <path d="M121.747118,255.459885 C121.747118,255.459885 130.747118,238.130573 130.747118,230.674729 C130.747118,223.218884 126.717681,217.174729 121.747118,217.174729 C116.776555,217.174729 112.747118,223.218884 112.747118,230.674729 C112.747118,238.130573 121.747118,255.459885 121.747118,255.459885 Z M121.747118,255.459885" id="Oval 1" fill="#79CF19" transform="translate(121.747118, 236.317307) rotate(-328.000000) translate(-121.747118, -236.317307) "></path>
                    <g transform="translate(267.053968, 267.267113) rotate(-45.000000) translate(-267.053968, -267.267113) translate(58.053968, 99.267113)">
                        <path d="M13.1794586,16.1538353 L11.0246053,18.1877117 C11.0246053,18.1877117 14.6603437,21.2109721 16.7796721,22.103653 C18.8990007,22.9963338 23.9151531,23.6173305 23.9151531,23.6173305 L47.7336159,23.7690405 L92.9386193,33.9906412 L101.396734,37.5278785 L105.951455,37.5278785 L124.058551,37.0202776 L127.617462,37.8849102 L129.142546,39.626723 L156.72524,30.9621455 L160.986807,31.9032035 L180.620128,25.7697868 L194.919647,22.9466128 L210.733984,18.1877111 L225.834257,9.30640513 L224.968484,4.11518709 L219.668902,1 L216.834321,1 L205.011211,8.86382271 L194.973259,12.9736796 L185.931118,14.4884978 L174.076068,14.4884978 L169.089031,17.1599617 L165.811868,19.9181171 L155.039321,21.8116399 L150.030611,22.103653 L136.596866,26.5808077 L130.939111,28.2473358 L120.468843,28.4629236 L116.682938,26.7325176 L111.989055,28.1058919 L104.460591,27.8138788 L82.5242443,22.7629639 L66.7749261,19.4424551 L53.8487817,15.6132046 L44.6971354,14.5421095 L23.2364507,15.6234707 L16,14.8227159 L13.1794586,16.1538353 Z M13.1794586,16.1538353" id="Path 1" fill="#322920"></path>
                        <path d="M11.5774043,27.6283447 L16.0806525,20.9888275 L33.4392596,33.6540986 L39.8773625,40.2458134 L47.513038,51.3563862 L57.6628932,63.8482733 L71.5319927,81.5785617 L77.1989382,86.5433144 L81.711063,88.4299584 L83.5642838,92.1572836 L91.8368842,98.5788936 L97.2825656,100.844298 L110.540111,105.819026 L114.61638,108.744172 L118.903793,111.123736 L130.255783,113.486411 L122.781219,110.922623 L136.886217,106.855972 L153.890781,110.864249 L178.764544,130.012665 L203.327356,137.65965 L396.379781,195.45497 L402.750874,232.201063 L185.285188,166.295879 L160.329433,161.085527 L151.054814,161.327264 L127.486881,156.454959 L121.290318,155.628622 L117.04836,152.665656 L116.034701,148.720332 L119.327046,145.793 L124.482501,145.213216 L121.204121,144.199075 L111.902054,143.683337 L109.582436,138.988723 L110.194484,135.391077 L112.856483,133.52267 L109.363813,131.016211 L108.231212,127.253393 L109.628183,124.075656 L112.294997,123.006619 L118.546456,123.404378 L121.069196,123.577454 L112.887618,120.329664 L112.72409,120.124431 L111.647315,119.892447 L105.103043,119.550517 L101.856208,116.303682 L102.640715,113.94212 L83.2794104,106.291723 L83.1903556,103.978314 L80.9686939,101.066673 L66.5773935,90.0659885 L63.0377108,87.1996099 L58.6905764,79.1277959 L29.9923523,42.7356897 Z M11.5774043,27.6283447" id="Path 1" opacity="0.0285511364" fill="#322920"></path>
                        <g transform="translate(96.000000, 22.000000)" fill="#4E4138">
                            <path d="M10.283127,11.1948033 L7.30824313,8.20965327 L2.39763147,9.0856927 L0.213236273,11.9944174 L6.075172,14.6772881 L10.9207651,14.6020035 L10.283127,11.1948033 Z M10.283127,11.1948033" id="Path 2 copy"></path>
                            <path d="M10.283127,11.1948033 L7.30824313,8.20965327 L2.39763147,9.0856927 L0.213236273,11.9944174 L6.075172,14.6772881 L10.9207651,14.6020035 L10.283127,11.1948033 Z M10.283127,11.1948033" id="Path 2"></path>
                            <path d="M53.6915653,3.37432626 L56.8284252,6.00244455 L57.62918,3.89333399 L55.151631,1.56749493 L53.6915653,3.37432626 Z M53.6915653,3.37432626" id="Path 3"></path>
                            <path d="M52.9844585,2.66721947 L56.1213184,5.29533777 L56.9220732,3.18622721 L54.4445242,0.860388147 L52.9844585,2.66721947 Z M52.9844585,2.66721947" id="Path 3 copy"></path>
                            <path d="M34.897368,13.9259963 L32.2144972,15.5913837 L34.3886263,17.6902282 L37.568832,15.4408144 L37.568832,13.1799939 L34.897368,13.9259963 Z M34.897368,13.9259963" id="Path 4"></path>
                        </g>
                        <path d="M150.5,26 C151.328427,26 152,25.3284272 152,24.5 C152,23.6715728 151.328427,23 150.5,23 C149.671573,23 149,23.6715728 149,24.5 C149,25.3284272 149.671573,26 150.5,26 Z M150.5,26" id="Oval 2" fill="#A6866D"></path>
                        <path d="M116.5,29 C117.880712,29 119,28.5522848 119,28 C119,27.4477152 117.880712,27 116.5,27 C115.119288,27 114,27.4477152 114,28 C114,28.5522848 115.119288,29 116.5,29 Z M116.5,29" id="Oval 3" fill="#A6866D"></path>
                        <path d="M129.5,40 C130.328427,40 131,39.5522848 131,39 C131,38.4477152 130.328427,38 129.5,38 C128.671573,38 128,38.4477152 128,39 C128,39.5522848 128.671573,40 129.5,40 Z M129.5,40" id="Oval 4" fill="#A6866D"></path>
                        <path d="M172.5,18 C173.328427,18 174,17.3284272 174,16.5 C174,15.6715728 173.328427,15 172.5,15 C171.671573,15 171,15.6715728 171,16.5 C171,17.3284272 171.671573,18 172.5,18 Z M172.5,18" id="Oval 5" fill="#A6866D"></path>
                        <path d="M59,26 C60.1045696,26 61,25.1045696 61,24 C61,22.8954304 60.1045696,22 59,22 C57.8954304,22 57,22.8954304 57,24 C57,25.1045696 57.8954304,26 59,26 Z M59,26" id="Oval 6" fill="#A6866D"></path>
                        <path d="M104,38 C105.656854,38 107,36.6568543 107,35 C107,33.3431457 105.656854,32 104,32 C102.343146,32 101,33.3431457 101,35 C101,36.6568543 102.343146,38 104,38 Z M104,38" id="Oval 1" fill="#A6866D"></path>
                    </g>
                </g>
            </g>
            <g id="Group" transform="translate(669.087572, 134.308351) rotate(-315.000000) translate(-669.087572, -134.308351) translate(585.087572, -14.691649)">
                <path d="M107.770703,231.49177 L111.819135,262.620151 L121.008897,277.478473 L133.858194,284.576655 L130.385751,277.478469 L137.192466,287.863222 L144.567826,294.501727 L149.507204,297.047757 L152.459394,295.56789 L152.459394,290.976172 L148.073676,286.106892 L140.524658,274.411872 L140.686058,273.017159 L145.678557,278.745152 L149.817748,283.446859 L152.459394,284.576658 L155.694201,283.317466 L157.554045,279.855882 L156.856688,275.613858 L160.060169,276.175012 L163.036872,274.063875 L164.716248,269.104064 L158.503375,262.161828 L156.902316,259.126557 L160.957743,262.362045 L165.355718,262.620149 L167.428719,259.113618 L166.524335,254.018967 L162.727012,249.053027 L149.507206,228.942742 L142.778126,222.55553 L128.816018,201.224871 L21.6465601,0.851407148 L0.168191296,31.339862 L95.8094077,208.716003 L107.770703,231.49177 Z M107.770703,231.49177" id="Path 1" fill="#FFE3CC"></path>
                <path d="M130.066036,268.997922 L137.996421,279.769489 L144.156856,292.001146 L149.762947,295.404844 L152.094052,292.433589 L147.399155,287.306249 L141.167214,278.607682 L138.280404,271.110421 L132.333125,265.149523 L130.066036,268.997922 Z M130.066036,268.997922" id="Path 3" opacity="0.0344460227" fill="#4A4A4A"></path>
                <path d="M141.196027,265.621961 L152.704449,281.359468 L155.384232,279.41586 L155.900439,274.676016 L149.31369,264.68557 L143.54007,258.956896 L141.196027,265.621961 Z M141.196027,265.621961" id="Path 4" opacity="0.0344460227" fill="#4A4A4A"></path>
                <path d="M148.476547,256.496622 L158.990011,270.839416 L161.88295,270.749522 L154.263106,257.142221 L151.156329,250.923219 L148.476547,256.496622 Z M148.476547,256.496622" id="Path 5" opacity="0.0344460227" fill="#4A4A4A"></path>
                <path d="M107.638687,280.212668 L110.577254,282.060253 L110.667829,286.767409 L107.987365,287.116087 L107.638687,280.212668 Z M107.638687,280.212668" id="Path 6" opacity="0.295809659" fill="#FFFFFF"></path>
                <path d="M103.340268,210.401137 L115.313141,227.321562 L134.008964,229.259041 L151.148675,242.045723 L157.225345,255.943817 L165.155731,259.263069 L152.576076,235.490982 L133.543833,215.161411 L26.0715008,16.9877992 L10.354949,32.7043586 L103.340268,210.401137 Z M103.340268,210.401137" id="Path 2" opacity="0.0230113636" fill="#000000"></path>
            </g>
            <g id="Group" transform="translate(641.699665, 324.724323) rotate(-260.000000) translate(-641.699665, -324.724323) translate(639.699665, 320.724323)" fill="#FFFFFF" opacity="0.295809659">
                <path d="M0.638687079,0.212667769 L3.57725399,2.06025341 L3.66782859,6.76740857 L0.987365239,7.11608673 L0.638687079,0.212667769 Z M0.638687079,0.212667769" id="Path 6"></path>
            </g>
        </g>
    </g>
</svg>